<?xml version="1.0" encoding="UTF-8" standalone="no"?>
<!DOCTYPE svg PUBLIC "-//W3C//DTD SVG 1.1//EN" "http://www.w3.org/Graphics/SVG/1.1/DTD/svg11.dtd">
<svg width="100%" height="100%" viewBox="0 0 1182 1182" version="1.1" xmlns="http://www.w3.org/2000/svg" xmlns:xlink="http://www.w3.org/1999/xlink" xml:space="preserve" xmlns:serif="http://www.serif.com/" fill="#808080" style="fill-rule:evenodd;clip-rule:evenodd;stroke-linejoin:round;stroke-miterlimit:2;">
    <g transform="matrix(1.11031,-1.12555,0.996066,0.982579,-754.162,840.444)">
        <path d="M431.892,589.336L408.238,589.336L375.849,648.811L294.876,648.811L327.265,589.336L327.265,525.287L294.876,465.813L375.849,465.813L408.238,525.287L435.251,525.287C439.42,478.16 447.493,433.714 460.773,395.232C513.598,229.401 613.741,117.772 711.13,116.16C808.519,114.548 903.154,222.953 850.329,388.784C986.804,335.636 1078.03,424.531 1088.68,525.287L1103.93,525.287L1103.93,465.813L1209.2,557.312L1103.93,648.811L1103.93,589.336L1084.56,589.336C1062.22,685.794 969.09,778.314 839.313,828.852C731.083,874.631 570.805,860.789 449.757,835.299C438.399,760.801 430.241,673.265 431.892,589.336Z"/>
    </g>
</svg>
