<?xml version="1.0" encoding="UTF-8" standalone="no"?>
<!DOCTYPE svg PUBLIC "-//W3C//DTD SVG 1.1//EN" "http://www.w3.org/Graphics/SVG/1.1/DTD/svg11.dtd">
<svg width="100%" height="100%" viewBox="0 0 437 709" version="1.1" xmlns="http://www.w3.org/2000/svg" xmlns:xlink="http://www.w3.org/1999/xlink" xml:space="preserve" xmlns:serif="http://www.serif.com/" fill="#808080" style="fill-rule:evenodd;clip-rule:evenodd;stroke-linejoin:round;stroke-miterlimit:2;">
    <g transform="matrix(0.75,0,0,0.75,0,0)">
        <g transform="matrix(0.842943,0.0586775,-0.0586775,0.842943,-392.462,-85.5886)">
            <path d="M590.551,236.22C714.878,0 963.53,0 1087.86,118.11C1212.19,236.22 1212.19,472.441 1087.86,708.661C1000.9,885.684 777.402,1062.7 591.002,1180.81L575.877,1114.04L611.825,1055.52L533.242,971.925L653.624,817.267L537.422,706.916L666.164,561.454L514.85,415.992L590.551,236.22ZM675.476,1057.42C823.278,951.687 972.413,818.415 1038.63,683.62L1038.99,682.938C1107.53,552.712 1136.31,422.794 1122.6,316.008C1114.4,252.123 1090.83,197.105 1049.82,158.151C947.213,60.675 743.814,66.268 640.504,259.902L640.5,259.911L580.47,402.466L742.646,558.37L614.119,703.589L727.952,811.689L605.86,968.543L680.981,1048.46L675.476,1057.42Z"/>
        </g>
    </g>
</svg>
