<?xml version="1.0" encoding="UTF-8" standalone="no"?>
<!DOCTYPE svg PUBLIC "-//W3C//DTD SVG 1.1//EN" "http://www.w3.org/Graphics/SVG/1.1/DTD/svg11.dtd">
<svg width="100%" height="100%" viewBox="0 0 24 24" version="1.1" xmlns="http://www.w3.org/2000/svg" xmlns:xlink="http://www.w3.org/1999/xlink" xml:space="preserve" xmlns:serif="http://www.serif.com/" style="fill-rule:evenodd;clip-rule:evenodd;stroke-linejoin:round;stroke-miterlimit:2;">
    <g transform="matrix(0.025,0,0,0.025,0,24)">
        <path d="M581,-272C583.667,-224.667 569.167,-183.667 537.5,-149C505.833,-114.333 466.667,-97 420,-97L240,-97C178,-97 125.333,-118.667 82,-162C38.667,-205.333 17,-258 17,-320C17,-383.333 40.5,-436.333 87.5,-479C134.5,-521.667 190.333,-542.333 255,-541C267,-592.333 294.167,-633.667 336.5,-665C378.833,-696.333 426.667,-712 480,-712C544.667,-712 599.5,-689.5 644.5,-644.5C689.5,-599.5 712,-544.667 712,-480C712,-435.333 700.167,-394.333 676.5,-357C652.833,-319.667 621,-291.333 581,-272ZM375.127,-498.785C401.457,-478.188 422.415,-452.593 438,-422C474.213,-422 505.372,-409.979 531.477,-385.937C531.318,-386.291 531.159,-386.645 531,-387C548.333,-396.333 561.833,-409.333 571.5,-426C581.167,-442.667 586,-460.667 586,-480C586,-510 575.833,-535.167 555.5,-555.5C535.167,-575.833 510,-586 480,-586C454,-586 431,-577.667 411,-561C391.207,-544.506 379.249,-523.768 375.127,-498.785ZM240,-223L418,-223C428,-223 436.667,-226.667 444,-234C451.333,-241.333 455,-250 455,-260C455,-270.667 451.5,-279.667 444.5,-287C437.5,-294.333 428.667,-298 418,-298L355,-298L329,-359C321.667,-376.333 309.833,-390 293.5,-400C277.167,-410 259.333,-415 240,-415C213.333,-415 190.5,-405.833 171.5,-387.5C152.5,-369.167 143,-346.667 143,-320C143,-292.667 152.333,-269.667 171,-251C189.667,-232.333 212.667,-223 240,-223ZM417,-745L417,-951L543,-951L543,-745L417,-745ZM711,-623L623,-711L768,-857L856,-768L711,-623ZM745,-417L745,-543L951,-543L951,-417L745,-417ZM768,-103L623,-250L711,-338L857,-193L768,-103ZM249,-623L104,-768L193,-856L337,-711L249,-623Z" style="fill:rgb(128,128,128);"/>
    </g>
</svg>
