<?xml version="1.0" encoding="UTF-8" standalone="no"?>
<!DOCTYPE svg PUBLIC "-//W3C//DTD SVG 1.1//EN" "http://www.w3.org/Graphics/SVG/1.1/DTD/svg11.dtd">
<svg width="100%" height="100%" viewBox="0 0 284 284" version="1.1" xmlns="http://www.w3.org/2000/svg" xmlns:xlink="http://www.w3.org/1999/xlink" xml:space="preserve" xmlns:serif="http://www.serif.com/" style="fill-rule:evenodd;clip-rule:evenodd;stroke-linejoin:round;stroke-miterlimit:2;">
    <g transform="matrix(0.24,0,0,0.24,0,0)">
        <g transform="matrix(23.2586,0,0,23.2586,-3242.7,-8183.08)">
            <g transform="matrix(50,0,0,50,133.071,394.31)">
                <path d="M0.372,0.166C0.359,0.166 0.349,0.162 0.341,0.154C0.333,0.145 0.329,0.135 0.329,0.122C0.329,0.105 0.333,0.091 0.342,0.08C0.351,0.069 0.363,0.059 0.377,0.051C0.392,0.043 0.408,0.036 0.425,0.029C0.443,0.021 0.461,0.012 0.479,0.002C0.498,-0.008 0.514,-0.02 0.528,-0.036C0.542,-0.051 0.551,-0.071 0.557,-0.096C0.542,-0.076 0.52,-0.06 0.493,-0.049C0.465,-0.038 0.433,-0.032 0.397,-0.032C0.349,-0.032 0.306,-0.042 0.268,-0.062C0.23,-0.081 0.201,-0.108 0.179,-0.142C0.157,-0.176 0.146,-0.215 0.146,-0.258C0.146,-0.302 0.157,-0.342 0.177,-0.378C0.198,-0.413 0.226,-0.441 0.262,-0.461C0.298,-0.482 0.338,-0.492 0.383,-0.492C0.393,-0.492 0.401,-0.492 0.409,-0.49C0.417,-0.489 0.425,-0.487 0.435,-0.483C0.42,-0.507 0.41,-0.528 0.403,-0.547C0.396,-0.567 0.393,-0.586 0.393,-0.605C0.393,-0.652 0.404,-0.694 0.425,-0.73C0.446,-0.767 0.475,-0.796 0.511,-0.818C0.548,-0.839 0.589,-0.85 0.635,-0.85C0.681,-0.85 0.722,-0.839 0.758,-0.818C0.795,-0.796 0.824,-0.767 0.845,-0.73C0.866,-0.694 0.876,-0.652 0.876,-0.605C0.876,-0.586 0.873,-0.567 0.866,-0.547C0.86,-0.528 0.849,-0.507 0.835,-0.483C0.844,-0.487 0.853,-0.489 0.861,-0.49C0.868,-0.492 0.877,-0.492 0.887,-0.492C0.932,-0.492 0.972,-0.482 1.008,-0.461C1.043,-0.441 1.071,-0.413 1.092,-0.378C1.113,-0.342 1.123,-0.302 1.123,-0.258C1.123,-0.215 1.112,-0.176 1.091,-0.142C1.069,-0.108 1.039,-0.081 1.001,-0.062C0.964,-0.042 0.921,-0.032 0.872,-0.032C0.837,-0.032 0.805,-0.038 0.777,-0.049C0.75,-0.06 0.728,-0.076 0.713,-0.096C0.718,-0.071 0.728,-0.051 0.742,-0.036C0.756,-0.02 0.772,-0.008 0.79,0.002C0.808,0.012 0.826,0.021 0.845,0.029C0.862,0.036 0.878,0.043 0.892,0.051C0.907,0.059 0.918,0.069 0.927,0.08C0.936,0.091 0.94,0.105 0.94,0.122C0.94,0.135 0.937,0.145 0.929,0.154C0.921,0.162 0.91,0.166 0.897,0.166L0.372,0.166Z" style="fill-rule:nonzero;"/>
            </g>
        </g>
    </g>
</svg>
