<?xml version="1.0" encoding="UTF-8" standalone="no"?>
<!DOCTYPE svg PUBLIC "-//W3C//DTD SVG 1.1//EN" "http://www.w3.org/Graphics/SVG/1.1/DTD/svg11.dtd">
<svg width="100%" height="100%" viewBox="0 0 284 284" version="1.1" xmlns="http://www.w3.org/2000/svg" xmlns:xlink="http://www.w3.org/1999/xlink" xml:space="preserve" xmlns:serif="http://www.serif.com/" style="fill-rule:evenodd;clip-rule:evenodd;stroke-linejoin:round;stroke-miterlimit:2;">
    <path d="M68.389,283.456C61.133,283.456 56.388,278.432 56.388,271.175C56.388,266.43 57.504,262.523 60.016,259.453C62.528,256.383 65.877,253.592 69.785,251.359C73.971,249.126 78.437,247.172 83.182,245.218C88.206,242.986 93.229,240.474 98.253,237.683C108.859,232.101 116.674,224.286 120.023,210.331C111.65,221.495 95.462,228.193 75.367,228.193C34.77,228.193 5.312,200.941 5.312,165.116C5.312,128.014 33.912,99.806 71.459,99.806C77.041,99.806 80.391,100.085 85.973,102.318C77.6,88.921 74.25,78.873 74.25,68.267C74.25,28.516 103.469,-0.113 141.793,-0.113C180.233,-0.113 209.057,28.874 209.057,68.267C209.057,78.873 205.429,88.921 197.614,102.318C202.638,100.085 206.545,99.806 212.127,99.806C250.187,99.806 277.996,128.457 277.996,165.116C277.996,201.484 248.765,228.193 207.941,228.193C188.404,228.193 171.937,221.495 163.563,210.331C166.354,224.286 175.007,232.101 185.054,237.683C190.078,240.474 195.102,242.986 200.405,245.218C205.15,247.172 209.615,249.126 213.523,251.359C217.709,253.592 220.78,256.383 223.292,259.453C225.803,262.523 226.92,266.43 226.92,271.175C226.92,278.432 222.175,283.456 214.918,283.456L68.389,283.456ZM68.389,273.456L214.918,273.456C216.201,273.456 216.92,272.457 216.92,271.175C216.92,269.025 216.69,267.176 215.552,265.785C213.817,263.665 211.708,261.724 208.688,260.114L208.562,260.041C205.001,258.006 200.922,256.246 196.561,254.45L196.524,254.435C190.885,252.06 185.541,249.392 180.198,246.424C167.727,239.496 157.222,229.613 153.758,212.292L145.112,169.061L171.563,204.331C178.377,213.416 192.042,218.193 207.941,218.193C242.65,218.193 267.996,196.037 267.996,165.116C267.996,134.046 244.384,109.806 212.127,109.806C208.117,109.806 205.285,109.852 201.675,111.456L173.367,124.037L188.976,97.279C195.658,85.824 199.057,77.335 199.057,68.267C199.057,34.682 174.565,9.887 141.793,9.887C109.108,9.887 84.25,34.365 84.25,68.267C84.25,77.252 87.36,85.669 94.453,97.018L110.671,122.967L82.259,111.602C78.11,109.943 75.608,109.806 71.459,109.806C39.624,109.806 15.312,133.659 15.312,165.116C15.312,195.575 40.851,218.193 75.367,218.193C91.741,218.193 105.201,213.427 112.023,204.331L141.029,165.656L129.747,212.664C125.618,229.869 116.07,239.581 103.023,246.472C97.763,249.391 92.503,252.019 87.117,254.413L86.989,254.465C82.614,256.267 78.49,258.059 74.6,260.125C71.875,261.702 69.516,263.634 67.756,265.785C66.617,267.176 66.388,269.025 66.388,271.175C66.388,272.457 67.107,273.456 68.389,273.456Z" style="fill:rgb(128,128,128);"/>
</svg>
