<?xml version="1.0" encoding="UTF-8" standalone="no"?>
<!DOCTYPE svg PUBLIC "-//W3C//DTD SVG 1.1//EN" "http://www.w3.org/Graphics/SVG/1.1/DTD/svg11.dtd">
<svg width="100%" height="100%" viewBox="0 0 284 284" version="1.1" xmlns="http://www.w3.org/2000/svg" xmlns:xlink="http://www.w3.org/1999/xlink" xml:space="preserve" xmlns:serif="http://www.serif.com/" fill="#808080" style="fill-rule:evenodd;clip-rule:evenodd;stroke-linejoin:round;stroke-miterlimit:2;">
    <g transform="matrix(0.24,0,0,0.24,0,0)">
        <g transform="matrix(23.2586,0,0,23.2586,-3242.7,-8183.08)">
            <path d="M151.675,402.611C151.024,402.611 150.503,402.404 150.112,401.989C149.722,401.574 149.526,401.04 149.526,400.389C149.526,399.543 149.746,398.843 150.186,398.29C150.625,397.736 151.207,397.264 151.931,396.874C152.656,396.483 153.449,396.109 154.312,395.751C155.223,395.36 156.135,394.917 157.046,394.42C157.957,393.924 158.763,393.289 159.463,392.516C160.163,391.743 160.643,390.738 160.903,389.501C160.155,390.51 159.089,391.295 157.705,391.857C156.322,392.418 154.735,392.699 152.944,392.699C150.536,392.699 148.383,392.211 146.487,391.234C144.591,390.258 143.102,388.919 142.019,387.218C140.937,385.517 140.396,383.584 140.396,381.42C140.396,379.19 140.912,377.192 141.946,375.426C142.979,373.66 144.387,372.264 146.17,371.239C147.952,370.214 149.966,369.701 152.212,369.701C152.7,369.701 153.14,369.734 153.53,369.799C153.921,369.864 154.344,369.978 154.8,370.14C154.084,368.985 153.559,367.919 153.225,366.942C152.892,365.966 152.725,364.997 152.725,364.037C152.725,361.709 153.254,359.626 154.312,357.787C155.37,355.948 156.81,354.495 158.633,353.429C160.456,352.363 162.515,351.83 164.81,351.83C167.105,351.83 169.164,352.363 170.986,353.429C172.809,354.495 174.25,355.948 175.308,357.787C176.366,359.626 176.895,361.709 176.895,364.037C176.895,364.997 176.728,365.966 176.394,366.942C176.06,367.919 175.536,368.985 174.819,370.14C175.291,369.978 175.719,369.864 176.101,369.799C176.484,369.734 176.919,369.701 177.407,369.701C179.67,369.701 181.688,370.214 183.462,371.239C185.236,372.264 186.64,373.66 187.673,375.426C188.707,377.192 189.224,379.19 189.224,381.42C189.224,383.584 188.683,385.517 187.6,387.218C186.518,388.919 185.033,390.258 183.145,391.234C181.257,392.211 179.1,392.699 176.675,392.699C174.901,392.699 173.322,392.418 171.939,391.857C170.555,391.295 169.481,390.51 168.716,389.501C168.976,390.738 169.456,391.743 170.156,392.516C170.856,393.289 171.662,393.924 172.573,394.42C173.485,394.917 174.396,395.36 175.308,395.751C176.17,396.109 176.964,396.483 177.688,396.874C178.412,397.264 178.994,397.736 179.434,398.29C179.873,398.843 180.093,399.543 180.093,400.389C180.093,401.04 179.898,401.574 179.507,401.989C179.116,402.404 178.595,402.611 177.944,402.611L151.675,402.611ZM152.32,399.924L177.299,399.924C177.074,399.654 176.772,399.433 176.413,399.239C175.763,398.889 175.051,398.554 174.278,398.233C174.268,398.229 174.259,398.225 174.249,398.221C173.262,397.798 172.275,397.318 171.288,396.78C170.11,396.139 169.069,395.318 168.164,394.319C167.171,393.222 166.456,391.811 166.086,390.054C165.827,388.824 166.456,387.578 167.6,387.056C168.745,386.534 170.098,386.875 170.857,387.877C171.349,388.527 172.059,389.006 172.949,389.367C174.037,389.808 175.28,390.012 176.675,390.012C178.636,390.012 180.384,389.637 181.91,388.847C183.358,388.099 184.503,387.08 185.333,385.775C186.145,384.499 186.537,383.044 186.537,381.42C186.537,379.696 186.153,378.148 185.354,376.783C184.56,375.426 183.481,374.354 182.117,373.566C180.739,372.769 179.166,372.388 177.407,372.388C177.088,372.388 176.802,372.405 176.552,372.448C176.296,372.491 176.011,372.572 175.695,372.681C174.621,373.051 173.429,372.706 172.72,371.818C172.01,370.929 171.937,369.691 172.535,368.725C173.13,367.765 173.574,366.884 173.851,366.073C174.085,365.389 174.207,364.71 174.207,364.037C174.207,362.21 173.809,360.57 172.978,359.127C172.158,357.701 171.043,356.575 169.63,355.749C168.208,354.917 166.599,354.517 164.81,354.517C163.02,354.517 161.411,354.917 159.989,355.749C158.577,356.575 157.461,357.701 156.641,359.127C155.811,360.57 155.412,362.21 155.412,364.037C155.412,364.71 155.534,365.389 155.768,366.073C156.045,366.884 156.489,367.765 157.084,368.725C157.686,369.696 157.608,370.941 156.89,371.829C156.173,372.717 154.972,373.055 153.896,372.671C153.606,372.567 153.337,372.491 153.089,372.449C152.829,372.406 152.537,372.388 152.212,372.388C150.466,372.388 148.895,372.771 147.51,373.568C146.141,374.356 145.059,375.427 144.265,376.783C143.466,378.148 143.083,379.696 143.083,381.42C143.083,383.044 143.474,384.499 144.286,385.775C145.116,387.079 146.264,388.097 147.717,388.845C149.251,389.635 150.996,390.012 152.944,390.012C154.354,390.012 155.606,389.809 156.695,389.367C157.573,389.01 158.27,388.54 158.745,387.9C159.498,386.886 160.855,386.532 162.006,387.05C163.158,387.569 163.793,388.819 163.533,390.054C163.163,391.811 162.449,393.222 161.455,394.319C160.551,395.318 159.509,396.139 158.331,396.78C157.344,397.318 156.357,397.798 155.37,398.221C155.361,398.225 155.351,398.229 155.342,398.233C154.568,398.554 153.856,398.889 153.207,399.239C152.847,399.433 152.545,399.654 152.32,399.924Z"/>
        </g>
    </g>
</svg>
