<?xml version="1.0" encoding="UTF-8" standalone="no"?>
<!DOCTYPE svg PUBLIC "-//W3C//DTD SVG 1.1//EN" "http://www.w3.org/Graphics/SVG/1.1/DTD/svg11.dtd">
<svg width="100%" height="100%" viewBox="0 0 284 284" version="1.1" xmlns="http://www.w3.org/2000/svg" xmlns:xlink="http://www.w3.org/1999/xlink" xml:space="preserve" xmlns:serif="http://www.serif.com/" style="fill-rule:evenodd;clip-rule:evenodd;stroke-linejoin:round;stroke-miterlimit:2;">
    <path d="M68.389,283.456C61.133,283.456 56.388,278.432 56.388,271.175C56.388,266.43 57.504,262.523 60.016,259.453C62.528,256.383 65.877,253.592 69.785,251.359C73.971,249.126 78.437,247.172 83.182,245.218C88.206,242.986 93.229,240.474 98.253,237.683C108.859,232.101 116.674,224.286 120.023,210.331C111.65,221.495 95.462,228.193 75.367,228.193C34.77,228.193 5.312,200.941 5.312,165.116C5.312,128.014 33.912,99.806 71.459,99.806C77.041,99.806 80.391,100.085 85.973,102.318C77.6,88.921 74.25,78.873 74.25,68.267C74.25,28.516 103.469,-0.113 141.793,-0.113C180.233,-0.113 209.057,28.874 209.057,68.267C209.057,78.873 205.429,88.921 197.614,102.318C202.638,100.085 206.545,99.806 212.127,99.806C250.187,99.806 277.996,128.457 277.996,165.116C277.996,201.484 248.765,228.193 207.941,228.193C188.404,228.193 171.937,221.495 163.563,210.331C166.354,224.286 175.007,232.101 185.054,237.683C190.078,240.474 195.102,242.986 200.405,245.218C205.15,247.172 209.615,249.126 213.523,251.359C217.709,253.592 220.78,256.383 223.292,259.453C225.803,262.523 226.92,266.43 226.92,271.175C226.92,278.432 222.175,283.456 214.918,283.456L68.389,283.456Z" style="fill:rgb(128,128,128);fill-rule:nonzero;"/>
</svg>
