<?xml version="1.0" encoding="UTF-8" standalone="no"?>
<!DOCTYPE svg PUBLIC "-//W3C//DTD SVG 1.1//EN" "http://www.w3.org/Graphics/SVG/1.1/DTD/svg11.dtd">
<svg width="100%" height="100%" viewBox="0 0 284 284" version="1.1" xmlns="http://www.w3.org/2000/svg" xmlns:xlink="http://www.w3.org/1999/xlink" xml:space="preserve" xmlns:serif="http://www.serif.com/" style="fill-rule:evenodd;clip-rule:evenodd;stroke-linejoin:round;stroke-miterlimit:2;">
    <path d="M69.79,283.458C64.767,283.458 61.138,280.109 61.138,274.527C61.138,264.933 71.843,255.942 90.723,247.733C100.771,243.267 112.214,236.848 118.913,227.916C123.662,221.706 125.744,214.836 123.378,204.193C105.617,219.417 91.183,224.846 72.302,224.846C38.977,224.846 15.086,202.856 15.086,169.026C15.086,137.604 34.623,104.274 85.978,52.919C104.308,33.756 128.267,11.73 141.799,-0.111C155.754,12.1 178.739,34.038 197.62,52.919C248.975,104.274 268.512,137.604 268.512,169.026C268.512,202.856 245.176,224.846 211.017,224.846C192.957,224.846 178.548,219.417 159.941,204.193C158.727,215.114 160.057,221.754 164.406,227.916C171.663,236.848 182.827,243.267 192.875,247.733C212.037,256.064 222.181,265.223 222.181,274.527C222.181,280.109 218.832,283.458 213.808,283.458L69.79,283.458Z" style="fill:rgb(128,128,128);fill-rule:nonzero;"/>
</svg>
