<?xml version="1.0" encoding="UTF-8" standalone="no"?>
<!DOCTYPE svg PUBLIC "-//W3C//DTD SVG 1.1//EN" "http://www.w3.org/Graphics/SVG/1.1/DTD/svg11.dtd">
<svg width="100%" height="100%" viewBox="0 0 284 284" version="1.1" xmlns="http://www.w3.org/2000/svg" xmlns:xlink="http://www.w3.org/1999/xlink" xml:space="preserve" xmlns:serif="http://www.serif.com/" style="fill-rule:evenodd;clip-rule:evenodd;stroke-linejoin:round;stroke-miterlimit:2;">
    <g transform="matrix(0.24,0,0,0.24,0,0)">
        <g transform="matrix(23.2586,0,0,23.2586,-3428.28,-7518.06)">
            <g transform="matrix(50,0,0,50,141.051,365.718)">
                <path d="M0.377,0.166C0.368,0.166 0.36,0.163 0.355,0.157C0.349,0.151 0.346,0.144 0.346,0.134C0.346,0.123 0.35,0.112 0.358,0.101C0.366,0.09 0.378,0.08 0.393,0.069C0.409,0.059 0.429,0.048 0.452,0.038C0.47,0.03 0.489,0.02 0.507,0.009C0.525,-0.003 0.541,-0.017 0.553,-0.033C0.566,-0.05 0.572,-0.07 0.572,-0.094C0.572,-0.101 0.571,-0.109 0.569,-0.118C0.548,-0.1 0.528,-0.086 0.508,-0.075C0.489,-0.064 0.47,-0.056 0.45,-0.052C0.431,-0.047 0.409,-0.044 0.386,-0.044C0.346,-0.044 0.31,-0.053 0.279,-0.069C0.248,-0.086 0.224,-0.109 0.207,-0.139C0.189,-0.169 0.181,-0.204 0.181,-0.244C0.181,-0.277 0.188,-0.312 0.202,-0.349C0.217,-0.386 0.239,-0.425 0.268,-0.467C0.297,-0.508 0.333,-0.552 0.376,-0.599C0.392,-0.617 0.412,-0.637 0.435,-0.66C0.457,-0.683 0.481,-0.707 0.506,-0.731C0.531,-0.755 0.555,-0.778 0.577,-0.798C0.6,-0.819 0.619,-0.836 0.635,-0.85C0.651,-0.836 0.67,-0.819 0.692,-0.798C0.715,-0.778 0.739,-0.755 0.763,-0.731C0.788,-0.707 0.812,-0.683 0.835,-0.66C0.858,-0.637 0.877,-0.617 0.894,-0.599C0.937,-0.552 0.973,-0.508 1.002,-0.467C1.031,-0.425 1.053,-0.386 1.067,-0.349C1.082,-0.312 1.089,-0.277 1.089,-0.244C1.089,-0.204 1.08,-0.169 1.063,-0.139C1.046,-0.109 1.022,-0.086 0.991,-0.069C0.96,-0.053 0.924,-0.044 0.883,-0.044C0.861,-0.044 0.839,-0.047 0.82,-0.052C0.8,-0.056 0.78,-0.064 0.761,-0.075C0.742,-0.086 0.722,-0.1 0.7,-0.118C0.699,-0.109 0.698,-0.101 0.698,-0.094C0.698,-0.07 0.704,-0.05 0.716,-0.033C0.729,-0.017 0.744,-0.003 0.763,0.009C0.781,0.02 0.8,0.03 0.818,0.038C0.841,0.048 0.861,0.059 0.876,0.069C0.892,0.08 0.904,0.09 0.912,0.101C0.919,0.112 0.923,0.123 0.923,0.134C0.923,0.144 0.921,0.151 0.915,0.157C0.91,0.163 0.902,0.166 0.893,0.166L0.377,0.166Z" style="fill-rule:nonzero;"/>
            </g>
        </g>
    </g>
</svg>
