<?xml version="1.0" encoding="UTF-8" standalone="no"?>
<!DOCTYPE svg PUBLIC "-//W3C//DTD SVG 1.1//EN" "http://www.w3.org/Graphics/SVG/1.1/DTD/svg11.dtd">
<svg width="100%" height="100%" viewBox="0 0 284 284" version="1.1" xmlns="http://www.w3.org/2000/svg" xmlns:xlink="http://www.w3.org/1999/xlink" xml:space="preserve" xmlns:serif="http://www.serif.com/" style="fill-rule:evenodd;clip-rule:evenodd;stroke-linejoin:round;stroke-miterlimit:2;">
    <g transform="matrix(0.24,0,0,0.24,0,0)">
        <g transform="matrix(23.2586,0,0,23.2586,-3428.28,-7518.06)">
            <path d="M159.898,374.019C159.443,374.019 159.072,373.872 158.788,373.579C158.503,373.286 158.36,372.896 158.36,372.407C158.36,371.854 158.556,371.309 158.946,370.772C159.337,370.234 159.927,369.701 160.716,369.172C161.506,368.643 162.478,368.127 163.634,367.622C164.561,367.215 165.485,366.727 166.405,366.157C167.324,365.588 168.093,364.884 168.712,364.045C169.33,363.207 169.64,362.202 169.64,361.03C169.64,360.672 169.599,360.265 169.518,359.81C168.443,360.705 167.426,361.425 166.466,361.97C165.505,362.516 164.537,362.906 163.56,363.142C162.584,363.378 161.518,363.496 160.362,363.496C158.328,363.496 156.537,363.081 154.991,362.251C153.445,361.421 152.241,360.257 151.378,358.76C150.515,357.262 150.084,355.521 150.084,353.535C150.084,351.859 150.446,350.101 151.17,348.262C151.895,346.423 152.981,344.465 154.43,342.39C155.878,340.315 157.685,338.106 159.85,335.762C160.663,334.867 161.64,333.845 162.779,332.698C163.919,331.55 165.111,330.374 166.356,329.17C167.601,327.966 168.785,326.843 169.908,325.801C171.031,324.759 171.991,323.905 172.789,323.237C173.587,323.905 174.547,324.759 175.67,325.801C176.793,326.843 177.977,327.966 179.222,329.17C180.467,330.374 181.659,331.55 182.799,332.698C183.938,333.845 184.915,334.867 185.728,335.762C187.893,338.106 189.7,340.315 191.148,342.39C192.597,344.465 193.683,346.423 194.408,348.262C195.132,350.101 195.494,351.859 195.494,353.535C195.494,355.521 195.063,357.262 194.2,358.76C193.338,360.257 192.133,361.421 190.587,362.251C189.041,363.081 187.25,363.496 185.216,363.496C184.076,363.496 183.014,363.378 182.03,363.142C181.045,362.906 180.073,362.516 179.112,361.97C178.152,361.425 177.135,360.705 176.06,359.81C175.979,360.265 175.938,360.672 175.938,361.03C175.938,362.202 176.248,363.207 176.866,364.045C177.485,364.884 178.258,365.588 179.185,366.157C180.113,366.727 181.033,367.215 181.944,367.622C183.116,368.127 184.093,368.643 184.874,369.172C185.655,369.701 186.241,370.234 186.632,370.772C187.022,371.309 187.218,371.854 187.218,372.407C187.218,372.896 187.079,373.286 186.803,373.579C186.526,373.872 186.152,374.019 185.68,374.019L159.898,374.019ZM162.323,371.331L183.268,371.331C182.623,370.907 181.826,370.497 180.882,370.09C180.871,370.086 180.86,370.081 180.849,370.076C179.835,369.623 178.811,369.081 177.779,368.447C176.548,367.691 175.525,366.754 174.704,365.641C173.756,364.356 173.251,362.826 173.251,361.03C173.251,360.534 173.302,359.969 173.415,359.337C173.583,358.395 174.24,357.613 175.14,357.285C176.039,356.957 177.045,357.132 177.781,357.745C178.718,358.526 179.602,359.158 180.439,359.634C181.169,360.048 181.907,360.35 182.656,360.529C183.447,360.719 184.301,360.809 185.216,360.809C186.767,360.809 188.137,360.516 189.316,359.883C190.409,359.297 191.262,358.477 191.872,357.418C192.512,356.307 192.807,355.009 192.807,353.535C192.807,352.171 192.497,350.743 191.907,349.246C191.251,347.579 190.258,345.809 188.945,343.928C187.558,341.942 185.827,339.829 183.754,337.585L183.74,337.569C182.949,336.699 181.999,335.707 180.892,334.591C179.765,333.456 178.586,332.293 177.354,331.101C176.123,329.911 174.953,328.801 173.842,327.771C173.473,327.428 173.122,327.107 172.789,326.806C172.456,327.107 172.105,327.428 171.736,327.771C170.625,328.801 169.455,329.911 168.224,331.101C166.993,332.293 165.813,333.456 164.686,334.591C163.579,335.707 162.629,336.699 161.838,337.569L161.824,337.585C159.751,339.829 158.02,341.942 156.633,343.928C155.32,345.809 154.327,347.579 153.671,349.246C153.081,350.743 152.771,352.171 152.771,353.535C152.771,355.009 153.066,356.307 153.706,357.418C154.316,358.477 155.169,359.297 156.262,359.883C157.441,360.516 158.811,360.809 160.362,360.809C161.29,360.809 162.146,360.72 162.929,360.53C163.673,360.351 164.408,360.049 165.139,359.634C165.976,359.158 166.861,358.526 167.797,357.745C168.533,357.132 169.539,356.957 170.438,357.285C171.338,357.613 171.995,358.395 172.163,359.337C172.276,359.969 172.327,360.534 172.327,361.03C172.327,362.826 171.822,364.356 170.874,365.641C170.055,366.752 169.038,367.687 167.82,368.442C166.789,369.08 165.753,369.627 164.713,370.083L164.709,370.085C163.775,370.493 162.978,370.905 162.323,371.331Z"/>
        </g>
    </g>
</svg>
