<?xml version="1.0" encoding="UTF-8" standalone="no"?>
<!DOCTYPE svg PUBLIC "-//W3C//DTD SVG 1.1//EN" "http://www.w3.org/Graphics/SVG/1.1/DTD/svg11.dtd">
<svg width="100%" height="100%" viewBox="0 0 284 284" version="1.1" xmlns="http://www.w3.org/2000/svg" xmlns:xlink="http://www.w3.org/1999/xlink" xml:space="preserve" xmlns:serif="http://www.serif.com/" style="fill-rule:evenodd;clip-rule:evenodd;stroke-linejoin:round;stroke-miterlimit:2;">
    <path d="M69.79,283.458C64.767,283.458 61.138,280.109 61.138,274.527C61.138,264.933 71.843,255.942 90.723,247.733C100.771,243.267 112.214,236.848 118.913,227.916C123.662,221.706 125.744,214.836 123.378,204.193C105.617,219.417 91.183,224.846 72.302,224.846C38.977,224.846 15.086,202.856 15.086,169.026C15.086,137.604 34.623,104.274 85.978,52.919C104.308,33.756 128.267,11.73 141.799,-0.111C155.754,12.1 178.739,34.038 197.62,52.919C248.975,104.274 268.512,137.604 268.512,169.026C268.512,202.856 245.176,224.846 211.017,224.846C192.957,224.846 178.548,219.417 159.941,204.193C158.727,215.114 160.057,221.754 164.406,227.916C171.663,236.848 182.827,243.267 192.875,247.733C212.037,256.064 222.181,265.223 222.181,274.527C222.181,280.109 218.832,283.458 213.808,283.458L69.79,283.458ZM71.272,273.458L212.046,273.458C211.587,271.637 209.995,269.995 207.978,268.156C203.681,264.24 197.236,260.533 188.851,256.887L188.814,256.871C177.417,251.806 164.876,244.352 156.645,234.222L156.237,233.683C150.611,225.713 148.432,217.214 150.002,203.088L152.034,184.803L166.273,196.453C182.611,209.821 195.159,214.846 211.017,214.846C239.148,214.846 258.512,196.887 258.512,169.026C258.512,139.349 239.051,108.492 190.549,59.99C174.553,43.994 155.589,25.782 141.777,13.269C128.079,25.538 108.625,43.709 93.128,59.911L93.049,59.99C44.547,108.492 25.086,139.349 25.086,169.026C25.086,196.872 44.872,214.846 72.302,214.846C88.806,214.846 101.345,209.908 116.87,196.6L129.525,185.754L133.14,202.023C136.328,216.369 133.274,225.585 126.882,233.957C119.202,244.171 106.283,251.76 94.748,256.887L94.71,256.904C86.44,260.499 79.903,264.168 75.491,268.087C73.415,269.931 71.743,271.58 71.272,273.458Z" style="fill:rgb(128,128,128);"/>
</svg>
