<?xml version="1.0" encoding="UTF-8" standalone="no"?>
<!DOCTYPE svg PUBLIC "-//W3C//DTD SVG 1.1//EN" "http://www.w3.org/Graphics/SVG/1.1/DTD/svg11.dtd">
<svg width="100%" height="100%" viewBox="0 0 284 284" version="1.1" xmlns="http://www.w3.org/2000/svg" xmlns:xlink="http://www.w3.org/1999/xlink" xml:space="preserve" xmlns:serif="http://www.serif.com/" fill="#808080" style="fill-rule:evenodd;clip-rule:evenodd;stroke-linejoin:round;stroke-miterlimit:2;">
    <path d="M141.732,283.465C126.196,283.465 111.387,281.034 97.305,276.174C83.222,271.313 70.253,264.476 58.396,255.663C46.54,246.85 36.251,236.516 27.529,224.659C18.807,212.803 12.038,199.833 7.223,185.751C2.408,171.669 -0,156.996 -0,141.732C-0,126.469 2.408,111.796 7.223,97.714C12.038,83.631 18.807,70.662 27.529,58.805C36.251,46.949 46.54,36.614 58.396,27.801C70.253,18.988 83.222,12.152 97.305,7.291C111.387,2.43 126.196,0 141.732,0C157.268,0 172.078,2.43 186.16,7.291C200.242,12.152 213.212,18.988 225.068,27.801C236.925,36.614 247.214,46.949 255.936,58.805C264.658,70.662 271.426,83.631 276.242,97.714C281.057,111.796 283.465,126.469 283.465,141.732C283.465,156.996 281.057,171.669 276.242,185.751C271.426,199.833 264.658,212.803 255.936,224.659C247.214,236.516 236.925,246.85 225.068,255.663C213.212,264.476 200.242,271.313 186.16,276.174C172.078,281.034 157.268,283.465 141.732,283.465ZM107.117,217.777C114.476,217.777 120.109,213.28 124.016,204.285L137.508,174.167C138.78,171.26 140.142,169.806 141.596,169.806C142.323,169.806 143.004,170.079 143.64,170.624C144.276,171.169 145.003,172.35 145.821,174.167L159.313,204.285C163.31,213.28 168.943,217.777 176.211,217.777C183.48,217.777 189.113,213.28 193.11,204.285L206.738,174.167C207.556,172.35 208.26,171.169 208.851,170.624C209.441,170.079 210.1,169.806 210.827,169.806C212.371,169.806 213.78,171.26 215.051,174.167L234.267,215.597L249.122,208.646L229.088,166.672C226.363,161.039 223.592,156.996 220.775,154.543C217.959,152.09 214.643,150.863 210.827,150.863C207.102,150.863 203.831,151.931 201.015,154.066C198.198,156.201 195.745,159.631 193.655,164.355L180.027,194.473C179.119,196.381 178.415,197.63 177.915,198.221C177.415,198.811 176.847,199.107 176.211,199.107C175.575,199.107 175.008,198.811 174.508,198.221C174.008,197.63 173.304,196.381 172.396,194.473L159.994,166.672C157.45,161.039 154.747,156.996 151.885,154.543C149.023,152.09 145.594,150.863 141.596,150.863C137.689,150.863 134.305,152.09 131.443,154.543C128.581,156.996 125.878,161.039 123.334,166.672L110.933,194.473C110.115,196.29 109.456,197.517 108.957,198.153C108.457,198.789 107.844,199.107 107.117,199.107C106.481,199.107 105.913,198.811 105.413,198.221C104.914,197.63 104.21,196.381 103.301,194.473L89.673,164.355C87.674,159.812 85.244,156.428 82.382,154.202C79.52,151.976 76.227,150.863 72.502,150.863C68.595,150.863 65.256,152.09 62.485,154.543C59.714,156.996 56.965,161.039 54.24,166.672L34.07,208.646L49.061,215.597L68.141,174.167C69.503,171.26 70.957,169.806 72.502,169.806C73.228,169.806 73.887,170.079 74.478,170.624C75.068,171.169 75.772,172.35 76.59,174.167L90.218,204.285C94.216,213.28 99.849,217.777 107.117,217.777ZM107.117,132.601C114.476,132.601 120.109,128.104 124.016,119.11L137.508,88.992C138.78,86.084 140.142,84.631 141.596,84.631C142.323,84.631 143.004,84.903 143.64,85.448C144.276,85.993 145.003,87.174 145.821,88.992L159.313,119.11C163.31,128.104 168.943,132.601 176.211,132.601C183.48,132.601 189.113,128.104 193.11,119.11L206.738,88.992C207.556,87.174 208.26,85.993 208.851,85.448C209.441,84.903 210.1,84.631 210.827,84.631C212.371,84.631 213.78,86.084 215.051,88.992L234.267,130.421L249.122,123.471L229.088,81.496C226.363,75.863 223.592,71.82 220.775,69.367C217.959,66.914 214.643,65.687 210.827,65.687C207.102,65.687 203.831,66.755 201.015,68.89C198.198,71.025 195.745,74.455 193.655,79.179L180.027,109.297C179.119,111.205 178.415,112.455 177.915,113.045C177.415,113.636 176.847,113.931 176.211,113.931C175.575,113.931 175.008,113.636 174.508,113.045C174.008,112.455 173.304,111.205 172.396,109.297L159.994,81.496C157.45,75.863 154.747,71.82 151.885,69.367C149.023,66.914 145.594,65.687 141.596,65.687C137.689,65.687 134.305,66.914 131.443,69.367C128.581,71.82 125.878,75.863 123.334,81.496L110.933,109.297C110.115,111.114 109.456,112.341 108.957,112.977C108.457,113.613 107.844,113.931 107.117,113.931C106.481,113.931 105.913,113.636 105.413,113.045C104.914,112.455 104.21,111.205 103.301,109.297L89.673,79.179C87.674,74.637 85.244,71.252 82.382,69.026C79.52,66.8 76.227,65.687 72.502,65.687C68.595,65.687 65.256,66.914 62.485,69.367C59.714,71.82 56.965,75.863 54.24,81.496L34.07,123.471L49.061,130.421L68.141,88.992C69.503,86.084 70.957,84.631 72.502,84.631C73.228,84.631 73.887,84.903 74.478,85.448C75.068,85.993 75.772,87.174 76.59,88.992L90.218,119.11C94.216,128.104 99.849,132.601 107.117,132.601Z" style="fill-rule:nonzero;"/>
</svg>
