<?xml version="1.0" encoding="UTF-8" standalone="no"?>
<!DOCTYPE svg PUBLIC "-//W3C//DTD SVG 1.1//EN" "http://www.w3.org/Graphics/SVG/1.1/DTD/svg11.dtd">
<svg width="100%" height="100%" viewBox="0 0 284 284" version="1.1" xmlns="http://www.w3.org/2000/svg" xmlns:xlink="http://www.w3.org/1999/xlink" xml:space="preserve" xmlns:serif="http://www.serif.com/" style="fill-rule:evenodd;clip-rule:evenodd;stroke-linejoin:round;stroke-miterlimit:2;">
    <path d="M96.192,241.872C86.621,241.872 79.203,235.95 73.939,224.105L55.993,184.444C53.885,179.762 52.564,178.701 50.609,178.701C48.575,178.701 46.66,180.616 44.867,184.444L19.741,239.001L0,229.848L26.561,174.574C33.738,159.739 40.319,153.756 50.609,153.756C60.42,153.756 67.956,159.558 73.221,171.523L91.167,211.184C93.478,216.035 94.455,217.286 96.192,217.286C98.111,217.286 99.067,215.96 101.217,211.184L117.548,174.574C124.248,159.739 131.306,153.756 141.596,153.756C152.126,153.756 159.123,159.739 165.823,174.574L182.155,211.184C184.463,216.035 185.441,217.286 187.179,217.286C188.916,217.286 189.896,216.035 192.204,211.184L210.15,171.523C215.655,159.082 222.953,153.756 232.763,153.756C242.813,153.756 249.633,159.739 256.81,174.574L283.192,229.848L263.63,239.001L238.325,184.444C236.652,180.616 234.796,178.701 232.763,178.701C230.805,178.701 229.486,179.762 227.378,184.444L209.432,224.105C204.169,235.95 196.751,241.872 187.179,241.872C177.608,241.872 170.19,235.95 164.927,224.105L147.16,184.444C145.052,179.762 143.554,178.701 141.596,178.701C139.681,178.701 137.888,180.616 136.213,184.444L118.446,224.105C113.301,235.95 105.883,241.872 96.192,241.872ZM96.192,129.708C86.621,129.708 79.203,123.786 73.939,111.942L55.993,72.281C53.885,67.596 52.564,66.538 50.609,66.538C48.575,66.538 46.66,68.452 44.867,72.281L19.741,126.837L0,117.685L26.561,62.41C33.738,47.574 40.319,41.592 50.609,41.592C60.42,41.592 67.956,47.397 73.221,59.359L91.167,99.02C93.478,103.87 94.455,105.122 96.192,105.122C98.111,105.122 99.067,103.796 101.217,99.02L117.548,62.41C124.248,47.574 131.306,41.592 141.596,41.592C152.126,41.592 159.123,47.574 165.823,62.41L182.155,99.02C184.463,103.87 185.441,105.122 187.179,105.122C188.916,105.122 189.896,103.87 192.204,99.02L210.15,59.359C215.655,46.917 222.953,41.592 232.763,41.592C242.813,41.592 249.633,47.574 256.81,62.41L283.192,117.685L263.63,126.837L238.325,72.281C236.652,68.452 234.796,66.538 232.763,66.538C230.805,66.538 229.486,67.596 227.378,72.281L209.432,111.942C204.169,123.786 196.751,129.708 187.179,129.708C177.608,129.708 170.19,123.786 164.927,111.942L147.16,72.281C145.052,67.596 143.554,66.538 141.596,66.538C139.681,66.538 137.888,68.452 136.213,72.281L118.446,111.942C113.301,123.786 105.883,129.708 96.192,129.708Z" style="fill:rgb(128,128,128);"/>
</svg>
