<?xml version="1.0" encoding="UTF-8" standalone="no"?>
<!DOCTYPE svg PUBLIC "-//W3C//DTD SVG 1.1//EN" "http://www.w3.org/Graphics/SVG/1.1/DTD/svg11.dtd">
<svg width="100%" height="100%" viewBox="0 0 284 284" version="1.1" xmlns="http://www.w3.org/2000/svg" xmlns:xlink="http://www.w3.org/1999/xlink" xml:space="preserve" xmlns:serif="http://www.serif.com/" style="fill-rule:evenodd;clip-rule:evenodd;stroke-linejoin:round;stroke-miterlimit:2;">
    <path d="M96.285,241.969C86.704,241.969 79.279,236.041 74.01,224.185L56.046,184.485C54.968,182.09 54.04,180.534 53.262,179.815C52.483,179.096 51.615,178.737 50.657,178.737C48.621,178.737 46.705,180.653 44.909,184.485L19.76,239.095L0,229.933L26.586,174.606C30.179,167.181 33.801,161.851 37.454,158.618C41.107,155.385 45.508,153.768 50.657,153.768C55.567,153.768 59.908,155.235 63.681,158.169C67.453,161.103 70.657,165.564 73.291,171.552L91.255,211.251C92.452,213.766 93.38,215.413 94.039,216.191C94.698,216.97 95.446,217.359 96.285,217.359C97.243,217.359 98.051,216.94 98.71,216.101C99.368,215.263 100.237,213.646 101.314,211.251L117.661,174.606C121.014,167.181 124.577,161.851 128.349,158.618C132.122,155.385 136.583,153.768 141.732,153.768C147.002,153.768 151.522,155.385 155.295,158.618C159.067,161.851 162.63,167.181 165.983,174.606L182.33,211.251C183.527,213.766 184.456,215.413 185.114,216.191C185.773,216.97 186.521,217.359 187.36,217.359C188.198,217.359 188.946,216.97 189.605,216.191C190.264,215.413 191.192,213.766 192.389,211.251L210.353,171.552C213.107,165.324 216.341,160.804 220.053,157.989C223.766,155.175 228.077,153.768 232.987,153.768C238.017,153.768 242.388,155.385 246.1,158.618C249.813,161.851 253.465,167.181 257.058,174.606L283.465,229.933L263.884,239.095L238.556,184.485C236.879,180.653 235.023,178.737 232.987,178.737C232.029,178.737 231.161,179.096 230.382,179.815C229.604,180.534 228.676,182.09 227.598,184.485L209.634,224.185C204.365,236.041 196.94,241.969 187.36,241.969C177.779,241.969 170.354,236.041 165.085,224.185L147.301,184.485C146.223,182.09 145.265,180.534 144.427,179.815C143.589,179.096 142.69,178.737 141.732,178.737C139.816,178.737 138.02,180.653 136.343,184.485L118.559,224.185C113.41,236.041 105.985,241.969 96.285,241.969ZM96.285,129.697C86.704,129.697 79.279,123.769 74.01,111.913L56.046,72.213C54.968,69.818 54.04,68.261 53.262,67.543C52.483,66.824 51.615,66.465 50.657,66.465C48.621,66.465 46.705,68.381 44.909,72.213L19.76,126.823L0,117.661L26.586,62.333C30.179,54.909 33.801,49.579 37.454,46.346C41.107,43.112 45.508,41.496 50.657,41.496C55.567,41.496 59.908,42.963 63.681,45.897C67.453,48.831 70.657,53.292 73.291,59.28L91.255,98.979C92.452,101.494 93.38,103.141 94.039,103.919C94.698,104.697 95.446,105.087 96.285,105.087C97.243,105.087 98.051,104.668 98.71,103.829C99.368,102.991 100.237,101.374 101.314,98.979L117.661,62.333C121.014,54.909 124.577,49.579 128.349,46.346C132.122,43.112 136.583,41.496 141.732,41.496C147.002,41.496 151.522,43.112 155.295,46.346C159.067,49.579 162.63,54.909 165.983,62.333L182.33,98.979C183.527,101.494 184.456,103.141 185.114,103.919C185.773,104.697 186.521,105.087 187.36,105.087C188.198,105.087 188.946,104.697 189.605,103.919C190.264,103.141 191.192,101.494 192.389,98.979L210.353,59.28C213.107,53.052 216.341,48.531 220.053,45.717C223.766,42.903 228.077,41.496 232.987,41.496C238.017,41.496 242.388,43.112 246.1,46.346C249.813,49.579 253.465,54.909 257.058,62.333L283.465,117.661L263.884,126.823L238.556,72.213C236.879,68.381 235.023,66.465 232.987,66.465C232.029,66.465 231.161,66.824 230.382,67.543C229.604,68.261 228.676,69.818 227.598,72.213L209.634,111.913C204.365,123.769 196.94,129.697 187.36,129.697C177.779,129.697 170.354,123.769 165.085,111.913L147.301,72.213C146.223,69.818 145.265,68.261 144.427,67.543C143.589,66.824 142.69,66.465 141.732,66.465C139.816,66.465 138.02,68.381 136.343,72.213L118.559,111.913C113.41,123.769 105.985,129.697 96.285,129.697Z"/>
</svg>
