<?xml version="1.0" encoding="UTF-8" standalone="no"?>
<!DOCTYPE svg PUBLIC "-//W3C//DTD SVG 1.1//EN" "http://www.w3.org/Graphics/SVG/1.1/DTD/svg11.dtd">
<svg width="100%" height="100%" viewBox="0 0 284 284" version="1.1" xmlns="http://www.w3.org/2000/svg" xmlns:xlink="http://www.w3.org/1999/xlink" xml:space="preserve" xmlns:serif="http://www.serif.com/" style="fill-rule:evenodd;clip-rule:evenodd;stroke-linejoin:round;stroke-miterlimit:2;">
    <path d="M141.732,283.465C63.267,283.465 0,217.294 0,141.732C0,64.646 64.374,0 141.732,0C220.197,0 283.465,66.175 283.465,141.732C283.465,218.823 219.09,283.465 141.732,283.465ZM107.117,217.777C114.476,217.777 120.109,213.28 124.016,204.285L137.508,174.167C138.78,171.26 140.142,169.806 141.596,169.806C143.083,169.806 144.22,170.611 145.821,174.167L159.313,204.285C163.31,213.28 168.943,217.777 176.211,217.777C183.48,217.777 189.113,213.28 193.11,204.285L206.738,174.167C208.339,170.611 209.34,169.806 210.827,169.806C212.371,169.806 213.78,171.26 215.051,174.167L234.267,215.597L249.122,208.646L229.088,166.672C223.638,155.406 218.459,150.863 210.827,150.863C203.377,150.863 197.835,154.907 193.655,164.355L180.027,194.473C178.274,198.156 177.531,199.107 176.211,199.107C174.891,199.107 174.149,198.156 172.396,194.473L159.994,166.672C154.906,155.406 149.592,150.863 141.596,150.863C133.782,150.863 128.422,155.406 123.334,166.672L110.933,194.473C109.3,198.1 108.574,199.107 107.117,199.107C105.797,199.107 105.056,198.156 103.301,194.473L89.673,164.355C85.675,155.269 79.952,150.863 72.502,150.863C64.688,150.863 59.69,155.406 54.24,166.672L34.07,208.646L49.061,215.597L68.141,174.167C69.503,171.26 70.957,169.806 72.502,169.806C73.987,169.806 74.989,170.611 76.59,174.167L90.218,204.285C94.216,213.28 99.849,217.777 107.117,217.777ZM107.117,132.601C114.476,132.601 120.109,128.104 124.016,119.11L137.508,88.992C138.78,86.084 140.142,84.631 141.596,84.631C143.083,84.631 144.22,85.434 145.821,88.992L159.313,119.11C163.31,128.104 168.943,132.601 176.211,132.601C183.48,132.601 189.113,128.104 193.11,119.11L206.738,88.992C208.339,85.434 209.34,84.631 210.827,84.631C212.371,84.631 213.78,86.084 215.051,88.992L234.267,130.421L249.122,123.471L229.088,81.496C223.638,70.23 218.459,65.687 210.827,65.687C203.377,65.687 197.835,69.731 193.655,79.179L180.027,109.297C178.274,112.98 177.531,113.931 176.211,113.931C174.891,113.931 174.149,112.98 172.396,109.297L159.994,81.496C154.906,70.23 149.592,65.687 141.596,65.687C133.782,65.687 128.422,70.23 123.334,81.496L110.933,109.297C109.3,112.924 108.574,113.931 107.117,113.931C105.797,113.931 105.056,112.98 103.301,109.297L89.673,79.179C85.675,70.095 79.952,65.687 72.502,65.687C64.688,65.687 59.69,70.23 54.24,81.496L34.07,123.471L49.061,130.421L68.141,88.992C69.503,86.084 70.957,84.631 72.502,84.631C73.987,84.631 74.989,85.434 76.59,88.992L90.218,119.11C94.216,128.104 99.849,132.601 107.117,132.601Z" style="fill:rgb(128,128,128);fill-rule:nonzero;"/>
</svg>
