<?xml version="1.0" encoding="UTF-8" standalone="no"?>
<!DOCTYPE svg PUBLIC "-//W3C//DTD SVG 1.1//EN" "http://www.w3.org/Graphics/SVG/1.1/DTD/svg11.dtd">
<svg width="100%" height="100%" viewBox="0 0 284 284" version="1.1" xmlns="http://www.w3.org/2000/svg" xmlns:xlink="http://www.w3.org/1999/xlink" xml:space="preserve" xmlns:serif="http://www.serif.com/" style="fill-rule:evenodd;clip-rule:evenodd;stroke-linejoin:round;stroke-miterlimit:2;">
    <path d="M130.644,254.413L109.474,120.342C103.562,82.44 89.717,65.1 65.523,65.1C42.673,65.1 25.269,84.119 24.192,108.044L0,108.044C1.212,70.395 29.305,40.908 65.523,40.908C102.694,40.908 126.156,64.4 133.668,116.713L141.732,173.568L149.797,116.713C157.306,64.4 180.771,40.908 217.942,40.908C254.724,40.908 282.259,70.732 283.465,108.044L259.271,108.044C258.197,84.119 241.059,65.1 217.942,65.1C193.748,65.1 180.173,82.44 173.99,120.342L152.821,254.413L130.644,254.413Z" style="fill:rgb(128,128,128);"/>
</svg>
