<?xml version="1.0" encoding="UTF-8" standalone="no"?>
<!DOCTYPE svg PUBLIC "-//W3C//DTD SVG 1.1//EN" "http://www.w3.org/Graphics/SVG/1.1/DTD/svg11.dtd">
<svg width="100%" height="100%" viewBox="0 0 284 284" version="1.1" xmlns="http://www.w3.org/2000/svg" xmlns:xlink="http://www.w3.org/1999/xlink" xml:space="preserve" xmlns:serif="http://www.serif.com/" fill="#808080" style="fill-rule:evenodd;clip-rule:evenodd;stroke-linejoin:round;stroke-miterlimit:2;">
    <path d="M141.732,283.465C126.196,283.465 111.387,281.034 97.305,276.174C83.222,271.313 70.253,264.476 58.396,255.663C46.54,246.85 36.251,236.516 27.529,224.659C18.807,212.803 12.038,199.833 7.223,185.751C2.408,171.669 0,156.996 0,141.732C0,126.469 2.408,111.796 7.223,97.714C12.038,83.631 18.807,70.662 27.529,58.805C36.251,46.949 46.54,36.614 58.396,27.801C70.253,18.988 83.222,12.152 97.305,7.291C111.387,2.43 126.196,0 141.732,0C157.268,0 172.078,2.43 186.16,7.291C200.242,12.152 213.212,18.988 225.068,27.801C236.925,36.614 247.214,46.949 255.936,58.805C264.658,70.662 271.426,83.631 276.242,97.714C281.057,111.796 283.465,126.469 283.465,141.732C283.465,156.996 281.057,171.669 276.242,185.751C271.426,199.833 264.658,212.803 255.936,224.659C247.214,236.516 236.925,246.85 225.068,255.663C213.212,264.476 200.242,271.313 186.16,276.174C172.078,281.034 157.268,283.465 141.732,283.465ZM134.237,219.821L149.228,219.821L163.537,129.194C165.627,116.384 169.057,106.958 173.826,100.916C178.596,94.874 185.07,91.853 193.247,91.853C201.06,91.853 207.579,94.67 212.803,100.303C218.027,105.936 220.821,112.795 221.184,120.881L237.538,120.881C237.265,112.432 235.153,104.777 231.201,97.918C227.249,91.058 222.002,85.607 215.46,81.564C208.919,77.521 201.514,75.5 193.247,75.5C180.709,75.5 170.533,79.611 162.72,87.833C154.906,96.055 149.727,109.025 147.184,126.741L141.732,165.173L136.281,126.741C133.737,109.025 128.558,96.055 120.745,87.833C112.932,79.611 102.756,75.5 90.218,75.5C82.041,75.5 74.659,77.521 68.072,81.564C61.485,85.607 56.216,91.058 52.264,97.918C48.312,104.777 46.199,112.432 45.927,120.881L62.28,120.881C62.644,112.795 65.46,105.936 70.73,100.303C75.999,94.67 82.495,91.853 90.218,91.853C98.395,91.853 104.891,94.874 109.706,100.916C114.522,106.958 117.929,116.384 119.927,129.194L134.237,219.821Z" style="fill-rule:nonzero;"/>
</svg>
