<?xml version="1.0" encoding="UTF-8" standalone="no"?>
<!DOCTYPE svg PUBLIC "-//W3C//DTD SVG 1.1//EN" "http://www.w3.org/Graphics/SVG/1.1/DTD/svg11.dtd">
<svg width="100%" height="100%" viewBox="0 0 284 284" version="1.1" xmlns="http://www.w3.org/2000/svg" xmlns:xlink="http://www.w3.org/1999/xlink" xml:space="preserve" xmlns:serif="http://www.serif.com/" style="fill-rule:evenodd;clip-rule:evenodd;stroke-linejoin:round;stroke-miterlimit:2;">
    <path d="M141.732,283.465C63.267,283.465 0,217.294 0,141.732C0,64.646 64.374,0 141.732,0C220.197,0 283.465,66.175 283.465,141.732C283.465,218.823 219.09,283.465 141.732,283.465ZM134.237,219.821L149.228,219.821L163.537,129.194C167.717,103.574 176.893,91.853 193.247,91.853C208.873,91.853 220.458,104.709 221.184,120.881L237.538,120.881C236.723,95.66 218.11,75.5 193.247,75.5C168.121,75.5 152.26,91.38 147.184,126.741L141.732,165.173L136.281,126.741C131.203,91.38 115.344,75.5 90.218,75.5C65.736,75.5 46.746,95.432 45.927,120.881L62.28,120.881C63.008,104.709 74.772,91.853 90.218,91.853C106.572,91.853 115.931,103.574 119.927,129.194L134.237,219.821Z" style="fill:rgb(128,128,128);fill-rule:nonzero;"/>
</svg>
