<?xml version="1.0" encoding="UTF-8" standalone="no"?>
<!DOCTYPE svg PUBLIC "-//W3C//DTD SVG 1.1//EN" "http://www.w3.org/Graphics/SVG/1.1/DTD/svg11.dtd">
<svg width="100%" height="100%" viewBox="0 0 284 284" version="1.1" xmlns="http://www.w3.org/2000/svg" xmlns:xlink="http://www.w3.org/1999/xlink" xml:space="preserve" xmlns:serif="http://www.serif.com/" style="fill-rule:evenodd;clip-rule:evenodd;stroke-linejoin:round;stroke-miterlimit:2;">
    <path d="M130.644,254.413L109.475,120.342C106.518,101.391 101.477,87.446 94.354,78.508C87.23,69.57 77.62,65.101 65.523,65.101C54.099,65.101 44.489,69.268 36.693,77.601C28.898,85.934 24.731,96.082 24.193,108.044L-0,108.044C0.403,95.544 3.528,84.22 9.375,74.073C15.222,63.925 23.017,55.86 32.762,49.879C42.506,43.898 53.427,40.908 65.523,40.908C84.072,40.908 99.125,46.99 110.684,59.153C122.243,71.317 129.904,90.504 133.668,116.713L141.732,173.567L149.797,116.713C153.56,90.504 161.221,71.317 172.78,59.153C184.339,46.99 199.393,40.908 217.941,40.908C230.172,40.908 241.126,43.898 250.804,49.879C260.481,55.86 268.243,63.925 274.09,74.073C279.936,84.22 283.061,95.544 283.465,108.044L259.271,108.044C258.734,96.082 254.601,85.934 246.872,77.601C239.144,69.268 229.5,65.101 217.941,65.101C205.844,65.101 196.268,69.57 189.212,78.508C182.155,87.446 177.081,101.391 173.99,120.342L152.821,254.413L130.644,254.413Z"/>
</svg>
