<?xml version="1.0" encoding="UTF-8" standalone="no"?>
<!DOCTYPE svg PUBLIC "-//W3C//DTD SVG 1.1//EN" "http://www.w3.org/Graphics/SVG/1.1/DTD/svg11.dtd">
<svg width="100%" height="100%" viewBox="0 0 284 284" version="1.1" xmlns="http://www.w3.org/2000/svg" xmlns:xlink="http://www.w3.org/1999/xlink" xml:space="preserve" xmlns:serif="http://www.serif.com/" style="fill-rule:evenodd;clip-rule:evenodd;stroke-linejoin:round;stroke-miterlimit:2;">
    <path d="M141.732,283.465C63.267,283.465 0,217.294 0,141.732C0,64.646 64.374,0 141.732,0C220.197,0 283.465,66.175 283.465,141.732C283.465,218.823 219.09,283.465 141.732,283.465ZM87.084,154.815C67.438,154.815 51.787,139.134 51.787,119.518C51.787,100.264 67.409,84.494 87.084,84.494C106.727,84.494 122.108,99.905 122.108,119.518C122.108,139.342 106.338,154.815 87.084,154.815ZM149.773,229.088C169.306,229.088 186.455,226.363 201.219,220.912C230.747,210.008 248.031,189.748 248.031,163.946C248.031,135.211 224.944,112.296 196.381,112.296C167.92,112.296 145.003,135.383 145.003,163.946C145.003,185.577 158.549,203.714 179.073,210.009C169.897,211.826 160.13,212.735 149.773,212.735C115.249,212.735 93.352,206.057 77.544,190.793L66.369,202.514C85.267,220.684 111.433,229.088 149.773,229.088ZM87.084,171.169C115.542,171.169 138.462,148.081 138.462,119.518C138.462,97.218 124.731,79.422 104.391,73.455C113.568,71.638 123.334,70.73 133.692,70.73C168.216,70.73 190.111,77.407 205.921,92.671L217.096,80.951C198.198,62.599 172.214,54.376 133.692,54.376C114.158,54.376 97.009,57.102 82.246,62.553C52.718,73.455 35.433,93.534 35.433,119.518C35.433,148.253 58.521,171.169 87.084,171.169ZM196.381,198.97C176.95,198.97 161.357,183.26 161.357,163.946C161.357,144.303 177.038,128.649 196.381,128.649C216.024,128.649 231.678,144.333 231.678,163.946C231.678,183.377 215.965,198.97 196.381,198.97Z" style="fill:rgb(128,128,128);fill-rule:nonzero;"/>
</svg>
