<?xml version="1.0" encoding="UTF-8" standalone="no"?>
<!DOCTYPE svg PUBLIC "-//W3C//DTD SVG 1.1//EN" "http://www.w3.org/Graphics/SVG/1.1/DTD/svg11.dtd">
<svg width="100%" height="100%" viewBox="0 0 284 284" version="1.1" xmlns="http://www.w3.org/2000/svg" xmlns:xlink="http://www.w3.org/1999/xlink" xml:space="preserve" xmlns:serif="http://www.serif.com/" style="fill-rule:evenodd;clip-rule:evenodd;stroke-linejoin:round;stroke-miterlimit:2;">
    <path d="M152.721,258.475C101.601,258.475 66.713,247.269 41.516,223.043L56.416,207.415C77.493,227.767 106.689,236.671 152.721,236.671C166.531,236.671 179.553,235.459 191.788,233.036C164.423,224.642 146.361,200.46 146.361,171.619C146.361,133.535 176.918,102.752 214.865,102.752C252.949,102.752 283.732,133.305 283.732,171.619C283.732,206.021 260.687,233.035 221.316,247.573C201.631,254.841 178.765,258.475 152.721,258.475ZM214.865,218.317C240.977,218.317 261.928,197.526 261.928,171.619C261.928,145.468 241.056,124.556 214.865,124.556C189.074,124.556 168.167,145.428 168.167,171.619C168.167,197.371 188.958,218.317 214.865,218.317ZM69.136,181.249C31.052,181.249 0.268,150.695 0.268,112.381C0.268,77.736 23.315,50.964 62.685,36.428C82.369,29.16 105.235,25.525 131.28,25.525C182.643,25.525 217.288,36.489 242.485,60.959L227.585,76.585C206.505,56.233 177.312,47.331 131.28,47.331C117.469,47.331 104.448,48.541 92.212,50.964C119.332,58.92 137.64,82.648 137.64,112.381C137.64,150.465 107.08,181.249 69.136,181.249ZM69.136,159.444C94.808,159.444 115.835,138.814 115.835,112.381C115.835,86.23 95.326,65.683 69.136,65.683C42.902,65.683 22.073,86.71 22.073,112.381C22.073,138.536 42.942,159.444 69.136,159.444Z" style="fill:rgb(128,128,128);"/>
</svg>
