<?xml version="1.0" encoding="UTF-8" standalone="no"?>
<!DOCTYPE svg PUBLIC "-//W3C//DTD SVG 1.1//EN" "http://www.w3.org/Graphics/SVG/1.1/DTD/svg11.dtd">
<svg width="100%" height="100%" viewBox="0 0 284 284" version="1.1" xmlns="http://www.w3.org/2000/svg" xmlns:xlink="http://www.w3.org/1999/xlink" xml:space="preserve" xmlns:serif="http://www.serif.com/" style="fill-rule:evenodd;clip-rule:evenodd;stroke-linejoin:round;stroke-miterlimit:2;">
    <path d="M141.732,283.465C126.196,283.465 111.387,281.034 97.305,276.174C83.222,271.313 70.253,264.476 58.396,255.663C46.54,246.85 36.251,236.516 27.529,224.659C18.807,212.803 12.038,199.833 7.223,185.751C2.408,171.669 0,156.996 0,141.732C0,126.469 2.408,111.796 7.223,97.714C12.038,83.631 18.807,70.662 27.529,58.805C36.251,46.949 46.54,36.614 58.396,27.801C70.253,18.988 83.222,12.152 97.305,7.291C111.387,2.43 126.196,0 141.732,0C157.268,0 172.078,2.43 186.16,7.291C200.242,12.152 213.212,18.988 225.068,27.801C236.925,36.614 247.214,46.949 255.936,58.805C264.658,70.662 271.426,83.631 276.242,97.714C281.057,111.796 283.465,126.469 283.465,141.732C283.465,156.996 281.057,171.669 276.242,185.751C271.426,199.833 264.658,212.803 255.936,224.659C247.214,236.516 236.925,246.85 225.068,255.663C213.212,264.476 200.242,271.313 186.16,276.174C172.078,281.034 157.268,283.465 141.732,283.465ZM87.084,154.815C80.542,154.815 74.614,153.225 69.299,150.045C63.984,146.866 59.737,142.618 56.557,137.303C53.377,131.988 51.787,126.06 51.787,119.518C51.787,113.068 53.377,107.185 56.557,101.87C59.737,96.555 63.984,92.33 69.299,89.196C74.614,86.061 80.542,84.494 87.084,84.494C93.625,84.494 99.531,86.061 104.8,89.196C110.07,92.33 114.272,96.532 117.406,101.802C120.541,107.071 122.108,112.977 122.108,119.518C122.108,126.06 120.541,131.988 117.406,137.303C114.272,142.618 110.047,146.866 104.732,150.045C99.417,153.225 93.534,154.815 87.084,154.815ZM149.773,229.088C169.306,229.088 186.455,226.363 201.219,220.912C215.983,215.46 227.476,207.829 235.698,198.016C243.92,188.204 248.031,176.847 248.031,163.946C248.031,154.406 245.715,145.73 241.081,137.916C236.448,130.103 230.224,123.879 222.411,119.246C214.597,114.612 205.921,112.296 196.381,112.296C186.932,112.296 178.324,114.612 170.556,119.246C162.788,123.879 156.587,130.103 151.953,137.916C147.32,145.73 145.003,154.406 145.003,163.946C145.003,171.214 146.434,177.96 149.296,184.184C152.158,190.407 156.133,195.745 161.22,200.197C166.308,204.649 172.259,207.919 179.073,210.009C169.897,211.826 160.13,212.735 149.773,212.735C132.511,212.735 118.133,210.986 106.64,207.488C95.147,203.99 85.448,198.425 77.544,190.793L66.369,202.514C75.818,211.599 87.288,218.3 100.78,222.615C114.272,226.931 130.603,229.088 149.773,229.088ZM87.084,171.169C96.532,171.169 105.141,168.852 112.909,164.219C120.677,159.585 126.878,153.362 131.511,145.548C136.145,137.735 138.462,129.058 138.462,119.518C138.462,112.159 137.053,105.391 134.237,99.213C131.42,93.035 127.445,87.697 122.312,83.2C117.179,78.702 111.205,75.454 104.391,73.455C113.568,71.638 123.334,70.73 133.692,70.73C150.954,70.73 165.332,72.479 176.825,75.977C188.318,79.475 198.016,85.039 205.921,92.671L217.096,80.951C207.647,71.775 196.199,65.051 182.753,60.781C169.306,56.511 152.953,54.376 133.692,54.376C114.158,54.376 97.009,57.102 82.246,62.553C67.482,68.004 55.989,75.613 47.767,85.38C39.544,95.147 35.433,106.526 35.433,119.518C35.433,129.058 37.75,137.735 42.383,145.548C47.017,153.362 53.24,159.585 61.054,164.219C68.867,168.852 77.544,171.169 87.084,171.169ZM196.381,198.97C189.93,198.97 184.048,197.403 178.733,194.269C173.418,191.134 169.193,186.909 166.058,181.594C162.924,176.28 161.357,170.397 161.357,163.946C161.357,157.405 162.924,151.454 166.058,146.093C169.193,140.733 173.418,136.485 178.733,133.351C184.048,130.217 189.93,128.649 196.381,128.649C202.922,128.649 208.873,130.217 214.234,133.351C219.594,136.485 223.842,140.733 226.976,146.093C230.111,151.454 231.678,157.405 231.678,163.946C231.678,170.397 230.111,176.28 226.976,181.594C223.842,186.909 219.594,191.134 214.234,194.269C208.873,197.403 202.922,198.97 196.381,198.97Z" style="fill-rule:nonzero;"/>
</svg>
