<?xml version="1.0" encoding="UTF-8" standalone="no"?>
<!DOCTYPE svg PUBLIC "-//W3C//DTD SVG 1.1//EN" "http://www.w3.org/Graphics/SVG/1.1/DTD/svg11.dtd">
<svg width="100%" height="100%" viewBox="0 0 284 284" version="1.1" xmlns="http://www.w3.org/2000/svg" xmlns:xlink="http://www.w3.org/1999/xlink" xml:space="preserve" xmlns:serif="http://www.serif.com/" style="fill-rule:evenodd;clip-rule:evenodd;stroke-linejoin:round;stroke-miterlimit:2;">
    <path d="M68.867,180.981C56.148,180.981 44.579,177.892 34.161,171.714C23.743,165.536 15.445,157.238 9.267,146.82C3.089,136.402 -0,124.833 -0,112.114C-0,94.791 5.482,79.618 16.445,66.596C27.408,53.574 42.732,43.428 62.417,36.16C82.102,28.892 104.967,25.257 131.012,25.257C156.693,25.257 178.498,28.104 196.426,33.798C214.355,39.491 229.618,48.455 242.217,60.69L227.317,76.317C216.778,66.142 203.846,58.722 188.522,54.058C173.198,49.394 154.028,47.062 131.012,47.062C117.202,47.062 104.179,48.274 91.944,50.697C101.03,53.362 108.995,57.692 115.839,63.689C122.683,69.685 127.983,76.802 131.738,85.039C135.494,93.277 137.371,102.302 137.371,112.114C137.371,124.833 134.282,136.402 128.104,146.82C121.926,157.238 113.658,165.536 103.301,171.714C92.944,177.892 81.466,180.981 68.867,180.981ZM68.867,159.176C77.468,159.176 85.312,157.056 92.399,152.816C99.485,148.577 105.118,142.913 109.297,135.827C113.477,128.74 115.566,120.836 115.566,112.114C115.566,103.392 113.477,95.518 109.297,88.492C105.118,81.466 99.515,75.863 92.489,71.684C85.463,67.505 77.589,65.415 68.867,65.415C60.145,65.415 52.241,67.505 45.154,71.684C38.068,75.863 32.405,81.496 28.165,88.583C23.925,95.669 21.805,103.513 21.805,112.114C21.805,120.836 23.925,128.74 28.165,135.827C32.405,142.913 38.068,148.577 45.154,152.816C52.241,157.056 60.145,159.176 68.867,159.176ZM152.453,258.207C126.893,258.207 105.118,255.33 87.129,249.576C69.14,243.822 53.846,234.888 41.248,222.774L56.148,207.147C66.687,217.323 79.618,224.743 94.942,229.406C110.267,234.07 129.437,236.402 152.453,236.402C166.263,236.402 179.285,235.191 191.52,232.768C182.435,229.982 174.5,225.621 167.717,219.685C160.933,213.749 155.633,206.632 151.817,198.334C148.001,190.036 146.093,181.042 146.093,171.351C146.093,158.631 149.182,147.062 155.36,136.644C161.538,126.227 169.806,117.929 180.164,111.75C190.521,105.572 201.999,102.483 214.597,102.483C227.317,102.483 238.886,105.572 249.303,111.75C259.721,117.929 268.019,126.227 274.197,136.644C280.376,147.062 283.465,158.631 283.465,171.351C283.465,188.552 277.983,203.695 267.02,216.778C256.057,229.861 240.733,240.036 221.048,247.305C201.363,254.573 178.498,258.207 152.453,258.207ZM214.597,218.05C223.319,218.05 231.254,215.96 238.401,211.781C245.548,207.601 251.211,201.969 255.391,194.882C259.57,187.795 261.66,179.952 261.66,171.351C261.66,162.629 259.57,154.694 255.391,147.547C251.211,140.4 245.548,134.737 238.401,130.557C231.254,126.378 223.319,124.288 214.597,124.288C205.996,124.288 198.153,126.378 191.066,130.557C183.979,134.737 178.346,140.4 174.167,147.547C169.988,154.694 167.898,162.629 167.898,171.351C167.898,179.952 169.988,187.795 174.167,194.882C178.346,201.969 183.979,207.601 191.066,211.781C198.153,215.96 205.996,218.05 214.597,218.05Z"/>
</svg>
