<?xml version="1.0" encoding="UTF-8" standalone="no"?>
<!DOCTYPE svg PUBLIC "-//W3C//DTD SVG 1.1//EN" "http://www.w3.org/Graphics/SVG/1.1/DTD/svg11.dtd">
<svg width="100%" height="100%" viewBox="0 0 284 284" version="1.1" xmlns="http://www.w3.org/2000/svg" xmlns:xlink="http://www.w3.org/1999/xlink" xml:space="preserve" xmlns:serif="http://www.serif.com/" fill="#808080" style="fill-rule:evenodd;clip-rule:evenodd;stroke-linejoin:round;stroke-miterlimit:2;">
    <path d="M123.236,280.139C115.616,280.139 107.962,278.719 100.272,275.879C92.583,273.039 86.522,269.333 82.088,264.761L98.922,246.473C101.277,248.828 104.914,250.906 109.832,252.707C114.751,254.509 119.357,255.409 123.652,255.409C131.826,255.409 138.927,252.569 144.953,246.888C150.98,241.208 155.379,233.103 158.15,222.574C143.88,214.538 132.865,203.35 125.107,189.011C117.348,174.672 113.469,158.081 113.469,139.238L113.469,66.918C113.469,54.587 110.698,45.062 105.156,38.343C99.614,31.623 91.925,28.263 82.088,28.263C72.252,28.263 64.562,31.623 59.02,38.343C53.479,45.062 50.708,54.587 50.708,66.918L50.708,205.948L25.77,205.948L25.77,77.724C25.77,54.864 17.18,37.269 0,24.938L14.963,4.988C19.396,8.313 23.518,11.88 27.328,15.69C31.138,19.5 34.359,23.622 36.992,28.056C41.841,20.02 48.179,13.889 56.007,9.664C63.835,5.438 72.667,3.325 82.504,3.325C99.407,3.325 112.949,9.075 123.133,20.574C133.316,32.073 138.407,47.521 138.407,66.918L138.407,139.238C138.407,163.9 146.027,182.257 161.267,194.31C162.653,175.745 165.978,160.124 171.243,147.447C176.507,134.77 183.642,125.141 192.648,118.561C201.653,111.98 212.391,108.689 224.86,108.689C236.082,108.689 246.126,111.391 254.993,116.794C263.86,122.197 270.822,129.575 275.879,138.927C280.936,148.279 283.465,158.981 283.465,171.035C283.465,183.642 280.52,194.83 274.632,204.597C268.744,214.365 260.605,222.02 250.214,227.561C239.823,233.103 227.908,235.874 214.469,235.874C202.415,235.874 191.401,234.489 181.426,231.718C176.992,246.958 169.684,258.838 159.501,267.359C149.318,275.879 137.23,280.139 123.236,280.139ZM214.469,210.936C227.769,210.936 238.437,207.264 246.473,199.921C254.509,192.579 258.526,182.95 258.526,171.035C258.526,159.951 255.409,150.946 249.174,144.018C242.94,137.091 234.835,133.627 224.86,133.627C216.547,133.627 209.654,136.087 204.182,141.005C198.709,145.923 194.518,153.786 191.609,164.592C188.699,175.399 186.69,189.6 185.582,207.195C194.31,209.689 203.939,210.936 214.469,210.936Z"/>
</svg>
