<?xml version="1.0" encoding="UTF-8" standalone="no"?>
<!DOCTYPE svg PUBLIC "-//W3C//DTD SVG 1.1//EN" "http://www.w3.org/Graphics/SVG/1.1/DTD/svg11.dtd">
<svg width="100%" height="100%" viewBox="0 0 284 284" version="1.1" xmlns="http://www.w3.org/2000/svg" xmlns:xlink="http://www.w3.org/1999/xlink" xml:space="preserve" xmlns:serif="http://www.serif.com/" style="fill-rule:evenodd;clip-rule:evenodd;stroke-linejoin:round;stroke-miterlimit:2;">
    <path d="M141.732,283.465C126.196,283.465 111.387,281.034 97.305,276.174C83.222,271.313 70.253,264.476 58.396,255.663C46.54,246.85 36.251,236.516 27.529,224.659C18.807,212.803 12.038,199.833 7.223,185.751C2.408,171.669 0,156.996 0,141.732C0,126.469 2.408,111.796 7.223,97.714C12.038,83.631 18.807,70.662 27.529,58.805C36.251,46.949 46.54,36.614 58.396,27.801C70.253,18.988 83.222,12.152 97.305,7.291C111.387,2.43 126.196,-0 141.732,-0C157.268,-0 172.078,2.43 186.16,7.291C200.242,12.152 213.212,18.988 225.068,27.801C236.925,36.614 247.214,46.949 255.936,58.805C264.658,70.662 271.426,83.631 276.242,97.714C281.057,111.796 283.465,126.469 283.465,141.732C283.465,156.996 281.057,171.669 276.242,185.751C271.426,199.833 264.658,212.803 255.936,224.659C247.214,236.516 236.925,246.85 225.068,255.663C213.212,264.476 200.242,271.313 186.16,276.174C172.078,281.034 157.268,283.465 141.732,283.465ZM137.78,241.354C146.956,241.354 154.883,238.56 161.561,232.972C168.239,227.385 173.031,219.594 175.939,209.6C182.48,211.417 189.703,212.326 197.608,212.326C206.42,212.326 214.234,210.509 221.048,206.875C227.862,203.24 233.2,198.221 237.061,191.816C240.922,185.41 242.853,178.074 242.853,169.806C242.853,161.902 241.195,154.883 237.879,148.751C234.562,142.618 229.997,137.78 224.182,134.237C218.368,130.694 211.781,128.922 204.422,128.922C196.245,128.922 189.204,131.08 183.298,135.395C177.392,139.711 172.714,146.025 169.261,154.338C165.809,162.651 163.628,172.895 162.72,185.07C152.726,177.165 147.729,165.127 147.729,148.955L147.729,101.529C147.729,88.81 144.39,78.68 137.712,71.139C131.034,63.598 122.153,59.827 111.069,59.827C104.618,59.827 98.826,61.213 93.693,63.984C88.56,66.755 84.403,70.775 81.224,76.045C79.497,73.137 77.385,70.435 74.886,67.936C72.388,65.438 69.685,63.098 66.778,60.918L56.965,74.001C68.231,82.087 73.864,93.625 73.864,108.616L73.864,192.701L90.218,192.701L90.218,101.529C90.218,93.443 92.035,87.197 95.669,82.791C99.303,78.384 104.346,76.181 110.796,76.181C117.247,76.181 122.29,78.384 125.924,82.791C129.558,87.197 131.375,93.443 131.375,101.529L131.375,148.955C131.375,161.311 133.919,172.191 139.007,181.594C144.094,190.998 151.317,198.334 160.675,203.604C158.858,210.509 155.974,215.824 152.022,219.549C148.069,223.274 143.413,225.136 138.053,225.136C135.236,225.136 132.215,224.546 128.99,223.365C125.765,222.184 123.38,220.821 121.835,219.276L110.796,231.269C113.704,234.267 117.679,236.697 122.721,238.56C127.763,240.422 132.783,241.354 137.78,241.354ZM197.608,195.972C190.703,195.972 184.388,195.154 178.664,193.519C179.391,181.981 180.709,172.668 182.617,165.581C184.525,158.495 187.273,153.339 190.862,150.114C194.45,146.888 198.97,145.276 204.422,145.276C210.963,145.276 216.278,147.547 220.366,152.09C224.455,156.632 226.499,162.538 226.499,169.806C226.499,177.62 223.864,183.934 218.595,188.749C213.325,193.565 206.329,195.972 197.608,195.972Z" style="fill-rule:nonzero;"/>
</svg>
