<?xml version="1.0" encoding="UTF-8" standalone="no"?>
<!DOCTYPE svg PUBLIC "-//W3C//DTD SVG 1.1//EN" "http://www.w3.org/Graphics/SVG/1.1/DTD/svg11.dtd">
<svg width="100%" height="100%" viewBox="0 0 284 284" version="1.1" xmlns="http://www.w3.org/2000/svg" xmlns:xlink="http://www.w3.org/1999/xlink" xml:space="preserve" xmlns:serif="http://www.serif.com/" style="fill-rule:evenodd;clip-rule:evenodd;stroke-linejoin:round;stroke-miterlimit:2;">
    <path d="M141.732,283.465C63.267,283.465 0,217.294 0,141.732C0,64.646 64.374,0 141.732,0C220.197,0 283.465,66.175 283.465,141.732C283.465,218.823 219.09,283.465 141.732,283.465ZM137.78,241.354C156.132,241.354 170.123,229.588 175.939,209.6C182.48,211.417 189.703,212.326 197.608,212.326C224.15,212.326 242.853,194.56 242.853,169.806C242.853,145.782 226.356,128.922 204.422,128.922C188.068,128.922 176.167,137.712 169.261,154.338C165.809,162.651 163.628,172.895 162.72,185.07C152.726,177.165 147.729,165.127 147.729,148.955L147.729,101.529C147.729,76.091 133.237,59.827 111.069,59.827C98.167,59.827 87.582,65.505 81.224,76.045C77.77,70.229 72.592,65.278 66.778,60.918L56.965,74.001C68.231,82.087 73.864,93.625 73.864,108.616L73.864,192.701L90.218,192.701L90.218,101.529C90.218,85.357 97.896,76.181 110.796,76.181C123.698,76.181 131.375,85.357 131.375,101.529L131.375,148.955C131.375,173.667 141.959,193.064 160.675,203.604C157.041,217.414 148.773,225.136 138.053,225.136C132.419,225.136 124.925,222.366 121.835,219.276L110.796,231.269C116.612,237.265 127.786,241.354 137.78,241.354ZM197.608,195.972C190.703,195.972 184.388,195.154 178.664,193.519C179.391,181.981 180.709,172.668 182.617,165.581C186.433,151.409 193.518,145.276 204.422,145.276C217.504,145.276 226.499,155.27 226.499,169.806C226.499,185.434 215.05,195.972 197.608,195.972Z" style="fill:rgb(128,128,128);fill-rule:nonzero;"/>
</svg>
