<?xml version="1.0" encoding="UTF-8" standalone="no"?>
<!DOCTYPE svg PUBLIC "-//W3C//DTD SVG 1.1//EN" "http://www.w3.org/Graphics/SVG/1.1/DTD/svg11.dtd">
<svg width="100%" height="100%" viewBox="0 0 284 284" version="1.1" xmlns="http://www.w3.org/2000/svg" xmlns:xlink="http://www.w3.org/1999/xlink" xml:space="preserve" xmlns:serif="http://www.serif.com/" style="fill-rule:evenodd;clip-rule:evenodd;stroke-linejoin:round;stroke-miterlimit:2;">
    <path d="M123.469,280.669C108.2,280.669 91.129,274.421 82.243,265.261L99.108,246.938C103.829,251.659 115.279,255.891 123.886,255.891C140.264,255.891 152.896,244.093 158.448,222.994C129.854,206.891 113.684,177.256 113.684,139.501L113.684,67.044C113.684,42.336 101.955,28.317 82.243,28.317C62.534,28.317 50.804,42.336 50.804,67.044L50.804,206.336L25.818,206.336L25.818,77.871C25.818,54.968 17.212,37.34 0,24.986L14.992,4.998C23.875,11.659 31.786,19.224 37.063,28.109C46.777,12.006 62.948,3.331 82.66,3.331C116.528,3.331 138.669,28.18 138.669,67.044L138.669,139.501C138.669,164.209 146.304,182.601 161.573,194.678C162.96,176.077 166.292,160.426 171.566,147.725C182.117,122.324 200.299,108.895 225.285,108.895C258.797,108.895 284,134.653 284,171.357C284,209.177 255.426,236.32 214.875,236.32C202.797,236.32 191.762,234.931 181.769,232.155C172.883,262.693 151.508,280.669 123.469,280.669ZM214.875,211.334C241.523,211.334 259.014,195.234 259.014,171.357C259.014,149.149 245.272,133.88 225.285,133.88C208.626,133.88 197.801,143.251 191.971,164.903C189.056,175.73 187.043,189.958 185.932,207.586C194.677,210.084 204.325,211.334 214.875,211.334Z" style="fill:rgb(128,128,128);"/>
</svg>
