<?xml version="1.0" encoding="UTF-8" standalone="no"?>
<!DOCTYPE svg PUBLIC "-//W3C//DTD SVG 1.1//EN" "http://www.w3.org/Graphics/SVG/1.1/DTD/svg11.dtd">
<svg width="100%" height="100%" viewBox="0 0 284 284" version="1.1" xmlns="http://www.w3.org/2000/svg" xmlns:xlink="http://www.w3.org/1999/xlink" xml:space="preserve" xmlns:serif="http://www.serif.com/" style="fill-rule:evenodd;clip-rule:evenodd;stroke-linejoin:round;stroke-miterlimit:2;">
    <path d="M229.95,284C196.325,284 174.554,260.506 174.554,223.851C174.554,208.969 178.482,194.397 186.336,180.136C194.191,165.873 202.734,153.023 211.966,141.586C229.053,120.364 243.591,101.692 243.591,81.851C243.591,49.669 218.916,24.802 186.956,24.802C155.282,24.802 129.701,49.697 129.701,81.851C129.701,87.363 130.356,92.427 131.665,97.044C135.874,111.884 149.338,125.028 149.338,149.027C149.338,188.161 117.166,220.957 77.201,220.957C37.654,220.957 5.064,188.992 5.064,149.027C5.064,109.301 37.595,77.096 77.201,77.096C86.847,77.096 96.769,79.026 105.311,82.884L105.311,77.096C105.311,33.78 143.374,-0 186.956,-0C231.858,-0 268.395,36.057 268.395,81.851C268.395,109.409 249.724,134.421 231.809,156.468C221.06,169.834 212.966,182.133 207.522,193.364C202.079,204.594 199.358,214.757 199.358,223.851C199.358,246.726 210.245,259.196 230.362,259.196C243.867,259.196 254.408,255.269 261.987,247.414L278.936,265.81C267.084,277.386 248.963,284 229.95,284ZM77.201,196.153C103.272,196.153 124.534,175.019 124.534,149.027C124.534,123.189 104.085,101.9 77.201,101.9C51.13,101.9 29.867,123.034 29.867,149.027C29.867,174.942 50.893,196.153 77.201,196.153Z" style="fill:rgb(128,128,128);"/>
</svg>
