<?xml version="1.0" encoding="UTF-8" standalone="no"?>
<!DOCTYPE svg PUBLIC "-//W3C//DTD SVG 1.1//EN" "http://www.w3.org/Graphics/SVG/1.1/DTD/svg11.dtd">
<svg width="100%" height="100%" viewBox="0 0 284 284" version="1.1" xmlns="http://www.w3.org/2000/svg" xmlns:xlink="http://www.w3.org/1999/xlink" xml:space="preserve" xmlns:serif="http://www.serif.com/" style="fill-rule:evenodd;clip-rule:evenodd;stroke-linejoin:round;stroke-miterlimit:2;">
    <path d="M141.732,283.465C63.267,283.465 0,217.294 0,141.732C0,64.646 64.374,0 141.732,0C220.197,0 283.465,66.175 283.465,141.732C283.465,218.823 219.09,283.465 141.732,283.465ZM88.174,177.165C70.829,177.165 56.965,163.18 56.965,146.093C56.965,128.955 70.985,115.021 88.174,115.021C105.9,115.021 119.382,129.057 119.382,146.093C119.382,163.231 105.363,177.165 88.174,177.165ZM188.886,235.085C201.422,235.085 213.37,230.724 221.184,223.092L210.009,210.963C205.012,216.142 198.062,218.731 189.158,218.731C175.894,218.731 168.716,210.509 168.716,195.427C168.716,189.431 170.51,182.73 174.099,175.326C177.688,167.921 183.025,159.812 190.112,150.999C201.924,136.463 214.234,119.972 214.234,101.802C214.234,71.609 190.144,47.835 160.539,47.835C131.804,47.835 106.708,70.107 106.708,98.667L106.708,102.483C101.076,99.939 94.534,98.667 88.174,98.667C62.06,98.667 40.612,119.901 40.612,146.093C40.612,172.443 62.099,193.519 88.174,193.519C114.524,193.519 135.736,171.896 135.736,146.093C135.736,130.27 126.859,121.604 124.084,111.819C123.221,108.775 122.789,105.436 122.789,101.802C122.789,80.602 139.655,64.188 160.539,64.188C181.611,64.188 197.88,80.583 197.88,101.802C197.88,114.884 188.295,127.195 177.029,141.187C170.942,148.728 165.309,157.2 160.13,166.604C154.952,176.007 152.362,185.615 152.362,195.427C152.362,219.595 166.716,235.085 188.886,235.085Z" style="fill:rgb(128,128,128);fill-rule:nonzero;"/>
</svg>
