<?xml version="1.0" encoding="UTF-8" standalone="no"?>
<!DOCTYPE svg PUBLIC "-//W3C//DTD SVG 1.1//EN" "http://www.w3.org/Graphics/SVG/1.1/DTD/svg11.dtd">
<svg width="100%" height="100%" viewBox="0 0 284 284" version="1.1" xmlns="http://www.w3.org/2000/svg" xmlns:xlink="http://www.w3.org/1999/xlink" xml:space="preserve" xmlns:serif="http://www.serif.com/" style="fill-rule:evenodd;clip-rule:evenodd;stroke-linejoin:round;stroke-miterlimit:2;">
    <path d="M229.516,283.465C212.736,283.465 199.326,278.032 189.286,267.166C179.246,256.301 174.225,241.722 174.225,223.429C174.225,208.575 178.145,194.031 185.985,179.796C193.825,165.561 202.352,152.735 211.567,141.32C220.094,130.729 227.487,120.62 233.745,110.993C240.003,101.365 243.132,91.6 243.132,81.697C243.132,70.969 240.622,61.307 235.602,52.711C230.581,44.115 223.808,37.307 215.28,32.287C206.753,27.267 197.194,24.757 186.604,24.757C176.013,24.757 166.386,27.301 157.721,32.39C149.056,37.479 142.179,44.321 137.09,52.918C132.002,61.514 129.457,71.107 129.457,81.697C129.457,87.199 130.11,92.253 131.417,96.861C132.724,101.468 134.683,105.973 137.297,110.374C140.047,114.912 142.695,120.38 145.239,126.775C147.784,133.171 149.056,140.494 149.056,148.747C149.056,161.813 145.824,173.813 139.36,184.747C132.896,195.681 124.196,204.381 113.262,210.845C102.328,217.309 90.259,220.541 77.055,220.541C63.852,220.541 51.783,217.309 40.849,210.845C29.914,204.381 21.215,195.716 14.751,184.85C8.287,173.985 5.054,161.95 5.054,148.747C5.054,135.543 8.287,123.509 14.751,112.643C21.215,101.778 29.914,93.113 40.849,86.649C51.783,80.184 63.852,76.952 77.055,76.952C81.869,76.952 86.683,77.434 91.497,78.396C96.311,79.359 100.849,80.803 105.113,82.729L105.113,76.952C105.113,62.511 108.895,49.479 116.46,37.857C124.024,26.235 133.996,17.02 146.374,10.212C158.753,3.404 172.162,0 186.604,0C201.595,0 215.246,3.679 227.556,11.037C239.865,18.396 249.665,28.23 256.954,40.539C264.244,52.849 267.888,66.568 267.888,81.697C267.888,95.451 264.037,108.551 256.335,120.999C248.633,133.446 240.312,145.171 231.372,156.174C220.644,169.515 212.564,181.79 207.131,192.999C201.699,204.209 198.982,214.352 198.982,223.429C198.982,234.845 201.63,243.579 206.925,249.63C212.22,255.682 219.888,258.708 229.928,258.708C243.407,258.708 253.928,254.788 261.493,246.948L278.41,265.31C272.496,271.086 265.241,275.556 256.645,278.72C248.049,281.883 239.006,283.465 229.516,283.465ZM77.055,195.784C85.72,195.784 93.629,193.687 100.781,189.492C107.932,185.297 113.64,179.624 117.904,172.472C122.168,165.32 124.299,157.412 124.299,148.747C124.299,140.082 122.168,132.173 117.904,125.021C113.64,117.87 107.967,112.196 100.884,108.001C93.801,103.806 85.858,101.709 77.055,101.709C68.39,101.709 60.482,103.806 53.33,108.001C46.178,112.196 40.47,117.87 36.207,125.021C31.943,132.173 29.811,140.082 29.811,148.747C29.811,157.412 31.943,165.32 36.207,172.472C40.47,179.624 46.178,185.297 53.33,189.492C60.482,193.687 68.39,195.784 77.055,195.784Z"/>
</svg>
