<?xml version="1.0" encoding="UTF-8" standalone="no"?>
<!DOCTYPE svg PUBLIC "-//W3C//DTD SVG 1.1//EN" "http://www.w3.org/Graphics/SVG/1.1/DTD/svg11.dtd">
<svg width="100%" height="100%" viewBox="0 0 284 284" version="1.1" xmlns="http://www.w3.org/2000/svg" xmlns:xlink="http://www.w3.org/1999/xlink" xml:space="preserve" xmlns:serif="http://www.serif.com/" style="fill-rule:evenodd;clip-rule:evenodd;stroke-linejoin:round;stroke-miterlimit:2;">
    <path d="M141.732,283.465C126.196,283.465 111.387,281.034 97.305,276.174C83.222,271.313 70.253,264.476 58.396,255.663C46.54,246.85 36.251,236.516 27.529,224.659C18.807,212.803 12.038,199.833 7.223,185.751C2.408,171.669 -0,156.996 -0,141.732C-0,126.469 2.408,111.796 7.223,97.714C12.038,83.631 18.807,70.662 27.529,58.805C36.251,46.949 46.54,36.614 58.396,27.801C70.253,18.988 83.222,12.152 97.305,7.291C111.387,2.43 126.196,0 141.732,0C157.268,0 172.078,2.43 186.16,7.291C200.242,12.152 213.212,18.988 225.068,27.801C236.925,36.614 247.214,46.949 255.936,58.805C264.658,70.662 271.426,83.631 276.242,97.714C281.057,111.796 283.465,126.469 283.465,141.732C283.465,156.996 281.057,171.669 276.242,185.751C271.426,199.833 264.658,212.803 255.936,224.659C247.214,236.516 236.925,246.85 225.068,255.663C213.212,264.476 200.242,271.313 186.16,276.174C172.078,281.034 157.268,283.465 141.732,283.465ZM88.174,177.165C82.45,177.165 77.226,175.78 72.502,173.009C67.777,170.238 64.007,166.49 61.19,161.766C58.374,157.041 56.965,151.817 56.965,146.093C56.965,140.369 58.374,135.145 61.19,130.421C64.007,125.697 67.777,121.949 72.502,119.178C77.226,116.407 82.45,115.021 88.174,115.021C93.988,115.021 99.235,116.407 103.914,119.178C108.593,121.949 112.341,125.697 115.157,130.421C117.974,135.145 119.382,140.369 119.382,146.093C119.382,151.817 117.974,157.041 115.157,161.766C112.341,166.49 108.571,170.238 103.846,173.009C99.122,175.78 93.898,177.165 88.174,177.165ZM188.886,235.085C195.154,235.085 201.128,234.04 206.806,231.95C212.485,229.861 217.277,226.908 221.184,223.092L210.009,210.963C205.012,216.142 198.062,218.731 189.158,218.731C182.526,218.731 177.461,216.732 173.963,212.735C170.465,208.737 168.716,202.968 168.716,195.427C168.716,189.431 170.51,182.73 174.099,175.326C177.688,167.921 183.025,159.812 190.112,150.999C196.018,143.731 201.514,135.986 206.602,127.763C211.69,119.541 214.234,110.887 214.234,101.802C214.234,91.808 211.826,82.745 207.011,74.614C202.196,66.482 195.722,59.986 187.591,55.126C179.459,50.265 170.442,47.835 160.539,47.835C150.999,47.835 142.141,50.083 133.964,54.581C125.787,59.078 119.2,65.165 114.204,72.842C109.207,80.519 106.708,89.128 106.708,98.667L106.708,102.483C103.892,101.211 100.893,100.257 97.714,99.621C94.534,98.985 91.354,98.667 88.174,98.667C79.452,98.667 71.479,100.803 64.257,105.073C57.034,109.343 51.287,115.067 47.017,122.244C42.747,129.422 40.612,137.371 40.612,146.093C40.612,154.815 42.747,162.765 47.017,169.942C51.287,177.12 57.034,182.844 64.257,187.114C71.479,191.384 79.452,193.519 88.174,193.519C96.896,193.519 104.868,191.384 112.091,187.114C119.314,182.844 125.061,177.097 129.331,169.874C133.601,162.651 135.736,154.724 135.736,146.093C135.736,140.642 134.896,135.804 133.215,131.579C131.534,127.355 129.785,123.743 127.968,120.745C126.242,117.838 124.947,114.862 124.084,111.819C123.221,108.775 122.789,105.436 122.789,101.802C122.789,94.806 124.47,88.469 127.832,82.791C131.193,77.112 135.736,72.592 141.46,69.231C147.184,65.869 153.543,64.188 160.539,64.188C167.535,64.188 173.849,65.846 179.482,69.163C185.115,72.479 189.59,76.976 192.906,82.654C196.222,88.333 197.88,94.715 197.88,101.802C197.88,108.343 195.813,114.794 191.679,121.154C187.545,127.514 182.662,134.191 177.029,141.187C170.942,148.728 165.309,157.2 160.13,166.604C154.952,176.007 152.362,185.615 152.362,195.427C152.362,207.511 155.678,217.141 162.311,224.319C168.943,231.496 177.801,235.085 188.886,235.085Z" style="fill-rule:nonzero;"/>
</svg>
