<?xml version="1.0" encoding="UTF-8" standalone="no"?>
<!DOCTYPE svg PUBLIC "-//W3C//DTD SVG 1.1//EN" "http://www.w3.org/Graphics/SVG/1.1/DTD/svg11.dtd">
<svg width="100%" height="100%" viewBox="0 0 284 284" version="1.1" xmlns="http://www.w3.org/2000/svg" xmlns:xlink="http://www.w3.org/1999/xlink" xml:space="preserve" xmlns:serif="http://www.serif.com/" fill="#808080" style="fill-rule:evenodd;clip-rule:evenodd;stroke-linejoin:round;stroke-miterlimit:2;">
    <path d="M0,277.191L0,249.309L283.465,249.309L283.465,277.191L0,277.191ZM0,213.295L0,185.414L63.663,185.414C53.905,175.655 46.353,164.193 41.009,151.026C35.665,137.86 32.993,124.151 32.993,109.901C32.993,90.848 37.911,73.461 47.748,57.738C57.584,42.016 70.75,29.508 87.247,20.214C103.743,10.92 121.905,6.273 141.732,6.273C161.714,6.273 179.915,10.92 196.334,20.214C212.753,29.508 225.881,42.016 235.717,57.738C245.553,73.461 250.471,90.848 250.471,109.901C250.471,124.151 247.799,137.86 242.455,151.026C237.111,164.193 229.56,175.655 219.801,185.414L283.465,185.414L283.465,213.295L186.111,213.295L186.111,178.908C197.109,172.247 205.938,162.644 212.598,150.097C219.259,137.55 222.589,124.151 222.589,109.901C222.589,95.96 218.949,83.258 211.669,71.796C204.389,60.333 194.63,51.194 182.393,44.378C170.156,37.563 156.603,34.155 141.732,34.155C126.862,34.155 113.308,37.563 101.071,44.378C88.834,51.194 79.076,60.333 71.796,71.796C64.515,83.258 60.875,95.96 60.875,109.901C60.875,124.151 64.205,137.55 70.866,150.097C77.527,162.644 86.356,172.247 97.354,178.908L97.354,213.295L0,213.295Z"/>
</svg>
