<?xml version="1.0" encoding="UTF-8" standalone="no"?>
<!DOCTYPE svg PUBLIC "-//W3C//DTD SVG 1.1//EN" "http://www.w3.org/Graphics/SVG/1.1/DTD/svg11.dtd">
<svg width="100%" height="100%" viewBox="0 0 284 284" version="1.1" xmlns="http://www.w3.org/2000/svg" xmlns:xlink="http://www.w3.org/1999/xlink" xml:space="preserve" xmlns:serif="http://www.serif.com/" fill="#808080" style="fill-rule:evenodd;clip-rule:evenodd;stroke-linejoin:round;stroke-miterlimit:2;">
    <path d="M141.732,283.465C126.196,283.465 111.387,281.034 97.305,276.174C83.222,271.313 70.253,264.476 58.396,255.663C46.54,246.85 36.251,236.516 27.529,224.659C18.807,212.803 12.038,199.833 7.223,185.751C2.408,171.669 -0,156.996 -0,141.732C-0,126.469 2.408,111.796 7.223,97.714C12.038,83.631 18.807,70.662 27.529,58.805C36.251,46.949 46.54,36.614 58.396,27.801C70.253,18.988 83.222,12.152 97.305,7.291C111.387,2.43 126.196,0 141.732,0C157.268,0 172.078,2.43 186.16,7.291C200.242,12.152 213.212,18.988 225.068,27.801C236.925,36.614 247.214,46.949 255.936,58.805C264.658,70.662 271.426,83.631 276.242,97.714C281.057,111.796 283.465,126.469 283.465,141.732C283.465,156.996 281.057,171.669 276.242,185.751C271.426,199.833 264.658,212.803 255.936,224.659C247.214,236.516 236.925,246.85 225.068,255.663C213.212,264.476 200.242,271.313 186.16,276.174C172.078,281.034 157.268,283.465 141.732,283.465ZM58.601,211.508L224.864,211.508L224.864,195.154L58.601,195.154L58.601,211.508ZM58.601,174.031L115.703,174.031L115.703,153.861C109.252,149.955 104.073,144.322 100.167,136.962C96.26,129.603 94.306,121.744 94.306,113.386C94.306,105.209 96.442,97.759 100.712,91.036C104.982,84.313 110.706,78.952 117.883,74.955C125.061,70.957 133.01,68.958 141.732,68.958C150.454,68.958 158.404,70.957 165.581,74.955C172.759,78.952 178.483,84.313 182.753,91.036C187.023,97.759 189.158,105.209 189.158,113.386C189.158,121.744 187.205,129.603 183.298,136.962C179.391,144.322 174.213,149.955 167.762,153.861L167.762,174.031L224.864,174.031L224.864,157.677L187.523,157.677C193.247,151.953 197.676,145.23 200.81,137.508C203.945,129.785 205.512,121.744 205.512,113.386C205.512,102.211 202.627,92.012 196.858,82.791C191.089,73.569 183.389,66.233 173.758,60.781C164.128,55.33 153.452,52.604 141.732,52.604C130.103,52.604 119.45,55.33 109.774,60.781C100.098,66.233 92.376,73.569 86.607,82.791C80.837,92.012 77.953,102.211 77.953,113.386C77.953,121.744 79.52,129.785 82.654,137.508C85.789,145.23 90.218,151.953 95.942,157.677L58.601,157.677L58.601,174.031Z" style="fill-rule:nonzero;"/>
</svg>
