<?xml version="1.0" encoding="UTF-8" standalone="no"?>
<!DOCTYPE svg PUBLIC "-//W3C//DTD SVG 1.1//EN" "http://www.w3.org/Graphics/SVG/1.1/DTD/svg11.dtd">
<svg width="100%" height="100%" viewBox="0 0 284 284" version="1.1" xmlns="http://www.w3.org/2000/svg" xmlns:xlink="http://www.w3.org/1999/xlink" xml:space="preserve" xmlns:serif="http://www.serif.com/" style="fill-rule:evenodd;clip-rule:evenodd;stroke-linejoin:round;stroke-miterlimit:2;">
    <path d="M141.732,283.465C63.267,283.465 0,217.294 0,141.732C0,64.646 64.374,0 141.732,0C220.197,0 283.465,66.175 283.465,141.732C283.465,218.823 219.09,283.465 141.732,283.465ZM58.601,211.508L224.864,211.508L224.864,195.154L58.601,195.154L58.601,211.508ZM58.601,174.031L115.703,174.031L115.703,153.861C102.801,146.049 94.306,130.102 94.306,113.386C94.306,88.756 115.618,68.958 141.732,68.958C168.003,68.958 189.158,88.904 189.158,113.386C189.158,130.102 180.664,146.049 167.762,153.861L167.762,174.031L224.864,174.031L224.864,157.677L187.523,157.677C198.971,146.229 205.512,130.102 205.512,113.386C205.512,79.928 176.927,52.604 141.732,52.604C106.705,52.604 77.953,79.928 77.953,113.386C77.953,130.102 84.494,146.229 95.942,157.677L58.601,157.677L58.601,174.031Z" style="fill:rgb(128,128,128);fill-rule:nonzero;"/>
</svg>
