<?xml version="1.0" encoding="UTF-8" standalone="no"?>
<!DOCTYPE svg PUBLIC "-//W3C//DTD SVG 1.1//EN" "http://www.w3.org/Graphics/SVG/1.1/DTD/svg11.dtd">
<svg width="100%" height="100%" viewBox="0 0 284 284" version="1.1" xmlns="http://www.w3.org/2000/svg" xmlns:xlink="http://www.w3.org/1999/xlink" xml:space="preserve" xmlns:serif="http://www.serif.com/" style="fill-rule:evenodd;clip-rule:evenodd;stroke-linejoin:round;stroke-miterlimit:2;">
    <path d="M29.178,278.165L14.048,257.416C44.308,236.091 62.605,199.635 65.488,154.968L-0,154.968L-0,129.032L65.488,129.032C62.605,84.077 44.308,47.62 14.048,26.584L29.178,5.835C66.064,31.195 88.757,75.719 91.641,129.032L192.359,129.032C195.528,76.007 217.936,31.483 254.822,5.835L269.952,26.584C239.692,47.62 221.392,84.077 218.512,129.032L284,129.032L284,154.968L218.512,154.968C221.392,199.635 239.692,236.091 269.952,257.416L254.822,278.165C217.936,252.517 195.528,207.993 192.359,154.968L91.641,154.968C88.757,207.993 66.064,252.517 29.178,278.165Z" style="fill:rgb(128,128,128);"/>
</svg>
