<?xml version="1.0" encoding="UTF-8" standalone="no"?>
<!DOCTYPE svg PUBLIC "-//W3C//DTD SVG 1.1//EN" "http://www.w3.org/Graphics/SVG/1.1/DTD/svg11.dtd">
<svg width="100%" height="100%" viewBox="0 0 284 284" version="1.1" xmlns="http://www.w3.org/2000/svg" xmlns:xlink="http://www.w3.org/1999/xlink" xml:space="preserve" xmlns:serif="http://www.serif.com/" style="fill-rule:evenodd;clip-rule:evenodd;stroke-linejoin:round;stroke-miterlimit:2;">
    <path d="M143.776,283.465C123.516,283.465 104.687,279.74 87.288,272.29C69.889,264.839 54.649,254.505 41.566,241.286C28.483,228.066 18.284,212.689 10.971,195.154C3.657,177.62 -0,158.767 -0,138.598C-0,119.791 3.657,102.052 10.971,85.38C18.284,68.708 28.369,53.967 41.225,41.157C54.081,28.346 68.913,18.284 85.721,10.971C102.529,3.657 120.472,0 139.552,0C159.812,0 178.664,3.725 196.108,11.175C213.552,18.625 228.816,28.96 241.899,42.179C254.982,55.398 265.18,70.775 272.494,88.31C279.808,105.845 283.465,124.697 283.465,144.867C283.465,163.674 279.808,181.413 272.494,198.084C265.18,214.756 255.073,229.497 242.171,242.308C229.27,255.118 214.416,265.18 197.608,272.494C180.8,279.808 162.856,283.465 143.776,283.465ZM70.594,226.363C82.223,218.277 91.467,207.488 98.327,193.996C105.186,180.504 109.07,165.4 109.979,148.683L173.486,148.683C174.485,165.4 178.392,180.504 185.206,193.996C192.02,207.488 201.242,218.277 212.871,226.363L222.411,213.28C212.871,206.557 205.307,197.63 199.72,186.501C194.132,175.371 190.884,162.765 189.976,148.683L231.269,148.683L231.269,132.329L189.976,132.329C190.884,118.156 194.132,105.504 199.72,94.375C205.307,83.245 212.871,74.364 222.411,67.732L212.871,54.649C201.242,62.735 192.02,73.524 185.206,87.015C178.392,100.507 174.485,115.612 173.486,132.329L109.979,132.329C109.07,115.521 105.186,100.371 98.327,86.879C91.467,73.387 82.223,62.644 70.594,54.649L61.054,67.732C70.594,74.364 78.157,83.245 83.745,94.375C89.332,105.504 92.58,118.156 93.489,132.329L52.196,132.329L52.196,148.683L93.489,148.683C92.58,162.765 89.332,175.371 83.745,186.501C78.157,197.63 70.594,206.557 61.054,213.28L70.594,226.363Z" style="fill-rule:nonzero;"/>
</svg>
