<?xml version="1.0" encoding="UTF-8" standalone="no"?>
<!DOCTYPE svg PUBLIC "-//W3C//DTD SVG 1.1//EN" "http://www.w3.org/Graphics/SVG/1.1/DTD/svg11.dtd">
<svg width="100%" height="100%" viewBox="0 0 284 284" version="1.1" xmlns="http://www.w3.org/2000/svg" xmlns:xlink="http://www.w3.org/1999/xlink" xml:space="preserve" xmlns:serif="http://www.serif.com/" style="fill-rule:evenodd;clip-rule:evenodd;stroke-linejoin:round;stroke-miterlimit:2;">
    <path d="M143.776,283.465C62.736,283.465 0,218.993 0,138.598C0,63.37 63.498,0 139.552,0C220.592,0 283.465,64.588 283.465,144.867C283.465,220.095 219.944,283.465 143.776,283.465ZM70.594,226.363C93.852,210.191 108.161,182.117 109.979,148.683L173.486,148.683C175.484,182.117 189.613,210.191 212.871,226.363L222.411,213.28C203.331,199.834 191.792,176.847 189.976,148.683L231.269,148.683L231.269,132.329L189.976,132.329C191.792,103.983 203.331,80.996 222.411,67.732L212.871,54.649C189.613,70.821 175.484,98.895 173.486,132.329L109.979,132.329C108.161,98.713 93.852,70.639 70.594,54.649L61.054,67.732C80.134,80.996 91.671,103.983 93.489,132.329L52.196,132.329L52.196,148.683L93.489,148.683C91.671,176.847 80.134,199.834 61.054,213.28L70.594,226.363Z" style="fill:rgb(128,128,128);fill-rule:nonzero;"/>
</svg>
