<?xml version="1.0" encoding="UTF-8" standalone="no"?>
<!DOCTYPE svg PUBLIC "-//W3C//DTD SVG 1.1//EN" "http://www.w3.org/Graphics/SVG/1.1/DTD/svg11.dtd">
<svg width="100%" height="100%" viewBox="0 0 284 284" version="1.1" xmlns="http://www.w3.org/2000/svg" xmlns:xlink="http://www.w3.org/1999/xlink" xml:space="preserve" xmlns:serif="http://www.serif.com/" style="fill-rule:evenodd;clip-rule:evenodd;stroke-linejoin:round;stroke-miterlimit:2;">
    <path d="M29.123,277.64L14.022,256.93C29.123,246.288 41.096,232.158 49.941,214.54C58.785,196.922 63.927,176.968 65.365,154.676L0,154.676L0,128.789L65.365,128.789C63.927,106.353 58.785,86.327 49.941,68.709C41.096,51.091 29.123,37.033 14.022,26.534L29.123,5.825C47.532,18.481 62.165,35.487 73.023,56.844C83.882,78.201 90.03,102.182 91.468,128.789L191.997,128.789C193.579,102.326 199.763,78.417 210.549,57.06C221.335,35.703 235.933,18.624 254.341,5.825L269.442,26.534C254.341,37.033 242.369,51.091 233.524,68.709C224.679,86.327 219.538,106.353 218.099,128.789L283.465,128.789L283.465,154.676L218.099,154.676C219.538,176.968 224.679,196.922 233.524,214.54C242.369,232.158 254.341,246.288 269.442,256.93L254.341,277.64C235.933,264.84 221.335,247.762 210.549,226.405C199.763,205.048 193.579,181.138 191.997,154.676L91.468,154.676C90.03,181.138 83.882,205.048 73.023,226.405C62.165,247.762 47.532,264.84 29.123,277.64Z"/>
</svg>
