<?xml version="1.0" encoding="UTF-8" standalone="no"?>
<!DOCTYPE svg PUBLIC "-//W3C//DTD SVG 1.1//EN" "http://www.w3.org/Graphics/SVG/1.1/DTD/svg11.dtd">
<svg width="100%" height="100%" viewBox="0 0 284 284" version="1.1" xmlns="http://www.w3.org/2000/svg" xmlns:xlink="http://www.w3.org/1999/xlink" xml:space="preserve" xmlns:serif="http://www.serif.com/" style="fill-rule:evenodd;clip-rule:evenodd;stroke-linejoin:round;stroke-miterlimit:2;">
    <path d="M141.732,283.465C126.196,283.465 111.387,281.034 97.305,276.174C83.222,271.313 70.253,264.476 58.396,255.663C46.54,246.85 36.251,236.516 27.529,224.659C18.807,212.803 12.038,199.833 7.223,185.751C2.408,171.669 0,156.996 0,141.732C0,126.469 2.408,111.796 7.223,97.714C12.038,83.631 18.807,70.662 27.529,58.805C36.251,46.949 46.54,36.614 58.396,27.801C70.253,18.988 83.222,12.152 97.305,7.291C111.387,2.43 126.196,0 141.732,0C157.268,0 172.078,2.43 186.16,7.291C200.242,12.152 213.212,18.988 225.068,27.801C236.925,36.614 247.214,46.949 255.936,58.805C264.658,70.662 271.426,83.631 276.242,97.714C281.057,111.796 283.465,126.469 283.465,141.732C283.465,156.996 281.057,171.669 276.242,185.751C271.426,199.833 264.658,212.803 255.936,224.659C247.214,236.516 236.925,246.85 225.068,255.663C213.212,264.476 200.242,271.313 186.16,276.174C172.078,281.034 157.268,283.465 141.732,283.465ZM77.953,222.138L127.832,172.259L159.449,203.468L170.896,191.884L139.279,160.812L201.015,99.076L201.015,148.955L217.368,148.955L217.368,71.275L136.962,71.275L136.962,87.629L189.567,87.629L127.695,149.228L96.078,118.019L84.631,129.603L116.248,160.812L66.369,210.554L77.953,222.138Z" style="fill-rule:nonzero;"/>
</svg>
