<?xml version="1.0" encoding="UTF-8" standalone="no"?>
<!DOCTYPE svg PUBLIC "-//W3C//DTD SVG 1.1//EN" "http://www.w3.org/Graphics/SVG/1.1/DTD/svg11.dtd">
<svg width="100%" height="100%" viewBox="0 0 284 284" version="1.1" xmlns="http://www.w3.org/2000/svg" xmlns:xlink="http://www.w3.org/1999/xlink" xml:space="preserve" xmlns:serif="http://www.serif.com/" style="fill-rule:evenodd;clip-rule:evenodd;stroke-linejoin:round;stroke-miterlimit:2;">
    <path d="M141.732,283.465C63.267,283.465 0,217.294 0,141.732C0,64.646 64.374,0 141.732,0C220.197,0 283.465,66.175 283.465,141.732C283.465,218.823 219.09,283.465 141.732,283.465ZM77.953,222.138L127.832,172.259L159.449,203.468L170.896,191.884L139.279,160.812L201.015,99.076L201.015,148.955L217.368,148.955L217.368,71.275L136.962,71.275L136.962,87.629L189.567,87.629L127.695,149.228L96.078,118.019L84.631,129.603L116.248,160.812L66.369,210.554L77.953,222.138Z" style="fill:rgb(128,128,128);fill-rule:nonzero;"/>
</svg>
