<?xml version="1.0" encoding="UTF-8" standalone="no"?>
<!DOCTYPE svg PUBLIC "-//W3C//DTD SVG 1.1//EN" "http://www.w3.org/Graphics/SVG/1.1/DTD/svg11.dtd">
<svg width="100%" height="100%" viewBox="0 0 284 284" version="1.1" xmlns="http://www.w3.org/2000/svg" xmlns:xlink="http://www.w3.org/1999/xlink" xml:space="preserve" xmlns:serif="http://www.serif.com/" fill="#808080" style="fill-rule:evenodd;clip-rule:evenodd;stroke-linejoin:round;stroke-miterlimit:2;">
    <path d="M141.732,283.465C126.196,283.465 111.387,281.034 97.305,276.174C83.222,271.313 70.253,264.476 58.396,255.663C46.54,246.85 36.251,236.516 27.529,224.659C18.807,212.803 12.038,199.833 7.223,185.751C2.408,171.669 0,156.996 0,141.732C0,126.469 2.408,111.796 7.223,97.714C12.038,83.631 18.807,70.662 27.529,58.805C36.251,46.949 46.54,36.614 58.396,27.801C70.253,18.988 83.222,12.152 97.305,7.291C111.387,2.43 126.196,0 141.732,0C157.268,0 172.078,2.43 186.16,7.291C200.242,12.152 213.212,18.988 225.068,27.801C236.925,36.614 247.214,46.949 255.936,58.805C264.658,70.662 271.426,83.631 276.242,97.714C281.057,111.796 283.465,126.469 283.465,141.732C283.465,156.996 281.057,171.669 276.242,185.751C271.426,199.833 264.658,212.803 255.936,224.659C247.214,236.516 236.925,246.85 225.068,255.663C213.212,264.476 200.242,271.313 186.16,276.174C172.078,281.034 157.268,283.465 141.732,283.465ZM207.147,214.37C217.141,214.37 225.068,211.099 230.928,204.558C236.788,198.016 239.945,189.022 240.4,177.574L253.755,177.574L232.223,148.001L210.69,177.574L224.046,177.574C223.683,184.57 222.138,189.749 219.412,193.11C216.687,196.472 212.644,198.153 207.283,198.153C201.651,198.153 197.449,196.063 194.677,191.884C191.906,187.704 190.521,181.299 190.521,172.668L190.521,104.255C190.521,90.627 187.227,79.815 180.641,71.82C174.054,63.825 165.082,59.827 153.725,59.827C147.184,59.827 141.482,61.213 136.622,63.984C131.761,66.755 127.786,70.821 124.697,76.181C121.608,70.821 117.633,66.755 112.773,63.984C107.912,61.213 102.302,59.827 95.942,59.827C84.313,59.827 75.273,63.711 68.822,71.479C62.371,79.247 59.146,90.173 59.146,104.255L59.146,203.468L75.5,203.468L75.5,104.255C75.5,94.715 77.203,87.651 80.61,83.063C84.017,78.475 89.173,76.181 96.078,76.181C102.71,76.181 107.798,78.589 111.342,83.404C114.885,88.219 116.657,95.17 116.657,104.255L116.657,203.468L133.01,203.468L133.01,104.255C133.01,85.539 139.87,76.181 153.589,76.181C160.312,76.181 165.422,78.566 168.92,83.336C172.418,88.106 174.167,95.079 174.167,104.255L174.167,173.077C174.167,186.16 177.052,196.313 182.821,203.536C188.59,210.759 196.699,214.37 207.147,214.37Z" style="fill-rule:nonzero;"/>
</svg>
