<?xml version="1.0" encoding="UTF-8" standalone="no"?>
<!DOCTYPE svg PUBLIC "-//W3C//DTD SVG 1.1//EN" "http://www.w3.org/Graphics/SVG/1.1/DTD/svg11.dtd">
<svg width="100%" height="100%" viewBox="0 0 284 284" version="1.1" xmlns="http://www.w3.org/2000/svg" xmlns:xlink="http://www.w3.org/1999/xlink" xml:space="preserve" xmlns:serif="http://www.serif.com/" style="fill-rule:evenodd;clip-rule:evenodd;stroke-linejoin:round;stroke-miterlimit:2;">
    <path d="M215.983,254.765C185.489,254.765 167.854,232.69 167.854,194.505L167.854,94.07C167.854,67.289 157.446,53.101 137.824,53.101C117.803,53.101 107.792,66.757 107.792,94.07L107.792,238.855L83.928,238.855L83.928,94.07C83.928,67.554 73.253,53.101 53.896,53.101C33.743,53.101 23.866,66.226 23.866,94.07L23.866,238.855L0,238.855L0,94.07C0,52.97 19.756,29.235 53.698,29.235C72.261,29.235 86.645,37.457 95.661,53.101C104.677,37.457 118.932,29.235 138.023,29.235C171.17,29.235 191.72,54.295 191.72,94.07L191.72,193.908C191.72,219.099 199.744,231.099 216.182,231.099C231.829,231.099 239.585,221.486 240.645,201.067L221.154,201.067L252.578,157.91L284,201.067L264.511,201.067C263.183,234.48 245.152,254.765 215.983,254.765Z" style="fill:rgb(128,128,128);"/>
</svg>
