<?xml version="1.0" encoding="UTF-8" standalone="no"?>
<!DOCTYPE svg PUBLIC "-//W3C//DTD SVG 1.1//EN" "http://www.w3.org/Graphics/SVG/1.1/DTD/svg11.dtd">
<svg width="100%" height="100%" viewBox="0 0 284 284" version="1.1" xmlns="http://www.w3.org/2000/svg" xmlns:xlink="http://www.w3.org/1999/xlink" xml:space="preserve" xmlns:serif="http://www.serif.com/" fill="#808080" style="fill-rule:evenodd;clip-rule:evenodd;stroke-linejoin:round;stroke-miterlimit:2;">
    <path d="M215.576,254.284C200.357,254.284 188.546,249.024 180.143,238.503C171.74,227.983 167.538,213.194 167.538,194.137L167.538,93.893C167.538,80.527 164.99,70.37 159.895,63.422C154.801,56.475 147.357,53.001 137.564,53.001C117.581,53.001 107.589,66.631 107.589,93.893L107.589,238.404L83.769,238.404L83.769,93.893C83.769,80.659 81.188,70.535 76.027,63.521C70.866,56.508 63.455,53.001 53.795,53.001C43.737,53.001 36.227,56.342 31.264,63.025C26.302,69.708 23.821,79.997 23.821,93.893L23.821,238.404L0,238.404L0,93.893C0,73.381 4.698,57.467 14.094,46.152C23.49,34.838 36.657,29.18 53.596,29.18C62.86,29.18 71.032,31.198 78.112,35.235C85.192,39.271 90.981,45.193 95.481,53.001C99.98,45.193 105.77,39.271 112.85,35.235C119.93,31.198 128.234,29.18 137.762,29.18C154.304,29.18 167.372,35.003 176.967,46.649C186.561,58.294 191.358,74.042 191.358,93.893L191.358,193.542C191.358,206.114 193.377,215.444 197.413,221.531C201.449,227.619 207.57,230.662 215.774,230.662C223.582,230.662 229.471,228.214 233.441,223.318C237.412,218.421 239.661,210.878 240.191,200.688L220.737,200.688L252.101,157.613L283.465,200.688L264.011,200.688C263.349,217.363 258.751,230.464 250.215,239.992C241.679,249.52 230.133,254.284 215.576,254.284Z"/>
</svg>
