<?xml version="1.0" encoding="UTF-8" standalone="no"?>
<!DOCTYPE svg PUBLIC "-//W3C//DTD SVG 1.1//EN" "http://www.w3.org/Graphics/SVG/1.1/DTD/svg11.dtd">
<svg width="100%" height="100%" viewBox="0 0 284 284" version="1.1" xmlns="http://www.w3.org/2000/svg" xmlns:xlink="http://www.w3.org/1999/xlink" xml:space="preserve" xmlns:serif="http://www.serif.com/" style="fill-rule:evenodd;clip-rule:evenodd;stroke-linejoin:round;stroke-miterlimit:2;">
    <path d="M141.732,283.465C63.267,283.465 0,217.294 0,141.732C0,64.646 64.374,0 141.732,0C220.197,0 283.465,66.175 283.465,141.732C283.465,218.823 219.09,283.465 141.732,283.465ZM207.147,214.37C227.135,214.37 239.49,200.47 240.4,177.574L253.755,177.574L232.223,148.001L210.69,177.574L224.046,177.574C223.32,191.566 218.005,198.153 207.283,198.153C196.019,198.153 190.521,189.93 190.521,172.668L190.521,104.255C190.521,76.999 176.439,59.827 153.725,59.827C140.643,59.827 130.875,65.461 124.697,76.181C118.519,65.461 108.662,59.827 95.942,59.827C72.684,59.827 59.146,76.091 59.146,104.255L59.146,203.468L75.5,203.468L75.5,104.255C75.5,85.175 82.268,76.181 96.078,76.181C109.342,76.181 116.657,86.085 116.657,104.255L116.657,203.468L133.01,203.468L133.01,104.255C133.01,85.539 139.87,76.181 153.589,76.181C167.035,76.181 174.167,85.903 174.167,104.255L174.167,173.077C174.167,199.243 186.251,214.37 207.147,214.37Z" style="fill:rgb(128,128,128);fill-rule:nonzero;"/>
</svg>
