<?xml version="1.0" encoding="UTF-8" standalone="no"?>
<!DOCTYPE svg PUBLIC "-//W3C//DTD SVG 1.1//EN" "http://www.w3.org/Graphics/SVG/1.1/DTD/svg11.dtd">
<svg width="100%" height="100%" viewBox="0 0 284 284" version="1.1" xmlns="http://www.w3.org/2000/svg" xmlns:xlink="http://www.w3.org/1999/xlink" xml:space="preserve" xmlns:serif="http://www.serif.com/" style="fill-rule:evenodd;clip-rule:evenodd;stroke-linejoin:round;stroke-miterlimit:2;">
    <path d="M141.732,283.465C122.087,283.465 104.128,278.627 87.854,268.95C71.581,259.274 58.606,246.3 48.93,230.026C39.254,213.753 34.416,195.794 34.416,176.148C34.416,156.943 39.254,139.02 48.93,122.38C58.606,105.74 71.654,92.729 88.074,83.346C70.775,75.722 56.041,65.167 43.872,51.679C31.704,38.191 23.494,23.237 19.242,6.817L44.752,-0C48.124,12.901 54.684,24.557 64.434,34.966C74.183,45.375 85.802,53.621 99.29,59.706C112.777,65.79 126.925,68.832 141.732,68.832C156.54,68.832 170.724,65.79 184.285,59.706C197.846,53.621 209.465,45.375 219.141,34.966C228.817,24.557 235.341,12.901 238.713,-0L264.222,6.817C260.117,23.237 251.944,38.191 239.702,51.679C227.461,65.167 212.69,75.722 195.39,83.346C211.957,92.729 225.042,105.74 234.644,122.38C244.247,139.02 249.049,156.943 249.049,176.148C249.049,195.794 244.211,213.753 234.534,230.026C224.858,246.3 211.92,259.274 195.72,268.95C179.52,278.627 161.524,283.465 141.732,283.465ZM141.732,257.075C156.686,257.075 170.284,253.447 182.526,246.19C194.767,238.933 204.517,229.147 211.774,216.832C219.031,204.517 222.659,190.956 222.659,176.148C222.659,161.194 219.031,147.597 211.774,135.355C204.517,123.113 194.767,113.364 182.526,106.107C170.284,98.85 156.686,95.221 141.732,95.221C126.925,95.221 113.364,98.85 101.049,106.107C88.734,113.364 78.948,123.113 71.691,135.355C64.434,147.597 60.805,161.194 60.805,176.148C60.805,190.956 64.434,204.517 71.691,216.832C78.948,229.147 88.734,238.933 101.049,246.19C113.364,253.447 126.925,257.075 141.732,257.075Z"/>
</svg>
