<?xml version="1.0" encoding="UTF-8" standalone="no"?>
<!DOCTYPE svg PUBLIC "-//W3C//DTD SVG 1.1//EN" "http://www.w3.org/Graphics/SVG/1.1/DTD/svg11.dtd">
<svg width="100%" height="100%" viewBox="0 0 284 284" version="1.1" xmlns="http://www.w3.org/2000/svg" xmlns:xlink="http://www.w3.org/1999/xlink" xml:space="preserve" xmlns:serif="http://www.serif.com/" fill="#808080" style="fill-rule:evenodd;clip-rule:evenodd;stroke-linejoin:round;stroke-miterlimit:2;">
    <path d="M141.732,283.465C126.196,283.465 111.387,281.034 97.305,276.174C83.222,271.313 70.253,264.476 58.396,255.663C46.54,246.85 36.251,236.516 27.529,224.659C18.807,212.803 12.038,199.833 7.223,185.751C2.408,171.669 0,156.996 0,141.732C0,126.469 2.408,111.796 7.223,97.714C12.038,83.631 18.807,70.662 27.529,58.805C36.251,46.949 46.54,36.614 58.396,27.801C70.253,18.988 83.222,12.152 97.305,7.291C111.387,2.43 126.196,0 141.732,0C157.268,0 172.078,2.43 186.16,7.291C200.242,12.152 213.212,18.988 225.068,27.801C236.925,36.614 247.214,46.949 255.936,58.805C264.658,70.662 271.426,83.631 276.242,97.714C281.057,111.796 283.465,126.469 283.465,141.732C283.465,156.996 281.057,171.669 276.242,185.751C271.426,199.833 264.658,212.803 255.936,224.659C247.214,236.516 236.925,246.85 225.068,255.663C213.212,264.476 200.242,271.313 186.16,276.174C172.078,281.034 157.268,283.465 141.732,283.465ZM141.732,221.729C132.556,221.729 124.152,219.481 116.52,214.983C108.889,210.486 102.824,204.422 98.327,196.79C93.829,189.158 91.581,180.754 91.581,171.578C91.581,162.311 93.829,153.884 98.327,146.298C102.824,138.711 108.889,132.67 116.52,128.172C124.152,123.675 132.556,121.426 141.732,121.426C150.999,121.426 159.426,123.675 167.012,128.172C174.599,132.67 180.641,138.711 185.138,146.298C189.635,153.884 191.884,162.311 191.884,171.578C191.884,180.754 189.635,189.158 185.138,196.79C180.641,204.422 174.599,210.486 167.012,214.983C159.426,219.481 150.999,221.729 141.732,221.729ZM141.732,238.083C153.998,238.083 165.15,235.085 175.189,229.088C185.229,223.092 193.247,215.051 199.243,204.967C205.239,194.882 208.237,183.752 208.237,171.578C208.237,159.676 205.262,148.569 199.311,138.257C193.36,127.945 185.251,119.882 174.985,114.067C185.706,109.343 194.859,102.801 202.445,94.443C210.032,86.084 215.097,76.817 217.641,66.641L201.832,62.417C199.743,70.412 195.7,77.635 189.703,84.085C183.707,90.536 176.507,95.647 168.103,99.417C159.699,103.187 150.909,105.073 141.732,105.073C132.556,105.073 123.789,103.187 115.43,99.417C107.071,95.647 99.871,90.536 93.829,84.085C87.788,77.635 83.722,70.412 81.632,62.417L65.824,66.641C68.459,76.817 73.546,86.084 81.087,94.443C88.628,102.801 97.759,109.343 108.48,114.067C98.304,119.882 90.218,127.945 84.222,138.257C78.225,148.569 75.227,159.676 75.227,171.578C75.227,183.752 78.225,194.882 84.222,204.967C90.218,215.051 98.259,223.092 108.343,229.088C118.428,235.085 129.558,238.083 141.732,238.083Z" style="fill-rule:nonzero;"/>
</svg>
