<?xml version="1.0" encoding="UTF-8" standalone="no"?>
<!DOCTYPE svg PUBLIC "-//W3C//DTD SVG 1.1//EN" "http://www.w3.org/Graphics/SVG/1.1/DTD/svg11.dtd">
<svg width="100%" height="100%" viewBox="0 0 284 284" version="1.1" xmlns="http://www.w3.org/2000/svg" xmlns:xlink="http://www.w3.org/1999/xlink" xml:space="preserve" xmlns:serif="http://www.serif.com/" style="fill-rule:evenodd;clip-rule:evenodd;stroke-linejoin:round;stroke-miterlimit:2;">
    <path d="M141.999,284C83.072,284 34.48,235.763 34.48,176.481C34.48,137.997 55.337,102.305 88.241,83.503C53.575,68.228 27.798,39.732 19.278,6.829L44.835,-0C54.922,38.584 97.045,68.962 141.999,68.962C186.353,68.962 228.96,39.05 239.163,-0L264.722,6.829C256.496,39.732 230.425,68.228 195.759,83.503C228.954,102.305 249.518,137.997 249.518,176.481C249.518,235.32 201.91,284 141.999,284ZM141.999,257.56C187.058,257.56 223.08,220.764 223.08,176.481C223.08,131.625 187.126,95.4 141.999,95.4C97.716,95.4 60.92,131.081 60.92,176.481C60.92,220.963 97.45,257.56 141.999,257.56Z" style="fill:rgb(128,128,128);"/>
</svg>
