<?xml version="1.0" encoding="UTF-8" standalone="no"?>
<!DOCTYPE svg PUBLIC "-//W3C//DTD SVG 1.1//EN" "http://www.w3.org/Graphics/SVG/1.1/DTD/svg11.dtd">
<svg width="100%" height="100%" viewBox="0 0 284 284" version="1.1" xmlns="http://www.w3.org/2000/svg" xmlns:xlink="http://www.w3.org/1999/xlink" xml:space="preserve" xmlns:serif="http://www.serif.com/" style="fill-rule:evenodd;clip-rule:evenodd;stroke-linejoin:round;stroke-miterlimit:2;">
    <path d="M141.732,283.465C63.267,283.465 0,217.294 0,141.732C0,64.646 64.374,0 141.732,0C220.197,0 283.465,66.175 283.465,141.732C283.465,218.823 219.09,283.465 141.732,283.465ZM141.732,221.729C114.176,221.729 91.581,199.092 91.581,171.578C91.581,143.496 114.341,121.426 141.732,121.426C169.645,121.426 191.884,143.832 191.884,171.578C191.884,198.969 169.603,221.729 141.732,221.729ZM141.732,238.083C178.789,238.083 208.237,207.973 208.237,171.578C208.237,147.774 195.517,125.697 174.985,114.067C196.427,104.619 212.553,86.993 217.641,66.641L201.832,62.417C195.521,86.571 169.167,105.073 141.732,105.073C113.926,105.073 87.871,86.283 81.632,62.417L65.824,66.641C71.094,86.993 87.038,104.619 108.48,114.067C88.128,125.697 75.227,147.774 75.227,171.578C75.227,208.247 105.283,238.083 141.732,238.083Z" style="fill:rgb(128,128,128);fill-rule:nonzero;"/>
</svg>
