<?xml version="1.0" encoding="UTF-8" standalone="no"?>
<!DOCTYPE svg PUBLIC "-//W3C//DTD SVG 1.1//EN" "http://www.w3.org/Graphics/SVG/1.1/DTD/svg11.dtd">
<svg width="100%" height="100%" viewBox="0 0 284 284" version="1.1" xmlns="http://www.w3.org/2000/svg" xmlns:xlink="http://www.w3.org/1999/xlink" xml:space="preserve" xmlns:serif="http://www.serif.com/" style="fill-rule:evenodd;clip-rule:evenodd;stroke-linejoin:round;stroke-miterlimit:2;">
    <path d="M238.938,283.256C224.723,274.894 213.678,266.985 205.804,259.529C197.93,252.073 191.764,243.746 187.304,234.548C179.36,240.819 170.894,247.091 161.905,253.362C152.916,259.633 143.056,266.044 132.325,272.594L119.155,251.272C141.454,237.475 161.452,223.399 179.151,209.045C178.176,203.749 177.479,197.861 177.061,191.38C176.643,184.9 176.434,177.618 176.434,169.535L176.434,67.94C176.434,54.003 173.751,43.412 168.385,36.165C163.02,28.918 155.181,25.294 144.868,25.294C123.824,25.294 113.302,39.509 113.302,67.94L113.302,228.904L88.217,228.904L88.217,67.94C88.217,54.003 85.534,43.412 80.169,36.165C74.803,28.918 66.964,25.294 56.651,25.294C35.607,25.294 25.085,39.509 25.085,67.94L25.085,228.904L0,228.904L0,67.94C0,46.478 4.947,29.824 14.842,17.978C24.737,6.132 38.673,0.209 56.651,0.209C76.58,0.209 91.213,8.222 100.55,24.249C109.888,8.222 124.66,0.209 144.868,0.209C160.059,0.209 172.532,4.808 182.287,14.006C192.042,23.204 198.105,36.025 200.474,52.47C208.975,43.969 219.776,39.718 232.876,39.718C248.206,39.718 260.47,44.91 269.668,55.292C278.866,65.675 283.465,79.576 283.465,96.997C283.465,114.975 277.019,134.276 264.128,154.902C251.237,175.528 232.388,196.641 207.581,218.243C210.647,226.465 215.421,233.747 221.901,240.088C228.381,246.429 238.311,253.432 251.69,261.097L238.938,283.256ZM202.146,188.976C220.542,171.835 234.513,155.425 244.06,139.746C253.606,124.068 258.379,109.818 258.379,96.997C258.379,86.684 256.045,78.74 251.376,73.166C246.708,67.591 240.123,64.804 231.621,64.804C222.145,64.804 214.759,68.218 209.463,75.047C204.167,81.876 201.519,91.422 201.519,103.686L201.519,169.535C201.519,172.741 201.589,175.981 201.728,179.256C201.867,182.531 202.007,185.771 202.146,188.976Z"/>
</svg>
