<?xml version="1.0" encoding="UTF-8" standalone="no"?>
<!DOCTYPE svg PUBLIC "-//W3C//DTD SVG 1.1//EN" "http://www.w3.org/Graphics/SVG/1.1/DTD/svg11.dtd">
<svg width="100%" height="100%" viewBox="0 0 284 284" version="1.1" xmlns="http://www.w3.org/2000/svg" xmlns:xlink="http://www.w3.org/1999/xlink" xml:space="preserve" xmlns:serif="http://www.serif.com/" style="fill-rule:evenodd;clip-rule:evenodd;stroke-linejoin:round;stroke-miterlimit:2;">
    <path d="M141.732,283.465C63.267,283.465 0,217.294 0,141.732C0,64.646 64.374,0 141.732,0C220.197,0 283.465,66.175 283.465,141.732C283.465,218.823 219.09,283.465 141.732,283.465ZM214.915,238.901L223.228,224.455C205.784,214.461 198.471,207.239 194.473,196.517C226.817,168.353 243.943,140.914 243.943,117.474C243.943,94.762 230.951,80.133 210.963,80.133C202.423,80.133 195.382,82.904 189.839,88.446C186.751,67.006 173.395,54.376 153.589,54.376C140.415,54.376 130.784,59.6 124.697,70.048C118.61,59.6 109.07,54.376 96.078,54.376C72.638,54.376 59.146,70.549 59.146,98.531L59.146,203.468L75.5,203.468L75.5,98.531C75.5,79.997 82.359,70.73 96.078,70.73C109.524,70.73 116.657,80.361 116.657,98.531L116.657,203.468L133.01,203.468L133.01,98.531C133.01,79.997 139.87,70.73 153.589,70.73C167.035,70.73 174.167,80.361 174.167,98.531L174.167,164.764C174.167,175.302 174.667,183.615 175.939,190.521C164.4,199.879 151.363,209.055 136.826,218.05L145.412,231.95C159.404,223.41 170.896,215.325 181.254,207.147C187.068,219.141 196.381,227.997 214.915,238.901ZM190.93,177.438C190.748,173.258 190.521,168.942 190.521,164.764L190.521,121.835C190.521,105.845 197.789,96.487 210.145,96.487C221.229,96.487 227.589,104.028 227.589,117.474C227.589,134.192 214.914,155.088 190.93,177.438Z" style="fill:rgb(128,128,128);fill-rule:nonzero;"/>
</svg>
