<?xml version="1.0" encoding="UTF-8" standalone="no"?>
<!DOCTYPE svg PUBLIC "-//W3C//DTD SVG 1.1//EN" "http://www.w3.org/Graphics/SVG/1.1/DTD/svg11.dtd">
<svg width="100%" height="100%" viewBox="0 0 284 284" version="1.1" xmlns="http://www.w3.org/2000/svg" xmlns:xlink="http://www.w3.org/1999/xlink" xml:space="preserve" xmlns:serif="http://www.serif.com/" style="fill-rule:evenodd;clip-rule:evenodd;stroke-linejoin:round;stroke-miterlimit:2;">
    <path d="M141.732,283.465C126.196,283.465 111.387,281.034 97.305,276.174C83.222,271.313 70.253,264.476 58.396,255.663C46.54,246.85 36.251,236.516 27.529,224.659C18.807,212.803 12.038,199.833 7.223,185.751C2.408,171.669 0,156.996 0,141.732C0,126.469 2.408,111.796 7.223,97.714C12.038,83.631 18.807,70.662 27.529,58.805C36.251,46.949 46.54,36.614 58.396,27.801C70.253,18.988 83.222,12.152 97.305,7.291C111.387,2.43 126.196,0 141.732,0C157.268,0 172.078,2.43 186.16,7.291C200.242,12.152 213.212,18.988 225.068,27.801C236.925,36.614 247.214,46.949 255.936,58.805C264.658,70.662 271.426,83.631 276.242,97.714C281.057,111.796 283.465,126.469 283.465,141.732C283.465,156.996 281.057,171.669 276.242,185.751C271.426,199.833 264.658,212.803 255.936,224.659C247.214,236.516 236.925,246.85 225.068,255.663C213.212,264.476 200.242,271.313 186.16,276.174C172.078,281.034 157.268,283.465 141.732,283.465ZM214.915,238.901L223.228,224.455C214.506,219.458 208.033,214.892 203.808,210.759C199.584,206.625 196.472,201.878 194.473,196.517C210.645,182.435 222.933,168.671 231.337,155.224C239.741,141.778 243.943,129.194 243.943,117.474C243.943,106.118 240.945,97.055 234.949,90.286C228.952,83.518 220.957,80.133 210.963,80.133C202.423,80.133 195.382,82.904 189.839,88.446C188.295,77.726 184.343,69.367 177.983,63.371C171.623,57.374 163.492,54.376 153.589,54.376C140.415,54.376 130.784,59.6 124.697,70.048C118.61,59.6 109.07,54.376 96.078,54.376C84.358,54.376 75.273,58.237 68.822,65.96C62.371,73.683 59.146,84.54 59.146,98.531L59.146,203.468L75.5,203.468L75.5,98.531C75.5,79.997 82.359,70.73 96.078,70.73C102.801,70.73 107.912,73.092 111.41,77.816C114.908,82.541 116.657,89.446 116.657,98.531L116.657,203.468L133.01,203.468L133.01,98.531C133.01,79.997 139.87,70.73 153.589,70.73C160.312,70.73 165.422,73.092 168.92,77.816C172.418,82.541 174.167,89.446 174.167,98.531L174.167,164.764C174.167,170.033 174.303,174.78 174.576,179.005C174.849,183.23 175.303,187.068 175.939,190.521C164.4,199.879 151.363,209.055 136.826,218.05L145.412,231.95C152.408,227.68 158.836,223.501 164.696,219.412C170.556,215.324 176.075,211.236 181.254,207.147C184.161,213.144 188.181,218.572 193.315,223.433C198.448,228.293 205.648,233.449 214.915,238.901ZM190.93,177.438C190.839,175.348 190.748,173.236 190.657,171.101C190.566,168.966 190.521,166.853 190.521,164.764L190.521,121.835C190.521,113.84 192.247,107.617 195.7,103.165C199.152,98.713 203.967,96.487 210.145,96.487C215.687,96.487 219.98,98.304 223.024,101.938C226.068,105.572 227.589,110.751 227.589,117.474C227.589,125.833 224.478,135.123 218.254,145.344C212.031,155.565 202.922,166.263 190.93,177.438Z" style="fill-rule:nonzero;"/>
</svg>
