<?xml version="1.0" encoding="UTF-8" standalone="no"?>
<!DOCTYPE svg PUBLIC "-//W3C//DTD SVG 1.1//EN" "http://www.w3.org/Graphics/SVG/1.1/DTD/svg11.dtd">
<svg width="100%" height="100%" viewBox="0 0 284 284" version="1.1" xmlns="http://www.w3.org/2000/svg" xmlns:xlink="http://www.w3.org/1999/xlink" xml:space="preserve" xmlns:serif="http://www.serif.com/" style="fill-rule:evenodd;clip-rule:evenodd;stroke-linejoin:round;stroke-miterlimit:2;">
    <path d="M239.389,283.791C210.906,267.033 196.593,253.423 187.658,234.991C171.74,247.559 154.079,259.984 132.575,273.109L119.38,251.747C141.721,237.923 161.757,223.821 179.49,209.44C177.535,198.826 176.767,186.051 176.767,169.856L176.767,68.067C176.767,40.143 165.806,25.342 145.142,25.342C124.058,25.342 113.516,39.584 113.516,68.067L113.516,229.337L88.384,229.337L88.384,68.067C88.384,40.143 77.422,25.342 56.758,25.342C35.674,25.342 25.133,39.584 25.133,68.067L25.133,229.337L0,229.337L0,68.067C0,25.064 20.735,0.209 56.758,0.209C76.724,0.209 91.386,8.237 100.74,24.294C110.095,8.237 124.896,0.209 145.142,0.209C175.58,0.209 196.106,19.619 200.852,52.569C209.37,44.051 220.191,39.793 233.316,39.793C264.034,39.793 284,62.275 284,97.179C284,133.202 257.68,175.371 207.973,218.654C214.118,235.132 225.356,246.231 252.165,261.59L239.389,283.791ZM202.528,189.333C239.388,154.985 258.867,122.872 258.867,97.179C258.867,76.515 249.093,64.926 232.059,64.926C213.07,64.926 201.9,79.308 201.9,103.881L201.9,169.856C201.9,176.276 202.249,182.909 202.528,189.333Z" style="fill:rgb(128,128,128);"/>
</svg>
