<?xml version="1.0" encoding="UTF-8" standalone="no"?>
<svg
   height="24px"
   viewBox="0 -960 960 960"
   width="24px"
   fill="#808080"
   version="1.1"
   id="svg4"
   sodipodi:docname="agender.svg"
   inkscape:version="1.2.2 (732a01da63, 2022-12-09)"
   xmlns:inkscape="http://www.inkscape.org/namespaces/inkscape"
   xmlns:sodipodi="http://sodipodi.sourceforge.net/DTD/sodipodi-0.dtd"
   xmlns="http://www.w3.org/2000/svg"
   xmlns:svg="http://www.w3.org/2000/svg">
  <defs
     id="defs8" />
  <sodipodi:namedview
     id="namedview6"
     pagecolor="#ffffff"
     bordercolor="#999999"
     borderopacity="1"
     inkscape:showpageshadow="0"
     inkscape:pageopacity="0"
     inkscape:pagecheckerboard="0"
     inkscape:deskcolor="#d1d1d1"
     showgrid="false"
     inkscape:zoom="52.125"
     inkscape:cx="11.884892"
     inkscape:cy="12.009592"
     inkscape:window-width="3840"
     inkscape:window-height="2093"
     inkscape:window-x="-9"
     inkscape:window-y="-9"
     inkscape:window-maximized="1"
     inkscape:current-layer="svg4" />
  <path
     d="M480-57q-113 0-193-80t-80-193q0-97 59.5-171T417-596v-280h126v280q91 21 150.5 94.5T753-330q0 113-79.5 193T480-57Zm0-126q46 0 82-25t53-64H345q17 39 53.5 64t81.5 25ZM345-388h270q-17-40-53-64.5T480-477q-45 0-81.5 24.5T345-388Z"
     id="path2"
     style="fill:#808080" />
</svg>
