<?xml version="1.0" encoding="UTF-8" standalone="no"?>
<!DOCTYPE svg PUBLIC "-//W3C//DTD SVG 1.1//EN" "http://www.w3.org/Graphics/SVG/1.1/DTD/svg11.dtd">
<svg width="100%" height="100%" viewBox="0 0 284 284" version="1.1" xmlns="http://www.w3.org/2000/svg" xmlns:xlink="http://www.w3.org/1999/xlink" xml:space="preserve" xmlns:serif="http://www.serif.com/" style="fill-rule:evenodd;clip-rule:evenodd;stroke-linejoin:round;stroke-miterlimit:2;">
    <path d="M142,284C64.634,284 0.001,220.589 0.001,141.999C0.001,64.427 64.039,-0 142,-0C219.688,-0 283.999,64.039 283.999,141.999C283.999,219.482 220.59,284 142,284ZM116.322,103.329C131.79,93.429 151.9,93.429 167.369,103.329L173.865,93.429C154.684,80.436 129.316,80.436 109.516,93.429L116.322,103.329ZM87.86,257.085C99.616,255.229 108.897,252.444 116.322,248.731C123.438,245.019 130.244,239.141 136.122,230.789C138.7,227.179 139.679,225.529 142,225.529C143.031,225.529 144.011,225.375 147.878,230.789C153.756,239.141 160.252,245.019 167.677,248.731C175.103,252.444 184.384,255.229 196.14,257.085L197.067,253.063C183.455,249.041 172.628,242.235 164.584,232.335C156.54,222.745 152.518,211.298 152.518,198.615C152.518,189.952 155.303,177.886 158.396,169.843C159.634,167.058 159.325,165.202 158.396,163.965L154.993,160.562C154.066,159.324 153.137,158.706 151.9,158.706C150.971,158.706 149.734,159.324 148.188,159.943C145.093,161.18 138.907,161.18 135.812,159.943C134.266,159.324 133.029,158.706 132.1,158.706C130.863,158.706 129.625,159.324 128.697,160.562L125.604,163.965C124.366,165.202 124.366,167.058 125.294,169.843C128.388,177.886 131.481,189.952 131.481,198.615C131.481,211.298 127.46,222.745 119.416,232.335C111.372,242.235 100.545,249.041 86.933,253.063L87.86,257.085ZM165.512,196.758C185.311,189.333 198.614,171.39 199.233,150.353L187.167,149.734C186.549,165.821 176.34,180.052 160.871,185.62L165.512,196.758ZM17.324,180.98C22.893,167.987 29.39,158.397 37.124,152.209C48.571,142.619 61.254,137.978 75.486,137.978C83.22,137.978 90.335,139.525 97.142,142.309C104.257,145.403 110.445,149.734 116.013,155.302C118.178,157.778 120.653,157.778 123.129,155.921C124.985,154.684 125.604,152.519 124.985,150.353C124.675,148.497 124.366,146.64 124.056,145.094C123.748,143.546 123.438,141.999 123.438,140.453C123.438,133.338 127.46,127.769 135.503,124.675C137.669,123.747 138.907,121.891 138.907,119.725C138.907,116.94 137.359,115.394 134.575,115.084C105.198,109.577 83.839,86.652 83.839,57.233C83.839,47.333 86.313,38.052 93.12,25.059L89.408,22.893C77.652,39.599 72.393,53.521 72.393,69.607C72.393,84.458 77.961,98.379 89.716,117.56C67.442,119.416 51.664,124.675 39.909,134.575C33.412,139.834 28.153,146.021 23.821,153.137C19.49,160.253 16.087,168.915 13.303,179.434L17.324,180.98ZM266.676,180.98L270.388,179.434C267.913,168.915 264.201,160.253 260.179,153.137C255.847,146.021 250.588,139.834 243.783,134.575C232.026,124.675 216.867,119.416 193.974,117.56C206.348,98.379 211.299,84.458 211.299,69.607C211.299,53.521 206.039,39.599 194.284,22.893L190.57,25.059C197.377,38.052 200.161,47.333 200.161,57.233C200.161,85.275 180.146,109.442 149.115,115.084C146.331,115.394 145.093,116.94 145.093,119.725C145.093,121.891 146.331,123.747 148.497,124.675C156.231,127.769 160.252,133.338 160.252,140.453C160.252,141.999 160.252,143.546 159.944,145.094C159.634,146.64 159.325,148.497 158.706,150.353C158.396,152.519 158.706,154.684 160.562,155.921C163.347,157.778 165.821,157.778 167.987,155.302C173.555,149.734 179.743,145.403 186.549,142.309C193.355,139.525 200.78,137.978 208.514,137.978C222.436,137.978 235.429,142.619 246.876,152.209C254.301,158.397 261.106,167.987 266.676,180.98ZM118.488,196.758L122.819,185.62C108.54,180.266 97.812,166.491 96.523,149.734L84.457,150.353C85.696,171.39 98.689,189.333 118.488,196.758Z" style="fill:rgb(128,128,128);"/>
</svg>
