<?xml version="1.0" encoding="UTF-8" standalone="no"?>
<!DOCTYPE svg PUBLIC "-//W3C//DTD SVG 1.1//EN" "http://www.w3.org/Graphics/SVG/1.1/DTD/svg11.dtd">
<svg width="100%" height="100%" viewBox="0 0 284 284" version="1.1" xmlns="http://www.w3.org/2000/svg" xmlns:xlink="http://www.w3.org/1999/xlink" xml:space="preserve" xmlns:serif="http://www.serif.com/" fill="#808080" style="fill-rule:evenodd;clip-rule:evenodd;stroke-linejoin:round;stroke-miterlimit:2;">
    <g transform="matrix(0.24,0,0,0.24,0,0)">
        <g transform="matrix(22.8198,0,0,22.8198,-5127.79,-8305.84)">
            <g transform="matrix(50,0,0,50,218.849,406.944)">
                <path d="M0.635,0.171C0.564,0.171 0.498,0.158 0.435,0.131C0.373,0.105 0.317,0.068 0.27,0.021C0.222,-0.027 0.185,-0.081 0.158,-0.143C0.131,-0.205 0.117,-0.272 0.117,-0.342C0.117,-0.413 0.131,-0.48 0.158,-0.542C0.185,-0.603 0.222,-0.658 0.27,-0.705C0.317,-0.751 0.373,-0.788 0.435,-0.815C0.498,-0.841 0.564,-0.854 0.635,-0.854C0.706,-0.854 0.772,-0.841 0.835,-0.815C0.897,-0.788 0.952,-0.751 1,-0.705C1.047,-0.658 1.085,-0.603 1.112,-0.542C1.139,-0.48 1.152,-0.413 1.152,-0.342C1.152,-0.272 1.139,-0.205 1.112,-0.143C1.085,-0.081 1.047,-0.027 1,0.021C0.952,0.068 0.897,0.105 0.835,0.131C0.772,0.158 0.706,0.171 0.635,0.171ZM0.559,-0.165C0.527,-0.177 0.501,-0.197 0.481,-0.224C0.462,-0.251 0.451,-0.281 0.449,-0.315L0.488,-0.317C0.49,-0.291 0.498,-0.268 0.513,-0.247C0.528,-0.226 0.549,-0.21 0.573,-0.201L0.559,-0.165ZM0.46,0.03L0.457,0.017C0.501,0.004 0.536,-0.018 0.562,-0.05C0.588,-0.081 0.601,-0.118 0.601,-0.159C0.601,-0.173 0.599,-0.188 0.595,-0.206C0.591,-0.223 0.586,-0.239 0.581,-0.252C0.578,-0.261 0.578,-0.267 0.582,-0.271L0.592,-0.282C0.595,-0.286 0.599,-0.288 0.603,-0.288C0.606,-0.288 0.61,-0.286 0.615,-0.284C0.62,-0.282 0.627,-0.281 0.635,-0.281C0.643,-0.281 0.65,-0.282 0.655,-0.284C0.66,-0.286 0.664,-0.288 0.667,-0.288C0.671,-0.288 0.674,-0.286 0.677,-0.282L0.688,-0.271C0.691,-0.267 0.692,-0.261 0.688,-0.252C0.683,-0.239 0.679,-0.223 0.675,-0.206C0.671,-0.188 0.669,-0.173 0.669,-0.159C0.669,-0.118 0.682,-0.081 0.708,-0.05C0.734,-0.018 0.769,0.004 0.813,0.017L0.81,0.03C0.772,0.024 0.742,0.015 0.718,0.003C0.694,-0.009 0.673,-0.028 0.654,-0.055C0.649,-0.062 0.645,-0.067 0.642,-0.069C0.639,-0.071 0.637,-0.072 0.635,-0.072C0.632,-0.072 0.63,-0.071 0.628,-0.069C0.625,-0.067 0.621,-0.062 0.616,-0.055C0.597,-0.028 0.575,-0.009 0.552,0.003C0.528,0.015 0.498,0.024 0.46,0.03ZM0.232,-0.216L0.219,-0.221C0.228,-0.255 0.239,-0.283 0.253,-0.306C0.267,-0.329 0.284,-0.349 0.305,-0.366C0.324,-0.382 0.347,-0.394 0.373,-0.403C0.398,-0.412 0.43,-0.418 0.466,-0.421C0.447,-0.452 0.433,-0.479 0.424,-0.504C0.415,-0.528 0.41,-0.552 0.41,-0.576C0.41,-0.602 0.415,-0.627 0.423,-0.651C0.432,-0.675 0.446,-0.7 0.465,-0.727L0.477,-0.72C0.466,-0.699 0.459,-0.681 0.454,-0.665C0.449,-0.648 0.447,-0.632 0.447,-0.616C0.447,-0.585 0.454,-0.556 0.468,-0.53C0.481,-0.503 0.501,-0.481 0.525,-0.464C0.55,-0.446 0.579,-0.435 0.611,-0.429C0.62,-0.428 0.625,-0.423 0.625,-0.414C0.625,-0.407 0.621,-0.401 0.614,-0.398C0.588,-0.388 0.575,-0.37 0.575,-0.347C0.575,-0.342 0.576,-0.337 0.577,-0.332C0.578,-0.327 0.579,-0.321 0.58,-0.315C0.582,-0.308 0.58,-0.301 0.574,-0.297C0.566,-0.291 0.558,-0.291 0.551,-0.299C0.533,-0.317 0.513,-0.331 0.49,-0.341C0.468,-0.35 0.445,-0.355 0.42,-0.355C0.374,-0.355 0.333,-0.34 0.296,-0.309C0.271,-0.289 0.25,-0.258 0.232,-0.216ZM0.635,0.117C0.698,0.117 0.757,0.105 0.812,0.081C0.867,0.057 0.916,0.024 0.958,-0.019C1.001,-0.061 1.034,-0.11 1.058,-0.165C1.082,-0.22 1.094,-0.279 1.094,-0.342C1.094,-0.405 1.082,-0.464 1.058,-0.52C1.034,-0.575 1.001,-0.624 0.958,-0.666C0.916,-0.708 0.867,-0.741 0.812,-0.765C0.757,-0.789 0.698,-0.801 0.635,-0.801C0.572,-0.801 0.513,-0.789 0.458,-0.765C0.402,-0.741 0.353,-0.708 0.311,-0.666C0.269,-0.624 0.236,-0.575 0.212,-0.52C0.188,-0.464 0.176,-0.405 0.176,-0.342C0.176,-0.279 0.188,-0.22 0.212,-0.165C0.236,-0.11 0.269,-0.061 0.311,-0.019C0.353,0.024 0.402,0.057 0.458,0.081C0.513,0.105 0.572,0.117 0.635,0.117ZM0.711,-0.165L0.696,-0.201C0.721,-0.21 0.741,-0.226 0.757,-0.247C0.772,-0.268 0.78,-0.291 0.781,-0.317L0.82,-0.315C0.819,-0.281 0.808,-0.251 0.788,-0.224C0.768,-0.197 0.743,-0.177 0.711,-0.165ZM0.552,-0.467L0.53,-0.499C0.562,-0.52 0.597,-0.53 0.635,-0.53C0.672,-0.53 0.707,-0.52 0.738,-0.499L0.717,-0.467C0.692,-0.483 0.665,-0.491 0.635,-0.491C0.604,-0.491 0.577,-0.483 0.552,-0.467ZM1.038,-0.216C1.02,-0.258 0.998,-0.289 0.974,-0.309C0.937,-0.34 0.895,-0.355 0.85,-0.355C0.825,-0.355 0.801,-0.35 0.779,-0.341C0.757,-0.331 0.737,-0.317 0.719,-0.299C0.712,-0.291 0.704,-0.291 0.695,-0.297C0.689,-0.301 0.688,-0.308 0.689,-0.315C0.691,-0.321 0.692,-0.327 0.693,-0.332C0.694,-0.337 0.694,-0.342 0.694,-0.347C0.694,-0.37 0.681,-0.388 0.656,-0.398C0.649,-0.401 0.645,-0.407 0.645,-0.414C0.645,-0.423 0.649,-0.428 0.658,-0.429C0.691,-0.435 0.719,-0.446 0.744,-0.464C0.769,-0.481 0.788,-0.503 0.802,-0.53C0.816,-0.556 0.823,-0.585 0.823,-0.616C0.823,-0.632 0.82,-0.648 0.816,-0.665C0.811,-0.681 0.803,-0.699 0.792,-0.72L0.804,-0.727C0.823,-0.7 0.837,-0.675 0.846,-0.651C0.855,-0.627 0.859,-0.602 0.859,-0.576C0.859,-0.552 0.855,-0.528 0.846,-0.504C0.837,-0.479 0.823,-0.452 0.803,-0.421C0.84,-0.418 0.871,-0.412 0.897,-0.403C0.923,-0.394 0.945,-0.382 0.964,-0.366C0.986,-0.349 1.003,-0.329 1.017,-0.306C1.03,-0.283 1.042,-0.255 1.05,-0.221L1.038,-0.216Z" style="fill-rule:nonzero;"/>
            </g>
        </g>
    </g>
</svg>
