<?xml version="1.0" encoding="UTF-8" standalone="no"?>
<!DOCTYPE svg PUBLIC "-//W3C//DTD SVG 1.1//EN" "http://www.w3.org/Graphics/SVG/1.1/DTD/svg11.dtd">
<svg width="100%" height="100%" viewBox="0 0 284 284" version="1.1" xmlns="http://www.w3.org/2000/svg" xmlns:xlink="http://www.w3.org/1999/xlink" xml:space="preserve" xmlns:serif="http://www.serif.com/" style="fill-rule:evenodd;clip-rule:evenodd;stroke-linejoin:round;stroke-miterlimit:2;">
    <g>
        <g>
            <g>
                <path d="M141.799,282.156C62.117,282.156 -0.049,216.215 -0.049,141.677C-0.049,63.907 63.912,1.472 141.799,1.472C219.881,1.472 283.373,64.397 283.373,141.677C283.373,218.97 218.976,282.156 141.799,282.156ZM120.987,190.147C103.462,183.574 91.961,167.692 90.865,149.071L101.545,148.523C102.686,163.356 112.182,175.549 124.821,180.288L120.987,190.147ZM93.877,243.545L93.056,239.985C105.105,236.425 114.689,230.401 121.809,221.638C128.929,213.149 132.488,203.017 132.488,191.79C132.488,184.122 129.75,173.442 127.012,166.323C126.19,163.858 126.19,162.215 127.286,161.12L130.024,158.108C130.845,157.012 131.941,156.465 133.036,156.465C133.858,156.465 134.953,157.012 136.322,157.56C139.061,158.655 144.537,158.655 147.276,157.56C148.645,157.012 149.74,156.465 150.562,156.465C151.657,156.465 152.479,157.012 153.3,158.108L156.312,161.12C157.134,162.215 157.408,163.858 156.312,166.323C153.574,173.442 151.109,184.122 151.109,191.79C151.109,203.017 154.669,213.149 161.789,221.638C168.909,230.401 178.493,236.425 190.542,239.985L189.721,243.545C179.315,241.902 171.1,239.437 164.527,236.151C157.955,232.865 152.205,227.662 147.002,220.269C143.579,215.477 142.712,215.613 141.799,215.613C139.745,215.613 138.878,217.074 136.596,220.269C131.393,227.662 125.369,232.865 119.07,236.151C112.498,239.437 104.283,241.902 93.877,243.545ZM31.442,176.181L27.883,174.812C30.347,165.501 33.359,157.834 37.193,151.535C41.027,145.237 45.682,139.76 51.433,135.105C61.838,126.342 75.804,121.687 95.52,120.044C85.115,103.066 80.186,90.744 80.186,77.599C80.186,63.36 84.841,51.037 95.247,36.25L98.533,38.167C92.508,49.668 90.318,57.883 90.318,66.646C90.318,92.686 109.224,112.978 135.227,117.853C137.691,118.127 139.061,119.496 139.061,121.961C139.061,123.878 137.965,125.521 136.048,126.342C128.929,129.081 125.369,134.01 125.369,140.308C125.369,141.677 125.643,143.046 125.916,144.416C126.19,145.785 126.464,147.428 126.738,149.071C127.286,150.988 126.738,152.905 125.095,154C122.904,155.643 120.713,155.643 118.797,153.452C113.868,148.523 108.391,144.69 102.093,141.951C96.068,139.487 89.77,138.117 82.924,138.117C70.327,138.117 59.1,142.225 48.968,150.714C42.122,156.191 36.371,164.68 31.442,176.181ZM141.799,267.369C211.363,267.369 267.49,210.261 267.49,141.677C267.49,72.67 210.565,15.986 141.799,15.986C72.792,15.986 16.108,73.014 16.108,141.677C16.108,211.241 73.318,267.369 141.799,267.369ZM162.611,190.147L158.503,180.288C172.195,175.359 181.232,162.763 181.779,148.523L192.459,149.071C191.911,167.692 180.136,183.574 162.611,190.147ZM119.07,107.448L113.046,98.685C130.572,87.184 153.026,87.184 170.004,98.685L164.254,107.448C150.562,98.685 132.762,98.685 119.07,107.448ZM252.156,176.181C247.226,164.68 241.202,156.191 234.63,150.714C224.498,142.225 212.997,138.117 200.674,138.117C193.828,138.117 187.256,139.487 181.232,141.951C175.207,144.69 169.73,148.523 164.801,153.452C162.884,155.643 160.694,155.643 158.229,154C156.586,152.905 156.312,150.988 156.586,149.071C157.134,147.428 157.408,145.785 157.682,144.416C157.955,143.046 157.955,141.677 157.955,140.308C157.955,134.01 154.396,129.081 147.55,126.342C145.633,125.521 144.537,123.878 144.537,121.961C144.537,119.496 145.633,118.127 148.097,117.853C175.564,112.859 193.28,91.467 193.28,66.646C193.28,57.883 190.816,49.668 184.791,38.167L188.078,36.25C198.483,51.037 203.139,63.36 203.139,77.599C203.139,90.744 198.757,103.066 187.804,120.044C208.068,121.687 221.486,126.342 231.892,135.105C237.916,139.76 242.571,145.237 246.405,151.535C249.965,157.834 253.251,165.501 255.442,174.812L252.156,176.181Z" style="fill:rgb(128,128,128);fill-rule:nonzero;"/>
            </g>
        </g>
    </g>
</svg>
