<?xml version="1.0" encoding="UTF-8" standalone="no"?>
<!DOCTYPE svg PUBLIC "-//W3C//DTD SVG 1.1//EN" "http://www.w3.org/Graphics/SVG/1.1/DTD/svg11.dtd">
<svg width="100%" height="100%" viewBox="0 0 284 284" version="1.1" xmlns="http://www.w3.org/2000/svg" xmlns:xlink="http://www.w3.org/1999/xlink" xml:space="preserve" xmlns:serif="http://www.serif.com/" fill="#808080" style="fill-rule:evenodd;clip-rule:evenodd;stroke-linejoin:round;stroke-miterlimit:2;">
    <g transform="matrix(0.24,0,0,0.24,0,0)">
        <g transform="matrix(0.994946,0,0,1,5.96967,0)">
            <path d="M644.956,2.768L663.865,94.358C700.46,99.93 736.327,109.492 770.818,122.872L833.221,52.959C868.141,68.756 901.44,87.884 932.65,110.074L902.998,198.8C931.89,221.829 958.146,247.953 981.293,276.699L1070.47,247.197C1092.77,278.249 1112,311.379 1127.87,346.123L1057.61,408.211C1071.05,442.528 1080.66,478.213 1086.27,514.623L1178.32,533.436C1182.03,571.423 1182.03,609.679 1178.32,647.666L1086.27,666.479C1080.66,702.889 1071.05,738.575 1057.61,772.892L1127.87,834.98C1112,869.723 1092.77,902.853 1070.47,933.905L981.293,904.403C958.146,933.149 931.89,959.273 902.998,982.303L932.65,1071.03C901.44,1093.22 868.141,1112.35 833.221,1128.14L770.818,1058.23C736.327,1071.61 700.46,1081.17 663.865,1086.74L644.956,1178.33C606.776,1182.03 568.326,1182.03 530.146,1178.33L511.237,1086.74C474.643,1081.17 438.776,1071.61 404.284,1058.23L341.881,1128.14C306.961,1112.35 273.663,1093.22 242.453,1071.03L272.105,982.303C243.213,959.273 216.956,933.149 193.81,904.403L104.633,933.905C82.33,902.853 63.105,869.723 47.228,834.98L117.496,772.892C104.048,738.575 94.437,702.889 88.838,666.479L-3.218,647.666C-6.927,609.679 -6.927,571.423 -3.218,533.436L88.838,514.623C94.437,478.213 104.048,442.528 117.496,408.211L47.228,346.123C63.105,311.379 82.33,278.249 104.633,247.197L193.81,276.699C216.956,247.953 243.213,221.829 272.105,198.8L242.453,110.074C273.663,87.884 306.961,68.756 341.881,52.959L404.284,122.872C438.776,109.492 474.643,99.93 511.237,94.358L530.146,2.768C568.326,-0.923 606.776,-0.923 644.956,2.768ZM587.551,472.441C653.069,472.441 706.261,525.364 706.261,590.551C706.261,655.738 653.069,708.661 587.551,708.661C522.033,708.661 468.841,655.738 468.841,590.551C468.841,525.364 522.033,472.441 587.551,472.441Z"/>
        </g>
    </g>
</svg>
