<?xml version="1.0" encoding="UTF-8" standalone="no"?>
<!DOCTYPE svg PUBLIC "-//W3C//DTD SVG 1.1//EN" "http://www.w3.org/Graphics/SVG/1.1/DTD/svg11.dtd">
<svg width="100%" height="100%" viewBox="0 0 284 284" version="1.1" xmlns="http://www.w3.org/2000/svg" xmlns:xlink="http://www.w3.org/1999/xlink" xml:space="preserve" xmlns:serif="http://www.serif.com/" fill="#808080" style="fill-rule:evenodd;clip-rule:evenodd;stroke-linejoin:round;stroke-miterlimit:2;">
    <g transform="matrix(0.24,0,0,0.24,0,0)">
        <g transform="matrix(0.994946,0,0,1,5.96967,0)">
            <path d="M644.956,2.768L663.865,94.358C700.46,99.93 736.327,109.492 770.818,122.872L833.221,52.959C868.141,68.756 901.44,87.884 932.65,110.074L902.998,198.8C931.89,221.829 958.146,247.953 981.293,276.699L1070.47,247.197C1092.77,278.249 1112,311.379 1127.87,346.123L1057.61,408.211C1071.05,442.528 1080.66,478.213 1086.27,514.623L1178.32,533.436C1182.03,571.423 1182.03,609.679 1178.32,647.666L1086.27,666.479C1080.66,702.889 1071.05,738.575 1057.61,772.892L1127.87,834.98C1112,869.723 1092.77,902.853 1070.47,933.905L981.293,904.403C958.146,933.149 931.89,959.273 902.998,982.303L932.65,1071.03C901.44,1093.22 868.141,1112.35 833.221,1128.14L770.818,1058.23C736.327,1071.61 700.46,1081.17 663.865,1086.74L644.956,1178.33C606.776,1182.03 568.326,1182.03 530.146,1178.33L511.237,1086.74C474.643,1081.17 438.776,1071.61 404.284,1058.23L341.881,1128.14C306.961,1112.35 273.663,1093.22 242.453,1071.03L272.105,982.303C243.213,959.273 216.956,933.149 193.81,904.403L104.633,933.905C82.33,902.853 63.105,869.723 47.228,834.98L117.496,772.892C104.048,738.575 94.437,702.889 88.838,666.479L-3.218,647.666C-6.927,609.679 -6.927,571.423 -3.218,533.436L88.838,514.623C94.437,478.213 104.048,442.528 117.496,408.211L47.228,346.123C63.105,311.379 82.33,278.249 104.633,247.197L193.81,276.699C216.956,247.953 243.213,221.829 272.105,198.8L242.453,110.074C273.663,87.884 306.961,68.756 341.881,52.959L404.284,122.872C438.776,109.492 474.643,99.93 511.237,94.358L530.146,2.768C568.326,-0.923 606.776,-0.923 644.956,2.768ZM593.165,62.53C589.423,62.49 585.68,62.49 581.937,62.53L563.97,149.557L520.739,156.139C488.701,161.017 457.3,169.388 427.103,181.102L386.356,196.909L327.061,130.478C323.8,132.306 320.559,134.168 317.338,136.064L345.513,220.37L311.381,247.577C286.086,267.739 263.099,290.61 242.834,315.777L215.49,349.736L130.755,321.703C128.849,324.908 126.978,328.133 125.141,331.377L191.909,390.373L176.022,430.914C164.249,460.958 155.835,492.201 150.932,524.077L144.317,567.09L56.847,584.966C56.808,588.689 56.808,592.413 56.847,596.137L144.317,614.013L150.932,657.026C155.835,688.902 164.249,720.144 176.022,750.189L191.909,790.73L125.141,849.725C126.978,852.969 128.849,856.194 130.755,859.399L215.49,831.366L242.834,865.326C263.099,890.492 286.086,913.363 311.381,933.526L345.513,960.732L317.338,1045.04C320.559,1046.93 323.8,1048.8 327.061,1050.62L386.356,984.194L427.103,1000C457.3,1011.71 488.701,1020.09 520.739,1024.96L563.97,1031.55L581.938,1118.57C585.68,1118.61 589.422,1118.61 593.165,1118.57L611.132,1031.55L654.363,1024.96C686.401,1020.09 717.803,1011.71 748,1000L788.747,984.194L848.042,1050.62C851.302,1048.8 854.544,1046.93 857.765,1045.04L829.59,960.732L863.722,933.526C889.016,913.363 912.003,890.492 932.268,865.326L959.613,831.366L1044.35,859.399C1046.25,856.194 1048.12,852.969 1049.96,849.725L983.194,790.73L999.08,750.189C1010.85,720.144 1019.27,688.902 1024.17,657.026L1030.79,614.013L1118.26,596.136C1118.3,592.413 1118.3,588.689 1118.26,584.966L1030.79,567.09L1024.17,524.077C1019.27,492.201 1010.85,460.958 999.08,430.914L983.194,390.373L1049.96,331.377C1048.12,328.133 1046.25,324.908 1044.35,321.703L959.613,349.736L932.268,315.777C912.003,290.61 889.016,267.739 863.722,247.577L829.59,220.37L857.765,136.064C854.544,134.168 851.302,132.306 848.042,130.478L788.747,196.909L748,181.102C717.803,169.388 686.401,161.017 654.363,156.139L611.132,149.557L593.165,62.53ZM587.551,409.941C687.739,409.941 769.079,490.87 769.079,590.551C769.079,690.233 687.739,771.161 587.551,771.161C487.363,771.161 406.023,690.233 406.023,590.551C406.023,490.87 487.363,409.941 587.551,409.941ZM587.551,472.441C522.033,472.441 468.841,525.364 468.841,590.551C468.841,655.738 522.033,708.661 587.551,708.661C653.069,708.661 706.261,655.738 706.261,590.551C706.261,525.364 653.069,472.441 587.551,472.441Z"/>
        </g>
    </g>
</svg>
