<?xml version="1.0" encoding="UTF-8" standalone="no"?>
<!DOCTYPE svg PUBLIC "-//W3C//DTD SVG 1.1//EN" "http://www.w3.org/Graphics/SVG/1.1/DTD/svg11.dtd">
<svg width="100%" height="100%" viewBox="0 0 284 284" version="1.1" xmlns="http://www.w3.org/2000/svg" xmlns:xlink="http://www.w3.org/1999/xlink" xml:space="preserve" xmlns:serif="http://www.serif.com/" style="fill-rule:evenodd;clip-rule:evenodd;stroke-linejoin:round;stroke-miterlimit:2;">
    <g>
        <g>
            <g>
                <path d="M13.691,175.726L13.691,107.624L269.908,107.624L269.908,175.726L13.691,175.726ZM141.8,283.46C118.964,283.46 100.213,264.647 100.213,242.152C100.213,219.988 118.118,200.845 141.8,200.845C164.635,200.845 183.107,219.657 183.107,242.152C183.107,264.988 164.295,283.46 141.8,283.46ZM141.8,82.784C118.118,82.784 100.213,63.972 100.213,41.477C100.213,17.795 119.305,-0.11 141.8,-0.11C164.095,-0.11 183.107,17.867 183.107,41.477C183.107,64.313 164.295,82.784 141.8,82.784Z" style="fill:rgb(128,128,128);fill-rule:nonzero;"/>
            </g>
        </g>
    </g>
</svg>
