<?xml version="1.0" encoding="UTF-8" standalone="no"?>
<!DOCTYPE svg PUBLIC "-//W3C//DTD SVG 1.1//EN" "http://www.w3.org/Graphics/SVG/1.1/DTD/svg11.dtd">
<svg width="100%" height="100%" viewBox="0 0 284 284" version="1.1" xmlns="http://www.w3.org/2000/svg" xmlns:xlink="http://www.w3.org/1999/xlink" xml:space="preserve" xmlns:serif="http://www.serif.com/" fill="#808080" style="fill-rule:evenodd;clip-rule:evenodd;stroke-linejoin:round;stroke-miterlimit:2;">
    <g transform="matrix(0.24,0,0,0.24,0,0)">
        <g transform="matrix(21.4695,0,0,21.4695,-3946.83,-8791)">
            <g transform="matrix(54.1667,0,0,54.1667,176.958,455.485)">
                <path d="M0.176,-0.22L0.176,-0.464L1.094,-0.464L1.094,-0.22L0.176,-0.22ZM0.635,0.166C0.608,0.166 0.583,0.159 0.56,0.146C0.538,0.133 0.52,0.115 0.506,0.092C0.493,0.069 0.486,0.045 0.486,0.018C0.486,-0.009 0.493,-0.034 0.506,-0.057C0.52,-0.079 0.538,-0.097 0.56,-0.11C0.583,-0.124 0.607,-0.13 0.635,-0.13C0.662,-0.13 0.687,-0.124 0.709,-0.11C0.732,-0.097 0.75,-0.079 0.763,-0.057C0.777,-0.034 0.783,-0.009 0.783,0.018C0.783,0.045 0.777,0.069 0.763,0.092C0.75,0.115 0.732,0.133 0.709,0.146C0.687,0.159 0.662,0.166 0.635,0.166ZM0.635,-0.553C0.607,-0.553 0.583,-0.56 0.56,-0.573C0.538,-0.587 0.52,-0.604 0.506,-0.627C0.493,-0.649 0.486,-0.674 0.486,-0.701C0.486,-0.729 0.493,-0.753 0.506,-0.776C0.52,-0.798 0.538,-0.816 0.56,-0.83C0.583,-0.843 0.608,-0.85 0.635,-0.85C0.662,-0.85 0.687,-0.843 0.709,-0.83C0.732,-0.816 0.75,-0.798 0.763,-0.776C0.777,-0.753 0.783,-0.729 0.783,-0.701C0.783,-0.674 0.777,-0.649 0.763,-0.627C0.75,-0.604 0.732,-0.587 0.709,-0.573C0.687,-0.56 0.662,-0.553 0.635,-0.553Z" style="fill-rule:nonzero;"/>
            </g>
        </g>
    </g>
</svg>
