<?xml version="1.0" encoding="UTF-8" standalone="no"?>
<!DOCTYPE svg PUBLIC "-//W3C//DTD SVG 1.1//EN" "http://www.w3.org/Graphics/SVG/1.1/DTD/svg11.dtd">
<svg width="100%" height="100%" viewBox="0 0 284 284" version="1.1" xmlns="http://www.w3.org/2000/svg" xmlns:xlink="http://www.w3.org/1999/xlink" xml:space="preserve" xmlns:serif="http://www.serif.com/" fill="#808080" style="fill-rule:evenodd;clip-rule:evenodd;stroke-linejoin:round;stroke-miterlimit:2;">
    <g transform="matrix(0.24,0,0,0.24,0,0)">
        <path d="M590.551,0C916.485,0 1181.1,264.617 1181.1,590.551C1181.1,916.485 916.485,1181.1 590.551,1181.1C264.617,1181.1 0,916.485 0,590.551C0,264.617 264.617,0 590.551,0ZM590.551,62.5C299.112,62.5 62.5,299.112 62.5,590.551C62.5,881.991 299.112,1118.6 590.551,1118.6C881.991,1118.6 1118.6,881.991 1118.6,590.551C1118.6,299.112 881.991,62.5 590.551,62.5ZM590.551,232.776C788.013,232.776 948.327,393.089 948.327,590.551C948.327,788.013 788.013,948.327 590.551,948.327C393.089,948.327 232.776,788.013 232.776,590.551C232.776,393.089 393.089,232.776 590.551,232.776ZM590.551,295.276C427.584,295.276 295.276,427.584 295.276,590.551C295.276,753.518 427.584,885.827 590.551,885.827C753.518,885.827 885.827,753.518 885.827,590.551C885.827,427.584 753.518,295.276 590.551,295.276Z" />
    </g>
</svg>
