<?xml version="1.0" encoding="UTF-8" standalone="no"?>
<!DOCTYPE svg PUBLIC "-//W3C//DTD SVG 1.1//EN" "http://www.w3.org/Graphics/SVG/1.1/DTD/svg11.dtd">
<svg width="100%" height="100%" viewBox="0 0 284 284" version="1.1" xmlns="http://www.w3.org/2000/svg" xmlns:xlink="http://www.w3.org/1999/xlink" xml:space="preserve" xmlns:serif="http://www.serif.com/" style="fill-rule:evenodd;clip-rule:evenodd;stroke-linejoin:round;stroke-miterlimit:2;">
    <g transform="matrix(0.24,0,0,0.24,0,0)">
        <g transform="matrix(23.2586,0,0,23.2586,-4371.69,-8198.55)">
            <g transform="matrix(50,0,0,50,181.612,394.975)">
                <path d="M0.635,0.166C0.565,0.166 0.5,0.153 0.439,0.126C0.377,0.1 0.323,0.063 0.277,0.016C0.23,-0.031 0.193,-0.085 0.167,-0.146C0.14,-0.208 0.127,-0.273 0.127,-0.342C0.127,-0.412 0.14,-0.477 0.167,-0.538C0.193,-0.599 0.23,-0.653 0.277,-0.7C0.323,-0.747 0.377,-0.783 0.439,-0.81C0.5,-0.836 0.565,-0.85 0.635,-0.85C0.704,-0.85 0.769,-0.836 0.831,-0.81C0.892,-0.783 0.946,-0.747 0.993,-0.7C1.04,-0.653 1.076,-0.599 1.103,-0.538C1.129,-0.477 1.143,-0.412 1.143,-0.342C1.143,-0.273 1.129,-0.208 1.103,-0.146C1.076,-0.085 1.04,-0.031 0.993,0.016C0.946,0.063 0.892,0.1 0.831,0.126C0.769,0.153 0.704,0.166 0.635,0.166ZM0.634,0.058C0.598,0.058 0.563,0.054 0.531,0.045C0.498,0.037 0.468,0.025 0.44,0.008L0.583,-0.239C0.6,-0.231 0.617,-0.227 0.635,-0.227C0.653,-0.227 0.67,-0.231 0.686,-0.239L0.829,0.008C0.801,0.025 0.771,0.037 0.739,0.045C0.706,0.054 0.671,0.058 0.634,0.058ZM0.238,-0.343C0.238,-0.387 0.246,-0.43 0.261,-0.472C0.277,-0.515 0.3,-0.554 0.329,-0.589C0.358,-0.625 0.392,-0.655 0.432,-0.68L0.575,-0.433C0.56,-0.423 0.547,-0.411 0.538,-0.395C0.529,-0.379 0.524,-0.362 0.523,-0.343L0.238,-0.343ZM0.634,-0.282C0.619,-0.282 0.605,-0.287 0.594,-0.298C0.583,-0.309 0.578,-0.323 0.578,-0.338C0.578,-0.354 0.583,-0.367 0.594,-0.378C0.605,-0.389 0.619,-0.395 0.634,-0.395C0.651,-0.395 0.664,-0.389 0.675,-0.378C0.686,-0.367 0.692,-0.354 0.692,-0.338C0.692,-0.323 0.686,-0.309 0.675,-0.298C0.664,-0.287 0.651,-0.282 0.634,-0.282ZM0.635,0.127C0.699,0.127 0.759,0.115 0.816,0.09C0.872,0.066 0.922,0.032 0.965,-0.011C1.008,-0.055 1.042,-0.104 1.067,-0.161C1.091,-0.218 1.104,-0.278 1.104,-0.342C1.104,-0.406 1.091,-0.467 1.067,-0.523C1.042,-0.58 1.008,-0.629 0.965,-0.673C0.922,-0.716 0.872,-0.75 0.816,-0.774C0.759,-0.798 0.699,-0.811 0.635,-0.811C0.571,-0.811 0.51,-0.798 0.454,-0.774C0.397,-0.75 0.348,-0.716 0.304,-0.673C0.261,-0.629 0.227,-0.58 0.203,-0.523C0.178,-0.467 0.166,-0.406 0.166,-0.342C0.166,-0.278 0.178,-0.218 0.203,-0.161C0.227,-0.104 0.261,-0.055 0.304,-0.011C0.348,0.032 0.397,0.066 0.454,0.09C0.51,0.115 0.571,0.127 0.635,0.127ZM0.746,-0.343C0.745,-0.362 0.741,-0.379 0.731,-0.395C0.722,-0.411 0.71,-0.423 0.694,-0.433L0.838,-0.68C0.878,-0.655 0.912,-0.625 0.941,-0.589C0.97,-0.554 0.992,-0.515 1.008,-0.472C1.024,-0.43 1.032,-0.387 1.032,-0.343L0.746,-0.343Z" style="fill-rule:nonzero;"/>
            </g>
        </g>
    </g>
</svg>
