<?xml version="1.0" encoding="UTF-8" standalone="no"?>
<!DOCTYPE svg PUBLIC "-//W3C//DTD SVG 1.1//EN" "http://www.w3.org/Graphics/SVG/1.1/DTD/svg11.dtd">
<svg width="100%" height="100%" viewBox="0 0 284 284" version="1.1" xmlns="http://www.w3.org/2000/svg" xmlns:xlink="http://www.w3.org/1999/xlink" xml:space="preserve" xmlns:serif="http://www.serif.com/" style="fill-rule:evenodd;clip-rule:evenodd;stroke-linejoin:round;stroke-miterlimit:2;">
    <g>
        <g>
            <g>
                <path d="M141.795,283.455C62.051,283.455 0.01,217.812 0.01,141.67C0.01,62.572 63.84,-0.114 141.795,-0.114C217.614,-0.114 283.579,63.493 283.579,141.67C283.579,218.092 218.649,283.455 141.795,283.455ZM141.516,253.312C121.42,253.312 102.999,248.846 87.37,239.357L127.281,170.418C136.771,174.884 147.098,174.884 156.029,170.418L195.941,239.357C179.992,249.04 161.764,253.312 141.516,253.312ZM30.991,141.391C30.991,129.111 33.224,117.109 37.41,105.387C41.876,93.386 48.295,82.501 56.389,72.732C64.483,62.684 73.973,54.311 85.137,47.334L125.049,116.272C116.675,121.854 111.093,130.785 110.535,141.391L30.991,141.391ZM141.516,158.417C133.143,158.417 125.886,151.16 125.886,142.787C125.886,133.856 133.143,126.878 141.516,126.878C151.005,126.878 157.704,133.856 157.704,142.787C157.704,150.996 151.199,158.417 141.516,158.417ZM141.795,272.57C213.245,272.57 272.694,212.978 272.694,141.67C272.694,71.067 213.175,10.771 141.795,10.771C69.183,10.771 10.895,70.741 10.895,141.67C10.895,214.283 70.865,272.57 141.795,272.57ZM172.775,141.391C172.217,130.785 167.193,121.854 158.262,116.272L198.453,47.334C209.617,54.311 219.106,62.684 227.2,72.732C235.294,82.501 241.435,93.386 245.9,105.387C250.366,117.109 252.599,129.111 252.599,141.391L172.775,141.391Z" style="fill:rgb(128,128,128);fill-rule:nonzero;"/>
            </g>
        </g>
    </g>
</svg>
