<?xml version="1.0" encoding="UTF-8" standalone="no"?>
<!DOCTYPE svg PUBLIC "-//W3C//DTD SVG 1.1//EN" "http://www.w3.org/Graphics/SVG/1.1/DTD/svg11.dtd">
<svg width="100%" height="100%" viewBox="0 0 284 284" version="1.1" xmlns="http://www.w3.org/2000/svg" xmlns:xlink="http://www.w3.org/1999/xlink" xml:space="preserve" xmlns:serif="http://www.serif.com/" fill="#808080" style="fill-rule:evenodd;clip-rule:evenodd;stroke-linejoin:round;stroke-miterlimit:2;">
    <g transform="matrix(0.24,0,0,0.24,0,0)">
        <g transform="matrix(1,0,0,1,295.276,0)">
            <path d="M295.276,0C295.276,0 590.551,620.079 590.551,885.827C590.551,1048.79 458.243,1181.1 295.276,1181.1C132.309,1181.1 0,1048.79 0,885.827C0,620.079 295.276,0 295.276,0ZM295.276,149.994C211.115,339.716 62.5,700.917 62.5,885.827C62.5,1014.3 166.803,1118.6 295.276,1118.6C423.748,1118.6 528.051,1014.3 528.051,885.827C528.051,700.917 379.436,339.716 295.276,149.994Z"/>
        </g>
    </g>
</svg>
