<?xml version="1.0" encoding="UTF-8" standalone="no"?>
<!DOCTYPE svg PUBLIC "-//W3C//DTD SVG 1.1//EN" "http://www.w3.org/Graphics/SVG/1.1/DTD/svg11.dtd">
<svg width="100%" height="100%" viewBox="0 0 284 284" version="1.1" xmlns="http://www.w3.org/2000/svg" xmlns:xlink="http://www.w3.org/1999/xlink" xml:space="preserve" xmlns:serif="http://www.serif.com/" style="fill-rule:evenodd;clip-rule:evenodd;stroke-linejoin:round;stroke-miterlimit:2;">
    <g transform="matrix(0.24,0,0,0.24,0,0)">
        <path d="M795.495,1162.13C763.06,1165.25 736.008,1167.41 714.34,1168.61C687.084,1170.12 664.181,1170.88 645.631,1170.88C548.72,1170.88 466.952,1149.87 400.326,1107.85L382.155,1096.5C349.599,1076.05 323.1,1061.95 302.657,1054.19C282.215,1046.43 261.584,1042.55 240.763,1042.55L56.784,1042.55L56.784,558.184C92.747,558.184 131.644,557.143 173.474,555.061C215.305,552.979 255.716,547.206 294.708,537.742C300.008,506.322 312.595,479.444 332.469,457.109C352.343,434.774 384.426,410.925 428.717,385.562C468.088,362.848 498.751,340.135 520.707,317.421C542.664,294.708 558.09,268.398 566.986,238.492C575.882,208.586 580.33,171.676 580.33,127.763L580.33,105.618C580.33,35.206 606.64,0 659.26,0C700.144,0 732.889,18.36 757.495,55.08C782.102,91.8 794.405,140.256 794.405,200.447C794.405,233.76 790.998,264.612 784.184,293.004C777.37,321.396 770.177,348.652 762.606,374.773C758.353,389.446 754.876,404.239 752.176,419.151C769.756,412.25 789.889,407.3 812.576,404.3L938.068,388.401C978.574,383.101 1010.85,390.578 1034.88,410.831C1058.92,431.083 1070.94,462.031 1070.94,503.672C1070.94,534.745 1064.27,560.961 1050.93,582.318C1065.9,586.641 1078.82,593.833 1089.68,603.895C1112.77,625.284 1124.32,656.799 1124.32,698.44C1124.32,739.703 1112.77,771.124 1089.68,792.701C1083.88,798.12 1077.47,802.858 1070.46,806.916C1072.28,808.367 1074.05,809.875 1075.77,811.44C1099.43,833.018 1111.26,863.681 1111.26,903.43C1111.26,945.45 1098.77,977.722 1073.78,1000.25C1056.72,1015.63 1035.86,1024.61 1011.2,1027.19C1015.06,1038.6 1017,1051.48 1017,1065.83C1017,1098.01 1008.29,1125.27 990.877,1147.6C973.463,1169.93 951.885,1181.1 926.143,1181.1C924.25,1181.1 921.601,1180.91 918.194,1180.54C914.786,1180.16 908.73,1179.21 900.023,1177.69L795.495,1162.13Z"/>
    </g>
</svg>
