<?xml version="1.0" encoding="UTF-8" standalone="no"?>
<!DOCTYPE svg PUBLIC "-//W3C//DTD SVG 1.1//EN" "http://www.w3.org/Graphics/SVG/1.1/DTD/svg11.dtd">
<svg width="100%" height="100%" viewBox="0 0 1182 1182" version="1.1" xmlns="http://www.w3.org/2000/svg" xmlns:xlink="http://www.w3.org/1999/xlink" xml:space="preserve" xmlns:serif="http://www.serif.com/" style="fill-rule:evenodd;clip-rule:evenodd;stroke-linejoin:round;stroke-miterlimit:2;">
    <g>
        <path d="M791.616,1165.1C601.185,1186.11 496.828,1171.23 399.317,1113.04L376.833,1099.54C313.067,1061.3 274.272,1046.67 243.541,1046.67L50.628,1047.8L50.628,550.035C151.853,550.035 227.622,545.727 289.085,531.49C301.11,469.244 337.44,429.114 422.954,379.63C537.052,313.429 568.064,255.733 568.064,133.294L568.064,111.363C568.064,37.114 597.874,0.002 657.471,0.002C744.459,0.002 805.392,81.184 805.392,204.156C805.392,264.145 787.101,325.815 772.495,374.562C768.763,387.048 765.976,398.244 764.133,408.173C776.965,404.786 790.902,402.022 805.968,399.88L929.701,382.44C1018.16,369.678 1076.49,420.313 1076.49,507.302C1076.49,534.923 1070.78,558.444 1059.35,577.818C1103.65,595.096 1130.49,637.706 1130.49,697.957C1130.49,746.29 1113.44,782.295 1080.29,805.332C1104.37,828.07 1116.42,859.769 1116.42,900.43C1116.42,970.808 1076.57,1018.65 1020.42,1029.62C1022.17,1038.72 1023.07,1048.51 1023.07,1059.04C1023.07,1131.05 980.336,1181.09 921.822,1181.09C917.018,1181.09 911.399,1180.55 890.883,1177.73L791.616,1165.1ZM691.036,443.304C692.879,423.377 696.404,404.118 701.633,385.527C717.759,328.165 737.917,270.872 737.917,204.156C737.917,114.911 705.481,61.856 657.471,61.856C639.735,61.856 635.54,69.982 635.54,111.363L635.54,133.294C635.54,283.681 584.892,362.113 458.938,433.629C373.458,481.859 347.023,512.072 347.023,579.292C274.272,603.297 189.38,610.393 118.104,611.913L118.104,984.815L242.412,984.815C286.732,984.815 325.628,993.738 409.454,1043.86L431.938,1057.36C492.318,1093.73 562.996,1111.91 643.995,1111.91C663.342,1111.91 683.905,1111.4 705.135,1110.04C696.611,1094.01 692.349,1075.51 692.349,1054.55C692.349,1026.05 700.044,1002.53 715.41,983.962C719.856,978.595 724.786,973.78 730.153,969.541C712.438,948.255 703.592,920.702 703.592,886.953C703.592,852.743 715.709,825.006 739.921,803.766C712.486,782.823 697.285,754.857 694.515,721.777C654.823,775.686 597.485,817.454 525.307,839.704L502.823,781.766C593.122,755.404 659.305,690.961 683.25,608.573C664.567,588.968 655.237,562.337 655.237,528.68C655.237,492.258 667.17,463.807 691.036,443.304ZM828.453,768.842L987.063,768.842C1037.33,768.842 1062.99,745.966 1062.99,697.957C1062.99,648.841 1039.57,626.91 992.684,632.163L827.324,650.155C776.467,655.397 755.909,674.248 755.909,710.351C755.909,744.814 782.701,768.842 828.453,768.842ZM948.568,1028.49L816.658,1012.37C810.368,1011.58 804.333,1010.52 798.55,1009.21C768.17,1011.22 754.227,1025.47 754.227,1054.55C754.227,1083.05 768.464,1099.17 796.961,1102.93L916.201,1118.66C938.685,1121.65 955.571,1096.54 955.571,1059.04C955.571,1046.39 953.245,1036.19 948.568,1028.49ZM843.081,830.696C794.335,830.696 765.469,851.706 765.469,886.953C765.469,925.932 783.277,945.237 824.513,950.489L976.374,969.057C1023.74,974.32 1048.94,951.332 1048.94,900.43C1048.94,851.729 1025.67,830.696 967.942,830.696L843.081,830.696ZM826.771,584.361L976.95,563.535C998.697,560.54 1008.99,538.033 1008.99,507.302C1008.99,458.186 984.621,437.177 935.875,444.318L812.142,461.734C747.685,470.765 717.091,485.923 717.091,528.68C717.091,576.547 754.659,594.102 826.771,584.361Z" style="fill:rgb(128,128,128);"/>
    </g>
</svg>
