<?xml version="1.0" encoding="UTF-8" standalone="no"?>
<!DOCTYPE svg PUBLIC "-//W3C//DTD SVG 1.1//EN" "http://www.w3.org/Graphics/SVG/1.1/DTD/svg11.dtd">
<svg width="100%" height="100%" viewBox="0 0 284 284" version="1.1" xmlns="http://www.w3.org/2000/svg" xmlns:xlink="http://www.w3.org/1999/xlink" xml:space="preserve" xmlns:serif="http://www.serif.com/" style="fill-rule:evenodd;clip-rule:evenodd;stroke-linejoin:round;stroke-miterlimit:2;">
    <path d="M183.406,185.489C183.848,187.839 184.512,190.504 185.396,193.484C188.913,205.283 193.297,220.056 193.297,234.453C193.297,263.966 178.673,283.45 157.796,283.45C143.487,283.45 136.333,274.543 136.333,256.724L136.333,251.46C136.333,221.902 128.824,207.911 101.506,192.339C80.983,180.463 72.264,170.655 69.378,155.893C54.627,152.476 36.442,151.437 12.148,151.437L12.148,31.979L58.447,32.25C65.823,32.25 75.145,28.739 90.437,19.561L95.839,16.321C112.127,6.601 131.7,1.742 154.556,1.742C160.046,1.742 166.747,1.99 174.665,2.488C179.519,2.787 184.622,3.234 189.985,3.826L213.809,0.796C218.715,0.121 220.089,-0.011 221.235,-0.011C235.278,-0.011 245.534,11.998 245.534,29.281C245.534,31.808 245.324,34.158 244.898,36.341C258.373,38.976 267.937,50.457 267.937,67.348C267.937,77.106 265.051,84.714 259.268,90.171C267.224,95.7 271.316,104.341 271.316,115.941C271.316,130.381 264.894,140.607 254.264,144.769C256.996,149.441 258.356,155.086 258.356,161.698C258.356,182.575 244.368,194.54 223.126,191.665L193.43,187.48C189.82,186.965 186.48,186.302 183.406,185.489ZM169.23,17.04C164.04,16.702 159.19,16.592 154.556,16.592C135.117,16.592 118.154,20.955 103.668,29.685L98.266,32.925C78.108,44.978 68.792,47.095 58.176,47.095L28.348,47.095L28.348,136.592C45.443,136.768 65.823,138.659 83.283,144.42C83.283,159.954 89.009,167.456 110.143,179.38C139.789,195.934 152.527,214.551 152.527,251.46L152.527,256.724C152.527,266.534 153.567,268.605 157.796,268.605C169.307,268.605 177.098,255.872 177.098,234.453C177.098,213.118 167.619,195.897 165.857,177.063C154.67,167.471 154.782,147.072 163.966,137.366C162.8,133.357 161.219,129.526 159.212,125.86C151.383,111.551 138.135,100.681 120.675,95.827L126.071,81.922C143.363,87.252 157.139,97.117 166.687,110.147C167.371,102.236 171.053,95.528 177.579,90.547C171.768,85.449 168.865,78.792 168.865,70.582C168.865,62.449 170.999,55.825 175.279,50.706C169.453,46.139 166.161,39.173 166.161,30.359C166.161,25.328 167.184,20.888 169.23,17.04ZM227.654,36.612C228.776,34.766 229.335,32.316 229.335,29.281C229.335,20.28 225.282,14.253 219.886,14.972L191.268,18.748C184.429,19.65 181.012,23.52 181.012,30.359C181.012,37.337 184.358,40.757 191.65,41.24C193.037,40.925 194.486,40.671 195.995,40.483L227.654,36.612ZM232.304,84.084C246.159,84.084 251.743,79.036 251.743,67.348C251.743,55.107 245.673,49.439 234.327,50.877L197.886,55.333C187.959,56.596 183.71,61.069 183.71,70.582C183.71,79.041 190.638,84.084 202.337,84.084L232.304,84.084ZM236.893,98.929L198.826,98.929C187.857,98.929 181.416,104.695 181.416,112.967C181.416,121.631 186.344,125.979 198.561,127.414L238.242,131.732C249.493,132.992 255.116,127.729 255.116,115.941C255.116,104.242 248.957,98.929 236.893,98.929ZM198.423,143.204C181.15,140.683 172.099,145.056 172.099,156.567C172.099,166.829 179.442,170.467 194.912,172.634L224.613,176.814C236.307,178.528 242.156,173.486 242.156,161.698C242.156,154.323 239.685,148.921 234.465,148.202L198.423,143.204Z" style="fill:rgb(128,128,128);"/>
</svg>
