<?xml version="1.0" encoding="UTF-8" standalone="no"?>
<!DOCTYPE svg PUBLIC "-//W3C//DTD SVG 1.1//EN" "http://www.w3.org/Graphics/SVG/1.1/DTD/svg11.dtd">
<svg width="100%" height="100%" viewBox="0 0 284 284" version="1.1" xmlns="http://www.w3.org/2000/svg" xmlns:xlink="http://www.w3.org/1999/xlink" xml:space="preserve" xmlns:serif="http://www.serif.com/" style="fill-rule:evenodd;clip-rule:evenodd;stroke-linejoin:round;stroke-miterlimit:2;">
    <g transform="matrix(0.24,0,0,0.24,0,0)">
        <g transform="matrix(23.0371,0,0,23.0371,-6974.5,-10136.9)">
            <path d="M335.923,473.574C336.003,473.999 336.123,474.481 336.283,475.02C336.601,476.087 336.918,477.263 337.235,478.548C337.553,479.834 337.712,481.128 337.712,482.43C337.712,485.099 337.113,487.244 335.917,488.863C334.721,490.483 333.179,491.292 331.291,491.292C328.703,491.292 327.409,489.681 327.409,486.458L327.409,485.506C327.409,483.683 327.222,482.153 326.847,480.916C326.473,479.679 325.83,478.585 324.919,477.633C324.007,476.681 322.738,475.741 321.11,474.813C319.254,473.739 317.887,472.705 317.008,471.712C316.129,470.72 315.56,469.556 315.299,468.221C313.965,467.912 312.455,467.7 310.771,467.586C309.086,467.472 307.145,467.415 304.948,467.415L304.948,445.809L313.322,445.858C313.989,445.858 314.774,445.683 315.678,445.333C316.581,444.983 317.725,444.393 319.108,443.563L320.085,442.977C323.031,441.219 326.571,440.34 330.705,440.34C331.698,440.34 332.91,440.385 334.342,440.475C335.22,440.529 336.143,440.61 337.113,440.717L341.422,440.169C341.894,440.104 342.212,440.064 342.375,440.047C342.537,440.031 342.668,440.023 342.765,440.023C344.035,440.023 345.085,440.515 345.915,441.5C346.745,442.485 347.16,443.758 347.16,445.321C347.16,445.778 347.122,446.203 347.045,446.598C347.976,446.78 348.779,447.176 349.455,447.787C350.627,448.845 351.212,450.318 351.212,452.206C351.212,453.971 350.69,455.347 349.644,456.334C349.821,456.457 349.99,456.591 350.15,456.734C351.265,457.735 351.823,459.155 351.823,460.995C351.823,462.899 351.261,464.352 350.138,465.353C349.727,465.719 349.26,466.005 348.739,466.209C349.233,467.054 349.479,468.075 349.479,469.271C349.479,471.159 348.897,472.599 347.733,473.592C346.57,474.585 345.028,474.951 343.107,474.691L337.736,473.934C337.083,473.841 336.479,473.721 335.923,473.574ZM333.359,443.107C333.313,443.104 333.266,443.102 333.219,443.099C332.34,443.05 331.502,443.026 330.705,443.026C327.189,443.026 324.121,443.815 321.501,445.394L320.524,445.98C318.701,447.07 317.277,447.77 316.252,448.08C315.226,448.389 314.233,448.543 313.273,448.543L307.878,448.543L307.878,464.73C309.424,464.746 311.072,464.856 312.821,465.06C314.571,465.263 316.235,465.625 317.814,466.146C317.814,467.09 317.952,467.904 318.229,468.587C318.506,469.271 318.998,469.91 319.706,470.504C320.414,471.098 321.403,471.753 322.672,472.469C324.479,473.478 325.944,474.569 327.067,475.741C328.19,476.913 329.016,478.28 329.545,479.842C330.074,481.405 330.338,483.293 330.338,485.506L330.338,486.458C330.338,487.402 330.408,487.997 330.546,488.241C330.684,488.485 330.933,488.607 331.291,488.607C332.332,488.607 333.175,488.062 333.817,486.971C334.46,485.881 334.782,484.367 334.782,482.43C334.782,480.982 334.607,479.618 334.257,478.341C333.907,477.063 333.557,475.798 333.207,474.544C332.982,473.737 332.829,472.905 332.749,472.05C331.711,471.16 331.193,469.925 331.193,468.343C331.193,466.883 331.598,465.725 332.407,464.87C332.196,464.145 331.91,463.452 331.547,462.789C330.839,461.495 329.895,460.376 328.715,459.432C327.535,458.488 326.156,457.796 324.577,457.357L325.553,454.842C327.295,455.379 328.833,456.157 330.168,457.174C331.223,457.978 332.134,458.903 332.899,459.947C333.009,458.675 333.539,457.6 334.489,456.722C334.611,456.609 334.738,456.502 334.869,456.402C333.818,455.48 333.293,454.276 333.293,452.791C333.293,451.32 333.679,450.122 334.453,449.196C334.217,449.011 334.001,448.802 333.805,448.568C333.138,447.77 332.804,446.753 332.804,445.516C332.804,444.606 332.989,443.803 333.359,443.107ZM343.926,446.647C344.129,446.313 344.23,445.87 344.23,445.321C344.23,444.507 344.067,443.856 343.742,443.368C343.416,442.879 343.009,442.668 342.521,442.733L337.345,443.416C336.108,443.579 335.49,444.279 335.49,445.516C335.49,446.2 335.673,446.7 336.039,447.018C336.352,447.289 336.81,447.444 337.414,447.484C337.665,447.427 337.927,447.381 338.2,447.347L343.926,446.647ZM344.767,455.233C346.02,455.233 346.92,454.993 347.465,454.513C348.01,454.033 348.283,453.263 348.283,452.206C348.283,451.099 348.014,450.293 347.477,449.789C346.94,449.284 346.159,449.097 345.133,449.227L338.542,450.033C337.646,450.147 336.995,450.419 336.588,450.851C336.182,451.282 335.978,451.929 335.978,452.791C335.978,453.556 336.275,454.155 336.869,454.586C337.463,455.017 338.289,455.233 339.347,455.233L344.767,455.233ZM345.597,457.918L338.712,457.918C337.72,457.918 336.947,458.154 336.393,458.626C335.84,459.098 335.563,459.709 335.563,460.457C335.563,461.239 335.803,461.837 336.283,462.252C336.763,462.667 337.557,462.94 338.664,463.07L345.841,463.851C347.876,464.079 348.893,463.127 348.893,460.995C348.893,459.937 348.616,459.159 348.063,458.663C347.51,458.167 346.688,457.918 345.597,457.918ZM338.639,465.926C337.077,465.698 335.893,465.784 335.087,466.183C334.281,466.581 333.878,467.302 333.878,468.343C333.878,469.271 334.216,469.938 334.892,470.345C335.567,470.752 336.605,471.053 338.004,471.249L343.376,472.005C345.491,472.315 346.549,471.403 346.549,469.271C346.549,468.604 346.435,468.046 346.208,467.599C345.98,467.151 345.63,466.895 345.158,466.83L338.639,465.926Z" style="fill:rgb(128,128,128);"/>
        </g>
    </g>
</svg>
