<?xml version="1.0" encoding="UTF-8" standalone="no"?>
<!DOCTYPE svg PUBLIC "-//W3C//DTD SVG 1.1//EN" "http://www.w3.org/Graphics/SVG/1.1/DTD/svg11.dtd">
<svg width="100%" height="100%" viewBox="0 0 284 284" version="1.1" xmlns="http://www.w3.org/2000/svg" xmlns:xlink="http://www.w3.org/1999/xlink" xml:space="preserve" xmlns:serif="http://www.serif.com/" style="fill-rule:evenodd;clip-rule:evenodd;stroke-linejoin:round;stroke-miterlimit:2;">
    <g transform="matrix(0.24,0,0,0.24,0,0)">
        <g transform="matrix(23.0371,0,0,23.0371,-6974.5,-10136.9)">
            <g transform="matrix(50,0,0,50,296.647,482.748)">
                <path d="M0.681,-0.848C0.701,-0.848 0.725,-0.847 0.754,-0.845C0.783,-0.844 0.814,-0.84 0.847,-0.836L0.786,-0.789C0.767,-0.791 0.749,-0.792 0.731,-0.793C0.714,-0.794 0.697,-0.794 0.681,-0.794C0.611,-0.794 0.549,-0.779 0.497,-0.747L0.478,-0.735C0.441,-0.714 0.413,-0.7 0.392,-0.693C0.372,-0.687 0.352,-0.684 0.333,-0.684L0.225,-0.684L0.225,-0.36C0.256,-0.36 0.288,-0.358 0.323,-0.354C0.358,-0.35 0.392,-0.342 0.423,-0.332C0.423,-0.313 0.426,-0.297 0.432,-0.283C0.437,-0.27 0.447,-0.257 0.461,-0.245C0.475,-0.233 0.495,-0.22 0.521,-0.206C0.557,-0.185 0.586,-0.164 0.608,-0.14C0.631,-0.117 0.647,-0.089 0.658,-0.058C0.669,-0.027 0.674,0.011 0.674,0.055L0.674,0.074C0.674,0.093 0.675,0.105 0.678,0.11C0.681,0.115 0.686,0.117 0.693,0.117C0.714,0.117 0.731,0.106 0.743,0.084C0.756,0.063 0.763,0.032 0.763,-0.006C0.763,-0.035 0.759,-0.063 0.752,-0.088C0.745,-0.114 0.738,-0.139 0.731,-0.164C0.724,-0.189 0.721,-0.215 0.721,-0.243L0.783,-0.205C0.783,-0.193 0.786,-0.176 0.793,-0.155C0.799,-0.133 0.805,-0.11 0.812,-0.084C0.818,-0.058 0.821,-0.032 0.821,-0.006C0.821,0.047 0.809,0.09 0.785,0.122C0.761,0.155 0.731,0.171 0.693,0.171C0.641,0.171 0.615,0.139 0.615,0.074L0.615,0.055C0.615,0.019 0.611,-0.012 0.604,-0.037C0.597,-0.061 0.584,-0.083 0.565,-0.102C0.547,-0.121 0.522,-0.14 0.489,-0.159C0.452,-0.18 0.425,-0.201 0.407,-0.221C0.39,-0.241 0.378,-0.264 0.373,-0.291C0.346,-0.297 0.316,-0.301 0.282,-0.303C0.249,-0.306 0.21,-0.307 0.166,-0.307L0.166,-0.739L0.333,-0.738C0.347,-0.738 0.363,-0.741 0.381,-0.748C0.399,-0.755 0.422,-0.767 0.449,-0.784L0.469,-0.795C0.528,-0.831 0.598,-0.848 0.681,-0.848ZM0.807,-0.84C0.807,-0.84 0.911,-0.854 0.915,-0.854C0.918,-0.854 0.92,-0.854 0.922,-0.854C0.948,-0.854 0.969,-0.845 0.985,-0.825C1.002,-0.805 1.01,-0.78 1.01,-0.749C1.01,-0.721 1.003,-0.698 0.989,-0.682L0.928,-0.708C0.944,-0.713 0.952,-0.727 0.952,-0.749C0.952,-0.765 0.948,-0.778 0.942,-0.788C0.935,-0.797 0.927,-0.802 0.917,-0.8L0.814,-0.787C0.789,-0.783 0.777,-0.769 0.777,-0.745C0.777,-0.731 0.781,-0.721 0.788,-0.715C0.795,-0.708 0.806,-0.705 0.822,-0.705L0.883,-0.705L0.797,-0.653C0.775,-0.657 0.757,-0.668 0.743,-0.684C0.73,-0.7 0.723,-0.72 0.723,-0.745C0.723,-0.771 0.731,-0.792 0.746,-0.81C0.761,-0.827 0.781,-0.837 0.807,-0.84ZM0.578,-0.558C0.613,-0.547 0.644,-0.532 0.67,-0.511C0.697,-0.491 0.719,-0.467 0.737,-0.439C0.754,-0.411 0.766,-0.38 0.772,-0.347L0.723,-0.314C0.721,-0.345 0.712,-0.373 0.698,-0.399C0.684,-0.425 0.665,-0.447 0.641,-0.466C0.618,-0.485 0.59,-0.499 0.559,-0.508L0.578,-0.558ZM0.963,-0.724C1.002,-0.729 1.033,-0.72 1.056,-0.699C1.08,-0.678 1.091,-0.649 1.091,-0.611C1.091,-0.574 1.08,-0.546 1.058,-0.526C1.036,-0.507 1.004,-0.497 0.963,-0.497L0.855,-0.497C0.819,-0.497 0.79,-0.506 0.767,-0.525C0.744,-0.543 0.733,-0.568 0.733,-0.599C0.733,-0.63 0.741,-0.655 0.759,-0.674C0.776,-0.693 0.8,-0.704 0.831,-0.708L0.963,-0.724ZM0.97,-0.67L0.838,-0.654C0.82,-0.652 0.807,-0.647 0.799,-0.638C0.791,-0.629 0.787,-0.616 0.787,-0.599C0.787,-0.584 0.793,-0.572 0.804,-0.563C0.816,-0.555 0.833,-0.55 0.854,-0.55L0.962,-0.55C0.987,-0.55 1.005,-0.555 1.016,-0.565C1.027,-0.574 1.033,-0.59 1.033,-0.611C1.033,-0.633 1.027,-0.649 1.017,-0.659C1.006,-0.669 0.99,-0.673 0.97,-0.67ZM0.84,-0.55L0.978,-0.55C1.017,-0.55 1.048,-0.54 1.07,-0.52C1.092,-0.5 1.104,-0.472 1.104,-0.435C1.104,-0.397 1.092,-0.368 1.07,-0.348C1.047,-0.328 1.017,-0.32 0.978,-0.324L0.834,-0.34C0.799,-0.344 0.772,-0.355 0.753,-0.373C0.734,-0.391 0.725,-0.416 0.725,-0.446C0.725,-0.476 0.735,-0.501 0.757,-0.521C0.778,-0.54 0.806,-0.55 0.84,-0.55ZM0.841,-0.497C0.821,-0.497 0.806,-0.492 0.795,-0.482C0.784,-0.473 0.778,-0.461 0.778,-0.446C0.778,-0.43 0.783,-0.418 0.793,-0.41C0.802,-0.402 0.818,-0.396 0.84,-0.394L0.984,-0.378C1.025,-0.373 1.045,-0.392 1.045,-0.435C1.045,-0.456 1.039,-0.472 1.028,-0.482C1.017,-0.492 1.001,-0.497 0.979,-0.497L0.841,-0.497ZM0.848,-0.389L0.978,-0.372C1.003,-0.368 1.023,-0.358 1.036,-0.339C1.05,-0.321 1.057,-0.298 1.057,-0.27C1.057,-0.232 1.045,-0.203 1.022,-0.183C0.998,-0.163 0.968,-0.156 0.929,-0.161L0.822,-0.176C0.778,-0.182 0.746,-0.194 0.724,-0.212C0.702,-0.23 0.691,-0.256 0.691,-0.288C0.691,-0.327 0.705,-0.355 0.734,-0.373C0.763,-0.39 0.801,-0.396 0.848,-0.389ZM0.84,-0.336C0.809,-0.341 0.785,-0.339 0.769,-0.331C0.753,-0.323 0.745,-0.309 0.745,-0.288C0.745,-0.27 0.751,-0.256 0.765,-0.248C0.778,-0.24 0.799,-0.234 0.827,-0.23L0.935,-0.215C0.977,-0.209 0.998,-0.227 0.998,-0.27C0.998,-0.283 0.996,-0.294 0.991,-0.303C0.987,-0.312 0.98,-0.317 0.97,-0.318L0.84,-0.336Z" style="fill-rule:nonzero;"/>
            </g>
        </g>
    </g>
</svg>
