<?xml version="1.0" encoding="UTF-8" standalone="no"?>
<!DOCTYPE svg PUBLIC "-//W3C//DTD SVG 1.1//EN" "http://www.w3.org/Graphics/SVG/1.1/DTD/svg11.dtd">
<svg width="100%" height="100%" viewBox="0 0 284 284" version="1.1" xmlns="http://www.w3.org/2000/svg" xmlns:xlink="http://www.w3.org/1999/xlink" xml:space="preserve" xmlns:serif="http://www.serif.com/" style="fill-rule:evenodd;clip-rule:evenodd;stroke-linejoin:round;stroke-miterlimit:2;">
    <path d="M183.406,185.489C183.848,187.839 184.512,190.504 185.396,193.484C188.913,205.283 193.297,220.056 193.297,234.453C193.297,263.966 178.673,283.45 157.796,283.45C143.487,283.45 136.333,274.543 136.333,256.724L136.333,251.46C136.333,221.902 128.824,207.911 101.506,192.339C80.983,180.463 72.264,170.655 69.378,155.893C54.627,152.476 36.442,151.437 12.148,151.437L12.148,31.979L58.447,32.25C65.823,32.25 75.145,28.739 90.437,19.561L95.839,16.321C112.127,6.601 131.7,1.742 154.556,1.742C160.046,1.742 166.747,1.99 174.665,2.488C179.519,2.787 184.622,3.234 189.985,3.826L213.809,0.796C218.715,0.121 220.089,-0.011 221.235,-0.011C235.278,-0.011 245.534,11.998 245.534,29.281C245.534,31.808 245.324,34.158 244.898,36.341C258.373,38.976 267.937,50.457 267.937,67.348C267.937,77.106 265.051,84.714 259.268,90.171C267.224,95.7 271.316,104.341 271.316,115.941C271.316,130.381 264.894,140.607 254.264,144.769C256.996,149.441 258.356,155.086 258.356,161.698C258.356,182.575 244.368,194.54 223.126,191.665L193.43,187.48C189.82,186.965 186.48,186.302 183.406,185.489Z" style="fill:rgb(128,128,128);"/>
</svg>
