<?xml version="1.0" encoding="UTF-8" standalone="no"?>
<!DOCTYPE svg PUBLIC "-//W3C//DTD SVG 1.1//EN" "http://www.w3.org/Graphics/SVG/1.1/DTD/svg11.dtd">
<svg width="100%" height="100%" viewBox="0 0 284 284" version="1.1" xmlns="http://www.w3.org/2000/svg" xmlns:xlink="http://www.w3.org/1999/xlink" xml:space="preserve" xmlns:serif="http://www.serif.com/" fill="#808080" style="fill-rule:evenodd;clip-rule:evenodd;stroke-linejoin:round;stroke-miterlimit:2;">
    <g transform="matrix(0.24,0,0,0.24,0,0)">
        <path d="M752.242,761.977C754.933,776.696 758.387,791.386 762.606,806.046C770.177,832.355 777.37,859.706 784.184,888.098C790.998,916.49 794.405,947.343 794.405,980.656C794.405,1040.85 782.102,1089.3 757.495,1126.02C732.889,1162.74 700.144,1181.1 659.26,1181.1C606.64,1181.1 580.33,1145.9 580.33,1075.49L580.33,1053.34C580.33,1009.43 575.882,972.517 566.986,942.611C558.09,912.704 542.664,886.395 520.707,863.681C498.751,840.968 468.088,818.254 428.717,795.541C384.426,769.799 352.343,745.855 332.469,723.709C312.595,701.563 300.008,674.78 294.708,643.36C255.716,633.518 215.305,627.65 173.474,625.757C131.644,623.864 92.747,622.918 56.784,622.918L56.784,138.552L240.763,138.552C261.584,138.552 282.215,134.672 302.657,126.912C323.1,119.151 349.599,105.05 382.155,84.608L400.326,73.251C466.952,31.231 548.72,10.221 645.631,10.221C664.181,10.221 687.084,10.978 714.34,12.492C736.008,13.696 763.06,15.857 795.495,18.975L900.023,3.407C908.73,1.893 914.786,0.946 918.194,0.568C921.601,0.189 924.25,0 926.143,0C951.885,0 973.463,11.167 990.877,33.502C1008.29,55.837 1017,83.094 1017,115.271C1017,129.515 1015.09,142.306 1011.29,153.643C1035.91,156.102 1056.74,165.078 1073.78,180.572C1098.77,203.286 1111.26,235.653 1111.26,277.673C1111.26,317.421 1099.43,348.084 1075.77,369.662C1074.05,371.227 1072.28,372.735 1070.46,374.187C1077.47,378.244 1083.88,382.983 1089.68,388.401C1112.77,409.979 1124.32,441.399 1124.32,482.662C1124.32,524.303 1112.77,555.818 1089.68,577.207C1078.86,587.231 1066,594.407 1051.1,598.736C1064.33,619.905 1070.94,646.137 1070.94,677.43C1070.94,718.693 1058.92,749.451 1034.88,769.704C1010.85,789.957 978.574,797.623 938.068,792.701L812.576,776.802C789.917,773.806 769.806,768.864 752.242,761.977Z"/>
    </g>
</svg>
