<?xml version="1.0" encoding="UTF-8" standalone="no"?>
<!DOCTYPE svg PUBLIC "-//W3C//DTD SVG 1.1//EN" "http://www.w3.org/Graphics/SVG/1.1/DTD/svg11.dtd">
<svg width="100%" height="100%" viewBox="0 0 1182 1182" version="1.1" xmlns="http://www.w3.org/2000/svg" xmlns:xlink="http://www.w3.org/1999/xlink" xml:space="preserve" xmlns:serif="http://www.serif.com/" style="fill-rule:evenodd;clip-rule:evenodd;stroke-linejoin:round;stroke-miterlimit:2;">
    <path d="M791.616,1165.1C601.185,1186.11 496.828,1171.23 399.317,1113.04L376.833,1099.54C313.067,1061.3 274.272,1046.67 243.541,1046.67L50.628,1047.8L50.628,550.035C151.853,550.035 227.622,545.727 289.085,531.49C301.11,469.244 337.44,429.114 422.954,379.63C537.052,313.429 568.064,255.733 568.064,133.294L568.064,111.363C568.064,37.114 597.874,0.002 657.471,0.002C744.459,0.002 805.392,81.184 805.392,204.156C805.392,264.145 787.101,325.815 772.495,374.562C768.763,387.048 765.976,398.244 764.133,408.173C776.965,404.786 790.902,402.022 805.968,399.88L929.701,382.44C1018.16,369.678 1076.49,420.313 1076.49,507.302C1076.49,534.923 1070.78,558.444 1059.35,577.818C1103.65,595.096 1130.49,637.706 1130.49,697.957C1130.49,746.29 1113.44,782.295 1080.29,805.332C1104.37,828.07 1116.42,859.769 1116.42,900.43C1116.42,970.808 1076.57,1018.65 1020.42,1029.62C1022.17,1038.72 1023.07,1048.51 1023.07,1059.04C1023.07,1131.05 980.336,1181.09 921.822,1181.09C917.018,1181.09 911.399,1180.55 890.883,1177.73L791.616,1165.1Z" style="fill:rgb(128,128,128);"/>
</svg>
