<?xml version="1.0" encoding="UTF-8" standalone="no"?>
<!DOCTYPE svg PUBLIC "-//W3C//DTD SVG 1.1//EN" "http://www.w3.org/Graphics/SVG/1.1/DTD/svg11.dtd">
<svg width="100%" height="100%" viewBox="0 0 1182 1182" version="1.1" xmlns="http://www.w3.org/2000/svg" xmlns:xlink="http://www.w3.org/1999/xlink" xml:space="preserve" xmlns:serif="http://www.serif.com/" style="fill-rule:evenodd;clip-rule:evenodd;stroke-linejoin:round;stroke-miterlimit:2;">
    <g transform="matrix(23.0371,0,0,23.0371,-3344.05,-6307.28)">
        <path d="M179.522,324.363C178.552,324.47 177.629,324.551 176.751,324.605C175.319,324.695 174.106,324.74 173.114,324.74C168.979,324.74 165.439,323.861 162.493,322.103L161.517,321.517C160.133,320.687 158.99,320.097 158.087,319.747C157.183,319.397 156.398,319.222 155.731,319.222L147.357,319.271L147.357,297.664C149.554,297.664 151.495,297.608 153.179,297.494C154.864,297.38 156.374,297.168 157.708,296.859C157.969,295.508 158.538,294.34 159.417,293.355C160.296,292.371 161.663,291.341 163.519,290.267C165.146,289.323 166.416,288.379 167.327,287.435C168.239,286.491 168.882,285.4 169.256,284.164C169.63,282.927 169.818,281.397 169.818,279.574L169.818,278.622C169.818,275.399 171.112,273.788 173.699,273.788C175.587,273.788 177.13,274.597 178.326,276.217C179.522,277.836 180.12,279.981 180.12,282.65C180.12,283.952 179.962,285.246 179.644,286.532C179.327,287.817 179.009,288.989 178.692,290.047C178.53,290.589 178.409,291.075 178.329,291.506C178.886,291.359 179.491,291.239 180.145,291.146L185.516,290.389C187.436,290.112 188.979,290.475 190.142,291.476C191.306,292.477 191.888,293.921 191.888,295.809C191.888,297.008 191.64,298.029 191.144,298.87C191.667,299.074 192.134,299.36 192.547,299.727C193.67,300.728 194.232,302.181 194.232,304.085C194.232,305.925 193.674,307.345 192.559,308.346C192.399,308.489 192.23,308.623 192.053,308.746C193.098,309.733 193.621,311.109 193.621,312.874C193.621,314.762 193.035,316.235 191.864,317.293C191.188,317.904 190.385,318.3 189.454,318.482C189.53,318.877 189.569,319.302 189.569,319.759C189.569,321.322 189.154,322.595 188.323,323.58C187.493,324.565 186.444,325.057 185.174,325.057C185.076,325.057 184.946,325.049 184.783,325.033C184.621,325.016 184.303,324.976 183.831,324.911L179.522,324.363ZM175.156,293.031C175.236,292.166 175.389,291.33 175.616,290.523C175.966,289.278 176.316,288.017 176.666,286.739C177.016,285.462 177.191,284.098 177.191,282.65C177.191,280.713 176.869,279.199 176.226,278.109C175.583,277.018 174.741,276.473 173.699,276.473C173.341,276.473 173.093,276.591 172.955,276.827C172.816,277.063 172.747,277.661 172.747,278.622L172.747,279.574C172.747,281.787 172.483,283.675 171.954,285.238C171.425,286.8 170.599,288.163 169.476,289.327C168.353,290.491 166.888,291.585 165.081,292.611C163.812,293.327 162.823,293.982 162.115,294.576C161.407,295.17 160.915,295.805 160.638,296.48C160.361,297.156 160.223,297.974 160.223,298.934C158.644,299.455 156.98,299.813 155.23,300.008C153.481,300.204 151.833,300.317 150.286,300.35L150.286,316.537L155.682,316.537C156.642,316.537 157.635,316.691 158.66,317C159.686,317.31 161.11,318.01 162.933,319.1L163.909,319.686C166.53,321.265 169.598,322.054 173.114,322.054C173.911,322.054 174.749,322.03 175.628,321.981C175.675,321.978 175.721,321.976 175.768,321.973C175.398,321.277 175.213,320.474 175.213,319.564C175.213,318.327 175.547,317.306 176.214,316.5C176.407,316.267 176.621,316.058 176.854,315.874C176.085,314.95 175.701,313.754 175.701,312.289C175.701,310.804 176.227,309.6 177.278,308.678C177.147,308.578 177.02,308.471 176.898,308.358C175.944,307.477 175.414,306.397 175.307,305.119C174.542,306.158 173.631,307.083 172.576,307.894C171.242,308.919 169.704,309.701 167.962,310.238L166.986,307.723C168.548,307.267 169.923,306.572 171.112,305.636C172.3,304.7 173.248,303.585 173.956,302.291C174.319,301.627 174.607,300.931 174.818,300.205C174.007,299.354 173.602,298.198 173.602,296.737C173.602,295.156 174.12,293.921 175.156,293.031ZM181.121,307.162L188.006,307.162C189.097,307.162 189.919,306.909 190.472,306.405C191.025,305.9 191.302,305.127 191.302,304.085C191.302,301.953 190.285,301.001 188.25,301.229L181.072,302.01C179.966,302.124 179.172,302.393 178.692,302.816C178.212,303.239 177.972,303.841 177.972,304.623C177.972,305.371 178.249,305.982 178.802,306.454C179.355,306.926 180.128,307.162 181.121,307.162ZM186.335,318.433L180.609,317.733C180.336,317.699 180.074,317.653 179.823,317.596C179.219,317.636 178.761,317.791 178.448,318.062C178.082,318.38 177.899,318.88 177.899,319.564C177.899,320.801 178.517,321.501 179.754,321.664L184.93,322.347C185.418,322.412 185.825,322.201 186.151,321.712C186.476,321.224 186.639,320.573 186.639,319.759C186.639,319.21 186.538,318.767 186.335,318.433ZM181.756,309.847C180.698,309.847 179.872,310.063 179.278,310.494C178.684,310.925 178.387,311.524 178.387,312.289C178.387,313.135 178.59,313.778 178.997,314.217C179.404,314.657 180.055,314.933 180.95,315.047L187.542,315.853C188.568,315.967 189.349,315.776 189.886,315.279C190.423,314.783 190.692,313.981 190.692,312.874C190.692,311.817 190.419,311.047 189.874,310.567C189.329,310.087 188.429,309.847 187.176,309.847L181.756,309.847ZM181.048,299.154L187.567,298.25C188.039,298.185 188.389,297.929 188.616,297.481C188.844,297.034 188.958,296.476 188.958,295.809C188.958,293.677 187.9,292.765 185.784,293.075L180.413,293.831C179.014,294.027 177.976,294.328 177.301,294.735C176.625,295.142 176.287,295.809 176.287,296.737C176.287,297.778 176.69,298.495 177.496,298.885C178.301,299.276 179.486,299.365 181.048,299.154Z" style="fill:rgb(128,128,128);"/>
    </g>
</svg>
