<?xml version="1.0" encoding="UTF-8" standalone="no"?>
<!DOCTYPE svg PUBLIC "-//W3C//DTD SVG 1.1//EN" "http://www.w3.org/Graphics/SVG/1.1/DTD/svg11.dtd">
<svg width="100%" height="100%" viewBox="0 0 284 284" version="1.1" xmlns="http://www.w3.org/2000/svg" xmlns:xlink="http://www.w3.org/1999/xlink" xml:space="preserve" xmlns:serif="http://www.serif.com/" style="fill-rule:evenodd;clip-rule:evenodd;stroke-linejoin:round;stroke-miterlimit:2;">
    <g transform="matrix(0.24,0,0,0.24,0,0)">
        <g transform="matrix(23.0371,0,0,23.0371,-3344.05,-6307.28)">
            <g transform="matrix(50,0,0,50,139.056,316.512)">
                <path d="M0.681,0.165C0.598,0.165 0.528,0.147 0.469,0.112L0.449,0.1C0.422,0.083 0.399,0.072 0.381,0.065C0.363,0.058 0.347,0.054 0.333,0.054L0.166,0.055L0.166,-0.377C0.21,-0.377 0.249,-0.378 0.282,-0.38C0.316,-0.383 0.346,-0.387 0.373,-0.393C0.378,-0.42 0.39,-0.443 0.407,-0.463C0.425,-0.483 0.452,-0.503 0.489,-0.525C0.522,-0.544 0.547,-0.563 0.565,-0.582C0.584,-0.6 0.597,-0.622 0.604,-0.647C0.611,-0.672 0.615,-0.702 0.615,-0.739L0.615,-0.758C0.615,-0.822 0.641,-0.854 0.693,-0.854C0.731,-0.854 0.761,-0.838 0.785,-0.806C0.809,-0.774 0.821,-0.731 0.821,-0.677C0.821,-0.651 0.818,-0.625 0.812,-0.6C0.805,-0.574 0.799,-0.55 0.793,-0.529C0.786,-0.508 0.783,-0.491 0.783,-0.479L0.721,-0.441C0.721,-0.469 0.724,-0.495 0.731,-0.52C0.738,-0.545 0.745,-0.57 0.752,-0.595C0.759,-0.621 0.763,-0.648 0.763,-0.677C0.763,-0.716 0.756,-0.746 0.743,-0.768C0.731,-0.79 0.714,-0.801 0.693,-0.801C0.686,-0.801 0.681,-0.798 0.678,-0.794C0.675,-0.789 0.674,-0.777 0.674,-0.758L0.674,-0.739C0.674,-0.694 0.669,-0.657 0.658,-0.625C0.647,-0.594 0.631,-0.567 0.608,-0.544C0.586,-0.52 0.557,-0.499 0.521,-0.478C0.495,-0.464 0.475,-0.451 0.461,-0.439C0.447,-0.427 0.437,-0.414 0.432,-0.401C0.426,-0.387 0.423,-0.371 0.423,-0.352C0.392,-0.341 0.358,-0.334 0.323,-0.33C0.288,-0.326 0.256,-0.324 0.225,-0.323L0.225,0L0.333,0C0.352,0 0.372,0.004 0.392,0.01C0.413,0.016 0.441,0.03 0.478,0.052L0.497,0.063C0.549,0.095 0.611,0.111 0.681,0.111C0.697,0.111 0.714,0.11 0.731,0.109C0.749,0.108 0.767,0.107 0.786,0.105L0.847,0.152C0.814,0.157 0.783,0.16 0.754,0.162C0.725,0.164 0.701,0.165 0.681,0.165ZM0.915,0.17C0.911,0.17 0.807,0.157 0.807,0.157C0.781,0.153 0.761,0.143 0.746,0.126C0.731,0.109 0.723,0.087 0.723,0.061C0.723,0.036 0.73,0.016 0.743,-0C0.757,-0.016 0.775,-0.027 0.797,-0.031L0.883,0.021L0.822,0.021C0.806,0.021 0.795,0.025 0.788,0.031C0.781,0.037 0.777,0.047 0.777,0.061C0.777,0.086 0.789,0.1 0.814,0.103L0.917,0.117C0.927,0.118 0.935,0.114 0.942,0.104C0.948,0.094 0.952,0.081 0.952,0.065C0.952,0.043 0.944,0.03 0.928,0.025L0.989,-0.001C1.003,0.015 1.01,0.037 1.01,0.065C1.01,0.096 1.002,0.122 0.985,0.141C0.969,0.161 0.948,0.171 0.922,0.171C0.92,0.171 0.918,0.171 0.915,0.17ZM0.578,-0.125L0.559,-0.176C0.59,-0.185 0.617,-0.199 0.641,-0.218C0.665,-0.236 0.684,-0.259 0.698,-0.284C0.712,-0.31 0.721,-0.339 0.723,-0.369L0.772,-0.336C0.766,-0.303 0.754,-0.273 0.737,-0.245C0.719,-0.217 0.697,-0.193 0.67,-0.172C0.644,-0.152 0.613,-0.136 0.578,-0.125ZM0.963,0.041L0.831,0.024C0.8,0.021 0.776,0.009 0.759,-0.01C0.741,-0.029 0.733,-0.054 0.733,-0.084C0.733,-0.115 0.744,-0.14 0.767,-0.159C0.79,-0.178 0.819,-0.187 0.855,-0.187L0.963,-0.187C1.004,-0.187 1.036,-0.177 1.058,-0.157C1.08,-0.137 1.091,-0.109 1.091,-0.073C1.091,-0.035 1.08,-0.006 1.056,0.016C1.033,0.037 1.002,0.045 0.963,0.041ZM0.97,-0.013C0.99,-0.011 1.006,-0.015 1.017,-0.025C1.027,-0.035 1.033,-0.051 1.033,-0.073C1.033,-0.094 1.027,-0.109 1.016,-0.119C1.005,-0.128 0.987,-0.133 0.962,-0.133L0.854,-0.133C0.833,-0.133 0.816,-0.129 0.804,-0.12C0.793,-0.112 0.787,-0.1 0.787,-0.084C0.787,-0.068 0.791,-0.055 0.799,-0.046C0.807,-0.037 0.82,-0.032 0.838,-0.029L0.97,-0.013ZM0.84,-0.133C0.806,-0.133 0.778,-0.143 0.757,-0.163C0.735,-0.183 0.725,-0.208 0.725,-0.238C0.725,-0.268 0.734,-0.292 0.753,-0.311C0.772,-0.329 0.799,-0.34 0.834,-0.344L0.978,-0.359C1.017,-0.364 1.047,-0.356 1.07,-0.336C1.092,-0.316 1.104,-0.287 1.104,-0.249C1.104,-0.212 1.092,-0.183 1.07,-0.163C1.048,-0.143 1.017,-0.133 0.978,-0.133L0.84,-0.133ZM0.841,-0.187L0.979,-0.187C1.001,-0.187 1.017,-0.192 1.028,-0.202C1.039,-0.212 1.045,-0.228 1.045,-0.249C1.045,-0.291 1.025,-0.31 0.984,-0.306L0.84,-0.29C0.818,-0.288 0.802,-0.282 0.793,-0.274C0.783,-0.265 0.778,-0.253 0.778,-0.238C0.778,-0.223 0.784,-0.211 0.795,-0.201C0.806,-0.192 0.821,-0.187 0.841,-0.187ZM0.848,-0.294C0.801,-0.288 0.763,-0.294 0.734,-0.311C0.705,-0.328 0.691,-0.356 0.691,-0.396C0.691,-0.428 0.702,-0.453 0.724,-0.471C0.746,-0.489 0.778,-0.501 0.822,-0.507L0.929,-0.522C0.968,-0.528 0.998,-0.521 1.022,-0.501C1.045,-0.481 1.057,-0.452 1.057,-0.414C1.057,-0.386 1.05,-0.363 1.036,-0.345C1.023,-0.326 1.003,-0.316 0.978,-0.312L0.848,-0.294ZM0.84,-0.347L0.97,-0.365C0.98,-0.367 0.987,-0.372 0.991,-0.381C0.996,-0.39 0.998,-0.401 0.998,-0.414C0.998,-0.457 0.977,-0.475 0.935,-0.469L0.827,-0.454C0.799,-0.45 0.778,-0.444 0.765,-0.436C0.751,-0.427 0.745,-0.414 0.745,-0.396C0.745,-0.375 0.753,-0.36 0.769,-0.353C0.785,-0.345 0.809,-0.343 0.84,-0.347Z" style="fill-rule:nonzero;"/>
            </g>
        </g>
    </g>
</svg>
