<?xml version="1.0" encoding="UTF-8" standalone="no"?>
<!DOCTYPE svg PUBLIC "-//W3C//DTD SVG 1.1//EN" "http://www.w3.org/Graphics/SVG/1.1/DTD/svg11.dtd">
<svg width="100%" height="100%" viewBox="0 0 1182 1182" version="1.1" xmlns="http://www.w3.org/2000/svg" xmlns:xlink="http://www.w3.org/1999/xlink" xml:space="preserve" xmlns:serif="http://www.serif.com/" style="fill-rule:evenodd;clip-rule:evenodd;stroke-linejoin:round;stroke-miterlimit:2;">
    <path d="M590.551,0L590.551,590.551L1008.13,172.968C1118.88,283.718 1181.1,433.927 1181.1,590.551C1181.1,916.485 916.485,1181.1 590.551,1181.1C264.617,1181.1 0,916.485 0,590.551C0,264.399 264.399,0 590.551,0ZM519.718,75.62C266.194,110.169 70.833,327.546 70.833,590.551C70.833,877.391 303.711,1110.27 590.551,1110.27C877.391,1110.27 1110.27,877.391 1110.27,590.551C1110.27,476.543 1072.81,366.398 1004.71,276.57L519.718,761.558L519.718,75.62Z" style="fill:rgb(128,128,128);"/>
</svg>
