<?xml version="1.0" encoding="UTF-8" standalone="no"?>
<!DOCTYPE svg PUBLIC "-//W3C//DTD SVG 1.1//EN" "http://www.w3.org/Graphics/SVG/1.1/DTD/svg11.dtd">
<svg width="100%" height="100%" viewBox="0 0 284 284" version="1.1" xmlns="http://www.w3.org/2000/svg" xmlns:xlink="http://www.w3.org/1999/xlink" xml:space="preserve" xmlns:serif="http://www.serif.com/" style="fill-rule:evenodd;clip-rule:evenodd;stroke-linejoin:round;stroke-miterlimit:2;">
    <g transform="matrix(0.933402,0,0,0.933402,9.44344,9.43534)">
        <path d="M141.797,293.46C56.344,293.46 -9.987,226.233 -9.987,141.676C-9.987,57.418 57.539,-10.109 141.797,-10.109C225.458,-10.109 293.582,58.314 293.582,141.676C293.582,227.428 224.562,293.46 141.797,293.46ZM141.797,283.46C219.109,283.46 283.582,221.778 283.582,141.676C283.582,63.806 219.946,-0.109 141.797,-0.109C63.09,-0.109 0.013,62.969 0.013,141.676C0.013,220.662 61.974,283.46 141.797,283.46ZM141.797,272.575C69.51,272.575 10.898,213.963 10.898,141.676C10.898,69.388 69.231,10.776 141.797,10.776C214.085,10.776 272.697,69.109 272.697,141.676C272.697,213.405 213.806,272.575 141.797,272.575ZM97.141,236.571C113.05,223.453 127.842,217.034 141.797,217.034C155.753,217.034 170.545,223.453 186.175,236.571L193.152,228.198C175.29,213.405 158.264,206.149 141.797,206.149C125.33,206.149 108.026,213.405 90.442,228.198L97.141,236.571ZM98.816,188.286C108.305,188.286 116.12,181.308 116.12,169.865L123.656,161.213C115.841,154.515 107.468,148.932 98.536,143.909C89.884,139.164 80.674,134.977 70.905,131.907L67.556,142.234C73.696,143.909 79.837,146.421 89.326,152.003C84.86,155.352 81.511,161.771 81.511,168.47C81.511,179.076 89.326,188.286 98.816,188.286ZM184.5,188.286C193.99,188.286 201.805,179.076 201.805,168.47C201.805,165.12 201.246,161.771 199.851,158.98C198.455,155.91 196.502,153.677 194.269,152.003C199.014,149.212 203.2,147.258 206.27,145.862C209.619,144.467 212.969,143.071 216.039,142.234L212.41,131.907C193.431,138.047 175.848,147.816 159.66,161.213L167.196,169.865C167.196,170.702 167.754,172.935 167.754,173.494C169.987,181.867 176.127,188.286 184.5,188.286Z" style="fill:rgb(128,128,128);"/>
    </g>
</svg>
