<?xml version="1.0" encoding="UTF-8" standalone="no"?>
<!DOCTYPE svg PUBLIC "-//W3C//DTD SVG 1.1//EN" "http://www.w3.org/Graphics/SVG/1.1/DTD/svg11.dtd">
<svg width="100%" height="100%" viewBox="0 0 284 284" version="1.1" xmlns="http://www.w3.org/2000/svg" xmlns:xlink="http://www.w3.org/1999/xlink" xml:space="preserve" xmlns:serif="http://www.serif.com/" style="fill-rule:evenodd;clip-rule:evenodd;stroke-linejoin:round;stroke-miterlimit:2;">
    <g transform="matrix(0.24,0,0,0.24,0,0)">
        <g transform="matrix(0.757978,0,0,0.757978,-196.906,102.719)">
            <g transform="matrix(1534.25,0,0,1534.25,65,1168)">
                <path d="M0.635,0.166C0.564,0.166 0.499,0.153 0.437,0.127C0.376,0.101 0.322,0.064 0.275,0.018C0.229,-0.029 0.192,-0.083 0.166,-0.144C0.14,-0.206 0.127,-0.271 0.127,-0.342C0.127,-0.412 0.14,-0.478 0.166,-0.539C0.192,-0.601 0.229,-0.655 0.275,-0.701C0.322,-0.748 0.376,-0.784 0.437,-0.81C0.499,-0.837 0.564,-0.85 0.635,-0.85C0.705,-0.85 0.77,-0.837 0.832,-0.81C0.893,-0.784 0.947,-0.748 0.994,-0.701C1.04,-0.655 1.077,-0.601 1.103,-0.539C1.129,-0.478 1.143,-0.412 1.143,-0.342C1.143,-0.271 1.129,-0.206 1.103,-0.144C1.077,-0.083 1.04,-0.029 0.994,0.018C0.947,0.064 0.893,0.101 0.832,0.127C0.77,0.153 0.705,0.166 0.635,0.166ZM0.475,-0.002L0.451,-0.032C0.514,-0.085 0.576,-0.111 0.635,-0.111C0.694,-0.111 0.755,-0.085 0.819,-0.032L0.794,-0.002C0.738,-0.049 0.685,-0.072 0.635,-0.072C0.585,-0.072 0.532,-0.049 0.475,-0.002ZM0.481,-0.175C0.464,-0.175 0.45,-0.182 0.438,-0.196C0.425,-0.21 0.419,-0.227 0.419,-0.246C0.419,-0.258 0.422,-0.27 0.427,-0.28C0.432,-0.291 0.439,-0.299 0.447,-0.305C0.43,-0.315 0.415,-0.322 0.404,-0.327C0.392,-0.332 0.38,-0.337 0.369,-0.34L0.381,-0.377C0.416,-0.366 0.449,-0.351 0.48,-0.334C0.512,-0.316 0.542,-0.296 0.57,-0.272L0.543,-0.241C0.543,-0.238 0.543,-0.236 0.543,-0.234C0.543,-0.232 0.542,-0.23 0.542,-0.228C0.538,-0.213 0.531,-0.2 0.52,-0.19C0.509,-0.18 0.496,-0.175 0.481,-0.175ZM0.635,0.127C0.7,0.127 0.76,0.115 0.817,0.091C0.874,0.066 0.923,0.033 0.966,-0.01C1.009,-0.053 1.043,-0.103 1.067,-0.16C1.091,-0.216 1.104,-0.277 1.104,-0.342C1.104,-0.407 1.091,-0.467 1.067,-0.524C1.043,-0.581 1.009,-0.63 0.966,-0.673C0.923,-0.716 0.874,-0.75 0.817,-0.774C0.76,-0.798 0.7,-0.811 0.635,-0.811C0.57,-0.811 0.509,-0.798 0.453,-0.774C0.396,-0.75 0.346,-0.716 0.303,-0.673C0.26,-0.63 0.227,-0.581 0.202,-0.524C0.178,-0.467 0.166,-0.407 0.166,-0.342C0.166,-0.277 0.178,-0.216 0.202,-0.16C0.227,-0.103 0.26,-0.053 0.303,-0.01C0.346,0.033 0.396,0.066 0.453,0.091C0.509,0.115 0.57,0.127 0.635,0.127ZM0.788,-0.175C0.773,-0.175 0.761,-0.18 0.75,-0.19C0.739,-0.2 0.732,-0.213 0.728,-0.228C0.728,-0.23 0.726,-0.238 0.726,-0.241L0.699,-0.272C0.728,-0.296 0.758,-0.316 0.789,-0.334C0.821,-0.351 0.854,-0.366 0.888,-0.377L0.901,-0.34C0.89,-0.337 0.878,-0.332 0.866,-0.327C0.855,-0.322 0.84,-0.315 0.823,-0.305C0.831,-0.299 0.838,-0.291 0.843,-0.28C0.848,-0.27 0.85,-0.258 0.85,-0.246C0.85,-0.227 0.844,-0.21 0.832,-0.196C0.82,-0.182 0.805,-0.175 0.788,-0.175Z" style="fill:rgb(128,128,128);fill-rule:nonzero;"/>
            </g>
        </g>
    </g>
</svg>
