<?xml version="1.0" encoding="UTF-8" standalone="no"?>
<!DOCTYPE svg PUBLIC "-//W3C//DTD SVG 1.1//EN" "http://www.w3.org/Graphics/SVG/1.1/DTD/svg11.dtd">
<svg width="100%" height="100%" viewBox="0 0 1182 1182" version="1.1" xmlns="http://www.w3.org/2000/svg" xmlns:xlink="http://www.w3.org/1999/xlink" xml:space="preserve" xmlns:serif="http://www.serif.com/" style="fill-rule:evenodd;clip-rule:evenodd;stroke-linejoin:round;stroke-miterlimit:2;">
    <g transform="matrix(-0.655076,0,0,0.655076,1219.14,215.743)">
        <path d="M695.629,-65.898C702.517,-85.568 706.419,-109.478 706.419,-130.288C706.419,-158.176 700.408,-177.888 686.946,-177.888C672.522,-177.888 643.915,-152.164 619.875,-116.586C615.074,-114.505 610.699,-112.079 606.751,-109.306C591.997,-111.755 575.216,-112.98 556.409,-112.98C546.538,-112.98 536.359,-112.003 525.87,-110.05C527.478,-119.139 528.282,-128.53 528.282,-138.222C528.282,-164.666 521.07,-177.888 506.646,-177.888C494.626,-177.888 479.721,-157.934 461.932,-118.028C456.45,-105.966 449.141,-92.05 439.832,-76.188C383.866,-44.061 321.293,9.225 252.063,83.908C207.075,133.113 172.806,160.565 111.429,200.021C75.849,223.099 58.06,253.63 58.06,287.286C58.06,348.111 146.914,447.393 220.33,447.393C241.486,447.393 268.651,446.672 291.729,435.132L591.027,547.639C595.354,581.295 604.489,612.908 618.432,642.477C660.178,731.007 729.102,811.843 763.033,926.63C774.332,964.853 779.981,1008 779.981,1056.09C779.981,1100.97 765.557,1195.33 765.557,1227.01C765.557,1258.75 793.685,1265.95 828.301,1265.95C897.537,1265.95 921.336,1246 921.336,1198.88C921.336,1182.9 917.73,1079.78 917.73,1049.59C917.73,963.5 957.396,863.701 957.396,792.847C996.822,940.933 1008.6,1052.97 1008.6,1120.27C1008.6,1159.02 1002.11,1220.47 1002.11,1245.04C1002.11,1288.32 1030,1322.21 1091.54,1322.21C1167.5,1322.21 1214.86,1287.58 1214.86,1218.36C1214.86,1193.35 1211.86,1159.1 1205.85,1115.58C1199.84,1072.07 1196.83,1027 1196.83,980.359C1209.99,949.447 1221.16,915.209 1231.9,879.016C1242.53,889.915 1254.39,900.604 1268.52,909.527C1270.03,931.807 1271.69,952.526 1273.28,971.344C1279.09,1040.17 1272.56,1077.82 1272.56,1112.34C1272.56,1156.58 1308.38,1189.51 1358.38,1189.51C1367.04,1189.51 1379.07,1188.3 1388.67,1187.34C1388.67,1230.62 1427.61,1258.02 1479.55,1258.02C1533.39,1258.02 1570.42,1240.95 1590.61,1206.82C1610.8,1172.68 1620.9,1123.64 1620.9,1059.69C1620.9,925.66 1657.42,799.012 1749.27,589.469C1752.21,621.524 1758.66,672.465 1760.09,683.946C1750.43,694.566 1742.06,722.602 1742.06,770.49C1742.06,804.555 1751,824.738 1794.71,877.949C1808.17,893.335 1823.32,923.384 1835.82,923.384C1850.28,923.384 1861.06,851.887 1861.06,802.944C1861.06,754.424 1836.36,683.089 1814.9,668.801C1805.84,559.943 1813.46,394.857 1813.46,339.213C1813.46,289.209 1801.08,248.101 1776.32,215.888C1726.8,151.46 1638.45,121.41 1533.63,121.41L904.027,121.41C881.911,121.41 859.794,118.285 840.562,113.477C894.41,74.051 940.808,4.335 940.808,-46.629C940.808,-87.017 912.442,-110.095 867.246,-110.095C800.994,-110.095 750.786,-96.853 695.629,-65.898ZM1324.51,983.638C1329.76,991.549 1335.28,995.504 1341.07,995.504C1359.35,995.504 1371.37,960.646 1371.37,926.99C1375.69,941.895 1382.18,954.877 1390.84,965.935C1400.06,977.725 1408.49,983.181 1416.07,982.455C1416.08,983.44 1416.08,984.424 1416.08,985.408C1416.08,1032.05 1413.31,1068.83 1407.79,1095.75C1402.26,1122.68 1388.43,1136.14 1366.32,1136.14C1336.5,1136.14 1322.32,1119.3 1322.32,1100.08C1322.32,1070.94 1329.94,1031.02 1324.51,983.638ZM309.55,380.65C337.862,305.365 320.786,199.389 272.969,136.826L288.123,122.132C335.722,75.975 375.508,40.035 407.481,14.312C439.454,-11.411 467.581,-29.441 491.862,-39.778C516.142,-50.115 540.062,-55.284 563.621,-55.284C589.103,-55.284 610.379,-51.918 627.447,-45.187C644.516,-38.456 657.858,-30.282 667.474,-20.666C648.242,-20.666 631.294,-11.651 616.629,6.379C587.301,42.439 570.112,103.141 570.112,167.567C570.112,220.83 580.894,305.265 589.584,318.298C610.713,345.188 714.918,403.399 743.2,403.399C781.479,403.399 871.573,299.478 871.573,256.996C871.573,243.534 856.188,206.272 831.186,161.076C852.342,170.692 879.025,179.106 904.027,179.106L955.232,179.106C964.773,305.05 1115.78,470.821 1250.92,533.576C1339.04,574.482 1406.03,562.184 1444.93,491.386C1468.97,447.633 1480.99,385.61 1480.99,305.316C1480.99,261.084 1501.41,216.128 1529.31,177.664C1585.53,177.664 1669.9,192.771 1706,230.312C1655.04,294.738 1624.51,367.099 1624.51,425.757C1624.51,481.529 1641.09,519.993 1701.67,564.227C1668.5,640.674 1641.82,707.986 1621.62,766.163C1581.24,882.517 1563.2,972.19 1563.2,1059.69C1563.2,1158.93 1549.59,1200.33 1479.55,1200.33C1456.47,1200.33 1434.83,1187.83 1434.83,1168.59C1434.83,1144.13 1463.68,1078.54 1463.68,1000.55C1463.68,933.538 1450.54,814.83 1418.96,740.2C1388.2,753.662 1334.82,764.24 1281.94,769.048C1255.49,771.452 1231.69,772.654 1210.54,772.654C1190.34,851.504 1169.19,907.038 1144.19,966.656C1144.19,1069.67 1162.94,1186.49 1162.94,1218.36C1162.94,1249.12 1138.17,1264.51 1095.87,1264.51C1066.05,1264.51 1054.76,1257.3 1054.76,1231.34C1054.76,1205.38 1062.69,1150.09 1062.69,1120.27C1062.69,1064.98 1059.81,1014.5 1054.04,968.82C1021.98,715.064 897.76,601.008 666.753,601.008C656.175,576.006 639.827,533.936 632.135,502.204L309.55,380.65ZM469.865,173.337C494.867,173.337 515.301,150.498 515.301,123.574C515.301,96.65 494.867,75.494 469.865,74.532L397.745,81.744C397.745,87.514 399.548,95.928 403.154,106.986C406.76,118.045 413.852,123.574 424.429,123.574C424.429,150.498 445.825,173.337 469.865,173.337ZM1067.02,703.419C1106.44,703.419 1148.51,662.069 1148.51,625.529C1148.51,611.105 1143.47,600.648 1133.37,594.157C1110.88,579.7 1093.66,551.994 1073.15,531.052C1051.71,509.156 1027.48,507.541 1009.68,528.888C979.098,565.604 969.793,633.623 1009.32,675.292C1027.11,694.043 1046.34,703.419 1067.02,703.419ZM1518.49,708.467C1550.23,708.467 1581.95,676.735 1581.95,636.347C1581.95,607.499 1564.89,566.391 1540.85,566.391C1513.52,566.391 1491.39,610.442 1469.45,625.529C1461.76,630.818 1457.91,638.991 1457.91,650.05C1457.91,676.974 1488.69,708.467 1518.49,708.467ZM203.021,303.874C178.019,303.874 156.143,281.757 156.143,257.717C156.143,241.371 166.481,238.245 203.021,238.245C239.563,238.245 249.899,241.371 249.899,257.717C249.899,281.757 228.023,303.874 203.021,303.874ZM719.4,105.544C695.36,105.544 677.571,89.917 677.571,68.763C677.571,35.107 716.274,2.172 772.048,-17.06C799.934,-26.676 829.503,-31.484 860.755,-31.484C860.755,-6.482 838.639,26.933 808.829,55.781C779.019,84.629 744.402,105.544 719.4,105.544Z" style="fill:rgb(128,128,128);"/>
    </g>
</svg>
