<?xml version="1.0" encoding="UTF-8" standalone="no"?>
<!DOCTYPE svg PUBLIC "-//W3C//DTD SVG 1.1//EN" "http://www.w3.org/Graphics/SVG/1.1/DTD/svg11.dtd">
<svg width="100%" height="100%" viewBox="0 0 1182 1182" version="1.1" xmlns="http://www.w3.org/2000/svg" xmlns:xlink="http://www.w3.org/1999/xlink" xml:space="preserve" xmlns:serif="http://www.serif.com/" style="fill-rule:evenodd;clip-rule:evenodd;stroke-linejoin:round;stroke-miterlimit:2;">
    <g transform="matrix(0.962401,0,0,0.962401,22.2041,22.204)">
        <path d="M615.402,271.276C593.55,243.439 578.839,210.979 578.839,185.197C578.839,163.974 586.907,147.563 600.297,136.194C612.39,125.926 629.581,119.622 651.028,119.622C681.552,119.622 707.365,123.524 732.394,132.141C732.386,131.556 732.382,130.974 732.382,130.394C732.382,110.261 737.581,94.79 744.166,87.001L748.767,82.473L754.726,78.611L761.765,76.059L769.138,75.213L780.617,77.191C784.324,78.446 788.543,80.488 793.028,83.444C803.233,90.172 816.199,102.877 828.109,119.057C834.721,118.346 841.805,117.916 849.361,117.78C850.462,103.953 854.61,94.274 859.603,88.173L865.192,82.68L872.146,78.435L879.765,75.956L887.248,75.213L898.625,77.318L905.301,80.667L910.605,84.641C918.459,91.479 928.259,105.791 938.436,128.6C941.103,134.457 944.494,141.033 948.646,148.365C985.5,170.607 1026.57,205.797 1071.68,254.454L1071.73,254.515C1099.67,285.076 1121,302.077 1159.16,326.61L1159.21,326.637C1190.48,346.919 1205.11,374.358 1205.11,403.937C1205.11,428.564 1188.65,461.758 1163.24,488.014C1137.9,514.183 1104.43,532.819 1074.81,532.819C1060.82,532.819 1043.67,531.979 1027.68,526.56L853.471,592.046C849.812,611.273 843.891,629.539 835.728,646.85C808.859,703.83 764.15,755.68 742.311,829.56C735.504,852.586 732.193,878.591 732.193,907.562C732.193,936.962 741.642,998.775 741.642,1019.53C741.642,1054.68 714.879,1069.04 676.54,1069.04C639.375,1069.04 617.758,1059.67 605.679,1045.42C596.539,1034.64 591.595,1020.24 591.595,1001.1C591.595,990.632 593.957,923.081 593.957,903.304C593.957,889.433 592.385,875.019 590.015,860.477C584.499,897.366 582.43,927.333 582.43,949.605C582.43,974.989 586.682,1015.24 586.682,1031.34C586.682,1052.48 579.334,1071.11 565.007,1084.68C551.756,1097.22 531.9,1105.89 504.098,1105.89C465.744,1105.89 436.656,1093.81 419.041,1072.83C406.62,1058.04 399.314,1038.51 399.314,1013.86C399.314,1004.21 399.945,992.55 401.231,978.884C388.634,1002.94 362.574,1018.96 329.298,1018.96C329.066,1018.96 328.83,1018.96 328.592,1018.96C317.486,1046.14 288.235,1063.84 249.922,1063.84C204.214,1063.84 173.654,1047.5 156.512,1018.52L156.512,1018.52C141.586,993.281 133.327,957.195 133.327,909.92C133.327,855.215 123.51,802.512 101.005,736.499C98.353,755.578 89.183,773.025 61.777,806.388L61.532,806.669C55.101,814.02 48.002,826.196 41.457,832.888L30.33,841.276L22.847,843.945L16.538,844.63L8.892,843.521L2.681,840.817L-4.655,834.708L-10.186,826.432C-17.843,811.461 -23.996,771.234 -23.996,741.732C-23.996,716.087 -14.949,681.978 -3.908,660.133C-0.521,653.433 3.225,647.753 6.979,643.229C11.812,572.765 7.186,472.625 7.186,437.953C7.186,399.203 17.299,367.504 36.487,342.54C72.946,295.105 137.321,271.276 214.496,271.276L615.402,271.276ZM408.372,917.963C410.065,899.958 410.977,881.546 411.109,862.726C410.308,860.775 409.517,858.805 408.736,856.817C406.677,883.08 407.471,902.122 408.372,917.963ZM763.45,172.575C727.318,152.297 694.428,143.622 651.028,143.622C621.421,143.622 602.839,158.74 602.839,185.197C602.839,218.583 633.233,264.252 668.508,290.079C655.91,293.229 641.421,295.276 626.934,295.276L214.496,295.276C145.831,295.276 87.955,314.961 55.515,357.166C39.296,378.268 31.186,405.197 31.186,437.953C31.186,474.404 36.178,582.548 30.243,653.858C16.185,663.218 0.004,709.948 0.004,741.732C0.004,773.794 7.066,820.63 16.538,820.63C24.727,820.63 34.651,800.945 43.469,790.866C72.102,756.009 77.958,742.788 77.958,720.473C77.958,689.102 72.475,670.737 66.147,663.78C67.084,656.259 71.309,622.888 73.235,601.89C133.404,739.157 157.327,822.121 157.327,909.92C157.327,951.813 163.944,983.938 177.17,1006.3C190.396,1028.66 214.653,1039.84 249.922,1039.84C283.947,1039.84 309.456,1021.89 309.456,993.541C315.744,994.17 323.625,994.962 329.298,994.962C362.052,994.962 385.516,973.391 385.516,944.41C385.516,921.797 381.239,897.133 385.045,852.047C386.086,839.72 387.174,826.147 388.163,811.552C397.419,805.707 405.188,798.705 412.152,791.565C419.187,815.274 426.505,837.703 435.125,857.953C435.125,888.506 433.154,918.03 429.217,946.533C425.28,975.042 423.314,997.478 423.314,1013.86C423.314,1059.21 454.339,1081.89 504.098,1081.89C544.412,1081.89 562.682,1059.69 562.682,1031.34C562.682,1015.24 558.43,974.989 558.43,949.605C558.43,905.518 566.146,832.126 591.973,735.118C591.973,781.533 617.957,846.909 617.957,903.304C617.957,923.081 615.595,990.632 615.595,1001.1C615.595,1031.97 631.185,1045.04 676.54,1045.04C699.216,1045.04 717.642,1040.32 717.642,1019.53C717.642,998.775 708.193,936.962 708.193,907.562C708.193,876.06 711.894,847.795 719.295,822.756C741.523,747.562 786.673,694.608 814.02,636.614C823.154,617.244 829.138,596.535 831.972,574.488L1028.04,500.788C1043.15,508.347 1060.95,508.819 1074.81,508.819C1122.9,508.819 1181.11,443.782 1181.11,403.937C1181.11,381.89 1169.45,361.89 1146.15,346.772C1105.94,320.925 1083.49,302.942 1054.02,270.709C1008.67,221.786 967.679,186.88 931.017,165.834C924.919,155.443 920.131,146.327 916.539,138.426C904.886,112.284 895.122,99.213 887.248,99.213C877.8,99.213 873.075,107.874 873.075,125.197C873.075,131.546 873.602,137.698 874.655,143.652C867.784,142.373 861.116,141.733 854.65,141.733C842.33,141.733 831.337,142.535 821.672,144.139C819.086,142.323 816.22,140.734 813.075,139.37C797.327,116.064 778.587,99.213 769.138,99.213C760.32,99.213 756.382,112.126 756.382,130.394C756.382,144.027 758.938,159.689 763.45,172.575ZM1086.15,414.804C1069.77,414.804 1055.44,400.315 1055.44,384.567C1055.44,373.859 1062.21,371.812 1086.15,371.812C1110.08,371.812 1116.85,373.859 1116.85,384.567C1116.85,400.315 1102.52,414.804 1086.15,414.804ZM1016.36,465.098L805.044,544.725C800.005,565.512 789.296,593.071 782.366,609.449C631.039,609.449 549.665,684.164 528.664,850.394C524.884,880.318 522.997,913.386 522.997,949.605C522.997,969.139 528.192,1005.36 528.192,1022.36C528.192,1039.37 520.796,1044.09 501.262,1044.09C473.552,1044.09 457.326,1034.01 457.326,1013.86C457.326,992.984 469.609,916.458 469.609,848.976C453.232,809.922 439.377,773.543 426.144,721.89C412.289,721.89 396.699,721.103 379.372,719.528C344.731,716.378 309.763,709.449 289.613,700.63C268.926,749.519 260.318,827.281 260.318,871.179C260.318,922.269 279.217,965.235 279.217,981.258C279.217,993.862 265.041,1002.05 249.922,1002.05C204.041,1002.05 195.125,974.93 195.125,909.92C195.125,852.601 183.308,793.859 156.856,717.638C143.623,679.528 126.146,635.433 104.417,585.355C144.101,556.378 154.962,531.181 154.962,494.646C154.962,456.221 134.963,408.819 101.58,366.615C125.229,342.023 180.497,332.126 217.326,332.126C235.602,357.323 248.979,386.773 248.979,415.748C248.979,468.347 256.853,508.977 272.601,537.638C298.083,584.016 341.967,592.072 399.692,565.276C488.219,524.167 587.14,415.574 593.39,333.071L626.934,333.071C643.312,333.071 660.791,327.559 674.65,321.26C658.272,350.867 648.193,375.276 648.193,384.095C648.193,411.924 707.212,480 732.288,480C750.814,480 819.077,441.867 832.918,424.252C838.61,415.715 845.673,360.403 845.673,325.512C845.673,283.308 834.413,243.544 815.201,219.922C805.594,208.111 794.492,202.205 781.894,202.205C788.193,195.906 796.933,190.551 808.115,186.142C819.295,181.733 833.233,179.528 849.925,179.528C865.358,179.528 881.028,182.914 896.933,189.685C912.839,196.457 931.264,208.268 952.209,225.118C973.154,241.969 999.217,265.512 1030.4,295.749L1040.33,305.374C1009,346.358 997.815,415.78 1016.36,465.098ZM911.343,329.292C927.091,329.292 941.107,314.331 941.107,296.693C948.035,296.693 952.681,293.071 955.043,285.827C957.406,278.583 958.587,273.071 958.587,269.292L911.343,264.567C894.965,265.197 881.579,279.056 881.579,296.693C881.579,314.331 894.965,329.292 911.343,329.292ZM520.161,676.536C533.708,676.536 546.305,670.394 557.959,658.111C583.852,630.814 577.756,586.257 557.723,562.205C546.063,548.221 530.19,549.279 516.145,563.622C502.71,577.341 491.429,595.491 476.697,604.961C470.08,609.213 466.779,616.063 466.779,625.512C466.779,649.449 494.338,676.536 520.161,676.536ZM224.414,679.843C243.935,679.843 264.098,659.212 264.098,641.575C264.098,634.331 261.576,628.977 256.539,625.512C242.166,615.629 227.669,586.772 209.766,586.772C194.018,586.772 182.843,613.701 182.843,632.599C182.843,659.056 203.622,679.843 224.414,679.843ZM351.485,860.101C347.928,891.139 352.92,917.29 352.92,936.379C352.92,948.97 343.631,960.001 324.097,960.001C309.613,960.001 300.553,951.184 296.931,933.543C293.315,915.908 291.5,891.814 291.5,861.26C291.5,860.616 291.5,859.971 291.507,859.326C296.472,859.801 301.994,856.227 308.034,848.504C313.707,841.26 317.958,832.756 320.788,822.992C320.788,845.039 328.662,867.874 340.637,867.874C344.43,867.874 348.046,865.283 351.485,860.101ZM747.878,284.882C731.5,284.882 708.823,271.181 689.296,252.284C669.768,233.386 655.28,211.497 655.28,195.119C675.752,195.119 695.122,198.268 713.39,204.567C749.926,217.166 775.279,238.741 775.279,260.788C775.279,274.645 763.626,284.882 747.878,284.882Z" style="fill:rgb(128,128,128);"/>
    </g>
</svg>
