<?xml version="1.0" encoding="UTF-8" standalone="no"?>
<!DOCTYPE svg PUBLIC "-//W3C//DTD SVG 1.1//EN" "http://www.w3.org/Graphics/SVG/1.1/DTD/svg11.dtd">
<svg width="100%" height="100%" viewBox="0 0 284 284" version="1.1" xmlns="http://www.w3.org/2000/svg" xmlns:xlink="http://www.w3.org/1999/xlink" xml:space="preserve" xmlns:serif="http://www.serif.com/" style="fill-rule:evenodd;clip-rule:evenodd;stroke-linejoin:round;stroke-miterlimit:2;">
    <path d="M162.337,273.954C148.799,275.99 134.668,275.99 121.128,273.954C120.724,257.735 96.959,259.869 96.959,244.869L96.959,230.357C109.158,225.567 124.349,220.409 141.732,220.409C159.218,220.409 174.404,225.538 186.507,230.329L186.507,244.869C186.507,259.869 162.746,257.735 162.337,273.954ZM186.507,175.076L186.507,189.796L96.959,189.796L96.959,175.192C108.399,165.912 123.7,160.758 141.732,160.758C159.839,160.758 175.063,165.855 186.507,175.076ZM69.119,102.071C74.607,100.537 80.173,100.597 85.658,102.254L85.658,248.732C85.658,265.812 108.545,266.631 108.545,273.908C108.545,279.04 95.669,282.634 75.501,282.634C49.715,282.634 37.392,275.618 44.318,263.895C29.955,262.223 26.595,257.804 40.598,254.024C46.607,252.404 54.235,251.306 63.485,250.734L69.119,102.071ZM232,241.681C231.713,241.646 231.427,241.612 231.137,241.578L225.863,107.734C229.212,110.187 231.971,113.128 234.14,116.556L242.437,109.261C234.238,97.054 220.314,89.52 206.39,89.52C192.466,89.52 178.736,97.054 170.341,109.261L178.638,116.556C180.718,113.269 183.34,110.43 186.507,108.039L186.507,161.166C174.255,153.583 158.807,149.314 141.732,149.314C124.658,149.314 109.338,153.577 96.959,161.209L96.959,108.039C100.125,110.43 102.746,113.269 104.826,116.556L113.123,109.261C104.922,97.054 90.999,89.52 77.075,89.52C63.152,89.52 49.419,97.054 41.028,109.261L49.324,116.556C51.494,113.128 54.253,110.187 57.603,107.734L52.328,241.578L51.466,241.682C22.619,216.61 4.408,179.562 4.408,138.156C4.408,62.246 66.089,0.831 141.732,0.831C217.644,0.831 279.056,62.511 279.056,138.156C279.056,179.562 260.848,216.612 232,241.681ZM39.454,90.522C49.181,76.026 62.103,67.443 80.794,62.485L77.934,51.328C56.572,57.239 40.789,67.682 29.727,84.084L39.454,90.522ZM244.01,90.522L253.738,84.084C242.676,67.682 227.085,57.239 205.53,51.328L202.67,62.485C221.36,67.443 234.283,76.026 244.01,90.522ZM197.807,102.254C203.292,100.597 208.859,100.537 214.345,102.071L219.98,250.734C229.325,251.306 236.978,252.404 242.937,254.024C256.424,257.692 254.19,262.184 239.147,263.895C246.081,275.618 233.747,282.634 207.964,282.634C188.262,282.634 174.919,279.063 174.919,273.908C174.919,266.631 197.807,265.786 197.807,248.732L197.807,102.254Z" style="fill:rgb(128,128,128);"/>
</svg>
