<?xml version="1.0" encoding="UTF-8" standalone="no"?>
<!DOCTYPE svg PUBLIC "-//W3C//DTD SVG 1.1//EN" "http://www.w3.org/Graphics/SVG/1.1/DTD/svg11.dtd">
<svg width="100%" height="100%" viewBox="0 0 284 284" version="1.1" xmlns="http://www.w3.org/2000/svg" xmlns:xlink="http://www.w3.org/1999/xlink" xml:space="preserve" xmlns:serif="http://www.serif.com/" style="fill-rule:evenodd;clip-rule:evenodd;stroke-linejoin:round;stroke-miterlimit:2;">
    <g transform="matrix(0.181915,0,0,0.181915,-47.2574,24.6526)">
        <g>
            <path d="M499.636,1206.17C353.898,1066.23 259.778,866.507 259.778,643.596C259.778,212.088 607.39,-135.517 1038.89,-135.517C1468.41,-135.517 1818.01,213.593 1818.01,643.596C1818.01,1075.11 1466.91,1422.71 1038.89,1422.71C936.641,1422.71 838.449,1402.25 749.693,1366.89C701.569,1379.1 639.866,1373.88 593.524,1346.3C543.08,1316.28 509.382,1265.7 499.636,1206.17ZM823.331,1329.71C892.874,1351.76 964.727,1362.78 1038.89,1362.78C1435.06,1362.78 1758.07,1041.14 1758.07,643.596C1758.07,247.435 1436.45,-75.586 1038.89,-75.586C641.35,-75.586 319.71,246.048 319.71,643.596C319.71,827.306 389.916,994.176 500.029,1119.84C509.287,1057.95 538.965,990.68 569.926,932.018L696.532,695.288C696.532,695.288 803.949,890.277 837.844,959.014C906.064,932.527 973.08,919.283 1038.89,919.283C1140.77,919.283 1234.17,947.498 1343.05,1011.43L1313.08,1063.87C1210.2,1003.93 1130.79,979.215 1038.89,979.215C982.468,979.215 923.71,990.887 862.617,1014.23C883.337,1065.18 897.303,1117.13 897.303,1166.5C897.303,1235.13 868.576,1292.96 823.331,1329.71ZM696.532,1317.08C779.438,1317.08 841.117,1253.4 841.117,1166.5C841.117,1098.58 810.152,1026.41 775.192,960.486L696.532,808.409L617.871,960.486C583.909,1026.41 552.695,1098.58 552.695,1166.5C552.695,1255.4 611.628,1317.08 696.532,1317.08ZM1503.36,430.838C1464.41,354.425 1397.48,299.488 1302.59,266.026L1322.07,209.091C1432.94,248.546 1511.36,313.472 1557.3,403.869L1503.36,430.838ZM574.421,430.838L520.482,403.869C566.43,313.472 644.84,248.546 755.714,209.091L775.192,266.026C680.3,299.488 613.376,354.425 574.421,430.838ZM775.192,658.579C724.25,658.579 681.549,607.139 681.549,546.207C681.549,484.277 724.25,433.835 775.192,433.835C826.134,433.835 868.836,484.277 868.836,546.207C868.836,607.139 826.134,658.579 775.192,658.579ZM1302.59,658.579C1251.65,658.579 1208.95,607.139 1208.95,546.207C1208.95,484.277 1251.65,433.835 1302.59,433.835C1353.53,433.835 1396.24,484.277 1396.24,546.207C1396.24,607.139 1353.53,658.579 1302.59,658.579Z" style="fill:rgb(128,128,128);"/>
        </g>
    </g>
</svg>
