<?xml version="1.0" encoding="UTF-8" standalone="no"?>
<!DOCTYPE svg PUBLIC "-//W3C//DTD SVG 1.1//EN" "http://www.w3.org/Graphics/SVG/1.1/DTD/svg11.dtd">
<svg width="100%" height="100%" viewBox="0 0 284 284" version="1.1" xmlns="http://www.w3.org/2000/svg" xmlns:xlink="http://www.w3.org/1999/xlink" xml:space="preserve" xmlns:serif="http://www.serif.com/" style="fill-rule:evenodd;clip-rule:evenodd;stroke-linejoin:round;stroke-miterlimit:2;">
    <g transform="matrix(0.937562,0,0,0.937562,8.84945,8.84973)">
        <path d="M27.873,233.604C6.535,208.026 -6.673,174.822 -6.673,138.405C-6.673,56.212 59.827,-10 141.732,-10C223.928,-10 290.138,56.498 290.138,138.405C290.138,174.811 276.938,207.998 255.625,233.565C262.507,238.273 265.517,244.345 265.517,250.594C265.517,257.758 262.184,264.166 254.189,268.629C252.579,275.767 247.626,281.862 238.688,286.489C228.838,291.588 213.722,294.005 198.945,293.376C185.916,292.823 173.261,289.854 164.587,285.103C149.668,287.375 133.87,287.373 118.956,285.113C112.245,288.811 103.076,291.463 93.115,292.665C75.928,294.739 56.522,292.571 44.822,286.478C35.957,281.862 31.003,275.787 29.341,268.666C21.299,264.2 17.947,257.777 17.947,250.594C17.947,244.367 21.009,238.307 27.873,233.604ZM44.668,237.11C33.76,239.987 27.947,244.478 27.947,250.594C27.947,255.651 31.541,259.421 38.727,261.906C38.372,268.47 41.943,273.705 49.44,277.608C66.576,286.533 102.629,285.019 116.865,274.632C133.015,277.535 150.497,277.542 166.655,274.622C181.169,285.109 216.901,286.509 234.091,277.608C241.632,273.705 245.181,268.47 244.737,261.906C251.925,259.421 255.517,255.651 255.517,250.594C255.517,244.469 249.807,239.972 238.815,237.093C263.985,212.245 280.138,177.294 280.138,138.405C280.138,62.018 218.389,0 141.732,0C65.346,0 3.327,61.75 3.327,138.405C3.327,177.294 19.479,212.255 44.668,237.11ZM160.902,264.743C148.307,266.637 135.16,266.637 122.563,264.743C122.187,249.654 100.078,251.639 100.078,237.684L100.078,224.183C111.427,219.727 125.56,214.928 141.732,214.928C158,214.928 172.128,219.7 183.388,224.157L183.388,237.684C183.388,251.639 161.282,249.654 160.902,264.743ZM183.388,172.753L183.388,186.448L100.078,186.448L100.078,172.861C110.721,164.227 124.956,159.432 141.732,159.432C158.578,159.432 172.741,164.174 183.388,172.753ZM74.177,104.834C79.283,103.406 84.461,103.462 89.564,105.004L89.564,241.278C89.564,257.168 110.857,257.93 110.857,264.7C110.857,269.475 98.878,272.819 80.115,272.819C56.125,272.819 44.66,266.291 51.104,255.385C37.741,253.829 34.615,249.718 47.643,246.202C53.233,244.694 60.33,243.673 68.936,243.141L74.177,104.834ZM225.712,234.718C225.445,234.686 225.179,234.654 224.909,234.623L220.002,110.102C223.118,112.384 225.685,115.12 227.703,118.31L235.422,111.523C227.794,100.166 214.84,93.157 201.886,93.157C188.932,93.157 176.158,100.166 168.348,111.523L176.067,118.31C178.002,115.252 180.442,112.61 183.388,110.386L183.388,159.812C171.989,152.757 157.618,148.786 141.732,148.786C125.847,148.786 111.595,152.752 100.078,159.852L100.078,110.386C103.023,112.61 105.462,115.252 107.397,118.31L115.116,111.523C107.486,100.166 94.533,93.157 81.579,93.157C68.626,93.157 55.85,100.166 48.043,111.523L55.761,118.31C57.78,115.12 60.347,112.384 63.463,110.102L58.556,234.623L57.754,234.719C30.916,211.394 13.974,176.927 13.974,138.405C13.974,67.783 71.358,10.646 141.732,10.646C212.356,10.646 269.49,68.029 269.49,138.405C269.49,176.927 252.55,211.396 225.712,234.718ZM46.579,94.089C55.628,80.603 67.65,72.618 85.039,68.005L82.378,57.625C62.504,63.125 47.821,72.84 37.529,88.1L46.579,94.089ZM236.885,94.089L245.936,88.1C235.644,72.84 221.139,63.125 201.086,57.625L198.425,68.005C215.813,72.618 227.836,80.603 236.885,94.089ZM193.901,105.004C199.004,103.462 204.183,103.406 209.287,104.834L214.529,243.141C223.223,243.673 230.343,244.694 235.887,246.202C248.435,249.614 246.356,253.793 232.361,255.385C238.812,266.291 227.337,272.819 203.35,272.819C185.021,272.819 172.607,269.496 172.607,264.7C172.607,257.93 193.901,257.144 193.901,241.278L193.901,105.004Z" style="fill:rgb(128,128,128);"/>
    </g>
</svg>
