<?xml version="1.0" encoding="UTF-8" standalone="no"?>
<!DOCTYPE svg PUBLIC "-//W3C//DTD SVG 1.1//EN" "http://www.w3.org/Graphics/SVG/1.1/DTD/svg11.dtd">
<svg width="100%" height="100%" viewBox="0 0 284 284" version="1.1" xmlns="http://www.w3.org/2000/svg" xmlns:xlink="http://www.w3.org/1999/xlink" xml:space="preserve" xmlns:serif="http://www.serif.com/" style="fill-rule:evenodd;clip-rule:evenodd;stroke-linejoin:round;stroke-miterlimit:2;">
    <g>
        <path d="M99.409,276.447C108.291,269.23 113.932,257.876 113.932,244.401C113.932,234.709 111.191,224.507 107.121,214.504C119.117,209.92 130.654,207.629 141.732,207.629C159.776,207.629 175.368,212.482 195.568,224.251L201.452,213.955C180.074,201.401 161.735,195.862 141.732,195.862C128.81,195.862 115.652,198.462 102.258,203.662C95.603,190.167 74.512,151.882 74.512,151.882L49.653,198.362C43.574,209.88 37.747,223.089 35.929,235.24C14.31,210.567 0.526,177.803 0.526,141.732C0.526,63.676 63.678,0.524 141.732,0.524C219.791,0.524 282.939,63.949 282.939,141.732C282.939,219.789 219.519,282.94 141.732,282.94C127.171,282.94 113.062,280.777 99.409,276.447ZM193.508,144.674C203.51,144.674 211.896,134.574 211.896,122.611C211.896,110.451 203.51,100.547 193.508,100.547C183.506,100.547 175.122,110.451 175.122,122.611C175.122,134.574 183.506,144.674 193.508,144.674ZM89.956,144.674C99.958,144.674 108.343,134.574 108.343,122.611C108.343,110.451 99.958,100.547 89.956,100.547C79.954,100.547 71.57,110.451 71.57,122.611C71.57,134.574 79.954,144.674 89.956,144.674ZM50.536,99.958C58.185,84.955 71.325,74.169 89.956,67.599L86.132,56.419C64.362,64.167 48.968,76.914 39.946,94.663L50.536,99.958ZM232.928,99.958L243.519,94.663C234.499,76.914 219.101,64.167 197.333,56.419L193.508,67.599C212.139,74.169 225.28,84.955 232.928,99.958ZM74.512,273.967C57.842,273.967 46.27,261.856 46.27,244.401C46.27,231.065 52.399,216.896 59.067,203.952L74.512,174.092L89.956,203.952C96.82,216.896 102.9,231.065 102.9,244.401C102.9,261.463 90.79,273.967 74.512,273.967Z" style="fill:rgb(128,128,128);"/>
    </g>
</svg>
