<?xml version="1.0" encoding="UTF-8" standalone="no"?>
<!DOCTYPE svg PUBLIC "-//W3C//DTD SVG 1.1//EN" "http://www.w3.org/Graphics/SVG/1.1/DTD/svg11.dtd">
<svg width="100%" height="100%" viewBox="0 0 284 284" version="1.1" xmlns="http://www.w3.org/2000/svg" xmlns:xlink="http://www.w3.org/1999/xlink" xml:space="preserve" xmlns:serif="http://www.serif.com/" style="fill-rule:evenodd;clip-rule:evenodd;stroke-linejoin:round;stroke-miterlimit:2;">
    <g transform="matrix(0.177644,0,0,0.177644,-42.821,24.0739)">
        <g>
            <path d="M492.497,1199.23C350.702,1059.32 259.778,862.513 259.778,643.596C259.778,212.088 608.895,-135.517 1038.89,-135.517C1470.41,-135.517 1818.01,213.593 1818.01,643.596C1818.01,862.513 1727.08,1059.26 1585.39,1199.13C1647.27,1215.34 1679.41,1240.65 1679.41,1275.13C1679.41,1303.6 1659.19,1324.82 1618.73,1338.81C1621.23,1375.76 1601.25,1405.23 1558.8,1427.2C1462.03,1477.31 1260.89,1469.42 1179.19,1410.39C1088.23,1426.83 989.821,1426.79 898.906,1410.45C818.768,1468.92 615.822,1477.44 519.358,1427.2C477.156,1405.23 457.054,1375.76 459.052,1338.81C418.598,1324.82 398.371,1303.6 398.371,1275.13C398.371,1240.7 431.091,1215.42 492.497,1199.23ZM1511.63,1185.76C1662.71,1054.48 1758.07,860.443 1758.07,643.596C1758.07,247.435 1436.45,-75.586 1038.89,-75.586C642.737,-75.586 319.71,246.048 319.71,643.596C319.71,860.443 415.083,1054.47 566.158,1185.77C567.654,1185.59 569.159,1185.41 570.675,1185.23L598.299,484.27C580.755,497.117 566.303,512.519 554.943,530.475L511.492,492.269C555.442,428.341 627.361,388.886 700.277,388.886C773.195,388.886 846.111,428.341 889.063,492.269L845.612,530.475C834.72,513.259 820.986,498.391 804.409,485.871L804.409,764.325C869.24,724.357 949.469,702.03 1038.89,702.03C1128.32,702.03 1209.21,724.385 1273.38,764.101L1273.38,485.871C1256.8,498.391 1243.06,513.259 1232.17,530.475L1188.72,492.269C1232.68,428.341 1304.59,388.886 1377.51,388.886C1450.43,388.886 1523.35,428.341 1566.29,492.269L1522.84,530.475C1511.48,512.519 1497.03,497.117 1479.49,484.27L1507.11,1185.23C1508.63,1185.4 1510.13,1185.58 1511.63,1185.76ZM1146.8,1354.78C1148.94,1269.84 1273.38,1281.01 1273.38,1202.46L1273.38,1126.31C1210,1101.23 1130.47,1074.36 1038.89,1074.36C947.856,1074.36 868.298,1101.38 804.409,1126.46L804.409,1202.46C804.409,1281.01 928.866,1269.84 930.981,1354.78C1001.9,1365.44 1075.9,1365.44 1146.8,1354.78ZM1332.56,455.572L1332.56,1222.69C1332.56,1312 1212.69,1316.43 1212.69,1354.54C1212.69,1381.54 1282.58,1400.24 1385.75,1400.24C1520.78,1400.24 1585.37,1363.5 1549.06,1302.1C1627.84,1293.14 1639.54,1269.62 1568.91,1250.41C1537.7,1241.92 1497.62,1236.17 1448.68,1233.18L1419.17,454.617C1390.44,446.58 1361.29,446.896 1332.56,455.572ZM658.61,454.617L629.108,1233.18C580.663,1236.17 540.709,1241.92 509.245,1250.41C435.902,1270.2 453.501,1293.34 528.723,1302.1C492.449,1363.5 556.989,1400.24 692.037,1400.24C797.656,1400.24 865.09,1381.42 865.09,1354.54C865.09,1316.43 745.226,1312.14 745.226,1222.69L745.226,455.572C716.502,446.896 687.352,446.58 658.61,454.617ZM1273.38,836.948C1213.45,788.657 1133.72,761.962 1038.89,761.962C944.455,761.962 864.32,788.952 804.409,837.554L804.409,914.039L1273.38,914.039L1273.38,836.948ZM503.252,394.13L452.309,360.419C510.245,274.515 592.9,219.828 704.772,188.864L719.755,247.297C621.867,273.267 554.194,318.216 503.252,394.13ZM1574.53,394.13C1523.59,318.216 1455.91,273.267 1358.03,247.297L1373.01,188.864C1485.89,219.828 1567.54,274.515 1625.48,360.419L1574.53,394.13Z" style="fill:rgb(128,128,128);"/>
        </g>
    </g>
</svg>
