<?xml version="1.0" encoding="UTF-8" standalone="no"?>
<!DOCTYPE svg PUBLIC "-//W3C//DTD SVG 1.1//EN" "http://www.w3.org/Graphics/SVG/1.1/DTD/svg11.dtd">
<svg width="100%" height="100%" viewBox="0 0 284 284" version="1.1" xmlns="http://www.w3.org/2000/svg" xmlns:xlink="http://www.w3.org/1999/xlink" xml:space="preserve" xmlns:serif="http://www.serif.com/" style="fill-rule:evenodd;clip-rule:evenodd;stroke-linejoin:round;stroke-miterlimit:2;">
    <g transform="matrix(0.24,0,0,0.24,0,0)">
        <g transform="matrix(0.757978,0,0,0.757978,-196.906,102.719)">
            <path d="M499.636,1206.17C431.285,1140.54 375.805,1063.26 333.195,974.345C284.251,872.211 259.778,761.962 259.778,643.596C259.778,535.719 279.881,434.709 320.085,340.566C360.289,246.423 416.101,163.642 487.519,92.224C558.938,20.805 641.719,-35.007 735.862,-75.211C830.005,-115.415 931.015,-135.517 1038.89,-135.517C1146.27,-135.517 1247.03,-115.415 1341.17,-75.211C1435.32,-35.007 1518.1,20.805 1589.52,92.224C1660.93,163.642 1716.87,246.423 1757.33,340.566C1797.78,434.709 1818.01,535.719 1818.01,643.596C1818.01,751.474 1797.78,852.484 1757.33,946.627C1716.87,1040.77 1660.93,1123.55 1589.52,1194.97C1518.1,1266.39 1435.32,1322.2 1341.17,1362.4C1247.03,1402.61 1146.27,1422.71 1038.89,1422.71C978.461,1422.71 919.778,1415.97 862.843,1402.48C823.711,1393.21 785.994,1381.35 749.693,1366.89C732.946,1371.14 715.226,1373.27 696.532,1373.27C658.075,1373.27 623.739,1364.28 593.524,1346.3C563.308,1328.32 539.585,1303.72 522.355,1272.51C511.117,1252.15 503.544,1230.04 499.636,1206.17ZM823.331,1329.71C892.874,1351.76 964.727,1362.78 1038.89,1362.78C1138.28,1362.78 1231.42,1344.17 1318.32,1306.97C1405.23,1269.76 1481.64,1218.19 1547.56,1152.27C1613.49,1086.34 1665.06,1009.93 1702.26,923.029C1739.47,836.127 1758.07,742.983 1758.07,643.596C1758.07,544.209 1739.47,451.065 1702.26,364.164C1665.06,277.263 1613.49,200.85 1547.56,134.925C1481.64,69 1405.23,17.434 1318.32,-19.774C1231.42,-56.982 1138.28,-75.586 1038.89,-75.586C939.505,-75.586 846.361,-56.982 759.46,-19.774C672.559,17.434 596.146,69 530.221,134.925C464.296,200.85 412.729,277.263 375.522,364.164C338.314,451.065 319.71,544.209 319.71,643.596C319.71,742.983 338.689,836.377 376.646,923.778C408.36,996.803 449.487,1062.16 500.029,1119.84C503.612,1095.89 509.93,1071.61 518.984,1047.01C533.967,1006.31 550.947,967.978 569.926,932.018L696.532,695.288L823.887,932.018C828.683,940.873 833.336,949.872 837.844,959.014C906.064,932.527 973.08,919.283 1038.89,919.283C1089.83,919.283 1139.65,926.65 1188.35,941.383C1237.04,956.116 1288.61,979.464 1343.05,1011.43L1313.08,1063.87C1261.64,1033.9 1214.57,1012.3 1171.87,999.067C1129.16,985.832 1084.84,979.215 1038.89,979.215C982.468,979.215 923.71,990.887 862.617,1014.23C866.989,1024.98 871.184,1035.91 875.203,1047.01C889.937,1087.72 897.303,1127.55 897.303,1166.5C897.303,1205.96 888.563,1241.29 871.083,1272.51C858.477,1295.02 842.56,1314.09 823.331,1329.71ZM696.532,1317.08C737.985,1317.08 772.445,1302.85 799.914,1274.38C827.383,1245.91 841.117,1209.95 841.117,1166.5C841.117,1132.54 834.5,1097.95 821.265,1062.75C808.03,1027.54 792.672,993.449 775.192,960.486L696.532,808.409L617.871,960.486C600.89,993.449 585.783,1027.54 572.548,1062.75C559.313,1097.95 552.695,1132.54 552.695,1166.5C552.695,1210.95 566.055,1247.16 592.775,1275.13C619.494,1303.1 654.08,1317.08 696.532,1317.08ZM1503.36,430.838C1464.41,354.425 1397.48,299.488 1302.59,266.026L1322.07,209.091C1432.94,248.546 1511.36,313.472 1557.3,403.869L1503.36,430.838ZM574.421,430.838L520.482,403.869C566.43,313.472 644.84,248.546 755.714,209.091L775.192,266.026C680.3,299.488 613.376,354.425 574.421,430.838ZM775.192,658.579C749.721,658.579 727.746,647.467 709.267,625.242C690.788,603.018 681.549,576.673 681.549,546.207C681.549,515.242 690.788,488.773 709.267,466.798C727.746,444.823 749.721,433.835 775.192,433.835C800.663,433.835 822.638,444.823 841.117,466.798C859.596,488.773 868.836,515.242 868.836,546.207C868.836,576.673 859.596,603.018 841.117,625.242C822.638,647.467 800.663,658.579 775.192,658.579ZM1302.59,658.579C1277.12,658.579 1255.15,647.467 1236.67,625.242C1218.19,603.018 1208.95,576.673 1208.95,546.207C1208.95,515.242 1218.19,488.773 1236.67,466.798C1255.15,444.823 1277.12,433.835 1302.59,433.835C1328.06,433.835 1350.04,444.823 1368.52,466.798C1387,488.773 1396.24,515.242 1396.24,546.207C1396.24,576.673 1387,603.018 1368.52,625.242C1350.04,647.467 1328.06,658.579 1302.59,658.579Z" style="fill:rgb(128,128,128);"/>
        </g>
    </g>
</svg>
