<?xml version="1.0" encoding="UTF-8" standalone="no"?>
<!DOCTYPE svg PUBLIC "-//W3C//DTD SVG 1.1//EN" "http://www.w3.org/Graphics/SVG/1.1/DTD/svg11.dtd">
<svg width="100%" height="100%" viewBox="0 0 284 284" version="1.1" xmlns="http://www.w3.org/2000/svg" xmlns:xlink="http://www.w3.org/1999/xlink" xml:space="preserve" xmlns:serif="http://www.serif.com/" style="fill-rule:evenodd;clip-rule:evenodd;stroke-linejoin:round;stroke-miterlimit:2;">
    <g transform="matrix(0.24,0,0,0.24,0,0)">
        <g transform="matrix(0.740185,0,0,0.740185,-178.421,100.308)">
            <path d="M492.497,1199.23C425.428,1133.05 371.204,1055.59 329.824,966.854C283.127,866.718 259.778,758.965 259.778,643.596C259.778,535.719 279.881,434.709 320.085,340.566C360.289,246.423 416.101,163.642 487.519,92.224C558.938,20.805 641.719,-35.007 735.862,-75.211C830.005,-115.415 931.015,-135.517 1038.89,-135.517C1146.77,-135.517 1247.78,-115.415 1341.92,-75.211C1436.07,-35.007 1518.85,20.805 1590.27,92.224C1661.68,163.642 1717.5,246.423 1757.7,340.566C1797.9,434.709 1818.01,535.719 1818.01,643.596C1818.01,758.965 1794.66,866.718 1747.96,966.854C1706.6,1055.55 1652.41,1132.97 1585.39,1199.13C1605.13,1204.3 1621.86,1210.4 1635.59,1217.44C1664.81,1232.43 1679.41,1251.65 1679.41,1275.13C1679.41,1303.6 1659.19,1324.82 1618.73,1338.81C1621.23,1375.76 1601.25,1405.23 1558.8,1427.2C1516.35,1449.18 1458.66,1460.17 1385.75,1460.17C1340.8,1460.17 1300.35,1455.67 1264.39,1446.68C1228.75,1437.78 1200.35,1425.68 1179.19,1410.39C1158.77,1414.08 1138.1,1416.93 1117.18,1418.96C1091.46,1421.46 1065.36,1422.71 1038.89,1422.71C1012.92,1422.71 986.951,1421.46 960.981,1418.96C939.962,1416.94 919.271,1414.11 898.906,1410.45C877.99,1425.71 849.613,1437.79 813.773,1446.68C777.565,1455.67 736.986,1460.17 692.037,1460.17C619.12,1460.17 561.56,1449.18 519.358,1427.2C477.156,1405.23 457.054,1375.76 459.052,1338.81C418.598,1324.82 398.371,1303.6 398.371,1275.13C398.371,1251.65 413.104,1232.43 442.571,1217.44C456.328,1210.45 472.97,1204.38 492.497,1199.23ZM1511.63,1185.76C1585.81,1121.3 1644.98,1043.34 1689.15,951.871C1735.1,856.729 1758.07,753.971 1758.07,643.596C1758.07,544.209 1739.47,451.065 1702.26,364.164C1665.06,277.263 1613.49,200.85 1547.56,134.925C1481.64,69 1405.23,17.434 1318.32,-19.774C1231.42,-56.982 1138.28,-75.586 1038.89,-75.586C939.505,-75.586 846.361,-56.982 759.46,-19.774C672.559,17.434 596.146,69 530.221,134.925C464.296,200.85 412.729,277.263 375.522,364.164C338.314,451.065 319.71,544.209 319.71,643.596C319.71,753.971 342.684,856.729 388.632,951.871C432.805,1043.34 491.98,1121.3 566.158,1185.77C567.654,1185.59 569.159,1185.41 570.675,1185.23L598.299,484.27C580.755,497.117 566.303,512.519 554.943,530.475L511.492,492.269C533.467,460.305 561.31,435.084 595.022,416.605C628.734,398.126 663.819,388.886 700.277,388.886C736.736,388.886 771.946,398.126 805.907,416.605C839.869,435.084 867.587,460.305 889.063,492.269L845.612,530.475C834.72,513.259 820.986,498.391 804.409,485.871L804.409,764.325C830.86,748.018 859.702,734.745 890.936,724.504C936.634,709.521 985.953,702.03 1038.89,702.03C1091.83,702.03 1141.28,709.521 1187.22,724.504C1218.48,734.698 1247.2,747.897 1273.38,764.101L1273.38,485.871C1256.8,498.391 1243.06,513.259 1232.17,530.475L1188.72,492.269C1210.7,460.305 1238.54,435.084 1272.25,416.605C1305.96,398.126 1341.05,388.886 1377.51,388.886C1413.97,388.886 1449.18,398.126 1483.14,416.605C1517.1,435.084 1544.82,460.305 1566.29,492.269L1522.84,530.475C1511.48,512.519 1497.03,497.117 1479.49,484.27L1507.11,1185.23C1508.63,1185.4 1510.13,1185.58 1511.63,1185.76ZM1146.8,1354.78C1147.32,1334.14 1153.67,1318.07 1165.87,1306.59C1178.61,1294.61 1193.34,1284.62 1210.07,1276.63C1226.8,1268.64 1241.54,1259.27 1254.27,1248.53C1267.01,1237.8 1273.38,1222.44 1273.38,1202.46L1273.38,1126.31C1247.33,1116 1218.86,1105.93 1187.97,1096.08C1142.52,1081.6 1092.83,1074.36 1038.89,1074.36C985.453,1074.36 936.009,1081.6 890.561,1096.08C859.513,1105.98 830.795,1116.1 804.409,1126.46L804.409,1202.46C804.409,1222.44 810.777,1237.8 823.512,1248.53C836.248,1259.27 850.981,1268.64 867.712,1276.63C884.443,1284.62 899.176,1294.61 911.912,1306.59C924.11,1318.07 930.467,1334.14 930.981,1354.78C966.439,1360.11 1002.41,1362.78 1038.89,1362.78C1075.38,1362.78 1111.35,1360.11 1146.8,1354.78ZM1332.56,455.572L1332.56,1222.69C1332.56,1245.16 1326.57,1263.02 1314.58,1276.25C1302.59,1289.49 1288.61,1300.1 1272.63,1308.09C1256.64,1316.08 1242.66,1323.45 1230.67,1330.19C1218.69,1336.93 1212.69,1345.05 1212.69,1354.54C1212.69,1363.53 1219.94,1371.39 1234.42,1378.14C1248.9,1384.88 1269.13,1390.25 1295.1,1394.24C1321.07,1398.24 1351.29,1400.24 1385.75,1400.24C1441.18,1400.24 1483.89,1394.24 1513.85,1382.26C1543.82,1370.27 1558.8,1353.54 1558.8,1332.06C1558.8,1323.07 1555.56,1313.09 1549.06,1302.1C1571.04,1299.6 1587.64,1295.98 1598.88,1291.24C1610.12,1286.49 1615.74,1281.62 1615.74,1276.63C1615.74,1267.64 1600.13,1258.9 1568.91,1250.41C1537.7,1241.92 1497.62,1236.17 1448.68,1233.18L1419.17,454.617C1405.35,450.751 1391.46,448.818 1377.51,448.818C1362.45,448.818 1347.47,451.069 1332.56,455.572ZM658.61,454.617L629.108,1233.18C580.663,1236.17 540.709,1241.92 509.245,1250.41C477.781,1258.9 462.048,1267.64 462.048,1276.63C462.048,1281.62 467.792,1286.49 479.279,1291.24C490.766,1295.98 507.247,1299.6 528.723,1302.1C522.23,1313.09 518.984,1323.07 518.984,1332.06C518.984,1353.54 533.967,1370.27 563.933,1382.26C593.898,1394.24 636.6,1400.24 692.037,1400.24C726.997,1400.24 757.338,1398.24 783.058,1394.24C808.779,1390.25 828.881,1384.88 843.365,1378.14C857.848,1371.39 865.09,1363.53 865.09,1354.54C865.09,1345.05 859.097,1336.93 847.11,1330.19C835.124,1323.45 821.14,1316.08 805.158,1308.09C789.176,1300.1 775.192,1289.49 763.206,1276.25C751.219,1263.02 745.226,1245.16 745.226,1222.69L745.226,455.572C730.318,451.069 715.335,448.818 700.277,448.818C686.324,448.818 672.435,450.751 658.61,454.617ZM1273.38,836.948C1246.59,815.362 1216,798.233 1181.61,785.56C1138.9,769.828 1091.33,761.962 1038.89,761.962C986.951,761.962 939.63,769.828 896.929,785.56C862.209,798.351 831.369,815.683 804.409,837.554L804.409,914.039L1273.38,914.039L1273.38,836.948ZM503.252,394.13L452.309,360.419C481.277,317.467 516.611,282.008 558.314,254.04C600.016,226.071 648.836,204.346 704.772,188.864L719.755,247.297C670.811,260.282 628.859,278.512 593.898,301.985C558.938,325.458 528.723,356.173 503.252,394.13ZM1574.53,394.13C1549.06,356.173 1518.85,325.458 1483.89,301.985C1448.93,278.512 1406.97,260.282 1358.03,247.297L1373.01,188.864C1429.45,204.346 1478.39,226.071 1519.85,254.04C1561.3,282.008 1596.51,317.467 1625.48,360.419L1574.53,394.13Z" style="fill:rgb(128,128,128);"/>
        </g>
    </g>
</svg>
