<?xml version="1.0" encoding="UTF-8" standalone="no"?>
<!DOCTYPE svg PUBLIC "-//W3C//DTD SVG 1.1//EN" "http://www.w3.org/Graphics/SVG/1.1/DTD/svg11.dtd">
<svg width="100%" height="100%" viewBox="0 0 284 284" version="1.1" xmlns="http://www.w3.org/2000/svg" xmlns:xlink="http://www.w3.org/1999/xlink" xml:space="preserve" xmlns:serif="http://www.serif.com/" style="fill-rule:evenodd;clip-rule:evenodd;stroke-linejoin:round;stroke-miterlimit:2;">
    <g transform="matrix(0.934095,0,0,0.934095,9.34094,9.34092)">
        <path d="M34.438,249.061L34.437,249.059C7.354,221.937 -10,183.972 -10,141.732C-10,57.696 57.697,-10 141.732,-10C225.381,-10 293.465,57.989 293.465,141.732C293.465,225.769 225.089,293.464 141.732,293.464C122.913,293.464 104.799,289.908 88.277,283.704C77.77,285.518 65.246,283.898 55.6,278.158C44.863,271.769 37.351,261.394 34.438,249.061ZM43.634,244.073C45.407,254.901 51.537,264.104 60.713,269.564C69.144,274.581 80.368,275.532 89.123,273.31C105.269,279.741 123.131,283.464 141.732,283.464C219.595,283.464 283.465,220.231 283.465,141.732C283.465,63.508 219.868,0 141.732,0C63.236,0 0,63.234 0,141.732C0,182.283 17.122,218.616 43.634,244.073ZM102.519,266.546C110.749,259.86 115.975,249.34 115.975,236.856C115.975,227.876 113.435,218.424 109.665,209.156C120.779,204.909 131.468,202.786 141.732,202.786C158.45,202.786 172.896,207.282 191.611,218.186L197.063,208.647C177.256,197.016 160.265,191.884 141.732,191.884C129.76,191.884 117.569,194.293 105.159,199.111C98.993,186.607 79.452,151.136 79.452,151.136L56.42,194.2C50.788,204.872 45.389,217.11 43.705,228.368C23.674,205.508 10.903,175.152 10.903,141.732C10.903,69.412 69.414,10.902 141.732,10.902C214.054,10.902 272.561,69.665 272.561,141.732C272.561,214.052 213.802,272.562 141.732,272.562C128.241,272.562 115.169,270.558 102.519,266.546ZM189.703,144.458C198.97,144.458 206.739,135.1 206.739,124.016C206.739,112.75 198.97,103.574 189.703,103.574C180.436,103.574 172.668,112.75 172.668,124.016C172.668,135.1 180.436,144.458 189.703,144.458ZM93.761,144.458C103.028,144.458 110.797,135.1 110.797,124.016C110.797,112.75 103.028,103.574 93.761,103.574C84.494,103.574 76.726,112.75 76.726,124.016C76.726,135.1 84.494,144.458 93.761,144.458ZM57.238,103.028C64.325,89.128 76.499,79.134 93.761,73.047L90.218,62.689C70.048,69.867 55.785,81.678 47.426,98.122L57.238,103.028ZM226.226,103.028L236.038,98.122C227.681,81.678 213.415,69.867 193.247,62.689L189.703,73.047C206.965,79.134 219.14,89.128 226.226,103.028ZM79.452,264.249C64.007,264.249 53.286,253.028 53.286,236.856C53.286,224.5 58.964,211.372 65.142,199.379L79.452,171.714L93.761,199.379C100.121,211.372 105.754,224.5 105.754,236.856C105.754,252.664 94.534,264.249 79.452,264.249Z" style="fill:rgb(128,128,128);"/>
    </g>
</svg>
