<?xml version="1.0" encoding="UTF-8" standalone="no"?>
<!DOCTYPE svg PUBLIC "-//W3C//DTD SVG 1.1//EN" "http://www.w3.org/Graphics/SVG/1.1/DTD/svg11.dtd">
<svg width="100%" height="100%" viewBox="0 0 284 284" version="1.1" xmlns="http://www.w3.org/2000/svg" xmlns:xlink="http://www.w3.org/1999/xlink" xml:space="preserve" xmlns:serif="http://www.serif.com/" style="fill-rule:evenodd;clip-rule:evenodd;stroke-linejoin:round;stroke-miterlimit:2;">
    <path d="M184.691,252.545C161.273,257.087 138.316,259.802 116.574,259.802C40.243,259.802 -0.518,233.696 -0.518,179.592C-0.518,155.36 8.225,128.809 24.328,101.105L24.334,101.096C46.06,63.925 64.606,39.25 94.745,28.987C105.042,25.481 117.238,23.663 131.352,23.663C187.555,23.663 210.132,51.607 238.849,101.08C240.995,104.678 243.139,108.01 245.283,111.075C252.522,121.412 268.865,140.281 276.115,156.842C287.409,182.65 285.809,209.042 276.145,227.585C265.511,247.99 245.759,259.68 219.896,259.68C207.752,259.68 196.016,257.306 184.691,252.545ZM185.765,242.778C196.71,247.796 208.088,250.305 219.896,250.305C241.878,250.305 258.793,240.595 267.831,223.253C276.39,206.83 277.529,183.457 267.526,160.601C260.519,144.595 244.599,126.442 237.603,116.452C235.324,113.195 233.045,109.653 230.764,105.826C204.056,59.807 183.627,33.038 131.352,33.038C118.406,33.038 107.211,34.646 97.766,37.862C69.574,47.462 52.752,71.055 32.428,105.826C17.284,131.881 8.857,156.795 8.857,179.592C8.857,228.737 47.24,250.427 116.574,250.427C138.631,250.427 161.971,247.538 185.765,242.778ZM173.255,235.841C133.864,242.584 91.177,242.416 63.204,234.368C33.998,225.962 18.627,208.357 18.627,179.592C18.627,158.586 26.647,134.812 40.488,110.712C67.152,64.297 85.055,42.808 131.352,42.808C167.018,42.808 185.763,55.556 203.469,80.729C211.934,92.763 221.13,110.198 229.604,122.008C232.088,125.469 235.243,129.479 239.069,134.038C256.248,154.393 264.838,173.852 264.838,192.416C264.838,222.541 247.984,240.535 220.14,240.535C179.032,240.535 141.455,203.969 125.367,154.067C111.431,145.51 100.82,128.27 100.82,114.131C100.82,95.405 110.549,84.21 124.879,84.21C141.651,84.21 150.893,96.015 153.824,121.581L158.953,122.558C163.677,111.322 168.072,107.048 173.119,107.048C176.11,107.048 177.799,110.209 176.6,115.169C176.014,117.609 173.896,121.727 172.082,127.565C169.908,134.555 170.068,143.172 174.22,151.686C181.33,166.277 197.442,180.779 215.132,191.683L220.14,183.867C198.525,170.115 179.837,153.066 179.837,136.847C179.837,131.636 181.751,126.751 183.378,122.68C187.752,111.163 186.623,106.602 182.829,101.979C178.803,97.074 172.303,96.755 166.708,100.148C164.225,101.654 162.087,103.995 160.296,107.17C154.923,85.675 142.791,75.05 124.879,75.05C106.042,75.05 92.674,89.863 91.404,110.472C84.913,111.008 77.77,109.618 72.73,107.292L69.799,115.719C76.608,118.832 84.808,120.185 91.681,119.608C93.302,131.198 100.398,144.603 110.54,153.658C107.485,153.937 104.387,154.277 101.247,154.678C95.507,155.411 89.91,156.428 84.454,157.731L87.508,167.013C97.554,164.764 107.56,163.555 118.584,162.987C130.271,194.665 149.673,220.523 173.255,235.841Z" style="fill:rgb(128,128,128);"/>
</svg>
