<?xml version="1.0" encoding="UTF-8" standalone="no"?>
<!DOCTYPE svg PUBLIC "-//W3C//DTD SVG 1.1//EN" "http://www.w3.org/Graphics/SVG/1.1/DTD/svg11.dtd">
<svg width="100%" height="100%" viewBox="0 0 284 284" version="1.1" xmlns="http://www.w3.org/2000/svg" xmlns:xlink="http://www.w3.org/1999/xlink" xml:space="preserve" xmlns:serif="http://www.serif.com/" style="fill-rule:evenodd;clip-rule:evenodd;stroke-linejoin:round;stroke-miterlimit:2;">
    <g transform="matrix(0.24,0,0,0.24,0,0)">
        <g transform="matrix(0.724538,0,0,0.724538,-162.166,124.241)">
            <path d="M1308.99,1263.42C1243.31,1276.56 1178.37,1287.2 1114.18,1295.36C1035.52,1305.34 958.983,1310.34 884.568,1310.34C742.729,1310.34 622.616,1294.98 524.228,1264.27C425.84,1233.55 351.175,1186.23 300.232,1122.3C249.29,1058.38 223.819,976.218 223.819,875.832C223.819,805.912 236.305,732.995 261.277,657.081C286.248,581.167 321.958,503.256 368.405,423.347C409.858,352.428 450.062,289.249 489.018,233.813C527.973,178.376 569.926,131.554 614.875,93.347C659.823,55.141 711.265,26.174 769.199,6.446C827.133,-13.281 895.805,-23.145 975.215,-23.145C1054.62,-23.145 1123.55,-13.281 1181.98,6.446C1240.41,26.174 1292.23,55.141 1337.43,93.347C1382.63,131.554 1424.83,178.251 1464.03,233.438C1503.24,288.625 1543.57,351.928 1585.02,423.347C1599.01,446.82 1612.99,468.546 1626.97,488.523C1640.96,508.5 1659.19,531.724 1681.66,558.194C1738.6,626.116 1781.55,693.165 1810.52,759.34C1839.48,825.515 1853.97,890.566 1853.97,954.493C1853.97,1027.41 1840.11,1090.46 1812.39,1143.65C1784.67,1196.84 1745.59,1237.8 1695.15,1266.51C1644.7,1295.23 1585.77,1309.59 1518.35,1309.59C1445.92,1309.59 1376.13,1294.2 1308.99,1263.42ZM1232.25,1220.87C1161.08,1174.64 1097.01,1113.94 1040.02,1038.77C981.02,960.952 933.314,872.687 896.897,773.976C865.993,775.569 836.162,778.057 807.406,781.44C773.444,785.435 739.733,791.179 706.271,798.67L687.542,741.735C721.004,733.744 755.34,727.501 790.55,723.006C809.813,720.547 828.815,718.462 847.555,716.75C817.442,689.867 792.322,658.241 772.196,621.871C750.443,582.563 737.001,544.568 731.87,507.884C724.998,508.461 718.463,508.75 712.264,508.75C694.784,508.75 675.68,506.627 654.954,502.382C634.228,498.137 615.124,492.019 597.644,484.028L615.624,432.337C628.609,438.33 643.467,443.199 660.198,446.945C676.929,450.691 694.284,452.564 712.264,452.564C718.383,452.564 724.352,452.324 730.172,451.844C733.888,391.543 752.891,341.465 787.179,301.61C825.635,256.911 875.079,234.562 935.51,234.562C990.447,234.562 1036.27,250.918 1072.98,283.631C1109.69,316.344 1136.28,365.663 1152.76,431.588C1163.75,412.11 1176.86,397.751 1192.09,388.512C1207.33,379.272 1222.93,374.652 1238.91,374.652C1259.89,374.652 1277.25,383.018 1290.98,399.749C1304.71,416.48 1311.58,436.332 1311.58,459.306C1311.58,469.295 1310.08,479.408 1307.09,489.647C1304.09,499.885 1299.85,512.246 1294.35,526.729C1289.36,539.215 1284.49,552.825 1279.74,567.558C1275,582.291 1272.63,597.649 1272.63,613.631C1272.63,638.602 1279.24,663.823 1292.48,689.294C1305.71,714.766 1323.94,739.862 1347.17,764.584C1370.39,789.306 1396.74,813.154 1426.2,836.127C1455.67,859.101 1486.88,881.076 1519.85,902.052L1489.13,949.998C1452.67,927.524 1417.96,902.926 1385,876.207C1352.04,849.487 1322.94,821.644 1297.72,792.677C1272.5,763.71 1252.65,734.368 1238.17,704.652C1223.68,674.936 1216.44,645.594 1216.44,616.627C1216.44,595.152 1219.31,575.174 1225.06,556.695C1230.8,538.216 1236.42,522.484 1241.91,509.499C1247.4,497.513 1251.03,487.899 1252.77,480.657C1254.52,473.415 1255.4,467.047 1255.4,461.554C1255.4,452.564 1253.15,445.197 1248.65,439.454C1244.16,433.71 1238.41,430.838 1231.42,430.838C1215.94,430.838 1201.21,438.08 1187.22,452.564C1173.24,467.047 1159.01,491.519 1144.52,525.98L1113.06,519.987C1104.07,441.576 1085.09,383.767 1056.12,346.559C1027.16,309.352 986.951,290.748 935.51,290.748C891.56,290.748 855.975,306.979 828.756,339.442C801.537,371.905 787.928,416.854 787.928,474.289C787.928,503.256 794.545,533.347 807.78,564.561C821.015,595.776 838.995,624.993 861.719,652.212C884.443,679.431 910.039,701.78 938.506,719.26C962.979,795.174 995.067,865.344 1034.77,929.771C1074.48,994.198 1119.8,1050.38 1170.74,1098.33C1221.68,1146.28 1276.75,1183.48 1335.93,1209.95C1395.11,1236.42 1456.42,1249.66 1519.85,1249.66C1605.25,1249.66 1672.3,1223.56 1720.99,1171.37C1769.69,1119.18 1794.03,1046.89 1794.03,954.493C1794.03,840.622 1741.34,721.258 1635.96,596.4C1612.49,568.432 1593.14,543.835 1577.9,522.609C1562.67,501.383 1547.81,478.284 1533.33,453.313C1492.88,382.893 1454.3,321.588 1417.59,269.397C1380.88,217.206 1342.17,173.881 1301.47,139.42C1260.77,104.959 1214.32,79.238 1162.13,62.258C1109.94,45.277 1047.63,36.787 975.215,36.787C902.797,36.787 840.493,45.277 788.302,62.258C736.112,79.238 689.665,104.959 648.961,139.42C608.257,173.881 569.676,217.206 533.217,269.397C496.759,321.588 458.303,382.893 417.849,453.313C375.397,527.229 342.434,600.021 318.961,671.69C295.488,743.358 283.751,811.406 283.751,875.832C283.751,964.232 306.975,1035.9 353.422,1090.84C399.869,1145.78 467.792,1186.1 557.19,1211.83C646.589,1237.55 755.714,1250.41 884.568,1250.41C945.998,1250.41 1011.67,1247.16 1081.59,1240.67C1132.61,1235.93 1182.83,1229.33 1232.25,1220.87Z" style="fill:rgb(128,128,128);"/>
        </g>
    </g>
</svg>
