<?xml version="1.0" encoding="UTF-8" standalone="no"?>
<!DOCTYPE svg PUBLIC "-//W3C//DTD SVG 1.1//EN" "http://www.w3.org/Graphics/SVG/1.1/DTD/svg11.dtd">
<svg width="100%" height="100%" viewBox="0 0 284 284" version="1.1" xmlns="http://www.w3.org/2000/svg" xmlns:xlink="http://www.w3.org/1999/xlink" xml:space="preserve" xmlns:serif="http://www.serif.com/" style="fill-rule:evenodd;clip-rule:evenodd;stroke-linejoin:round;stroke-miterlimit:2;">
    <path d="M178.361,250.546C132.924,258.324 83.685,258.13 51.419,248.847C17.73,239.151 -0,218.844 -0,185.664C-0,161.434 9.251,134.011 25.216,106.212C55.973,52.673 76.624,27.886 130.026,27.886C171.166,27.886 192.788,42.59 213.212,71.627C222.976,85.508 233.584,105.619 243.358,119.242C246.223,123.234 249.863,127.859 254.276,133.118C274.092,156.597 284,179.043 284,200.456C284,235.205 264.559,255.96 232.442,255.96C185.024,255.96 141.68,213.782 123.123,156.221C107.048,146.351 94.808,126.465 94.808,110.156C94.808,88.556 106.03,75.642 122.56,75.642C141.906,75.642 152.566,89.259 155.947,118.749L161.864,119.876C167.313,106.916 172.382,101.986 178.204,101.986C181.654,101.986 183.602,105.632 182.219,111.353C181.543,114.168 179.1,118.918 177.008,125.652C174.5,133.714 174.684,143.654 179.474,153.475C187.675,170.305 206.26,187.033 226.665,199.611L232.442,190.595C207.509,174.732 185.953,155.067 185.953,136.358C185.953,130.347 188.161,124.713 190.037,120.017C195.083,106.732 193.78,101.471 189.404,96.139C184.76,90.481 177.263,90.113 170.809,94.027C167.945,95.764 165.479,98.464 163.413,102.126C157.215,77.332 143.221,65.076 122.56,65.076C100.832,65.076 85.412,82.163 83.947,105.935C76.46,106.553 68.22,104.95 62.407,102.267L59.026,111.987C66.88,115.578 76.339,117.139 84.266,116.473C86.136,129.842 94.321,145.305 106.02,155.749C102.496,156.071 98.923,156.463 95.301,156.926C88.68,157.771 82.224,158.945 75.93,160.448L79.453,171.154C91.041,168.56 102.583,167.165 115.299,166.51C128.779,203.05 151.159,232.877 178.361,250.546Z" style="fill:rgb(128,128,128);"/>
</svg>
