<?xml version="1.0" encoding="UTF-8" standalone="no"?>
<!DOCTYPE svg PUBLIC "-//W3C//DTD SVG 1.1//EN" "http://www.w3.org/Graphics/SVG/1.1/DTD/svg11.dtd">
<svg width="100%" height="100%" viewBox="0 0 284 284" version="1.1" xmlns="http://www.w3.org/2000/svg" xmlns:xlink="http://www.w3.org/1999/xlink" xml:space="preserve" xmlns:serif="http://www.serif.com/" style="fill-rule:evenodd;clip-rule:evenodd;stroke-linejoin:round;stroke-miterlimit:2;">
    <g>
        <g>
            <path d="M188.699,249.513C163.319,254.59 138.424,257.672 114.897,257.672C40.941,257.672 -0,234.536 -0,182.115C-0,157.799 8.989,131.224 25.142,103.433C46.821,66.344 64.764,41.179 94.835,30.939C104.91,27.508 116.851,25.793 130.659,25.793C186.419,25.793 208.209,54.346 236.698,103.433C239.131,107.515 241.562,111.293 243.993,114.767C251.455,125.422 268.436,144.786 275.91,161.859C286.579,186.238 285.364,211.169 276.235,228.686C266.595,247.184 248.552,257.541 225.105,257.541C212.51,257.541 200.374,254.865 188.699,249.513ZM175.355,242.114C150.201,225.775 129.506,198.193 117.041,164.404C105.282,165.01 94.609,166.299 83.893,168.698L80.636,158.797C86.455,157.408 92.426,156.322 98.548,155.541C101.898,155.113 105.202,154.751 108.461,154.453C97.642,144.794 90.074,130.496 88.344,118.133C81.013,118.749 72.267,117.305 65.004,113.985L68.13,104.997C73.507,107.478 81.125,108.96 88.049,108.389C89.404,86.406 103.663,70.606 123.755,70.606C142.861,70.606 155.801,81.939 161.533,104.866C163.444,101.479 165.723,98.982 168.372,97.376C174.34,93.757 181.273,94.097 185.568,99.33C189.614,104.261 190.819,109.125 186.154,121.41C184.418,125.753 182.377,130.963 182.377,136.522C182.377,153.821 202.31,172.007 225.366,186.675L220.024,195.012C201.155,183.381 183.969,167.913 176.384,152.349C171.956,143.268 171.785,134.076 174.105,126.621C176.039,120.394 178.298,116.001 178.923,113.399C180.202,108.108 178.401,104.736 175.211,104.736C169.827,104.736 165.139,109.295 160.1,121.28L154.629,120.238C151.503,92.968 141.645,80.376 123.755,80.376C108.47,80.376 98.092,92.317 98.092,112.292C98.092,127.373 109.411,145.761 124.276,154.889C141.436,208.118 181.517,247.12 225.366,247.12C255.066,247.12 273.042,227.927 273.042,195.794C273.042,175.993 263.88,155.237 245.556,133.525C241.475,128.662 238.11,124.385 235.46,120.694C226.421,108.097 216.613,89.5 207.584,76.663C188.698,49.813 168.702,36.215 130.659,36.215C81.276,36.215 62.18,59.136 33.74,108.644C18.976,134.35 10.421,159.71 10.421,182.115C10.421,212.798 26.816,231.576 57.969,240.542C87.807,249.126 133.339,249.306 175.355,242.114Z" style="fill:rgb(128,128,128);"/>
        </g>
    </g>
</svg>
