<?xml version="1.0" encoding="UTF-8" standalone="no"?>
<!DOCTYPE svg PUBLIC "-//W3C//DTD SVG 1.1//EN" "http://www.w3.org/Graphics/SVG/1.1/DTD/svg11.dtd">
<svg width="100%" height="100%" viewBox="0 0 284 284" version="1.1" xmlns="http://www.w3.org/2000/svg" xmlns:xlink="http://www.w3.org/1999/xlink" xml:space="preserve" xmlns:serif="http://www.serif.com/" style="fill-rule:evenodd;clip-rule:evenodd;stroke-linejoin:round;stroke-miterlimit:2;">
    <path d="M141.732,283.464C63.51,283.464 -0,220.231 -0,141.732C-0,63.508 63.236,-0 141.732,-0C219.595,-0 283.465,63.234 283.465,141.732C283.465,219.957 219.868,283.464 141.732,283.464ZM141.732,274.124C214.718,274.124 274.124,214.801 274.124,141.732C274.124,68.408 214.464,9.341 141.732,9.341C68.409,9.341 9.341,68.664 9.341,141.732C9.341,215.057 68.665,274.124 141.732,274.124ZM141.732,263.94C74.415,263.94 19.525,209.286 19.525,141.732C19.525,74.414 74.18,19.525 141.732,19.525C209.052,19.525 263.939,74.179 263.939,141.732C263.939,209.05 209.288,263.94 141.732,263.94ZM186.541,131.548C195.197,131.548 202.455,122.807 202.455,112.453C202.455,101.93 195.197,93.358 186.541,93.358C177.885,93.358 170.63,101.93 170.63,112.453C170.63,122.807 177.885,131.548 186.541,131.548ZM96.923,131.548C105.579,131.548 112.835,122.807 112.835,112.453C112.835,101.93 105.579,93.358 96.923,93.358C88.267,93.358 81.011,101.93 81.011,112.453C81.011,122.807 88.267,131.548 96.923,131.548ZM81.011,209.837C91.698,190.496 116.503,177.503 141.732,177.503C166.89,177.503 191.717,190.664 202.455,209.837L211.366,204.746C198.967,182.737 170.883,167.319 141.732,167.319C113.021,167.319 84.588,182.317 72.1,204.746L81.011,209.837Z" style="fill:rgb(128,128,128);"/>
</svg>
