<?xml version="1.0" encoding="UTF-8" standalone="no"?>
<!DOCTYPE svg PUBLIC "-//W3C//DTD SVG 1.1//EN" "http://www.w3.org/Graphics/SVG/1.1/DTD/svg11.dtd">
<svg width="100%" height="100%" viewBox="0 0 284 284" version="1.1" xmlns="http://www.w3.org/2000/svg" xmlns:xlink="http://www.w3.org/1999/xlink" xml:space="preserve" xmlns:serif="http://www.serif.com/" style="fill-rule:evenodd;clip-rule:evenodd;stroke-linejoin:round;stroke-miterlimit:2;">
    <g transform="matrix(0.24,0,0,0.24,0,0)">
        <g transform="matrix(0.757978,0,0,0.757978,-196.906,102.719)">
            <path d="M1038.89,1422.71C931.015,1422.71 830.005,1402.61 735.862,1362.4C641.719,1322.2 558.938,1266.39 487.519,1194.97C416.101,1123.55 360.289,1040.77 320.085,946.627C279.881,852.484 259.778,751.474 259.778,643.596C259.778,535.719 279.881,434.709 320.085,340.566C360.289,246.423 416.101,163.642 487.519,92.224C558.938,20.805 641.719,-35.007 735.862,-75.211C830.005,-115.415 931.015,-135.517 1038.89,-135.517C1146.27,-135.517 1247.03,-115.415 1341.17,-75.211C1435.32,-35.007 1518.1,20.805 1589.52,92.224C1660.93,163.642 1716.87,246.423 1757.33,340.566C1797.78,434.709 1818.01,535.719 1818.01,643.596C1818.01,751.474 1797.78,852.484 1757.33,946.627C1716.87,1040.77 1660.93,1123.55 1589.52,1194.97C1518.1,1266.39 1435.32,1322.2 1341.17,1362.4C1247.03,1402.61 1146.27,1422.71 1038.89,1422.71ZM681.549,1044.39L629.108,1014.43C653.581,970.475 687.167,932.018 729.869,899.056C772.57,866.093 820.641,840.373 874.08,821.894C927.519,803.415 982.456,794.175 1038.89,794.175C1095.33,794.175 1150.14,803.415 1203.33,821.894C1256.52,840.373 1304.59,866.218 1347.54,899.43C1390.49,932.643 1424.2,970.974 1448.68,1014.43L1396.24,1044.39C1375.26,1006.93 1346.17,973.971 1308.96,945.503C1271.75,917.035 1229.8,894.686 1183.1,878.454C1136.41,862.223 1088.34,854.107 1038.89,854.107C989.449,854.107 941.378,862.098 894.681,878.08C847.984,894.062 806.032,916.286 768.824,944.754C731.617,973.222 702.525,1006.43 681.549,1044.39ZM775.192,583.665C749.721,583.665 727.746,572.552 709.267,550.328C690.788,528.103 681.549,501.758 681.549,471.292C681.549,440.328 690.788,413.858 709.267,391.883C727.746,369.908 749.721,358.92 775.192,358.92C800.663,358.92 822.638,369.908 841.117,391.883C859.596,413.858 868.836,440.328 868.836,471.292C868.836,501.758 859.596,528.103 841.117,550.328C822.638,572.552 800.663,583.665 775.192,583.665ZM1038.89,1362.78C1138.28,1362.78 1231.42,1344.17 1318.32,1306.97C1405.23,1269.76 1481.64,1218.19 1547.56,1152.27C1613.49,1086.34 1665.06,1009.93 1702.26,923.029C1739.47,836.127 1758.07,742.983 1758.07,643.596C1758.07,544.209 1739.47,451.065 1702.26,364.164C1665.06,277.263 1613.49,200.85 1547.56,134.925C1481.64,69 1405.23,17.434 1318.32,-19.774C1231.42,-56.982 1138.28,-75.586 1038.89,-75.586C939.505,-75.586 846.361,-56.982 759.46,-19.774C672.559,17.434 596.146,69 530.221,134.925C464.296,200.85 412.729,277.263 375.522,364.164C338.314,451.065 319.71,544.209 319.71,643.596C319.71,742.983 338.314,836.127 375.522,923.029C412.729,1009.93 464.296,1086.34 530.221,1152.27C596.146,1218.19 672.559,1269.76 759.46,1306.97C846.361,1344.17 939.505,1362.78 1038.89,1362.78ZM1302.59,583.665C1277.12,583.665 1255.15,572.552 1236.67,550.328C1218.19,528.103 1208.95,501.758 1208.95,471.292C1208.95,440.328 1218.19,413.858 1236.67,391.883C1255.15,369.908 1277.12,358.92 1302.59,358.92C1328.06,358.92 1350.04,369.908 1368.52,391.883C1387,413.858 1396.24,440.328 1396.24,471.292C1396.24,501.758 1387,528.103 1368.52,550.328C1350.04,572.552 1328.06,583.665 1302.59,583.665Z" style="fill:rgb(128,128,128);fill-rule:nonzero;"/>
        </g>
    </g>
</svg>
