<?xml version="1.0" encoding="UTF-8" standalone="no"?>
<!DOCTYPE svg PUBLIC "-//W3C//DTD SVG 1.1//EN" "http://www.w3.org/Graphics/SVG/1.1/DTD/svg11.dtd">
<svg width="100%" height="100%" viewBox="0 0 284 284" version="1.1" xmlns="http://www.w3.org/2000/svg" xmlns:xlink="http://www.w3.org/1999/xlink" xml:space="preserve" xmlns:serif="http://www.serif.com/" style="fill-rule:evenodd;clip-rule:evenodd;stroke-linejoin:round;stroke-miterlimit:2;">
    <path d="M142,284C63.78,284 0.001,220.494 0.001,141.999C0.001,63.779 63.507,0 142,0C220.223,0 283.999,63.506 283.999,141.999C283.999,220.22 220.497,284 142,284ZM194.066,130.166C204.124,130.166 212.558,120.009 212.558,107.978C212.558,95.751 204.124,85.791 194.066,85.791C184.008,85.791 175.578,95.751 175.578,107.978C175.578,120.009 184.008,130.166 194.066,130.166ZM89.934,130.166C99.992,130.166 108.423,120.009 108.423,107.978C108.423,95.751 99.992,85.791 89.934,85.791C79.876,85.791 71.445,95.751 71.445,107.978C71.445,120.009 79.876,130.166 89.934,130.166ZM71.445,221.135C83.863,198.661 112.685,183.564 142,183.564C171.233,183.564 200.08,198.856 212.558,221.135L222.912,215.219C208.505,189.646 175.872,171.73 142,171.73C108.639,171.73 75.601,189.157 61.091,215.219L71.445,221.135Z" style="fill:rgb(128,128,128);"/>
</svg>
