<?xml version="1.0" encoding="UTF-8" standalone="no"?>
<!DOCTYPE svg PUBLIC "-//W3C//DTD SVG 1.1//EN" "http://www.w3.org/Graphics/SVG/1.1/DTD/svg11.dtd">
<svg width="100%" height="100%" viewBox="0 0 284 284" version="1.1" xmlns="http://www.w3.org/2000/svg" xmlns:xlink="http://www.w3.org/1999/xlink" xml:space="preserve" xmlns:serif="http://www.serif.com/" style="fill-rule:evenodd;clip-rule:evenodd;stroke-linejoin:round;stroke-miterlimit:2;">
    <g>
        <g>
            <path d="M141.732,283.464C63.51,283.464 0,220.231 0,141.732C0,63.508 63.236,0 141.732,0C219.595,0 283.465,63.234 283.465,141.732C283.465,219.957 219.868,283.464 141.732,283.464ZM76.726,214.642L67.187,209.192C80.556,185.18 110.995,169.125 141.732,169.125C172.939,169.125 203.005,185.63 216.279,209.192L206.739,214.642C195.243,194.117 168.665,180.027 141.732,180.027C114.723,180.027 88.168,193.936 76.726,214.642ZM93.761,130.83C84.494,130.83 76.726,121.472 76.726,110.388C76.726,99.122 84.494,89.945 93.761,89.945C103.028,89.945 110.797,99.122 110.797,110.388C110.797,121.472 103.028,130.83 93.761,130.83ZM141.732,272.562C214.054,272.562 272.561,213.8 272.561,141.732C272.561,69.412 213.802,10.902 141.732,10.902C69.414,10.902 10.903,69.665 10.903,141.732C10.903,214.052 69.666,272.562 141.732,272.562ZM189.703,130.83C180.436,130.83 172.668,121.472 172.668,110.388C172.668,99.122 180.436,89.945 189.703,89.945C198.97,89.945 206.739,99.122 206.739,110.388C206.739,121.472 198.97,130.83 189.703,130.83Z" style="fill:rgb(128,128,128);fill-rule:nonzero;"/>
        </g>
    </g>
</svg>
