<?xml version="1.0" encoding="UTF-8" standalone="no"?>
<!DOCTYPE svg PUBLIC "-//W3C//DTD SVG 1.1//EN" "http://www.w3.org/Graphics/SVG/1.1/DTD/svg11.dtd">
<svg width="100%" height="100%" viewBox="0 0 284 284" version="1.1" xmlns="http://www.w3.org/2000/svg" xmlns:xlink="http://www.w3.org/1999/xlink" xml:space="preserve" xmlns:serif="http://www.serif.com/" style="fill-rule:evenodd;clip-rule:evenodd;stroke-linejoin:round;stroke-miterlimit:2;">
    <path d="M141.732,282.747C59.777,282.747 -0.535,222.257 -0.535,141.732C-0.535,60.821 60.389,0.718 141.732,0.718C223.687,0.718 284,61.211 284,141.732C284,222.647 223.075,282.747 141.732,282.747ZM141.732,273.305C217.652,273.305 274.558,217.253 274.558,141.732C274.558,66.578 218.224,10.16 141.732,10.16C65.812,10.16 8.907,66.215 8.907,141.732C8.907,216.889 65.24,273.305 141.732,273.305ZM141.732,259.52C74.936,259.52 23.944,210.05 23.944,141.732C23.944,74.238 74.233,23.944 141.732,23.944C209.229,23.944 259.52,73.901 259.52,141.732C259.52,208.705 209.839,259.52 141.732,259.52ZM171.179,130.705C173.184,120.597 178.03,115.543 185.715,115.543C193.4,115.543 198.245,120.597 200.251,130.705L213.784,128.199C210.609,111.492 200.585,101.759 185.715,101.759C171.011,101.759 160.987,111.492 157.646,128.199L171.179,130.705ZM83.214,130.705C85.219,120.597 90.065,115.543 97.75,115.543C105.435,115.543 110.28,120.597 112.286,130.705L125.819,128.199C122.644,111.492 112.62,101.759 97.75,101.759C83.046,101.759 73.022,111.492 69.681,128.199L83.214,130.705ZM141.732,237.717C175.147,237.717 209.673,219.107 225.374,195.238C234.345,181.603 236.076,165.467 228.382,158.272C222.865,153.114 216.299,152.373 197.869,156.08C182.499,159.171 161.948,163.034 141.732,163.034C121.516,163.034 100.967,159.171 85.595,156.08C67.165,152.373 60.6,153.114 55.083,158.272C47.389,165.467 49.119,181.603 58.091,195.238C73.911,219.288 108.317,237.717 141.732,237.717ZM189.349,169.8C199.804,167.891 209.042,166.292 215.161,166.292C219.664,166.292 220.675,167.413 220.675,170.929C220.675,172.792 220.478,174.658 220.082,176.528C209.81,181.237 199.565,185.027 189.349,187.896L189.349,169.8ZM179.324,216.659C169.39,221.108 157.903,224.36 146.744,225.035L146.744,204.441C157.599,204.14 168.459,202.86 179.324,200.6L179.324,216.659ZM213.724,190.183C207.96,198.224 199.555,205.527 189.349,211.507L189.349,198.239C197.471,196.1 205.596,193.415 213.724,190.183ZM146.744,175.484C151.977,175.315 157.282,174.883 162.658,174.187C168.362,173.448 173.918,172.603 179.324,171.65L179.324,190.419C168.433,192.84 157.573,194.213 146.744,194.537L146.744,175.484ZM104.141,171.649C109.555,172.602 115.131,173.448 120.869,174.187C126.26,174.88 131.544,175.312 136.72,175.482L136.72,194.537C125.891,194.213 115.032,192.84 104.141,190.419L104.141,171.649ZM136.72,225.035C125.562,224.36 114.075,221.108 104.141,216.659L104.141,200.6C115.006,202.86 125.866,204.14 136.72,204.441L136.72,225.035ZM94.115,211.507C83.905,205.527 75.505,198.224 69.741,190.183C77.869,193.415 85.994,196.1 94.115,198.239L94.115,211.507ZM63.382,176.528C62.986,174.658 62.789,172.792 62.789,170.929C62.789,167.42 63.791,166.292 68.303,166.292C74.422,166.292 83.662,167.891 94.115,169.8L94.115,187.896C83.899,185.027 73.654,181.237 63.382,176.528Z" style="fill:rgb(128,128,128);"/>
</svg>
