<?xml version="1.0" encoding="UTF-8" standalone="no"?>
<!DOCTYPE svg PUBLIC "-//W3C//DTD SVG 1.1//EN" "http://www.w3.org/Graphics/SVG/1.1/DTD/svg11.dtd">
<svg width="100%" height="100%" viewBox="0 0 284 284" version="1.1" xmlns="http://www.w3.org/2000/svg" xmlns:xlink="http://www.w3.org/1999/xlink" xml:space="preserve" xmlns:serif="http://www.serif.com/" style="fill-rule:evenodd;clip-rule:evenodd;stroke-linejoin:round;stroke-miterlimit:2;">
    <path d="M141.732,281.073C60.724,281.073 1.065,221.327 1.065,141.732C1.065,61.756 61.329,2.392 141.732,2.392C222.74,2.392 282.4,62.141 282.4,141.732C282.4,221.712 222.135,281.073 141.732,281.073ZM141.732,227.725C155.003,227.725 167.389,225.336 178.89,220.559C153.586,205.873 129.877,205.873 104.575,220.559C116.076,225.336 128.462,227.725 141.732,227.725ZM141.732,237.015C95.911,237.015 49.104,203.508 49.104,173.183C49.104,168.494 50.166,165.199 52.289,163.297C55.752,160.194 60.408,159.868 69.209,161.24C78.592,162.703 92.035,165.524 108.423,167.676C129.387,170.429 154.379,170.407 175.174,167.676C197.72,164.715 214.447,160.444 222.682,160.444C229.831,160.444 234.36,163.898 234.36,173.183C234.36,203.619 187.507,237.015 141.732,237.015ZM141.732,192.293C166.705,192.293 198.711,189.228 223.346,182.605L223.346,173.183C223.346,170.529 220.736,169.865 218.436,170.397C196.022,175.67 164.589,179.022 141.732,179.022C119.55,179.022 88.084,175.758 65.029,170.397C62.729,169.865 60.119,170.529 60.119,173.183L60.119,182.605C84.974,189.288 117.137,192.293 141.732,192.293ZM95.02,134.434C84.934,134.434 76.707,124.569 76.707,112.537C76.707,100.505 84.934,90.641 95.02,90.641C104.928,90.641 113.333,100.505 113.333,112.537C113.333,124.393 105.106,134.434 95.02,134.434ZM141.732,266.475C213.861,266.475 266.475,212.66 266.475,141.732C266.475,69.896 213.215,16.989 141.732,16.989C70.248,16.989 16.989,70.253 16.989,141.732C16.989,214.084 70.993,266.475 141.732,266.475ZM188.444,134.434C178.36,134.434 170.131,124.569 170.131,112.537C170.131,100.505 178.36,90.641 188.444,90.641C198.354,90.641 206.758,100.505 206.758,112.537C206.758,124.393 198.53,134.434 188.444,134.434Z" style="fill:rgb(128,128,128);fill-rule:nonzero;"/>
</svg>
