<?xml version="1.0" encoding="UTF-8" standalone="no"?>
<!DOCTYPE svg PUBLIC "-//W3C//DTD SVG 1.1//EN" "http://www.w3.org/Graphics/SVG/1.1/DTD/svg11.dtd">
<svg width="100%" height="100%" viewBox="0 0 284 284" version="1.1" xmlns="http://www.w3.org/2000/svg" xmlns:xlink="http://www.w3.org/1999/xlink" xml:space="preserve" xmlns:serif="http://www.serif.com/" style="fill-rule:evenodd;clip-rule:evenodd;stroke-linejoin:round;stroke-miterlimit:2;">
    <path d="M141.732,281.073C60.724,281.073 1.065,221.327 1.065,141.732C1.065,61.756 61.329,2.392 141.732,2.392C222.74,2.392 282.4,62.141 282.4,141.732C282.4,221.712 222.135,281.073 141.732,281.073ZM141.732,266.475C213.861,266.475 266.475,212.66 266.475,141.732C266.475,69.896 213.215,16.989 141.732,16.989C70.248,16.989 16.989,70.253 16.989,141.732C16.989,214.084 70.993,266.475 141.732,266.475ZM141.732,243.384C106.344,243.384 69.907,223.867 53.152,198.397C43.65,183.957 41.819,166.869 49.967,159.249C55.809,153.786 62.762,153.001 82.28,156.927C98.56,160.201 120.322,164.292 141.732,164.292C163.142,164.292 184.906,160.201 201.184,156.927C220.702,153.001 227.656,153.786 233.498,159.249C241.646,166.869 239.813,183.957 230.313,198.397C213.684,223.675 177.12,243.384 141.732,243.384ZM91.304,215.627L91.304,201.575C82.703,199.31 74.098,196.467 65.49,193.044C71.594,201.559 80.49,209.294 91.304,215.627ZM136.424,229.954L136.424,208.144C124.929,207.825 113.428,206.469 101.921,204.076L101.921,221.083C112.442,225.794 124.607,229.239 136.424,229.954ZM181.544,221.083L181.544,204.076C170.037,206.469 158.536,207.825 147.04,208.144L147.04,229.954C158.857,229.239 171.023,225.794 181.544,221.083ZM217.975,193.044C209.367,196.467 200.762,199.31 192.16,201.575L192.16,215.627C202.969,209.294 211.871,201.559 217.975,193.044ZM192.16,171.457L192.16,190.622C202.98,187.583 213.83,183.57 224.708,178.582C225.127,176.602 225.336,174.626 225.336,172.653C225.336,168.93 224.265,167.742 219.497,167.742C213.017,167.742 203.233,169.435 192.16,171.457ZM147.04,177.477L147.04,197.655C158.508,197.312 170.01,195.858 181.544,193.294L181.544,173.416C175.818,174.426 169.934,175.321 163.894,176.103C158.2,176.84 152.582,177.298 147.04,177.477ZM101.921,173.415L101.921,193.294C113.455,195.858 124.956,197.312 136.424,197.655L136.424,177.475C130.942,177.295 125.346,176.837 119.637,176.103C113.56,175.321 107.655,174.425 101.921,173.415ZM58.756,178.582C69.634,183.57 80.484,187.583 91.304,190.622L91.304,171.457C80.234,169.435 70.447,167.742 63.967,167.742C59.189,167.742 58.128,168.937 58.128,172.653C58.128,174.626 58.337,176.602 58.756,178.582ZM79.759,130.054L65.427,127.4C68.965,109.706 79.581,99.399 95.153,99.399C110.901,99.399 121.517,109.706 124.879,127.4L110.547,130.054C108.423,119.349 103.292,113.997 95.153,113.997C87.014,113.997 81.882,119.349 79.759,130.054ZM172.918,130.054L158.586,127.4C162.124,109.706 172.74,99.399 188.312,99.399C204.06,99.399 214.676,109.706 218.038,127.4L203.706,130.054C201.582,119.349 196.451,113.997 188.312,113.997C180.173,113.997 175.041,119.349 172.918,130.054Z" style="fill:rgb(128,128,128);"/>
</svg>
