<?xml version="1.0" encoding="UTF-8" standalone="no"?>
<!DOCTYPE svg PUBLIC "-//W3C//DTD SVG 1.1//EN" "http://www.w3.org/Graphics/SVG/1.1/DTD/svg11.dtd">
<svg width="100%" height="100%" viewBox="0 0 284 284" version="1.1" xmlns="http://www.w3.org/2000/svg" xmlns:xlink="http://www.w3.org/1999/xlink" xml:space="preserve" xmlns:serif="http://www.serif.com/" style="fill-rule:evenodd;clip-rule:evenodd;stroke-linejoin:round;stroke-miterlimit:2;">
    <path d="M142,284C61.474,284 0,224.361 0,142C0,60.632 60.626,0 142,0C223.371,0 284,60.226 284,142C284,222.74 224.107,284 142,284ZM88.825,133.693C100.307,133.693 109.672,122.263 109.672,108.766C109.672,95.07 100.105,83.84 88.825,83.84C77.345,83.84 67.979,95.07 67.979,108.766C67.979,122.463 77.345,133.693 88.825,133.693ZM195.175,133.693C206.655,133.693 216.022,122.263 216.022,108.766C216.022,95.07 206.455,83.84 195.175,83.84C183.695,83.84 174.328,95.07 174.328,108.766C174.328,122.463 183.695,133.693 195.175,133.693ZM142,250.465C194.108,250.465 247.443,212.449 247.443,177.803C247.443,167.232 242.288,163.301 234.149,163.301C224.775,163.301 205.734,168.163 180.069,171.534C156.397,174.642 127.947,174.667 104.083,171.534C85.428,169.083 70.125,165.872 59.444,164.206C49.425,162.645 44.126,163.016 40.184,166.549C37.766,168.714 36.557,172.464 36.557,177.803C36.557,212.322 89.84,250.465 142,250.465ZM142,199.556C114.002,199.556 77.389,196.134 49.096,188.527L49.096,177.803C49.096,174.781 52.068,174.026 54.685,174.631C80.93,180.733 116.75,184.449 142,184.449C168.02,184.449 203.8,180.633 229.316,174.631C231.933,174.026 234.905,174.781 234.905,177.803L234.905,188.527C206.863,196.067 170.428,199.556 142,199.556ZM142,239.89C126.894,239.89 112.794,237.17 99.703,231.732C128.505,215.014 155.494,215.014 184.298,231.732C171.207,237.17 157.107,239.89 142,239.89Z" style="fill:rgb(128,128,128);"/>
</svg>
