<?xml version="1.0" encoding="UTF-8" standalone="no"?>
<!DOCTYPE svg PUBLIC "-//W3C//DTD SVG 1.1//EN" "http://www.w3.org/Graphics/SVG/1.1/DTD/svg11.dtd">
<svg width="100%" height="100%" viewBox="0 0 284 284" version="1.1" xmlns="http://www.w3.org/2000/svg" xmlns:xlink="http://www.w3.org/1999/xlink" xml:space="preserve" xmlns:serif="http://www.serif.com/" style="fill-rule:evenodd;clip-rule:evenodd;stroke-linejoin:round;stroke-miterlimit:2;">
    <path d="M141.732,281.073C121.561,281.073 102.916,277.6 85.797,270.655C68.678,263.71 53.793,253.957 41.142,241.394C28.491,228.831 18.648,214.079 11.615,197.137C4.582,180.195 1.065,161.727 1.065,141.732C1.065,121.738 4.582,103.27 11.615,86.328C18.648,69.386 28.491,54.634 41.142,42.071C53.793,29.508 68.678,19.754 85.797,12.809C102.916,5.864 121.561,2.392 141.732,2.392C161.903,2.392 180.549,5.864 197.667,12.809C214.786,19.754 229.672,29.508 242.323,42.071C254.974,54.634 264.816,69.386 271.85,86.328C278.883,103.27 282.4,121.738 282.4,141.732C282.4,161.727 278.883,180.195 271.85,197.137C264.816,214.079 254.974,228.831 242.323,241.394C229.672,253.957 214.786,263.71 197.667,270.655C180.549,277.6 161.903,281.073 141.732,281.073ZM101.921,227.592L101.921,164.956L91.304,164.956L91.304,227.592L101.921,227.592ZM136.424,235.555L147.04,235.555L147.04,170.397L136.424,170.397L136.424,235.555ZM141.732,243.384C153.587,243.384 165.265,241.372 176.766,237.346C188.268,233.321 198.685,227.924 208.018,221.156C217.352,214.388 224.784,206.802 230.313,198.397C235.842,189.993 238.607,181.411 238.607,172.653C238.607,166.902 236.904,162.434 233.498,159.249C230.092,156.064 225.425,154.472 219.497,154.472C215.428,154.472 209.323,155.29 201.184,156.927C193.045,158.564 183.778,160.2 173.382,161.837C162.987,163.474 152.437,164.292 141.732,164.292C131.027,164.292 120.477,163.474 110.082,161.837C99.687,160.2 90.42,158.564 82.28,156.927C74.141,155.29 68.037,154.472 63.967,154.472C58.04,154.472 53.373,156.064 49.967,159.249C46.561,162.434 44.858,166.902 44.858,172.653C44.858,181.411 47.622,189.993 53.152,198.397C58.681,206.802 66.112,214.388 75.446,221.156C84.78,227.924 95.197,233.321 106.698,237.346C118.199,241.372 129.877,243.384 141.732,243.384ZM141.732,230.114C131.735,230.114 121.782,228.411 111.874,225.005C101.965,221.599 92.963,217.109 84.868,211.535C76.773,205.962 70.293,199.769 65.427,192.956C60.561,186.144 58.128,179.376 58.128,172.653C58.128,170.795 58.504,169.512 59.256,168.804C60.008,168.096 61.578,167.742 63.967,167.742C67.771,167.742 72.593,168.229 78.432,169.202C84.271,170.175 90.707,171.326 97.741,172.653C104.774,173.98 112.073,175.13 119.637,176.103C127.201,177.076 134.566,177.563 141.732,177.563C148.987,177.563 156.374,177.076 163.894,176.103C171.414,175.13 178.691,173.98 185.724,172.653C192.757,171.326 199.194,170.175 205.033,169.202C210.872,168.229 215.693,167.742 219.497,167.742C221.886,167.742 223.457,168.096 224.209,168.804C224.96,169.512 225.336,170.795 225.336,172.653C225.336,179.376 222.904,186.144 218.038,192.956C213.172,199.769 206.691,205.962 198.596,211.535C190.501,217.109 181.5,221.599 171.591,225.005C161.682,228.411 151.729,230.114 141.732,230.114ZM141.732,208.218C173.228,208.218 204.767,200.432 236.351,184.861L231.574,175.307C201.405,190.258 171.458,197.734 141.732,197.734C112.006,197.734 82.059,190.258 51.891,175.307L47.114,184.861C78.697,200.432 110.237,208.218 141.732,208.218ZM79.759,130.054L65.427,127.4C67.196,118.553 70.647,111.675 75.778,106.764C80.909,101.854 87.367,99.399 95.153,99.399C103.027,99.399 109.529,101.854 114.66,106.764C119.792,111.675 123.198,118.553 124.879,127.4L110.547,130.054C108.423,119.349 103.292,113.997 95.153,113.997C87.014,113.997 81.882,119.349 79.759,130.054ZM181.544,227.592L192.16,227.592L192.16,164.956L181.544,164.956L181.544,227.592ZM141.732,266.475C159.692,266.475 176.258,263.357 191.43,257.119C206.603,250.882 219.785,242.168 230.976,230.976C242.168,219.785 250.882,206.581 257.119,191.364C263.357,176.147 266.475,159.603 266.475,141.732C266.475,123.773 263.357,107.207 257.119,92.034C250.882,76.862 242.168,63.68 230.976,52.488C219.785,41.297 206.603,32.582 191.43,26.345C176.258,20.108 159.692,16.989 141.732,16.989C123.861,16.989 107.34,20.108 92.167,26.345C76.994,32.582 63.79,41.297 52.554,52.488C41.319,63.68 32.582,76.862 26.345,92.034C20.108,107.207 16.989,123.773 16.989,141.732C16.989,159.603 20.108,176.147 26.345,191.364C32.582,206.581 41.297,219.785 52.488,230.976C63.68,242.168 76.884,250.882 92.101,257.119C107.317,263.357 123.861,266.475 141.732,266.475ZM172.918,130.054L158.586,127.4C160.355,118.553 163.806,111.675 168.937,106.764C174.068,101.854 180.526,99.399 188.312,99.399C196.186,99.399 202.688,101.854 207.819,106.764C212.951,111.675 216.357,118.553 218.038,127.4L203.706,130.054C201.582,119.349 196.451,113.997 188.312,113.997C180.173,113.997 175.041,119.349 172.918,130.054Z" style="fill-rule:nonzero;"/>
</svg>
