<?xml version="1.0" encoding="UTF-8" standalone="no"?>
<!DOCTYPE svg PUBLIC "-//W3C//DTD SVG 1.1//EN" "http://www.w3.org/Graphics/SVG/1.1/DTD/svg11.dtd">
<svg width="100%" height="100%" viewBox="0 0 284 284" version="1.1" xmlns="http://www.w3.org/2000/svg" xmlns:xlink="http://www.w3.org/1999/xlink" xml:space="preserve" xmlns:serif="http://www.serif.com/" style="fill-rule:evenodd;clip-rule:evenodd;stroke-linejoin:round;stroke-miterlimit:2;">
    <path d="M141.732,282.747C59.777,282.747 -0.535,222.257 -0.535,141.732C-0.535,60.821 60.389,0.718 141.732,0.718C223.687,0.718 284,61.211 284,141.732C284,222.647 223.075,282.747 141.732,282.747ZM141.732,273.305C217.652,273.305 274.558,217.253 274.558,141.732C274.558,66.578 218.224,10.16 141.732,10.16C65.812,10.16 8.907,66.215 8.907,141.732C8.907,216.889 65.24,273.305 141.732,273.305ZM141.732,259.52C74.936,259.52 23.944,210.05 23.944,141.732C23.944,74.238 74.233,23.944 141.732,23.944C209.229,23.944 259.52,73.901 259.52,141.732C259.52,208.705 209.839,259.52 141.732,259.52ZM97.624,134.841C107.148,134.841 114.916,125.36 114.916,114.165C114.916,102.804 106.98,93.489 97.624,93.489C88.101,93.489 80.332,102.804 80.332,114.165C80.332,125.526 88.101,134.841 97.624,134.841ZM185.84,134.841C195.363,134.841 203.133,125.36 203.133,114.165C203.133,102.804 195.197,93.489 185.84,93.489C176.318,93.489 168.548,102.804 168.548,114.165C168.548,125.526 176.318,134.841 185.84,134.841ZM141.732,231.703C184.955,231.703 229.196,200.169 229.196,171.43C229.196,162.662 224.92,159.401 218.169,159.401C210.393,159.401 194.599,163.434 173.31,166.23C153.674,168.808 130.075,168.829 110.28,166.23C94.806,164.197 82.112,161.534 73.252,160.152C64.942,158.857 60.546,159.165 57.276,162.095C55.271,163.891 54.268,167.002 54.268,171.43C54.268,200.064 98.466,231.703 141.732,231.703ZM141.732,189.474C118.508,189.474 88.138,186.636 64.669,180.326L64.669,171.43C64.669,168.924 67.134,168.297 69.305,168.799C91.075,173.861 120.787,176.943 141.732,176.943C163.315,176.943 192.995,173.778 214.16,168.799C216.331,168.297 218.796,168.924 218.796,171.43L218.796,180.326C195.535,186.58 165.313,189.474 141.732,189.474ZM141.732,222.931C129.202,222.931 117.506,220.675 106.647,216.164C130.538,202.297 152.925,202.297 176.818,216.164C165.959,220.675 154.263,222.931 141.732,222.931Z" style="fill:rgb(128,128,128);"/>
</svg>
