<?xml version="1.0" encoding="UTF-8" standalone="no"?>
<!DOCTYPE svg PUBLIC "-//W3C//DTD SVG 1.1//EN" "http://www.w3.org/Graphics/SVG/1.1/DTD/svg11.dtd">
<svg width="100%" height="100%" viewBox="0 0 284 284" version="1.1" xmlns="http://www.w3.org/2000/svg" xmlns:xlink="http://www.w3.org/1999/xlink" xml:space="preserve" xmlns:serif="http://www.serif.com/" style="fill-rule:evenodd;clip-rule:evenodd;stroke-linejoin:round;stroke-miterlimit:2;">
    <path d="M141.732,281.073C121.561,281.073 102.916,277.6 85.797,270.655C68.678,263.71 53.793,253.957 41.142,241.394C28.491,228.831 18.648,214.079 11.615,197.137C4.582,180.195 1.065,161.727 1.065,141.732C1.065,121.738 4.582,103.27 11.615,86.328C18.648,69.386 28.491,54.634 41.142,42.071C53.793,29.508 68.678,19.754 85.797,12.809C102.916,5.864 121.561,2.392 141.732,2.392C161.903,2.392 180.549,5.864 197.667,12.809C214.786,19.754 229.672,29.508 242.323,42.071C254.974,54.634 264.816,69.386 271.85,86.328C278.883,103.27 282.4,121.738 282.4,141.732C282.4,161.727 278.883,180.195 271.85,197.137C264.816,214.079 254.974,228.831 242.323,241.394C229.672,253.957 214.786,263.71 197.667,270.655C180.549,277.6 161.903,281.073 141.732,281.073ZM141.732,227.725C155.003,227.725 167.389,225.336 178.89,220.559C166.238,213.216 153.853,209.545 141.732,209.545C129.612,209.545 117.226,213.216 104.575,220.559C116.076,225.336 128.462,227.725 141.732,227.725ZM141.732,237.015C130.231,237.015 118.973,235.157 107.959,231.441C96.944,227.725 87.014,222.749 78.167,216.512C69.32,210.274 62.264,203.396 57,195.876C51.736,188.356 49.104,180.792 49.104,173.183C49.104,168.494 50.166,165.199 52.289,163.297C54.412,161.395 57.243,160.444 60.782,160.444C62.994,160.444 65.803,160.709 69.209,161.24C72.615,161.771 76.53,162.479 80.953,163.363C88.827,164.867 97.984,166.305 108.423,167.676C118.863,169.047 129.966,169.733 141.732,169.733C153.587,169.733 164.735,169.047 175.174,167.676C185.613,166.305 194.726,164.867 202.511,163.363C206.935,162.479 210.85,161.771 214.256,161.24C217.662,160.709 220.471,160.444 222.682,160.444C226.221,160.444 229.052,161.395 231.176,163.297C233.299,165.199 234.36,168.494 234.36,173.183C234.36,180.792 231.728,188.356 226.464,195.876C221.201,203.396 214.145,210.274 205.298,216.512C196.451,222.749 186.52,227.725 175.506,231.441C164.491,235.157 153.233,237.015 141.732,237.015ZM141.732,192.293C150.048,192.293 158.94,191.961 168.406,191.298C177.872,190.634 187.339,189.572 196.805,188.113C206.271,186.653 215.118,184.817 223.346,182.605L223.346,173.183C223.346,171.856 222.815,170.994 221.753,170.596C220.692,170.198 219.586,170.131 218.436,170.397C210.916,172.166 202.622,173.692 193.554,174.975C184.485,176.258 175.461,177.253 166.482,177.961C157.502,178.669 149.252,179.022 141.732,179.022C134.301,179.022 126.073,178.669 117.049,177.961C108.025,177.253 99.001,176.258 89.977,174.975C80.953,173.692 72.637,172.166 65.029,170.397C63.879,170.131 62.773,170.198 61.711,170.596C60.649,170.994 60.119,171.856 60.119,173.183L60.119,182.605C68.346,184.817 77.193,186.653 86.66,188.113C96.126,189.572 105.614,190.634 115.125,191.298C124.635,191.961 133.505,192.293 141.732,192.293ZM95.02,134.434C89.977,134.434 85.664,132.288 82.081,127.997C78.498,123.707 76.707,118.553 76.707,112.537C76.707,106.521 78.498,101.368 82.081,97.077C85.664,92.786 89.977,90.641 95.02,90.641C99.974,90.641 104.265,92.786 107.892,97.077C111.52,101.368 113.333,106.521 113.333,112.537C113.333,118.465 111.542,123.596 107.959,127.931C104.376,132.266 100.063,134.434 95.02,134.434ZM141.732,266.475C159.692,266.475 176.258,263.357 191.43,257.119C206.603,250.882 219.785,242.168 230.976,230.976C242.168,219.785 250.882,206.581 257.119,191.364C263.357,176.147 266.475,159.603 266.475,141.732C266.475,123.773 263.357,107.207 257.119,92.034C250.882,76.862 242.168,63.68 230.976,52.488C219.785,41.297 206.603,32.582 191.43,26.345C176.258,20.108 159.692,16.989 141.732,16.989C123.861,16.989 107.34,20.108 92.167,26.345C76.994,32.582 63.79,41.297 52.554,52.488C41.319,63.68 32.582,76.862 26.345,92.034C20.108,107.207 16.989,123.773 16.989,141.732C16.989,159.603 20.108,176.147 26.345,191.364C32.582,206.581 41.297,219.785 52.488,230.976C63.68,242.168 76.884,250.882 92.101,257.119C107.317,263.357 123.861,266.475 141.732,266.475ZM188.444,134.434C183.402,134.434 179.089,132.288 175.506,127.997C171.923,123.707 170.131,118.553 170.131,112.537C170.131,106.521 171.923,101.368 175.506,97.077C179.089,92.786 183.402,90.641 188.444,90.641C193.399,90.641 197.69,92.786 201.317,97.077C204.944,101.368 206.758,106.521 206.758,112.537C206.758,118.465 204.966,123.596 201.383,127.931C197.8,132.266 193.487,134.434 188.444,134.434Z" style="fill-rule:nonzero;"/>
</svg>
