<?xml version="1.0" encoding="UTF-8" standalone="no"?>
<!DOCTYPE svg PUBLIC "-//W3C//DTD SVG 1.1//EN" "http://www.w3.org/Graphics/SVG/1.1/DTD/svg11.dtd">
<svg width="100%" height="100%" viewBox="0 0 284 284" version="1.1" xmlns="http://www.w3.org/2000/svg" xmlns:xlink="http://www.w3.org/1999/xlink" xml:space="preserve" xmlns:serif="http://www.serif.com/" style="fill-rule:evenodd;clip-rule:evenodd;stroke-linejoin:round;stroke-miterlimit:2;">
    <path d="M142,284C61.474,284 0,224.361 0,142C0,60.632 60.626,0 142,0C223.371,0 284,60.226 284,142C284,222.74 224.107,284 142,284ZM177.5,128.706C179.917,116.521 185.759,110.428 195.024,110.428C204.289,110.428 210.13,116.521 212.548,128.706L228.863,125.685C225.035,105.544 212.951,93.81 195.024,93.81C177.297,93.81 165.213,105.544 161.185,125.685L177.5,128.706ZM71.453,128.706C73.87,116.521 79.713,110.428 88.977,110.428C98.242,110.428 104.083,116.521 106.501,128.706L122.816,125.685C118.988,105.544 106.904,93.81 88.977,93.81C71.251,93.81 59.166,105.544 55.139,125.685L71.453,128.706ZM142,257.715C182.284,257.715 223.907,235.28 242.835,206.504C253.65,190.067 255.737,170.614 246.461,161.94C239.81,155.722 231.895,154.828 209.676,159.297C191.147,163.024 166.372,167.681 142,167.681C117.628,167.681 92.856,163.024 74.324,159.297C52.105,154.828 44.191,155.722 37.54,161.94C28.264,170.614 30.35,190.067 41.166,206.504C60.238,235.498 101.716,257.715 142,257.715ZM199.405,175.838C212.009,173.536 223.146,171.608 230.523,171.608C235.951,171.608 237.17,172.96 237.17,177.199C237.17,179.445 236.933,181.694 236.455,183.949C224.072,189.625 211.721,194.195 199.405,197.653L199.405,175.838ZM187.319,232.329C175.343,237.692 161.495,241.613 148.042,242.426L148.042,217.599C161.129,217.236 174.221,215.693 187.319,212.969L187.319,232.329ZM228.79,200.41C221.842,210.104 211.709,218.908 199.405,226.118L199.405,210.122C209.196,207.544 218.992,204.307 228.79,200.41ZM148.042,182.69C154.351,182.486 160.746,181.965 167.227,181.126C174.104,180.235 180.802,179.217 187.319,178.068L187.319,200.695C174.19,203.614 161.097,205.269 148.042,205.659L148.042,182.69ZM96.682,178.067C103.209,179.216 109.931,180.235 116.848,181.126C123.348,181.962 129.718,182.483 135.958,182.688L135.958,205.659C122.903,205.269 109.812,203.614 96.682,200.695L96.682,178.067ZM135.958,242.426C122.506,241.613 108.658,237.692 96.682,232.329L96.682,212.969C109.78,215.693 122.873,217.236 135.958,217.599L135.958,242.426ZM84.595,226.118C72.286,218.908 62.16,210.104 55.211,200.41C65.01,204.307 74.805,207.544 84.595,210.122L84.595,226.118ZM47.545,183.949C47.067,181.694 46.83,179.445 46.83,177.199C46.83,172.968 48.038,171.608 53.477,171.608C60.854,171.608 71.993,173.536 84.595,175.838L84.595,197.653C72.279,194.195 59.928,189.625 47.545,183.949Z" style="fill:rgb(128,128,128);"/>
</svg>
