<?xml version="1.0" encoding="UTF-8" standalone="no"?>
<!DOCTYPE svg PUBLIC "-//W3C//DTD SVG 1.1//EN" "http://www.w3.org/Graphics/SVG/1.1/DTD/svg11.dtd">
<svg width="100%" height="100%" viewBox="0 0 1182 1182" version="1.1" xmlns="http://www.w3.org/2000/svg" xmlns:xlink="http://www.w3.org/1999/xlink" xml:space="preserve" xmlns:serif="http://www.serif.com/" style="fill-rule:evenodd;clip-rule:evenodd;stroke-linejoin:round;stroke-miterlimit:2;">
    <path d="M870.93,370.842C872.799,382.197 871.873,394.868 865.628,405.087C932.932,467.854 967.529,550.66 975.091,662.582C1014.04,691.318 1046.65,727.05 1072.93,769.776C1099.21,812.503 1112.35,858.633 1112.35,908.165C1112.35,1071.67 914.808,1180.41 588.283,1180.41C252.519,1180.41 68.756,1065.46 68.756,835.568C68.756,649.908 176.915,485.717 361.415,391.759C422.669,360.564 490.919,338.918 566.163,326.818C566.163,308.874 573.211,294.72 587.307,284.355C571.364,245.533 560.491,205.564 560.491,163.474C560.491,129.822 568.904,100.14 585.73,74.428C602.556,48.717 629.497,35.861 666.552,35.861C685.457,35.861 703.323,40.871 720.149,50.891C729.033,56.181 737.364,61.92 745.142,68.107C757.318,52.047 771.485,38.368 787.642,27.07C812.787,9.487 843.319,0.696 879.24,0.696C953.35,0.696 1009.69,41.91 1009.69,103.921C1009.69,119.802 1006.1,142.299 1000.05,154.399C1031.05,175.573 1044.29,205.633 1044.29,238.907C1044.29,300.741 998.753,342.532 870.93,370.842ZM626.527,268.706C658.276,262.523 706.758,263.988 747.09,274.071C792.577,285.443 829.38,305.771 851.346,331.355C950.166,311.565 998.912,281.721 998.912,236.638C998.912,210.927 981.519,181.812 953.539,174.25C959.589,156.1 964.315,137.951 964.315,122.07C964.315,72.916 934.444,42.1 879.24,42.1C794.504,42.1 756.26,113.77 732.343,203.742L691.507,192.399C698.997,159.943 709.851,129.842 724.07,102.095C708.953,88.754 688.115,75.562 665.985,75.562C641.785,75.562 625.243,85.015 616.357,103.921C607.472,122.826 603.029,142.677 603.029,163.474C603.029,200.156 613.199,235.567 626.527,268.706ZM588.283,1136.73C884.394,1136.73 1066.97,1045.15 1066.97,908.165C1066.97,785.534 969.346,675.605 821.956,632.522L832.732,594.521C869.031,605.108 899.469,618.342 927.449,634.223C900.225,451.973 801.916,367.654 618.91,367.654C532.7,367.654 441.953,393.177 358.012,440.819C204.51,527.728 114.13,677.5 114.13,835.568C114.13,1035.97 281.255,1136.73 588.283,1136.73ZM451.729,944.519C399.37,917.062 365.953,869.896 365.953,815.15L434.013,815.15C434.013,866.573 488.65,911.568 551.417,911.568C599.059,911.568 629.119,886.802 629.119,847.478C629.119,813.448 606.81,788.115 546.312,751.06L533.267,743.119C460.67,698.502 436.281,668.064 436.281,621.178C436.281,550.093 489.406,506.043 576.372,506.043C587.93,506.043 599.112,506.757 609.918,508.184C617.367,486.761 624.818,468.256 633.089,448.759L692.074,469.744C686.063,484.773 679.089,501.66 670.844,525.568C718.415,547.515 751.372,585.464 757.866,633.089L691.507,644.432L688.671,631.954C678.84,589.606 635.736,562.76 579.775,562.76C507.754,562.76 479.687,612.527 518.804,655.492C542.78,681.826 613.238,723.269 613.238,723.269C670.711,759.567 694.343,796.055 694.343,847.478C694.343,921.588 640.84,968.285 553.118,968.285C538.832,968.285 525.088,967.137 511.886,964.841C505.668,983.302 498.992,1004.67 490.73,1032.38L429.475,1014.23C436.568,991.856 443.57,969.352 451.729,944.519Z" style="fill:rgb(128,128,128);"/>
</svg>
