<?xml version="1.0" encoding="UTF-8" standalone="no"?>
<!DOCTYPE svg PUBLIC "-//W3C//DTD SVG 1.1//EN" "http://www.w3.org/Graphics/SVG/1.1/DTD/svg11.dtd">
<svg width="100%" height="100%" viewBox="0 0 1182 1182" version="1.1" xmlns="http://www.w3.org/2000/svg" xmlns:xlink="http://www.w3.org/1999/xlink" xml:space="preserve" xmlns:serif="http://www.serif.com/" style="fill-rule:evenodd;clip-rule:evenodd;stroke-linejoin:round;stroke-miterlimit:2;">
    <path d="M730.416,52.106C738.344,44.478 746.824,37.51 755.851,31.197C785.114,10.735 820.5,0 862.304,0C954.193,0 1020.4,55.582 1020.4,132.469C1020.4,142.994 1018.95,155.795 1016.47,167.773C1041.79,193.102 1052.97,224.953 1052.97,259.536C1052.97,324.622 1014.36,377.344 893.633,410.427C947.341,469.328 977.488,543.724 986.466,639.956C1021.07,667.827 1050.49,701.416 1074.7,740.769C1102.94,786.696 1117.04,836.29 1117.04,889.533C1117.04,961.958 1083.02,1025.21 1017.88,1074.4C930.401,1140.46 782.652,1181.1 588.416,1181.1C245.96,1181.1 64.067,1055.67 64.067,821.194C64.067,633.547 172.363,466.929 358.838,371.965C412.864,344.452 472.352,324.356 537.34,311.797C539.633,305.468 542.706,299.557 546.55,294.062C534.508,260.021 526.955,225.009 526.955,188.528C526.955,149.517 536.97,115.183 556.476,85.377C578.618,51.541 613.33,33.102 662.093,33.102C686.18,33.102 708.971,39.379 730.416,52.106ZM854.482,383.731C974.806,357.082 1017.67,317.743 1017.67,259.536C1017.67,228.214 1005.21,199.918 976.024,179.986C981.718,168.596 985.1,147.418 985.1,132.469C985.1,74.096 932.066,35.3 862.304,35.3C828.491,35.3 799.749,43.575 776.08,60.126C760.87,70.761 747.535,83.638 736.073,98.756C728.751,92.932 720.909,87.53 712.546,82.55C696.707,73.118 679.89,68.402 662.093,68.402C627.212,68.402 601.852,80.503 586.013,104.706C570.174,128.91 562.255,156.85 562.255,188.528C562.255,228.149 572.489,265.773 587.497,302.318C574.228,312.075 567.594,325.399 567.594,342.29C496.764,353.68 432.518,374.057 374.857,403.421C201.181,491.867 99.368,646.426 99.368,821.194C99.368,1037.6 272.35,1145.8 588.416,1145.8C895.786,1145.8 1081.74,1043.45 1081.74,889.533C1081.74,842.906 1069.37,799.482 1044.63,759.262C1019.89,719.042 989.193,685.407 952.532,658.356C945.414,553.001 912.846,475.052 849.49,415.967C855.369,406.348 856.241,394.42 854.482,383.731ZM588.416,1104.69C299.4,1104.69 142.079,1009.84 142.079,821.194C142.079,672.399 227.157,531.414 371.654,449.603C450.671,404.756 536.094,380.73 617.246,380.73C789.516,380.73 882.058,460.103 907.685,631.661C881.346,616.712 852.694,604.254 818.524,594.288L808.38,630.059C947.124,670.615 1039.02,774.096 1039.02,889.533C1039.02,1018.48 867.156,1104.69 588.416,1104.69ZM459.873,923.753C452.193,947.13 445.602,968.313 438.925,989.371L496.586,1006.46C504.363,980.378 510.647,960.261 516.501,942.884C528.928,945.045 541.866,946.125 555.314,946.125C637.89,946.125 688.254,902.168 688.254,832.406C688.254,783.999 666.008,749.652 611.907,715.483C611.907,715.483 545.583,676.472 523.013,651.682C486.191,611.238 512.611,564.39 580.407,564.39C633.085,564.39 673.661,589.661 682.915,629.526L685.585,641.271L748.05,630.593C741.937,585.762 710.914,550.04 666.133,529.38C673.895,506.875 680.46,490.978 686.118,476.831L630.593,457.077C622.807,475.43 615.794,492.85 608.782,513.016C598.61,511.672 588.083,511.001 577.204,511.001C495.34,511.001 445.332,552.467 445.332,619.382C445.332,663.517 468.289,692.169 536.628,734.169L548.907,741.644C605.856,776.525 626.856,800.372 626.856,832.406C626.856,869.422 598.56,892.736 553.712,892.736C494.628,892.736 443.196,850.38 443.196,801.974L379.129,801.974C379.129,853.508 410.586,897.907 459.873,923.753ZM624.417,287.587C611.871,256.392 602.297,223.059 602.297,188.528C602.297,168.952 606.479,150.266 614.843,132.469C623.208,114.673 638.78,105.774 661.559,105.774C682.391,105.774 702.007,118.192 716.237,130.751C702.852,156.869 692.635,185.204 685.585,215.757L724.025,226.435C746.539,141.74 782.539,74.274 862.304,74.274C914.27,74.274 942.388,103.283 942.388,149.554C942.388,164.503 937.939,181.587 932.244,198.672C958.583,205.791 974.956,233.197 974.956,257.401C974.956,299.838 929.069,327.932 836.046,346.561C815.369,322.477 780.725,303.342 737.906,292.638C699.94,283.146 654.303,281.767 624.417,287.587Z" style="fill:rgb(128,128,128);"/>
</svg>
