<?xml version="1.0" encoding="UTF-8" standalone="no"?>
<!DOCTYPE svg PUBLIC "-//W3C//DTD SVG 1.1//EN" "http://www.w3.org/Graphics/SVG/1.1/DTD/svg11.dtd">
<svg width="100%" height="100%" viewBox="0 0 284 284" version="1.1" xmlns="http://www.w3.org/2000/svg" xmlns:xlink="http://www.w3.org/1999/xlink" xml:space="preserve" xmlns:serif="http://www.serif.com/" style="fill-rule:evenodd;clip-rule:evenodd;stroke-linejoin:round;stroke-miterlimit:2;">
    <path d="M262.002,216.763C263.663,220.001 264.497,223.59 264.497,227.532C264.497,232.918 262.697,237.807 259.758,241.727C262.698,245.65 264.497,250.541 264.497,255.919C264.497,269.081 253.927,279.646 240.771,279.646C229.548,279.646 220.086,271.912 217.573,261.462C195.66,275.318 169.613,283.464 141.732,283.464C63.236,283.464 0,219.957 0,141.732C0,63.234 63.51,-0 141.732,-0C219.868,-0 283.465,63.508 283.465,141.732C283.465,169.271 275.569,194.982 262.002,216.763ZM231.787,238.838C233.721,240.38 235.891,241.341 238.299,241.726C231.823,242.76 226.26,248.602 226.26,255.919C226.26,263.899 232.795,270.305 240.771,270.305C248.748,270.305 255.156,263.899 255.156,255.919C255.156,248.615 249.714,242.762 243.242,241.726C249.699,240.695 255.156,234.852 255.156,227.532C255.156,223.543 253.755,220.148 250.955,217.348C250.853,217.246 250.751,217.146 250.647,217.049C265.408,195.641 274.124,169.696 274.124,141.732C274.124,68.664 214.718,9.341 141.732,9.341C68.665,9.341 9.341,68.408 9.341,141.732C9.341,214.801 68.409,274.124 141.732,274.124C176.51,274.124 208.23,260.551 231.787,238.838ZM240.771,263.94C236.357,263.94 232.623,260.334 232.623,255.919C232.623,251.508 236.357,247.901 240.771,247.901C245.186,247.901 248.792,251.508 248.792,255.919C248.792,260.334 245.186,263.94 240.771,263.94ZM240.771,235.552C236.357,235.552 232.623,231.946 232.623,227.532C232.623,223.12 236.357,219.513 240.771,219.513C245.186,219.513 248.792,223.12 248.792,227.532C248.792,231.946 245.186,235.552 240.771,235.552ZM240.771,207.164C236.357,207.164 232.623,203.557 232.623,199.144C232.623,194.731 236.357,191.124 240.771,191.124C245.186,191.124 248.792,194.731 248.792,199.144C248.792,203.388 245.186,207.164 240.771,207.164ZM240.771,150.389C236.357,150.389 232.623,146.782 232.623,142.369C232.623,137.956 236.357,134.349 240.771,134.349C245.186,134.349 248.792,137.956 248.792,142.369C248.792,146.612 245.186,150.389 240.771,150.389ZM240.771,122.001C236.357,122.001 232.623,118.394 232.623,113.981C232.623,109.568 236.357,105.961 240.771,105.961C245.186,105.961 248.792,109.568 248.792,113.981C248.792,118.224 245.186,122.001 240.771,122.001ZM182.213,153.189C161.38,153.189 144.405,136.342 144.405,115.381C144.405,94.197 161.442,77.573 182.213,77.573C203.146,77.573 220.022,94.608 220.022,115.381C220.022,136.342 203.052,153.189 182.213,153.189ZM183.233,137.531C193.415,137.531 201.308,128.154 201.308,116.272C201.308,104.391 193.245,94.886 183.233,94.886C173.217,94.886 165.284,104.221 165.284,116.272C165.284,128.154 173.217,137.531 183.233,137.531ZM253.263,191.915C251.329,188.626 247.554,185.637 243.232,184.949C249.7,183.904 255.156,177.92 255.156,170.756C255.156,163.438 249.7,157.591 243.232,156.561C249.7,155.516 255.156,149.532 255.156,142.369C255.156,135.05 249.7,129.203 243.232,128.173C249.7,127.128 255.156,121.144 255.156,113.981C255.156,106.004 248.748,99.596 240.771,99.596L225.487,99.596C218.977,81.64 201.998,69.299 182.213,69.299C156.882,69.299 136.131,89.664 136.131,115.381C136.131,140.752 156.576,161.336 182.213,161.336C203.017,161.336 220.836,147.71 226.396,128.366L237.32,128.366C231.387,129.741 226.26,135.383 226.26,142.369C226.26,149.687 231.823,155.53 238.299,156.563C231.823,157.595 226.26,163.438 226.26,170.756C226.26,178.075 231.823,183.918 238.299,184.95C231.823,185.983 226.26,191.826 226.26,199.144C226.26,206.464 231.823,212.307 238.299,213.338C231.823,214.372 226.26,220.214 226.26,227.532C226.26,228.31 226.312,229.064 226.421,229.797C204.76,250.748 174.801,263.94 141.732,263.94C74.415,263.94 19.525,209.286 19.525,141.732C19.525,74.414 74.18,19.525 141.732,19.525C209.052,19.525 263.939,74.179 263.939,141.732C263.939,159.776 260.167,176.64 253.263,191.915ZM160.064,216.33L163.882,207.672C138.041,196.053 113.89,194.7 91.958,204.619L95.905,213.275C115.43,204.573 136.162,205.892 160.064,216.33ZM80.12,139.059C89.115,139.059 96.159,130.36 96.159,118.818C96.159,107.276 88.945,98.45 80.12,98.45C71.293,98.45 64.08,107.276 64.08,118.818C64.08,130.36 71.293,139.059 80.12,139.059ZM55.169,94.122C57.375,86.909 59.73,81.774 62.234,78.719C64.738,75.664 67.687,74.136 71.081,74.136C73.967,74.136 77.107,74.815 80.501,75.664C84.745,76.852 89.37,77.955 94.632,77.955L106.216,77.955L106.216,69.044L94.632,69.044C90.728,69.044 86.697,68.196 82.793,67.008C79.059,65.989 74.985,65.225 71.081,65.225C65.31,65.225 60.473,67.347 56.569,71.59C52.665,75.834 49.356,82.496 46.64,91.576L55.169,94.122ZM158.154,68.79C173.26,56.23 184.122,51.095 191.761,51.095C198.042,51.095 202.414,55.211 205.636,67.262L214.294,65.098C210.057,49.006 202.304,42.184 191.761,42.184C181.576,42.184 169.061,47.955 152.425,62.043L158.154,68.79ZM240.771,178.776C236.357,178.776 232.623,175.169 232.623,170.756C232.623,166.343 236.357,162.737 240.771,162.737C245.186,162.737 248.792,166.343 248.792,170.756C248.792,175 245.186,178.776 240.771,178.776Z" style="fill:rgb(128,128,128);"/>
</svg>
