<?xml version="1.0" encoding="UTF-8" standalone="no"?>
<!DOCTYPE svg PUBLIC "-//W3C//DTD SVG 1.1//EN" "http://www.w3.org/Graphics/SVG/1.1/DTD/svg11.dtd">
<svg width="100%" height="100%" viewBox="0 0 284 284" version="1.1" xmlns="http://www.w3.org/2000/svg" xmlns:xlink="http://www.w3.org/1999/xlink" xml:space="preserve" xmlns:serif="http://www.serif.com/" style="fill-rule:evenodd;clip-rule:evenodd;stroke-linejoin:round;stroke-miterlimit:2;">
    <path d="M238.141,245.69C212.922,268.934 178.964,283.464 141.732,283.464C63.236,283.464 0,219.957 0,141.732C0,63.234 63.51,0 141.732,0C219.868,0 283.465,63.508 283.465,141.732C283.465,171.669 274.133,199.445 258.332,222.363C258.443,222.467 258.552,222.574 258.661,222.683C261.659,225.681 263.158,229.316 263.158,233.585C263.158,241.423 257.317,247.677 250.404,248.781C257.332,249.891 263.158,256.156 263.158,263.976C263.158,272.519 256.298,279.377 247.759,279.377C239.22,279.377 232.224,272.519 232.224,263.976C232.224,256.142 238.18,249.888 245.112,248.781C242.535,248.369 240.211,247.34 238.141,245.69ZM261.132,195.455C268.523,179.103 272.561,161.049 272.561,141.732C272.561,69.412 213.802,10.902 141.732,10.902C69.414,10.902 10.903,69.665 10.903,141.732C10.903,214.052 69.666,272.562 141.732,272.562C177.134,272.562 209.207,258.44 232.396,236.01C232.28,235.226 232.224,234.418 232.224,233.585C232.224,225.751 238.18,219.497 245.112,218.39C238.18,217.286 232.224,211.032 232.224,203.195C232.224,195.36 238.18,189.105 245.112,188C238.18,186.895 232.224,180.639 232.224,172.804C232.224,164.969 238.18,158.714 245.112,157.609C238.18,156.504 232.224,150.249 232.224,142.414C232.224,134.935 237.712,128.895 244.064,127.423L232.369,127.423C226.417,148.131 207.341,162.719 185.069,162.719C157.623,162.719 135.736,140.683 135.736,113.522C135.736,85.991 157.951,64.188 185.069,64.188C206.25,64.188 224.427,77.4 231.396,96.623L247.759,96.623C256.298,96.623 263.158,103.483 263.158,112.023C263.158,119.691 257.318,126.098 250.393,127.217C257.318,128.319 263.158,134.579 263.158,142.414C263.158,150.082 257.318,156.488 250.393,157.607C257.318,158.71 263.158,164.969 263.158,172.804C263.158,180.473 257.318,186.879 250.393,187.998C255.02,188.735 259.062,191.935 261.132,195.455ZM247.759,242.172C252.485,242.172 256.345,238.311 256.345,233.585C256.345,228.863 252.485,225.001 247.759,225.001C243.033,225.001 239.036,228.863 239.036,233.585C239.036,238.311 243.033,242.172 247.759,242.172ZM247.759,272.562C252.485,272.562 256.345,268.702 256.345,263.976C256.345,259.253 252.485,255.391 247.759,255.391C243.033,255.391 239.036,259.253 239.036,263.976C239.036,268.702 243.033,272.562 247.759,272.562ZM75.772,138.87C66.323,138.87 58.601,129.558 58.601,117.202C58.601,104.845 66.323,95.397 75.772,95.397C85.221,95.397 92.944,104.845 92.944,117.202C92.944,129.558 85.403,138.87 75.772,138.87ZM161.357,221.593C135.769,210.419 113.574,209.007 92.671,218.323L88.446,209.056C111.926,198.437 137.78,199.885 165.445,212.325L161.357,221.593ZM49.061,90.763L39.93,88.037C42.838,78.316 46.381,71.184 50.56,66.641C54.74,62.099 59.918,59.827 66.096,59.827C70.276,59.827 74.637,60.645 78.634,61.735C82.814,63.007 87.129,63.916 91.308,63.916L103.71,63.916L103.71,73.455L91.308,73.455C85.675,73.455 80.724,72.274 76.181,71.002C72.547,70.094 69.186,69.367 66.096,69.367C62.462,69.367 59.305,71.002 56.625,74.273C53.945,77.544 51.423,83.04 49.061,90.763ZM159.312,63.643L153.18,56.42C170.989,41.339 184.387,35.16 195.291,35.16C206.578,35.16 214.878,42.463 219.413,59.691L210.145,62.008C206.696,49.106 202.015,44.7 195.291,44.7C187.112,44.7 175.484,50.197 159.312,63.643ZM185.069,153.998C207.379,153.998 225.546,135.962 225.546,113.522C225.546,91.283 207.479,73.047 185.069,73.047C162.832,73.047 144.593,90.843 144.593,113.522C144.593,135.962 162.766,153.998 185.069,153.998ZM186.161,137.235C175.439,137.235 166.945,127.196 166.945,114.476C166.945,101.575 175.439,91.581 186.161,91.581C196.879,91.581 205.511,101.757 205.511,114.476C205.511,127.196 197.061,137.235 186.161,137.235ZM247.759,211.781C252.485,211.781 256.345,207.738 256.345,203.195C256.345,198.471 252.485,194.609 247.759,194.609C243.033,194.609 239.036,198.471 239.036,203.195C239.036,207.919 243.033,211.781 247.759,211.781ZM247.759,181.39C252.485,181.39 256.345,177.347 256.345,172.804C256.345,168.08 252.485,164.219 247.759,164.219C243.033,164.219 239.036,168.08 239.036,172.804C239.036,177.529 243.033,181.39 247.759,181.39ZM247.759,150.999C252.485,150.999 256.345,146.956 256.345,142.414C256.345,137.689 252.485,133.828 247.759,133.828C243.033,133.828 239.036,137.689 239.036,142.414C239.036,147.138 243.033,150.999 247.759,150.999ZM247.759,120.609C252.485,120.609 256.345,116.566 256.345,112.023C256.345,107.299 252.485,103.437 247.759,103.437C243.033,103.437 239.036,107.299 239.036,112.023C239.036,116.747 243.033,120.609 247.759,120.609Z" style="fill:rgb(128,128,128);"/>
</svg>
