<?xml version="1.0" encoding="UTF-8" standalone="no"?>
<!DOCTYPE svg PUBLIC "-//W3C//DTD SVG 1.1//EN" "http://www.w3.org/Graphics/SVG/1.1/DTD/svg11.dtd">
<svg width="100%" height="100%" viewBox="0 0 284 284" version="1.1" xmlns="http://www.w3.org/2000/svg" xmlns:xlink="http://www.w3.org/1999/xlink" xml:space="preserve" xmlns:serif="http://www.serif.com/" style="fill-rule:evenodd;clip-rule:evenodd;stroke-linejoin:round;stroke-miterlimit:2;">
    <path d="M257.079,284C251.95,284 247.612,279.81 247.612,274.68C247.612,269.555 251.95,265.363 257.079,265.363C262.209,265.363 266.399,269.555 266.399,274.68C266.399,279.81 262.209,284 257.079,284ZM257.079,251.014C251.95,251.014 247.612,246.824 247.612,241.695C247.612,236.569 251.95,232.378 257.079,232.378C262.209,232.378 266.399,236.569 266.399,241.695C266.399,246.824 262.209,251.014 257.079,251.014ZM257.079,218.029C251.95,218.029 247.612,213.837 247.612,208.71C247.612,203.582 251.95,199.391 257.079,199.391C262.209,199.391 266.399,203.582 266.399,208.71C266.399,213.641 262.209,218.029 257.079,218.029ZM257.079,152.058C251.95,152.058 247.612,147.867 247.612,142.74C247.612,137.612 251.95,133.421 257.079,133.421C262.209,133.421 266.399,137.612 266.399,142.74C266.399,147.67 262.209,152.058 257.079,152.058ZM257.079,119.073C251.95,119.073 247.612,114.882 247.612,109.754C247.612,104.626 251.95,100.435 257.079,100.435C262.209,100.435 266.399,104.626 266.399,109.754C266.399,114.684 262.209,119.073 257.079,119.073ZM189.037,155.312C164.83,155.312 145.106,135.736 145.106,111.381C145.106,86.766 164.902,67.449 189.037,67.449C213.36,67.449 232.97,87.243 232.97,111.381C232.97,135.736 213.251,155.312 189.037,155.312ZM190.222,137.118C202.053,137.118 211.225,126.222 211.225,112.416C211.225,98.611 201.856,87.566 190.222,87.566C178.584,87.566 169.366,98.413 169.366,112.416C169.366,126.222 178.584,137.118 190.222,137.118ZM271.594,200.31C269.347,196.488 264.961,193.015 259.939,192.216C267.454,191.002 273.794,184.048 273.794,175.724C273.794,167.221 267.454,160.427 259.939,159.23C267.454,158.016 273.794,151.063 273.794,142.74C273.794,134.235 267.454,127.441 259.939,126.244C267.454,125.03 273.794,118.077 273.794,109.754C273.794,100.485 266.348,93.039 257.079,93.039L239.32,93.039C231.755,72.175 212.027,57.835 189.037,57.835C159.604,57.835 135.492,81.499 135.492,111.381C135.492,140.861 159.248,164.778 189.037,164.778C213.211,164.778 233.916,148.946 240.376,126.469L253.069,126.469C246.175,128.066 240.218,134.622 240.218,142.74C240.218,151.243 246.682,158.032 254.207,159.232C246.682,160.432 240.218,167.221 240.218,175.724C240.218,184.228 246.682,191.018 254.207,192.217C246.682,193.417 240.218,200.207 240.218,208.71C240.218,217.215 246.682,224.005 254.207,225.203C246.682,226.404 240.218,233.192 240.218,241.695C240.218,242.599 240.278,243.476 240.405,244.327C215.236,268.671 180.425,284 142,284C63.78,284 0.001,220.494 0.001,141.999C0.001,63.779 63.507,0 142,0C220.223,0 283.999,63.506 283.999,141.999C283.999,162.966 279.617,182.561 271.594,200.31ZM163.301,228.679L167.737,218.619C137.711,205.118 109.649,203.546 84.165,215.071L88.751,225.129C111.438,215.018 135.528,216.551 163.301,228.679ZM70.409,138.894C80.861,138.894 89.046,128.786 89.046,115.374C89.046,101.963 80.664,91.708 70.409,91.708C60.153,91.708 51.772,101.963 51.772,115.374C51.772,128.786 60.153,138.894 70.409,138.894ZM41.417,86.679C43.981,78.297 46.717,72.331 49.627,68.781C52.536,65.231 55.963,63.456 59.906,63.456C63.26,63.456 66.908,64.245 70.852,65.231C75.783,66.612 81.158,67.893 87.272,67.893L100.732,67.893L100.732,57.539L87.272,57.539C82.735,57.539 78.052,56.554 73.515,55.173C69.177,53.989 64.443,53.101 59.906,53.101C53.201,53.101 47.58,55.567 43.044,60.497C38.508,65.429 34.663,73.17 31.507,83.72L41.417,86.679ZM161.082,57.244C178.634,42.65 191.255,36.683 200.132,36.683C207.43,36.683 212.51,41.466 216.254,55.468L226.314,52.954C221.391,34.256 212.382,26.329 200.132,26.329C188.297,26.329 173.755,33.034 154.425,49.404L161.082,57.244ZM257.079,185.043C251.95,185.043 247.612,180.852 247.612,175.724C247.612,170.596 251.95,166.406 257.079,166.406C262.209,166.406 266.399,170.596 266.399,175.724C266.399,180.655 262.209,185.043 257.079,185.043Z" style="fill:rgb(128,128,128);"/>
</svg>
