<?xml version="1.0" encoding="UTF-8" standalone="no"?>
<!DOCTYPE svg PUBLIC "-//W3C//DTD SVG 1.1//EN" "http://www.w3.org/Graphics/SVG/1.1/DTD/svg11.dtd">
<svg width="100%" height="100%" viewBox="0 0 284 284" version="1.1" xmlns="http://www.w3.org/2000/svg" xmlns:xlink="http://www.w3.org/1999/xlink" xml:space="preserve" xmlns:serif="http://www.serif.com/" style="fill-rule:evenodd;clip-rule:evenodd;stroke-linejoin:round;stroke-miterlimit:2;">
    <g transform="matrix(0.24,0,0,0.24,0,0)">
        <g transform="matrix(0.757978,0,0,0.757978,-196.906,102.719)">
            <path d="M1568.86,1215.06C1500.93,1277.67 1422.66,1327.53 1334.06,1364.65C1241.66,1403.36 1143.27,1422.71 1038.89,1422.71C931.015,1422.71 830.005,1402.61 735.862,1362.4C641.719,1322.2 558.938,1266.39 487.519,1194.97C416.101,1123.55 360.289,1040.77 320.085,946.627C279.881,852.484 259.778,751.474 259.778,643.596C259.778,535.719 279.881,434.709 320.085,340.566C360.289,246.423 416.101,163.642 487.519,92.224C558.938,20.805 641.719,-35.007 735.862,-75.211C830.005,-115.415 931.015,-135.517 1038.89,-135.517C1146.27,-135.517 1247.03,-115.415 1341.17,-75.211C1435.32,-35.007 1518.1,20.805 1589.52,92.224C1660.93,163.642 1716.87,246.423 1757.33,340.566C1797.78,434.709 1818.01,535.719 1818.01,643.596C1818.01,729.499 1804.77,811.53 1778.3,889.692C1754.19,960.894 1721.37,1026.61 1679.85,1086.83C1680.46,1087.4 1681.06,1087.99 1681.66,1088.59C1698.14,1105.07 1706.38,1125.05 1706.38,1148.52C1706.38,1172 1698.14,1191.97 1681.66,1208.45C1668.69,1221.42 1653.56,1229.29 1636.27,1232.05C1653.56,1234.82 1668.69,1242.68 1681.66,1255.65C1698.14,1272.13 1706.38,1292.11 1706.38,1315.58C1706.38,1339.06 1698.14,1359.03 1681.66,1375.51C1665.18,1392 1645.2,1400.24 1621.73,1400.24C1598.26,1400.24 1578.15,1392 1561.42,1375.51C1544.69,1359.03 1536.33,1339.06 1536.33,1315.58C1536.33,1292.11 1544.69,1272.13 1561.42,1255.65C1574.59,1242.68 1589.84,1234.82 1607.18,1232.05C1593.01,1229.79 1580.24,1224.13 1568.86,1215.06ZM1695.24,938.916C1713.32,898.916 1727.64,857.162 1738.22,813.653C1751.46,759.215 1758.07,702.529 1758.07,643.596C1758.07,544.209 1739.47,451.065 1702.26,364.164C1665.06,277.263 1613.49,200.85 1547.56,134.925C1481.64,69 1405.23,17.434 1318.32,-19.774C1231.42,-56.982 1138.28,-75.586 1038.89,-75.586C939.505,-75.586 846.361,-56.982 759.46,-19.774C672.559,17.434 596.146,69 530.221,134.925C464.296,200.85 412.729,277.263 375.522,364.164C338.314,451.065 319.71,544.209 319.71,643.596C319.71,742.983 338.314,836.127 375.522,923.029C412.729,1009.93 464.296,1086.34 530.221,1152.27C596.146,1218.19 672.559,1269.76 759.46,1306.97C846.361,1344.17 939.505,1362.78 1038.89,1362.78C1140.28,1362.78 1235.42,1343.18 1324.32,1303.97C1405.24,1268.29 1476.22,1220.91 1537.28,1161.85C1536.64,1157.54 1536.33,1153.1 1536.33,1148.52C1536.33,1125.05 1544.69,1105.07 1561.42,1088.59C1574.59,1075.62 1589.84,1067.76 1607.18,1064.99C1589.84,1062.23 1574.59,1054.36 1561.42,1041.39C1544.69,1024.91 1536.33,1004.94 1536.33,981.462C1536.33,957.989 1544.69,938.012 1561.42,921.53C1574.59,908.563 1589.84,900.697 1607.18,897.932C1589.84,895.168 1574.59,887.301 1561.42,874.334C1544.69,857.853 1536.33,837.875 1536.33,814.402C1536.33,790.929 1544.69,770.952 1561.42,754.47C1574.59,741.503 1589.84,733.637 1607.18,730.872C1589.84,728.108 1574.59,720.241 1561.42,707.274C1544.69,690.793 1536.33,670.815 1536.33,647.342C1536.33,623.869 1544.69,603.892 1561.42,587.41C1573.11,575.898 1586.44,568.407 1601.42,564.936L1537.13,564.936C1531.11,585.882 1522.47,605.859 1511.23,624.868C1487.01,665.821 1454.42,698.409 1413.47,722.632C1372.51,746.854 1327.07,758.965 1277.12,758.965C1227.18,758.965 1181.73,746.854 1140.78,722.632C1099.82,698.409 1067.11,665.821 1042.64,624.868C1018.17,583.914 1005.93,538.466 1005.93,488.523C1005.93,438.58 1018.04,393.131 1042.26,352.178C1066.49,311.224 1099.2,278.512 1140.4,254.04C1181.61,229.567 1227.18,217.331 1277.12,217.331C1327.07,217.331 1372.51,229.567 1413.47,254.04C1454.42,278.512 1487.01,311.224 1511.23,352.178C1519.49,366.139 1526.34,380.623 1531.78,395.628L1621.73,395.628C1645.2,395.628 1665.18,403.869 1681.66,420.35C1698.14,436.832 1706.38,456.809 1706.38,480.282C1706.38,503.256 1698.14,523.108 1681.66,539.839C1668.68,553.017 1653.53,561.005 1636.21,563.804C1653.53,566.561 1668.68,574.43 1681.66,587.41C1698.14,603.892 1706.38,623.869 1706.38,647.342C1706.38,670.316 1698.14,690.168 1681.66,706.899C1668.68,720.077 1653.53,728.065 1636.21,730.864C1653.53,733.621 1668.68,741.49 1681.66,754.47C1698.14,770.952 1706.38,790.929 1706.38,814.402C1706.38,837.376 1698.14,857.228 1681.66,873.959C1668.68,887.137 1653.53,895.125 1636.21,897.924C1653.53,900.681 1668.68,908.55 1681.66,921.53C1687.08,926.948 1691.61,932.743 1695.24,938.916ZM1621.73,1195.72C1634.72,1195.72 1645.83,1191.1 1655.07,1181.86C1664.31,1172.62 1668.93,1161.51 1668.93,1148.52C1668.93,1135.54 1664.31,1124.42 1655.07,1115.18C1645.83,1105.95 1634.72,1101.33 1621.73,1101.33C1608.74,1101.33 1597.51,1105.95 1588.02,1115.18C1578.53,1124.42 1573.78,1135.54 1573.78,1148.52C1573.78,1161.51 1578.53,1172.62 1588.02,1181.86C1597.51,1191.1 1608.74,1195.72 1621.73,1195.72ZM1621.73,1362.78C1634.72,1362.78 1645.83,1358.16 1655.07,1348.92C1664.31,1339.68 1668.93,1328.57 1668.93,1315.58C1668.93,1302.6 1664.31,1291.49 1655.07,1282.25C1645.83,1273.01 1634.72,1268.39 1621.73,1268.39C1608.74,1268.39 1597.51,1273.01 1588.02,1282.25C1578.53,1291.49 1573.78,1302.6 1573.78,1315.58C1573.78,1328.57 1578.53,1339.68 1588.02,1348.92C1597.51,1358.16 1608.74,1362.78 1621.73,1362.78ZM676.305,627.864C650.334,627.864 628.11,616.502 609.631,593.778C591.152,571.054 581.912,542.711 581.912,508.75C581.912,474.788 591.152,446.321 609.631,423.347C628.11,400.373 650.334,388.886 676.305,388.886C702.275,388.886 724.5,400.373 742.979,423.347C761.458,446.321 770.697,474.788 770.697,508.75C770.697,542.711 761.583,571.054 743.353,593.778C725.124,616.502 702.775,627.864 676.305,627.864ZM1146.77,1082.6C1067.86,1048.14 994.193,1030.91 925.771,1030.91C871.832,1030.91 819.642,1042.14 769.199,1064.62L745.975,1013.68C803.41,987.705 863.342,974.72 925.771,974.72C1003.68,974.72 1084.84,993.698 1169.24,1031.65L1146.77,1082.6ZM529.472,363.415L479.279,348.432C495.261,294.993 514.738,255.788 537.712,230.816C560.686,205.844 589.154,193.359 623.115,193.359C634.602,193.359 646.214,194.357 657.951,196.355C669.687,198.353 681.049,200.85 692.037,203.847C703.524,207.343 715.136,210.214 726.872,212.462C738.609,214.709 750.221,215.833 761.708,215.833L829.88,215.833L829.88,268.273L761.708,268.273C746.225,268.273 731.617,266.9 717.882,264.153C704.148,261.406 691.038,258.285 678.552,254.789C668.564,252.292 658.949,250.169 649.71,248.421C640.47,246.673 631.606,245.799 623.115,245.799C603.138,245.799 585.783,254.789 571.049,272.768C556.316,290.748 542.457,320.963 529.472,363.415ZM1135.53,214.335L1101.82,174.63C1150.77,133.177 1194.09,103.336 1231.8,85.107C1269.51,66.877 1303.34,57.763 1333.31,57.763C1364.27,57.763 1390.99,68.376 1413.47,89.602C1435.94,110.827 1453.42,145.163 1465.91,192.609L1414.96,205.345C1405.48,169.885 1394.11,145.163 1380.88,131.179C1367.64,117.195 1351.79,110.203 1333.31,110.203C1310.83,110.203 1283.36,118.319 1250.9,134.55C1218.44,150.782 1179.98,177.377 1135.53,214.335ZM1277.12,711.02C1318.08,711.02 1355.41,701.031 1389.12,681.054C1422.83,661.077 1449.67,634.232 1469.65,600.52C1489.63,566.809 1499.62,529.476 1499.62,488.523C1499.62,447.569 1489.51,410.237 1469.28,376.525C1449.05,342.814 1422.21,315.969 1388.74,295.992C1355.28,276.015 1318.08,266.026 1277.12,266.026C1236.17,266.026 1198.84,276.015 1165.12,295.992C1131.41,315.969 1104.57,342.689 1084.59,376.151C1064.61,409.613 1054.62,447.07 1054.62,488.523C1054.62,529.476 1064.61,566.809 1084.59,600.52C1104.57,634.232 1131.41,661.077 1165.12,681.054C1198.84,701.031 1236.17,711.02 1277.12,711.02ZM1283.12,618.875C1253.65,618.875 1228.68,606.763 1208.2,582.541C1187.72,558.318 1177.49,528.727 1177.49,493.767C1177.49,458.307 1187.72,428.466 1208.2,404.244C1228.68,380.021 1253.65,367.91 1283.12,367.91C1312.58,367.91 1337.68,380.146 1358.4,404.618C1379.13,429.09 1389.49,458.807 1389.49,493.767C1389.49,528.727 1379.26,558.318 1358.78,582.541C1338.3,606.763 1313.08,618.875 1283.12,618.875ZM1621.73,1028.66C1634.72,1028.66 1645.83,1023.91 1655.07,1014.43C1664.31,1004.94 1668.93,993.948 1668.93,981.462C1668.93,968.477 1664.31,957.365 1655.07,948.125C1645.83,938.886 1634.72,934.266 1621.73,934.266C1608.74,934.266 1597.51,938.886 1588.02,948.125C1578.53,957.365 1573.78,968.477 1573.78,981.462C1573.78,994.447 1578.53,1005.56 1588.02,1014.8C1597.51,1024.04 1608.74,1028.66 1621.73,1028.66ZM1621.73,861.599C1634.72,861.599 1645.83,856.854 1655.07,847.365C1664.31,837.875 1668.93,826.888 1668.93,814.402C1668.93,801.417 1664.31,790.305 1655.07,781.065C1645.83,771.826 1634.72,767.206 1621.73,767.206C1608.74,767.206 1597.51,771.826 1588.02,781.065C1578.53,790.305 1573.78,801.417 1573.78,814.402C1573.78,827.387 1578.53,838.5 1588.02,847.739C1597.51,856.979 1608.74,861.599 1621.73,861.599ZM1621.73,694.539C1634.72,694.539 1645.83,689.794 1655.07,680.305C1664.31,670.815 1668.93,659.828 1668.93,647.342C1668.93,634.357 1664.31,623.245 1655.07,614.005C1645.83,604.766 1634.72,600.146 1621.73,600.146C1608.74,600.146 1597.51,604.766 1588.02,614.005C1578.53,623.245 1573.78,634.357 1573.78,647.342C1573.78,660.327 1578.53,671.44 1588.02,680.679C1597.51,689.919 1608.74,694.539 1621.73,694.539ZM1621.73,527.479C1634.72,527.479 1645.83,522.734 1655.07,513.245C1664.31,503.756 1668.93,492.768 1668.93,480.282C1668.93,467.297 1664.31,456.185 1655.07,446.945C1645.83,437.706 1634.72,433.086 1621.73,433.086C1608.74,433.086 1597.51,437.706 1588.02,446.945C1578.53,456.185 1573.78,467.297 1573.78,480.282C1573.78,493.267 1578.53,504.38 1588.02,513.619C1597.51,522.859 1608.74,527.479 1621.73,527.479Z" style="fill:rgb(128,128,128);"/>
        </g>
    </g>
</svg>
