<?xml version="1.0" encoding="UTF-8" standalone="no"?>
<!DOCTYPE svg PUBLIC "-//W3C//DTD SVG 1.1//EN" "http://www.w3.org/Graphics/SVG/1.1/DTD/svg11.dtd">
<svg width="100%" height="100%" viewBox="0 0 1182 1182" version="1.1" xmlns="http://www.w3.org/2000/svg" xmlns:xlink="http://www.w3.org/1999/xlink" xml:space="preserve" xmlns:serif="http://www.serif.com/" style="fill-rule:evenodd;clip-rule:evenodd;stroke-linejoin:round;stroke-miterlimit:2;">
    <g transform="matrix(0.705288,0,0,0.705288,-147.638,155.02)">
        <path d="M1046.65,1454.84C927.491,1454.84 817.862,1441.42 717.759,1414.59C617.657,1387.75 530.839,1350.04 457.305,1301.47C383.771,1252.89 326.742,1195.46 286.218,1129.17C245.694,1062.88 225.432,990.29 225.432,911.389C225.432,833.025 247.438,767.945 291.451,716.149C335.464,664.353 397.19,625.037 476.628,598.2C472.87,573.51 470.992,549.625 470.992,526.545C470.992,449.254 490.046,384.71 528.155,332.915C566.264,281.119 621.548,244.486 694.008,223.017L694.008,207.719C694.008,132.039 704.609,68.435 725.81,16.907C747.012,-34.62 783.242,-78.901 834.501,-115.936C885.76,-152.972 956.476,-187.592 1046.65,-219.796C1046.65,-160.218 1050.81,-112.85 1059.13,-77.694C1067.45,-42.537 1082.48,-16.236 1104.21,1.208C1125.95,18.652 1156.68,31.399 1196.4,39.451L1237.46,47.502C1331.93,65.751 1400.23,93.93 1442.36,132.039C1484.5,170.147 1505.56,221.943 1505.56,287.426C1505.56,299.234 1504.36,312.653 1501.94,327.681C1499.53,342.71 1496.44,357.202 1492.68,371.158C1545.28,392.091 1585.94,422.282 1614.66,461.733C1643.37,501.184 1659.34,551.235 1662.56,611.887C1726.97,643.018 1777.29,684.615 1813.52,736.679C1849.75,788.743 1867.87,846.98 1867.87,911.389C1867.87,990.29 1847.6,1062.88 1807.08,1129.17C1766.55,1195.46 1709.39,1252.89 1635.59,1301.47C1561.79,1350.04 1474.84,1387.75 1374.73,1414.59C1274.63,1441.42 1165.27,1454.84 1046.65,1454.84ZM817.191,874.354C850.469,874.354 880.661,866.169 907.766,849.798C934.872,833.427 956.61,811.555 972.98,784.181C989.351,756.807 997.536,726.75 997.536,694.008C997.536,660.73 989.351,630.539 972.98,603.433C956.61,576.327 934.872,554.589 907.766,538.219C880.661,521.848 850.469,513.663 817.191,513.663C784.449,513.663 754.392,521.848 727.018,538.219C699.644,554.589 677.772,576.327 661.401,603.433C645.031,630.539 636.845,660.73 636.845,694.008C636.845,726.75 645.031,756.807 661.401,784.181C677.772,811.555 699.644,833.427 727.018,849.798C754.392,866.169 784.449,874.354 817.191,874.354ZM817.191,777.74C794.111,777.74 774.386,769.555 758.015,753.184C741.644,736.814 733.459,717.088 733.459,694.008C733.459,670.928 741.644,651.203 758.015,634.832C774.386,618.462 794.111,610.276 817.191,610.276C840.271,610.276 859.996,618.462 876.367,634.832C892.737,651.203 900.923,670.928 900.923,694.008C900.923,717.088 892.603,736.814 875.964,753.184C859.325,769.555 839.734,777.74 817.191,777.74ZM1276.11,874.354C1309.38,874.354 1339.58,866.169 1366.68,849.798C1393.79,833.427 1415.53,811.555 1431.89,784.181C1448.27,756.807 1456.45,726.75 1456.45,694.008C1456.45,660.73 1448.27,630.539 1431.89,603.433C1415.53,576.327 1393.79,554.589 1366.68,538.219C1339.58,521.848 1309.38,513.663 1276.11,513.663C1243.37,513.663 1213.31,521.848 1185.93,538.219C1158.56,554.589 1136.69,576.327 1120.32,603.433C1103.95,630.539 1095.76,660.73 1095.76,694.008C1095.76,726.75 1103.95,756.807 1120.32,784.181C1136.69,811.555 1158.56,833.427 1185.93,849.798C1213.31,866.169 1243.37,874.354 1276.11,874.354ZM1276.11,777.74C1253.56,777.74 1233.97,769.555 1217.33,753.184C1200.69,736.814 1192.37,717.088 1192.37,694.008C1192.37,670.928 1200.56,651.203 1216.93,634.832C1233.3,618.462 1253.03,610.276 1276.11,610.276C1299.19,610.276 1318.91,618.462 1335.28,634.832C1351.65,651.203 1359.84,670.928 1359.84,694.008C1359.84,717.088 1351.65,736.814 1335.28,753.184C1318.91,769.555 1299.19,777.74 1276.11,777.74ZM1046.65,1247.93C1084.76,1247.93 1122.19,1241.35 1158.96,1228.2C1195.73,1215.05 1228.87,1197.47 1258.39,1175.47C1287.91,1153.46 1311.4,1128.9 1328.84,1101.8C1346.29,1074.69 1355.01,1047.45 1355.01,1020.08C1355.01,1005.59 1351.65,994.048 1344.94,985.46C1338.23,976.872 1327.1,973.651 1311.53,975.798C1256.25,982.776 1209.01,987.875 1169.83,991.095C1130.65,994.316 1089.59,995.926 1046.65,995.926C1004.25,995.926 963.319,994.316 923.868,991.095C884.418,987.875 837.05,982.776 781.766,975.798C766.2,973.651 755.063,976.872 748.354,985.46C741.644,994.048 738.29,1005.59 738.29,1020.08C738.29,1047.45 747.012,1074.69 764.456,1101.8C781.9,1128.9 805.382,1153.46 834.903,1175.47C864.424,1197.47 897.568,1215.05 934.335,1228.2C971.102,1241.35 1008.54,1247.93 1046.65,1247.93Z" style="fill:rgb(128,128,128);"/>
    </g>
</svg>
