<?xml version="1.0" encoding="UTF-8" standalone="no"?>
<!DOCTYPE svg PUBLIC "-//W3C//DTD SVG 1.1//EN" "http://www.w3.org/Graphics/SVG/1.1/DTD/svg11.dtd">
<svg width="100%" height="100%" viewBox="0 0 1182 1182" version="1.1" xmlns="http://www.w3.org/2000/svg" xmlns:xlink="http://www.w3.org/1999/xlink" xml:space="preserve" xmlns:serif="http://www.serif.com/" style="fill-rule:evenodd;clip-rule:evenodd;stroke-linejoin:round;stroke-miterlimit:2;">
    <path d="M590.552,1181.1C255.559,1181.1 11.356,1020.4 11.356,797.812C11.356,687.273 76.469,614.779 188.522,576.923C168.181,443.282 223.264,347.443 341.838,312.311L341.838,301.522C341.838,140.02 402.945,67.001 590.552,0.001C590.552,125.059 610.76,165.53 696.169,182.844C696.169,182.844 825.093,207.849 869.641,248.146C899.362,275.023 914.215,311.554 914.215,357.738C914.215,374.394 910.435,397.107 905.131,416.793C979.328,446.321 1020.4,501.022 1024.95,586.577C1115.8,630.489 1169.75,706.958 1169.75,797.812C1169.75,1021.3 923.586,1181.1 590.552,1181.1ZM428.717,771.691C499.84,771.691 555.912,713.428 555.912,644.496C555.912,574.013 499.094,517.3 428.717,517.3C359.784,517.3 301.521,573.907 301.521,644.496C301.521,714.051 359.578,771.691 428.717,771.691ZM428.717,703.551C396.161,703.551 369.662,677.052 369.662,644.496C369.662,611.939 396.161,585.44 428.717,585.44C461.273,585.44 487.772,611.939 487.772,644.496C487.772,677.052 460.516,703.551 428.717,703.551ZM752.387,771.691C823.493,771.691 879.579,713.428 879.579,644.496C879.579,574.013 822.747,517.3 752.387,517.3C683.458,517.3 625.188,573.907 625.188,644.496C625.188,714.051 683.252,771.691 752.387,771.691ZM752.387,703.551C720.579,703.551 693.326,677.052 693.326,644.496C693.326,611.939 719.831,585.44 752.387,585.44C784.943,585.44 811.441,611.939 811.441,644.496C811.441,677.052 784.943,703.551 752.387,703.551ZM590.552,1035.17C644.309,1035.17 698.249,1015.1 739.889,984.065C815.875,927.41 832.978,835.57 777.368,843.239C614.237,863.831 553.124,862.095 403.732,843.239C348.137,835.57 365.221,927.41 441.209,984.065C482.851,1015.1 536.795,1035.17 590.552,1035.17Z" style="fill:rgb(128,128,128);"/>
</svg>
