<?xml version="1.0" encoding="UTF-8" standalone="no"?>
<!DOCTYPE svg PUBLIC "-//W3C//DTD SVG 1.1//EN" "http://www.w3.org/Graphics/SVG/1.1/DTD/svg11.dtd">
<svg width="100%" height="100%" viewBox="0 0 1182 1182" version="1.1" xmlns="http://www.w3.org/2000/svg" xmlns:xlink="http://www.w3.org/1999/xlink" xml:space="preserve" xmlns:serif="http://www.serif.com/" style="fill-rule:evenodd;clip-rule:evenodd;stroke-linejoin:round;stroke-miterlimit:2;">
    <path d="M326.681,320.038C328.646,262.489 339.813,216.537 361.9,177.867C397.827,114.964 463.793,69.786 577.363,29.226L631.544,9.876L631.544,67.409C631.544,97.9 632.804,122.22 636.748,141.685C639.447,155.009 643.022,165.37 649.772,172.992C659.297,183.747 674.041,188.321 694.088,192.389C698.005,193.163 756.485,204.888 805.994,224.598C831.534,234.766 854.679,247.371 869.655,260.917C904.695,292.605 923.165,335.28 923.165,389.73C923.165,398.603 922.224,409.077 920.584,419.964C977.298,451.506 1011.37,500.548 1020.71,570.291C1105.1,618.554 1153.4,696.213 1153.4,786.236C1153.4,878.206 1113.53,959.996 1042.98,1024.67C944.197,1115.22 782.882,1172.12 590.999,1172.12C397.97,1172.12 236.876,1114.88 138.449,1024.26C68.156,959.546 28.601,877.836 28.601,786.236C28.601,678.693 84.677,603.569 185.146,560.492C181.63,503.768 192.611,454.545 215.804,414.431C239.761,372.994 276.831,340.614 326.681,320.038ZM590.999,1131.58C891.062,1131.58 1112.85,987.596 1112.85,786.236C1112.85,704.377 1064.25,635.478 982.387,595.913C978.295,518.829 941.286,469.543 874.435,442.939C879.214,425.202 882.62,404.737 882.62,389.73C882.62,348.118 869.237,315.204 842.458,290.987C802.32,254.68 686.16,232.151 686.16,232.151C609.207,216.551 590.999,180.087 590.999,67.409C421.966,127.776 366.908,193.567 366.908,339.079L366.908,348.801C260.074,380.454 210.444,466.805 228.771,587.216C127.812,621.323 69.146,686.641 69.146,786.236C69.146,986.79 289.171,1131.58 590.999,1131.58ZM590.999,1000.1C542.564,1000.1 493.961,982.01 456.442,954.049C387.977,903.004 372.584,820.256 422.675,827.165C557.277,844.155 612.34,845.719 759.321,827.165C809.425,820.256 794.015,903.004 725.552,954.049C688.035,982.01 639.434,1000.1 590.999,1000.1ZM445.187,762.701C382.892,762.701 330.583,710.768 330.583,648.098C330.583,584.498 383.078,533.495 445.187,533.495C508.596,533.495 559.789,584.594 559.789,648.098C559.789,710.206 509.268,762.701 445.187,762.701ZM445.187,701.307C473.837,701.307 498.395,677.431 498.395,648.098C498.395,618.765 474.52,594.889 445.187,594.889C415.854,594.889 391.978,618.765 391.978,648.098C391.978,677.431 415.854,701.307 445.187,701.307ZM736.813,762.701C674.522,762.701 622.207,710.768 622.207,648.098C622.207,584.498 674.708,533.495 736.813,533.495C800.207,533.495 851.412,584.594 851.412,648.098C851.412,710.206 800.879,762.701 736.813,762.701ZM736.813,701.307C766.146,701.307 790.02,677.431 790.02,648.098C790.02,618.765 766.146,594.889 736.813,594.889C707.48,594.889 683.599,618.765 683.599,648.098C683.599,677.431 708.153,701.307 736.813,701.307Z" style="fill:rgb(128,128,128);"/>
</svg>
