<?xml version="1.0" encoding="UTF-8" standalone="no"?>
<!DOCTYPE svg PUBLIC "-//W3C//DTD SVG 1.1//EN" "http://www.w3.org/Graphics/SVG/1.1/DTD/svg11.dtd">
<svg width="100%" height="100%" viewBox="0 0 284 284" version="1.1" xmlns="http://www.w3.org/2000/svg" xmlns:xlink="http://www.w3.org/1999/xlink" xml:space="preserve" xmlns:serif="http://www.serif.com/" style="fill-rule:evenodd;clip-rule:evenodd;stroke-linejoin:round;stroke-miterlimit:2;">
    <path d="M141.732,283.464C63.236,283.464 0,219.957 0,141.732C0,63.234 63.51,0 141.732,0C219.868,0 283.465,63.508 283.465,141.732C283.465,220.231 219.595,283.464 141.732,283.464ZM105.754,220.094L105.754,209.192L177.711,209.192L177.711,220.094L105.754,220.094ZM92.399,156.996C82.95,156.996 75.363,147.683 75.363,135.327C75.363,122.971 82.95,113.658 92.399,113.658C101.666,113.658 109.434,122.971 109.434,135.327C109.434,147.683 101.847,156.996 92.399,156.996ZM58.601,104.255L50.152,97.441C59.146,86.084 68.731,80.406 78.907,80.406C88.174,80.406 95.987,84.608 102.892,87.969C110.398,91.623 117.286,91.865 124.016,84.63L131.92,91.99C121.983,102.873 109.088,102.836 100.303,98.872C92.853,95.51 86.357,91.308 78.907,91.308C72.275,91.308 65.506,95.624 58.601,104.255ZM141.732,272.562C214.054,272.562 272.561,213.8 272.561,141.732C272.561,69.412 213.802,10.902 141.732,10.902C69.414,10.902 10.903,69.665 10.903,141.732C10.903,214.052 69.666,272.562 141.732,272.562ZM191.475,154.543C181.844,154.543 174.44,143.186 174.44,128.649C174.44,114.113 181.844,102.756 191.475,102.756C201.105,102.756 208.511,114.113 208.511,128.649C208.511,143.186 201.105,154.543 191.475,154.543ZM168.171,79.316L161.084,71.139C179.254,55.512 192.564,48.107 203.468,48.107C215.824,48.107 224.092,56.466 228.271,73.183L217.641,75.908C214.914,64.643 210.19,59.01 203.468,59.01C195.653,59.01 184.344,65.324 168.171,79.316Z" style="fill:rgb(128,128,128);fill-rule:nonzero;"/>
</svg>
