<?xml version="1.0" encoding="UTF-8" standalone="no"?>
<!DOCTYPE svg PUBLIC "-//W3C//DTD SVG 1.1//EN" "http://www.w3.org/Graphics/SVG/1.1/DTD/svg11.dtd">
<svg width="100%" height="100%" viewBox="0 0 284 284" version="1.1" xmlns="http://www.w3.org/2000/svg" xmlns:xlink="http://www.w3.org/1999/xlink" xml:space="preserve" xmlns:serif="http://www.serif.com/" style="fill-rule:evenodd;clip-rule:evenodd;stroke-linejoin:round;stroke-miterlimit:2;">
    <path d="M142,284C63.78,284 0.001,220.494 0.001,141.999C0.001,63.779 63.507,0 142,0C220.223,0 283.999,63.506 283.999,141.999C283.999,220.22 220.497,284 142,284ZM102.95,227.052L181.051,227.052L181.051,215.219L102.95,215.219L102.95,227.052ZM88.455,158.567C98.71,158.567 106.944,148.459 106.944,135.047C106.944,121.636 98.513,111.529 88.455,111.529C78.199,111.529 69.966,121.636 69.966,135.047C69.966,148.459 78.199,158.567 88.455,158.567ZM195.989,155.903C206.442,155.903 214.481,143.577 214.481,127.799C214.481,112.022 206.442,99.696 195.989,99.696C185.537,99.696 177.501,112.022 177.501,127.799C177.501,143.577 185.537,155.903 195.989,155.903ZM170.697,74.254C188.249,59.068 200.526,52.215 209.008,52.215C216.303,52.215 221.43,58.328 224.391,70.556L235.927,67.598C231.392,49.453 222.418,40.382 209.008,40.382C197.172,40.382 182.725,48.418 163.005,65.379L170.697,74.254ZM51.772,101.323C59.266,91.955 66.612,87.271 73.81,87.271C81.897,87.271 88.948,91.832 97.033,95.48C106.57,99.783 120.564,99.823 131.351,88.01L122.771,80.023C115.467,87.875 107.991,87.613 99.844,83.647C92.35,79.997 83.87,75.438 73.81,75.438C62.766,75.438 52.363,81.601 42.6,93.927L51.772,101.323Z" style="fill:rgb(128,128,128);"/>
</svg>
