<?xml version="1.0" encoding="UTF-8" standalone="no"?>
<!DOCTYPE svg PUBLIC "-//W3C//DTD SVG 1.1//EN" "http://www.w3.org/Graphics/SVG/1.1/DTD/svg11.dtd">
<svg width="100%" height="100%" viewBox="0 0 284 284" version="1.1" xmlns="http://www.w3.org/2000/svg" xmlns:xlink="http://www.w3.org/1999/xlink" xml:space="preserve" xmlns:serif="http://www.serif.com/" style="fill-rule:evenodd;clip-rule:evenodd;stroke-linejoin:round;stroke-miterlimit:2;">
    <path d="M141.732,283.464C63.236,283.464 -0,219.957 -0,141.732C-0,63.234 63.51,-0 141.732,-0C219.868,-0 283.465,63.508 283.465,141.732C283.465,220.231 219.595,283.464 141.732,283.464ZM141.732,274.124C214.464,274.124 274.124,215.057 274.124,141.732C274.124,68.664 214.718,9.341 141.732,9.341C68.665,9.341 9.341,68.408 9.341,141.732C9.341,214.801 68.409,274.124 141.732,274.124ZM141.732,263.94C74.415,263.94 19.525,209.286 19.525,141.732C19.525,74.414 74.18,19.525 141.732,19.525C209.052,19.525 263.939,74.179 263.939,141.732C263.939,209.05 209.288,263.94 141.732,263.94ZM108.125,214.93L175.34,214.93L175.34,204.746L108.125,204.746L108.125,214.93ZM95.65,155.99C104.476,155.99 111.562,147.291 111.562,135.749C111.562,124.207 104.306,115.509 95.65,115.509C86.824,115.509 79.738,124.207 79.738,135.749C79.738,147.291 86.824,155.99 95.65,155.99ZM188.196,153.698C197.192,153.698 204.11,143.09 204.11,129.511C204.11,115.933 197.192,105.325 188.196,105.325C179.201,105.325 172.285,115.933 172.285,129.511C172.285,143.09 179.201,153.698 188.196,153.698ZM166.429,83.429C181.535,70.36 192.1,64.462 199.4,64.462C205.678,64.462 210.091,69.723 212.639,80.247L222.567,77.701C218.664,62.085 210.941,54.278 199.4,54.278C189.214,54.278 176.781,61.194 159.809,75.791L166.429,83.429ZM64.08,106.725C70.53,98.663 76.852,94.632 83.047,94.632C90.006,94.632 96.075,98.557 103.033,101.697C111.24,105.4 123.284,105.434 132.567,95.268L125.183,88.394C118.897,95.152 112.463,94.926 105.452,91.513C99.002,88.372 91.704,84.448 83.047,84.448C73.542,84.448 64.589,89.752 56.187,100.36L64.08,106.725Z" style="fill:rgb(128,128,128);"/>
</svg>
