<?xml version="1.0" encoding="UTF-8" standalone="no"?>
<!DOCTYPE svg PUBLIC "-//W3C//DTD SVG 1.1//EN" "http://www.w3.org/Graphics/SVG/1.1/DTD/svg11.dtd">
<svg width="100%" height="100%" viewBox="0 0 284 284" version="1.1" xmlns="http://www.w3.org/2000/svg" xmlns:xlink="http://www.w3.org/1999/xlink" xml:space="preserve" xmlns:serif="http://www.serif.com/" style="fill-rule:evenodd;clip-rule:evenodd;stroke-linejoin:round;stroke-miterlimit:2;">
    <g transform="matrix(0.24,0,0,0.24,0,0)">
        <g transform="matrix(0.757978,0,0,0.757978,-196.906,102.719)">
            <path d="M1038.89,1422.71C931.015,1422.71 830.005,1402.61 735.862,1362.4C641.719,1322.2 558.938,1266.39 487.519,1194.97C416.101,1123.55 360.289,1040.77 320.085,946.627C279.881,852.484 259.778,751.474 259.778,643.596C259.778,535.719 279.881,434.709 320.085,340.566C360.289,246.423 416.101,163.642 487.519,92.224C558.938,20.805 641.719,-35.007 735.862,-75.211C830.005,-115.415 931.015,-135.517 1038.89,-135.517C1146.27,-135.517 1247.03,-115.415 1341.17,-75.211C1435.32,-35.007 1518.1,20.805 1589.52,92.224C1660.93,163.642 1716.87,246.423 1757.33,340.566C1797.78,434.709 1818.01,535.719 1818.01,643.596C1818.01,751.474 1797.78,852.484 1757.33,946.627C1716.87,1040.77 1660.93,1123.55 1589.52,1194.97C1518.1,1266.39 1435.32,1322.2 1341.17,1362.4C1247.03,1402.61 1146.27,1422.71 1038.89,1422.71ZM841.117,1074.36L841.117,1014.43L1236.67,1014.43L1236.67,1074.36L841.117,1074.36ZM767.701,727.501C741.73,727.501 719.63,716.139 701.401,693.415C683.172,670.691 674.057,642.348 674.057,608.387C674.057,574.425 683.172,546.082 701.401,523.358C719.63,500.634 741.73,489.272 767.701,489.272C793.172,489.272 815.147,500.634 833.626,523.358C852.105,546.082 861.344,574.425 861.344,608.387C861.344,642.348 852.23,670.691 834,693.415C815.771,716.139 793.671,727.501 767.701,727.501ZM581.912,437.581L535.465,400.123C584.909,337.694 637.599,306.48 693.535,306.48C719.006,306.48 742.604,311.1 764.33,320.339C786.055,329.579 806.407,338.818 825.385,348.058C844.364,357.297 862.843,361.917 880.822,361.917C901.299,361.917 921.526,351.179 941.503,329.703L984.954,370.157C953.489,404.618 918.779,421.849 880.822,421.849C854.852,421.849 831.628,417.229 811.151,407.989C790.675,398.75 771.072,389.51 752.343,380.271C733.615,371.031 714.012,366.412 693.535,366.412C657.077,366.412 619.869,390.135 581.912,437.581ZM1038.89,1362.78C1138.28,1362.78 1231.42,1344.17 1318.32,1306.97C1405.23,1269.76 1481.64,1218.19 1547.56,1152.27C1613.49,1086.34 1665.06,1009.93 1702.26,923.029C1739.47,836.127 1758.07,742.983 1758.07,643.596C1758.07,544.209 1739.47,451.065 1702.26,364.164C1665.06,277.263 1613.49,200.85 1547.56,134.925C1481.64,69 1405.23,17.434 1318.32,-19.774C1231.42,-56.982 1138.28,-75.586 1038.89,-75.586C939.505,-75.586 846.361,-56.982 759.46,-19.774C672.559,17.434 596.146,69 530.221,134.925C464.296,200.85 412.729,277.263 375.522,364.164C338.314,451.065 319.71,544.209 319.71,643.596C319.71,742.983 338.314,836.127 375.522,923.029C412.729,1009.93 464.296,1086.34 530.221,1152.27C596.146,1218.19 672.559,1269.76 759.46,1306.97C846.361,1344.17 939.505,1362.78 1038.89,1362.78ZM1312.33,714.016C1285.86,714.016 1263.64,700.282 1245.66,672.813C1227.68,645.344 1218.69,611.633 1218.69,571.678C1218.69,531.724 1227.68,498.012 1245.66,470.543C1263.64,443.075 1285.86,429.34 1312.33,429.34C1338.8,429.34 1361.03,443.075 1379.01,470.543C1396.99,498.012 1405.98,531.724 1405.98,571.678C1405.98,611.633 1396.99,645.344 1379.01,672.813C1361.03,700.282 1338.8,714.016 1312.33,714.016ZM1184.23,300.487L1145.27,255.538C1195.21,212.587 1239.04,180.748 1276.75,160.021C1314.45,139.295 1348.29,128.932 1378.26,128.932C1446.18,128.932 1491.63,174.88 1514.6,266.775L1456.17,281.758C1441.18,219.828 1415.21,188.864 1378.26,188.864C1356.78,188.864 1330.19,197.853 1298.47,215.833C1266.76,233.813 1228.68,262.03 1184.23,300.487Z" style="fill:rgb(128,128,128);fill-rule:nonzero;"/>
        </g>
    </g>
</svg>
