<?xml version="1.0" encoding="UTF-8" standalone="no"?>
<!DOCTYPE svg PUBLIC "-//W3C//DTD SVG 1.1//EN" "http://www.w3.org/Graphics/SVG/1.1/DTD/svg11.dtd">
<svg width="100%" height="100%" viewBox="0 0 284 284" version="1.1" xmlns="http://www.w3.org/2000/svg" xmlns:xlink="http://www.w3.org/1999/xlink" xml:space="preserve" xmlns:serif="http://www.serif.com/" style="fill-rule:evenodd;clip-rule:evenodd;stroke-linejoin:round;stroke-miterlimit:2;">
    <path d="M169.374,225.296C177.741,197.088 194.931,180.534 222.368,172.303C217.49,183.429 209.68,194.456 200.702,203.63C191.92,212.609 180.696,220.223 169.374,225.296ZM252.525,105.109C243.743,105.109 232.275,100.376 214.903,89.445C198.662,79.22 193.718,76.547 186.208,73.489C204.753,58.459 223.93,49.773 240.521,49.773C261.298,49.773 278.29,63.37 278.29,79.783C278.29,95.203 267.552,105.109 252.525,105.109ZM109.793,225.443L104.084,215.195C123.603,202.377 147.104,183.009 163.667,166.447C180.61,149.499 200.651,124.074 213.877,104.085L223.978,110.086C209.927,132.924 189.43,157.225 171.864,174.792C154.882,191.772 131.849,211.389 109.793,225.443ZM79.637,279.755C63.298,279.755 49.187,262.631 49.187,241.106C49.187,224.321 58.069,205.045 72.902,186.502C76.031,194.326 78.73,199.904 88.859,215.489C94.422,224.077 98.448,231.322 100.936,237.228C111.734,262.84 95.863,279.755 79.637,279.755ZM279.363,106.383C282.128,116.906 284,128.948 284,142.293C284,223.768 222.384,282.536 141.705,282.536C130.068,282.536 119.102,281.225 106.925,278.299C114.994,269.029 118.206,257.383 115.246,243.718C135.61,246.021 159.475,240.278 181.231,228.151C199.971,217.708 214.926,202.777 225.368,183.941C238.39,160.455 243.531,134.155 240.544,115.016C257.168,119.407 269.873,115.967 279.363,106.383ZM237.692,38.19C216.936,39.467 193.456,50.354 172.682,70.2L144.635,83.882L161.617,39.673L151.222,35.573L129.263,93.398L135.998,100.278L174.4,81.476C185.759,86.632 194.237,91.369 206.964,99.156C192.476,121.525 176.08,142.613 157.956,160.737C139.912,178.783 118.994,194.878 98.865,208.024C94.07,200.097 86.631,186.608 80.688,175.423L99.692,136.583L92.812,129.849L35.866,151.369L39.965,161.762L83.296,145.22L70.245,172.004C49.606,196.136 38.596,219.573 37.557,239.35C26.356,227.459 17.448,213.626 10.832,197.848C3.611,180.623 0,162.055 0,142.146C0,65.453 63.957,1.464 141.559,1.464C178.716,1.464 211.846,14.706 237.692,38.19Z" style="fill:rgb(128,128,128);"/>
</svg>
