<?xml version="1.0" encoding="UTF-8" standalone="no"?>
<!DOCTYPE svg PUBLIC "-//W3C//DTD SVG 1.1//EN" "http://www.w3.org/Graphics/SVG/1.1/DTD/svg11.dtd">
<svg width="100%" height="100%" viewBox="0 0 284 284" version="1.1" xmlns="http://www.w3.org/2000/svg" xmlns:xlink="http://www.w3.org/1999/xlink" xml:space="preserve" xmlns:serif="http://www.serif.com/" style="fill-rule:evenodd;clip-rule:evenodd;stroke-linejoin:round;stroke-miterlimit:2;">
    <path d="M46.65,247.743C32.58,235.548 21.368,220.782 13.014,203.449C3.982,184.706 -0.535,164.224 -0.535,142.003C-0.535,64.321 63.448,0.82 141.461,0.82C183.66,0.82 220.603,18.385 247.28,47.186C265.449,51.983 278.715,66.431 278.715,83.47C278.715,88.289 277.988,92.708 276.532,96.727C281.254,110.825 284,126.169 284,142.003C284,222.9 222.37,282.644 141.461,282.644C126.827,282.644 113.118,280.708 98.213,276.539C93.597,278.893 88.638,280.071 83.335,280.071C65.498,280.071 51.096,264.524 46.65,247.743ZM230.3,45.651C206.379,23.916 175.715,11.659 141.325,11.659C69.501,11.659 10.305,70.884 10.305,141.868C10.305,160.295 13.647,177.48 20.331,193.423C26.454,208.026 34.699,220.829 45.066,231.835C46.027,213.531 56.218,191.837 75.32,169.502L87.4,144.713L47.294,160.024L43.5,150.404L96.207,130.486L102.575,136.719L84.986,172.667C90.487,183.02 97.372,195.504 101.81,202.84C120.44,190.674 139.8,175.778 156.501,159.075C173.275,142.3 188.452,122.781 201.86,102.078C190.081,94.871 182.235,90.486 171.721,85.714L136.178,103.117L129.944,96.749L150.269,43.229L159.889,47.023L144.172,87.942L170.131,75.278C189.358,56.91 211.09,46.833 230.3,45.651ZM268.869,108.767C260.085,117.638 248.327,120.821 232.941,116.757C235.705,134.472 230.946,158.813 218.895,180.551C209.23,197.984 195.388,211.804 178.044,221.47C157.908,232.693 135.819,238.009 116.971,235.877C119.711,248.526 116.738,259.305 109.269,267.884C120.54,270.593 130.689,271.805 141.461,271.805C216.132,271.805 273.161,217.413 273.161,142.003C273.161,129.652 271.428,118.507 268.869,108.767ZM111.924,218.963C132.338,205.955 153.656,187.8 169.373,172.083C185.633,155.823 204.603,133.332 217.607,112.195L208.259,106.64C196.018,125.141 177.468,148.674 161.786,164.359C146.457,179.688 124.705,197.614 106.64,209.478L111.924,218.963ZM167.069,218.827C177.548,214.132 187.937,207.085 196.065,198.775C204.374,190.284 211.603,180.077 216.117,169.779C190.724,177.397 174.813,192.72 167.069,218.827ZM244.029,107.588C257.938,107.588 267.876,98.42 267.876,84.148C267.876,68.957 252.15,56.372 232.919,56.372C217.564,56.372 199.814,64.411 182.65,78.322C189.601,81.153 194.176,83.626 209.208,93.09C225.287,103.207 235.901,107.588 244.029,107.588ZM84.012,269.232C99.031,269.232 113.72,253.576 103.727,229.871C101.423,224.405 97.697,217.699 92.549,209.75C83.173,195.326 80.676,190.163 77.78,182.922C64.05,200.084 55.83,217.925 55.83,233.461C55.83,253.383 68.89,269.232 84.012,269.232Z" style="fill:rgb(128,128,128);"/>
</svg>
