<?xml version="1.0" encoding="UTF-8" standalone="no"?>
<!DOCTYPE svg PUBLIC "-//W3C//DTD SVG 1.1//EN" "http://www.w3.org/Graphics/SVG/1.1/DTD/svg11.dtd">
<svg width="100%" height="100%" viewBox="0 0 284 284" version="1.1" xmlns="http://www.w3.org/2000/svg" xmlns:xlink="http://www.w3.org/1999/xlink" xml:space="preserve" xmlns:serif="http://www.serif.com/" style="fill-rule:evenodd;clip-rule:evenodd;stroke-linejoin:round;stroke-miterlimit:2;">
    <g transform="matrix(0.24,0,0,0.24,0,0)">
        <g transform="matrix(0.757978,0,0,0.757978,-196.906,102.719)">
            <path d="M513.175,1229.74C435.38,1162.31 373.389,1080.67 327.202,984.833C277.259,881.201 252.287,767.955 252.287,645.095C252.287,537.717 272.639,436.956 313.343,342.814C354.046,248.671 410.357,165.765 482.275,94.096C554.194,22.428 637.599,-33.758 732.491,-74.462C827.383,-115.166 929.017,-135.517 1037.39,-135.517C1161.75,-135.517 1276.62,-109.672 1382,-57.981C1473.44,-13.13 1553.59,46.477 1622.47,120.843C1639.85,125.432 1656.58,131.749 1672.67,139.794C1710.13,158.523 1740.1,183.744 1762.57,215.458C1785.04,247.172 1796.28,282.507 1796.28,321.463C1796.28,348.105 1792.26,372.539 1784.21,394.762C1794.68,426.019 1803.32,458.271 1810.14,491.519C1820.38,541.463 1825.5,592.654 1825.5,645.095C1825.5,756.468 1805.77,859.476 1766.32,954.118C1726.86,1048.76 1671.55,1131.17 1600.38,1201.34C1529.21,1271.51 1445.68,1325.94 1349.79,1364.65C1253.9,1403.36 1149.77,1422.71 1037.39,1422.71C990.947,1422.71 945.499,1419.09 901.049,1411.85C867.636,1406.4 833.377,1398.77 798.271,1388.95C772.749,1401.97 745.328,1408.48 716.01,1408.48C677.054,1408.48 641.594,1396.87 609.631,1373.64C577.667,1350.42 552.071,1319.7 532.843,1281.5C524.459,1264.84 517.904,1247.59 513.175,1229.74ZM1528.59,112.358C1468.94,58.159 1402.35,15.114 1328.81,-16.777C1238.41,-55.983 1141.03,-75.586 1036.64,-75.586C937.757,-75.586 844.613,-56.857 757.213,-19.399C669.812,18.058 592.775,69.749 526.101,135.674C459.426,201.599 407.111,278.137 369.154,365.288C331.197,452.439 312.219,545.458 312.219,644.346C312.219,746.23 330.698,841.247 367.656,929.396C401.509,1010.14 447.097,1080.93 504.417,1141.78C507.154,1089.66 523.372,1033.23 553.07,972.472C580.93,915.477 620.471,857.033 671.696,797.139L738.484,660.078L516.736,744.731L495.76,691.542L787.179,581.417L822.389,615.878L725.136,814.638C728.786,821.507 732.611,828.67 736.611,836.127C751.344,863.596 766.327,890.94 781.56,918.159C795.551,943.159 807.751,964.262 818.161,981.468C866.573,949.851 915.178,915.139 963.978,877.331C1019.41,834.379 1071.61,788.432 1120.55,739.487C1153.01,707.024 1184.35,672.938 1214.57,637.229C1244.78,601.519 1274,564.187 1302.22,525.231C1326.06,492.316 1349.1,458.687 1371.34,424.346C1328.88,398.365 1292.61,377.555 1262.51,361.917C1244.2,352.4 1224.93,343.05 1204.7,333.867L1008.18,430.089L973.716,394.879L1086.09,98.966L1139.28,119.942L1052.38,346.185L1195.91,276.167C1246.62,227.723 1299.4,189.882 1354.28,162.643C1414.94,132.538 1473.04,115.776 1528.59,112.358ZM1741.84,461.329C1706.58,496.938 1662.05,514.743 1608.25,514.743C1588.18,514.743 1566.5,511.665 1543.19,505.509C1546.11,524.224 1547.56,544.033 1547.56,564.936C1547.56,610.884 1540.57,659.204 1526.59,709.896C1512.6,760.588 1492.25,810.032 1465.53,858.227C1438.81,906.423 1406.47,949.499 1368.52,987.455C1330.56,1025.41 1287.61,1057.75 1239.66,1084.47C1191.72,1111.19 1142.4,1131.54 1091.71,1145.53C1041.02,1159.51 992.445,1166.5 945.998,1166.5C934.012,1166.5 922.275,1166 910.788,1165C907.837,1164.75 904.902,1164.46 901.984,1164.13C905.855,1182 907.791,1199.02 907.791,1215.2C907.791,1249.16 899.051,1280.87 881.571,1310.34C875.008,1321.4 867.617,1331.66 859.399,1341.1C883.578,1346.91 907.075,1351.51 929.891,1354.91C965.101,1360.16 1000.94,1362.78 1037.39,1362.78C1139.78,1362.78 1235.04,1345.3 1323.19,1310.34C1411.34,1275.38 1488.51,1225.81 1554.68,1161.63C1620.86,1097.45 1672.55,1021.54 1709.75,933.891C1746.96,846.241 1765.57,749.975 1765.57,645.095C1765.57,603.642 1762.44,564.686 1756.2,528.228C1752.19,504.793 1747.4,482.493 1741.84,461.329ZM874.08,1070.61C930.516,1034.65 986.702,993.324 1042.64,946.627C1098.57,899.93 1148.27,854.856 1191.72,811.406C1236.67,766.457 1283.36,714.641 1331.81,655.957C1380.25,597.274 1422.46,538.716 1458.41,480.282L1406.72,449.567C1384.25,483.529 1358.53,519.612 1329.56,557.819C1300.6,596.026 1270.63,633.483 1239.66,670.191C1208.7,706.899 1178.73,739.737 1149.77,768.704C1121.8,796.672 1090.58,825.639 1056.12,855.605C1021.66,885.571 986.202,914.663 949.744,942.881C913.285,971.099 878.325,996.195 844.863,1018.17L874.08,1070.61ZM1178.98,1069.86C1207.95,1056.88 1236.29,1040.89 1264.01,1021.92C1291.73,1002.94 1316.83,981.962 1339.3,958.988C1362.27,935.514 1383.38,910.043 1402.6,882.575C1421.83,855.106 1437.69,827.138 1450.17,798.67C1415.21,809.158 1383.25,822.643 1354.28,839.124C1325.32,855.605 1299.6,874.833 1277.12,896.808C1233.17,939.76 1200.46,997.444 1178.98,1069.86ZM1604.5,454.811C1642.95,454.811 1674.54,443.075 1699.27,419.601C1723.99,396.128 1736.35,364.664 1736.35,325.209C1736.35,297.24 1727.61,271.645 1710.13,248.421C1692.65,225.197 1669.3,206.594 1640.08,192.609C1610.87,178.625 1578.53,171.633 1543.07,171.633C1500.62,171.633 1455.54,182.246 1407.85,203.472C1360.15,224.698 1312.58,254.539 1265.13,292.995C1278.62,298.489 1291.36,304.357 1303.34,310.6C1315.33,316.843 1329.69,324.834 1346.42,334.573C1363.15,344.312 1385,357.672 1411.97,374.652C1456.42,402.621 1494,422.972 1524.71,435.708C1555.43,448.443 1582.03,454.811 1604.5,454.811ZM719.755,1348.55C754.216,1348.55 784.182,1334.81 809.653,1307.34C835.124,1279.87 847.86,1247.91 847.86,1211.45C847.86,1187.98 841.492,1161.13 828.756,1130.92C816.021,1100.7 795.419,1063.62 766.952,1019.67C740.981,979.714 722.877,949.998 712.638,930.52C702.4,911.042 693.285,891.315 685.294,871.337C647.338,918.783 617.621,966.479 596.146,1014.43C574.67,1062.37 563.933,1107.82 563.933,1150.77C563.933,1187.23 571.049,1220.44 585.283,1250.41C599.517,1280.37 618.495,1304.22 642.218,1321.95C665.941,1339.68 691.787,1348.55 719.755,1348.55Z" style="fill:rgb(128,128,128);"/>
        </g>
    </g>
</svg>
