<?xml version="1.0" encoding="UTF-8" standalone="no"?>
<!DOCTYPE svg PUBLIC "-//W3C//DTD SVG 1.1//EN" "http://www.w3.org/Graphics/SVG/1.1/DTD/svg11.dtd">
<svg width="100%" height="100%" viewBox="0 0 284 284" version="1.1" xmlns="http://www.w3.org/2000/svg" xmlns:xlink="http://www.w3.org/1999/xlink" xml:space="preserve" xmlns:serif="http://www.serif.com/" style="fill-rule:evenodd;clip-rule:evenodd;stroke-linejoin:round;stroke-miterlimit:2;">
    <path d="M45.068,245.617L45.067,245.615C31.98,233.799 21.463,219.672 13.535,203.22C4.532,184.539 -0,164.132 -0,141.985C0,64.57 63.736,1.261 141.479,1.261C182.544,1.261 218.613,17.966 245.014,45.501C264.803,51.796 278.546,68.457 278.546,87.501C278.546,91.885 278.012,95.982 276.974,99.797C281.098,113.031 283.465,127.296 283.465,141.985C283.465,222.602 222.11,282.203 141.479,282.203C128.092,282.203 115.486,280.572 102.005,277.063C97.394,278.889 92.518,279.808 87.375,279.808C67.644,279.808 51.081,263.959 45.068,245.617ZM53.228,240.409C57.366,256.028 70.772,270.5 87.375,270.5C92.311,270.5 96.927,269.404 101.224,267.212C115.097,271.093 127.858,272.895 141.479,272.895C216.791,272.895 274.157,217.284 274.157,141.985C274.157,127.246 271.601,112.964 267.206,99.841C268.561,96.1 269.238,91.987 269.238,87.501C269.238,71.641 256.89,58.193 239.977,53.727C215.147,26.919 180.759,10.569 141.479,10.569C68.865,10.569 9.308,69.677 9.308,141.985C9.308,162.668 13.512,181.733 21.92,199.179C29.696,215.313 40.132,229.057 53.228,240.409ZM165.316,213.493C172.524,189.192 187.334,174.93 210.971,167.839C206.769,177.424 200.04,186.924 192.306,194.828C184.74,202.563 175.07,209.123 165.316,213.493ZM236.952,109.95C229.386,109.95 219.506,105.873 204.54,96.456C190.548,87.647 186.289,85.344 179.819,82.709C195.796,69.761 212.317,62.278 226.61,62.278C244.51,62.278 259.149,73.992 259.149,88.132C259.149,101.416 249.898,109.95 236.952,109.95ZM113.986,213.62L109.068,204.791C125.884,193.748 146.13,177.062 160.399,162.794C174.996,148.193 192.262,126.289 203.656,109.068L212.358,114.238C200.253,133.913 182.595,154.849 167.461,169.983C152.831,184.612 132.988,201.512 113.986,213.62ZM88.006,260.41C73.93,260.41 61.773,245.658 61.773,227.114C61.773,212.653 69.425,196.047 82.204,180.072C84.9,186.812 87.225,191.618 95.951,205.044C100.744,212.443 104.212,218.685 106.356,223.773C115.658,245.838 101.985,260.41 88.006,260.41ZM260.073,111.048C262.455,120.114 264.068,130.488 264.068,141.985C264.068,212.177 210.985,262.806 141.479,262.806C131.453,262.806 122.006,261.677 111.515,259.156C118.467,251.17 121.234,241.137 118.684,229.364C136.228,231.348 156.788,226.4 175.531,215.953C191.676,206.956 204.56,194.093 213.556,177.865C224.774,157.632 229.203,134.974 226.63,118.485C240.952,122.268 251.897,119.305 260.073,111.048ZM224.173,52.299C206.291,53.399 186.063,62.778 168.166,79.876L144.003,91.663L158.633,53.576L149.678,50.044L130.76,99.861L136.562,105.788L169.646,89.59C179.432,94.032 186.736,98.113 197.7,104.822C185.219,124.093 171.093,142.261 155.479,157.875C139.934,173.422 121.913,187.288 104.572,198.613C100.441,191.784 94.032,180.163 88.912,170.527L105.284,137.066L99.357,131.264L50.297,149.804L53.828,158.758L91.159,144.507L79.915,167.581C62.134,188.371 52.649,208.563 51.754,225.601C42.104,215.357 34.43,203.439 28.73,189.846C22.509,175.007 19.398,159.01 19.398,141.858C19.398,75.786 74.498,20.659 141.353,20.659C173.364,20.659 201.906,32.067 224.173,52.299Z" style="fill:rgb(128,128,128);"/>
</svg>
