<?xml version="1.0" encoding="UTF-8" standalone="no"?>
<!DOCTYPE svg PUBLIC "-//W3C//DTD SVG 1.1//EN" "http://www.w3.org/Graphics/SVG/1.1/DTD/svg11.dtd">
<svg width="100%" height="100%" viewBox="0 0 284 284" version="1.1" xmlns="http://www.w3.org/2000/svg" xmlns:xlink="http://www.w3.org/1999/xlink" xml:space="preserve" xmlns:serif="http://www.serif.com/" style="fill-rule:evenodd;clip-rule:evenodd;stroke-linejoin:round;stroke-miterlimit:2;">
    <path d="M141.732,283.464C63.236,283.464 0,219.957 0,141.732C0,63.234 63.51,0 141.732,0C219.868,0 283.465,63.508 283.465,141.732C283.465,220.231 219.595,283.464 141.732,283.464ZM141.732,272.562C214.054,272.562 272.561,213.8 272.561,141.732C272.561,69.412 213.802,10.902 141.732,10.902C69.414,10.902 10.903,69.665 10.903,141.732C10.903,214.052 69.666,272.562 141.732,272.562ZM107.798,228.543L107.798,217.64L175.666,217.64L175.666,228.543L107.798,228.543ZM87.356,165.99C64.984,165.99 46.472,147.445 46.472,125.106C46.472,102.324 64.812,84.358 87.356,84.358C110.002,84.358 128.104,102.495 128.104,125.106C128.104,147.683 110.002,165.99 87.356,165.99ZM70.159,100.61C62.403,106.021 57.374,114.805 57.374,125.106C57.374,141.525 71.035,155.088 87.356,155.088C104.151,155.088 117.202,141.65 117.202,125.106C117.202,115.085 112.276,106.251 104.731,100.834C104.959,101.977 105.073,103.163 105.073,104.391C105.073,114.022 96.987,121.971 87.356,121.971C77.726,121.971 69.776,114.022 69.776,104.391C69.776,103.082 69.904,101.822 70.159,100.61ZM196.108,165.99C173.737,165.99 155.361,147.717 155.361,125.106C155.361,102.666 173.804,84.358 196.108,84.358C218.689,84.358 236.993,102.461 236.993,125.106C236.993,147.345 218.791,165.99 196.108,165.99ZM178.873,100.797C171.346,106.216 166.263,115.067 166.263,125.106C166.263,141.85 179.815,155.088 196.108,155.088C212.854,155.088 226.091,141.403 226.091,125.106C226.091,114.862 221.116,106.126 213.459,100.718C213.703,101.897 213.825,103.121 213.825,104.391C213.825,114.022 205.739,121.971 196.108,121.971C186.478,121.971 178.528,114.022 178.528,104.391C178.528,103.149 178.642,101.952 178.873,100.797Z" style="fill:rgb(128,128,128);"/>
</svg>
