<?xml version="1.0" encoding="UTF-8" standalone="no"?>
<!DOCTYPE svg PUBLIC "-//W3C//DTD SVG 1.1//EN" "http://www.w3.org/Graphics/SVG/1.1/DTD/svg11.dtd">
<svg width="100%" height="100%" viewBox="0 0 284 284" version="1.1" xmlns="http://www.w3.org/2000/svg" xmlns:xlink="http://www.w3.org/1999/xlink" xml:space="preserve" xmlns:serif="http://www.serif.com/" style="fill-rule:evenodd;clip-rule:evenodd;stroke-linejoin:round;stroke-miterlimit:2;">
    <path d="M142,284C63.78,284 0.001,220.494 0.001,141.999C0.001,63.779 63.507,0 142,0C220.223,0 283.999,63.506 283.999,141.999C283.999,220.22 220.497,284 142,284ZM105.169,236.221L178.832,236.221L178.832,224.389L105.169,224.389L105.169,236.221ZM201.018,168.329C225.639,168.329 245.395,148.092 245.395,123.954C245.395,99.375 225.529,79.727 201.018,79.727C176.811,79.727 156.793,99.598 156.793,123.954C156.793,148.496 176.738,168.329 201.018,168.329ZM182.313,97.57C182.062,98.822 181.938,100.122 181.938,101.47C181.938,111.923 190.566,120.552 201.018,120.552C211.471,120.552 220.247,111.923 220.247,101.47C220.247,100.092 220.116,98.763 219.851,97.484C228.162,103.354 233.562,112.835 233.562,123.954C233.562,141.642 219.195,156.496 201.018,156.496C183.334,156.496 168.625,142.127 168.625,123.954C168.625,113.057 174.142,103.45 182.313,97.57ZM82.982,168.329C107.561,168.329 127.209,148.459 127.209,123.954C127.209,99.412 107.561,79.727 82.982,79.727C58.513,79.727 38.607,99.227 38.607,123.954C38.607,148.201 58.699,168.329 82.982,168.329ZM64.316,97.366C64.04,98.682 63.9,100.049 63.9,101.47C63.9,111.923 72.529,120.552 82.982,120.552C93.435,120.552 102.211,111.923 102.211,101.47C102.211,100.138 102.088,98.85 101.84,97.609C110.029,103.489 115.376,113.077 115.376,123.954C115.376,141.91 101.211,156.496 82.982,156.496C65.267,156.496 50.44,141.775 50.44,123.954C50.44,112.773 55.898,103.24 64.316,97.366Z" style="fill:rgb(128,128,128);"/>
</svg>
