<?xml version="1.0" encoding="UTF-8" standalone="no"?>
<!DOCTYPE svg PUBLIC "-//W3C//DTD SVG 1.1//EN" "http://www.w3.org/Graphics/SVG/1.1/DTD/svg11.dtd">
<svg width="100%" height="100%" viewBox="0 0 284 284" version="1.1" xmlns="http://www.w3.org/2000/svg" xmlns:xlink="http://www.w3.org/1999/xlink" xml:space="preserve" xmlns:serif="http://www.serif.com/" style="fill-rule:evenodd;clip-rule:evenodd;stroke-linejoin:round;stroke-miterlimit:2;">
    <g transform="matrix(0.24,0,0,0.24,0,0)">
        <g transform="matrix(0.757978,0,0,0.757978,-196.906,102.719)">
            <path d="M1038.89,1422.71C931.015,1422.71 830.005,1402.61 735.862,1362.4C641.719,1322.2 558.938,1266.39 487.519,1194.97C416.101,1123.55 360.289,1040.77 320.085,946.627C279.881,852.484 259.778,751.474 259.778,643.596C259.778,535.719 279.881,434.709 320.085,340.566C360.289,246.423 416.101,163.642 487.519,92.224C558.938,20.805 641.719,-35.007 735.862,-75.211C830.005,-115.415 931.015,-135.517 1038.89,-135.517C1146.27,-135.517 1247.03,-115.415 1341.17,-75.211C1435.32,-35.007 1518.1,20.805 1589.52,92.224C1660.93,163.642 1716.87,246.423 1757.33,340.566C1797.78,434.709 1818.01,535.719 1818.01,643.596C1818.01,751.474 1797.78,852.484 1757.33,946.627C1716.87,1040.77 1660.93,1123.55 1589.52,1194.97C1518.1,1266.39 1435.32,1322.2 1341.17,1362.4C1247.03,1402.61 1146.27,1422.71 1038.89,1422.71ZM1038.89,1362.78C1138.28,1362.78 1231.42,1344.17 1318.32,1306.97C1405.23,1269.76 1481.64,1218.19 1547.56,1152.27C1613.49,1086.34 1665.06,1009.93 1702.26,923.029C1739.47,836.127 1758.07,742.983 1758.07,643.596C1758.07,544.209 1739.47,451.065 1702.26,364.164C1665.06,277.263 1613.49,200.85 1547.56,134.925C1481.64,69 1405.23,17.434 1318.32,-19.774C1231.42,-56.982 1138.28,-75.586 1038.89,-75.586C939.505,-75.586 846.361,-56.982 759.46,-19.774C672.559,17.434 596.146,69 530.221,134.925C464.296,200.85 412.729,277.263 375.522,364.164C338.314,451.065 319.71,544.209 319.71,643.596C319.71,742.983 338.314,836.127 375.522,923.029C412.729,1009.93 464.296,1086.34 530.221,1152.27C596.146,1218.19 672.559,1269.76 759.46,1306.97C846.361,1344.17 939.505,1362.78 1038.89,1362.78ZM852.354,1120.8L852.354,1060.87L1225.43,1060.87L1225.43,1120.8L852.354,1120.8ZM739.982,776.945C699.029,776.945 661.447,766.831 627.236,746.604C593.024,726.377 565.805,699.158 545.578,664.947C525.351,630.736 515.238,593.154 515.238,552.2C515.238,510.748 525.351,473.165 545.578,439.454C565.805,405.742 592.9,378.773 626.861,358.546C660.822,338.319 698.529,328.205 739.982,328.205C781.435,328.205 819.017,338.319 852.729,358.546C886.441,378.773 913.41,405.742 933.637,439.454C953.864,473.165 963.978,510.748 963.978,552.2C963.978,593.653 953.864,631.36 933.637,665.322C913.41,699.283 886.441,726.377 852.729,746.604C819.017,766.831 781.435,776.945 739.982,776.945ZM645.446,417.544C625.749,431.286 609.69,448.578 597.27,469.42C582.536,494.141 575.17,521.735 575.17,552.2C575.17,582.166 582.661,609.635 597.644,634.607C612.627,659.578 632.604,679.556 657.576,694.539C682.548,709.521 710.016,717.013 739.982,717.013C770.448,717.013 798.041,709.646 822.763,694.913C847.485,680.18 867.213,660.327 881.946,635.356C896.679,610.384 904.046,582.666 904.046,552.2C904.046,522.234 896.679,494.766 881.946,469.794C869.89,449.36 854.406,432.354 835.494,418.775C836.746,425.058 837.372,431.576 837.372,438.33C837.372,464.8 827.757,487.524 808.529,506.502C789.301,525.481 766.452,534.97 739.982,534.97C713.512,534.97 690.788,525.481 671.81,506.502C652.831,487.524 643.342,464.8 643.342,438.33C643.342,431.134 644.044,424.205 645.446,417.544ZM1337.8,776.945C1296.85,776.945 1259.39,766.831 1225.43,746.604C1191.47,726.377 1164.38,699.283 1144.15,665.322C1123.92,631.36 1113.81,593.653 1113.81,552.2C1113.81,511.247 1123.92,473.79 1144.15,439.828C1164.38,405.867 1191.47,378.773 1225.43,358.546C1259.39,338.319 1296.85,328.205 1337.8,328.205C1379.26,328.205 1416.96,338.319 1450.92,358.546C1484.88,378.773 1511.98,405.742 1532.21,439.454C1552.43,473.165 1562.55,510.748 1562.55,552.2C1562.55,593.154 1552.43,630.736 1532.21,664.947C1511.98,699.158 1484.88,726.377 1450.92,746.604C1416.96,766.831 1379.26,776.945 1337.8,776.945ZM1243.06,418.574C1224.15,432.186 1208.53,449.259 1196.21,469.794C1181.23,494.766 1173.74,522.234 1173.74,552.2C1173.74,582.666 1181.11,610.384 1195.84,635.356C1210.57,660.327 1230.42,680.18 1255.4,694.913C1280.37,709.646 1307.84,717.013 1337.8,717.013C1368.27,717.013 1395.86,709.521 1420.58,694.539C1445.31,679.556 1465.16,659.578 1480.14,634.607C1495.12,609.635 1502.62,582.166 1502.62,552.2C1502.62,521.735 1495.25,494.141 1480.52,469.42C1468.27,448.877 1452.5,431.783 1433.18,418.138C1434.52,424.617 1435.19,431.347 1435.19,438.33C1435.19,464.8 1425.58,487.524 1406.35,506.502C1387.12,525.481 1364.27,534.97 1337.8,534.97C1311.33,534.97 1288.61,525.481 1269.63,506.502C1250.65,487.524 1241.16,464.8 1241.16,438.33C1241.16,431.504 1241.79,424.919 1243.06,418.574Z" style="fill:rgb(128,128,128);"/>
        </g>
    </g>
</svg>
