<?xml version="1.0" encoding="UTF-8" standalone="no"?>
<!DOCTYPE svg PUBLIC "-//W3C//DTD SVG 1.1//EN" "http://www.w3.org/Graphics/SVG/1.1/DTD/svg11.dtd">
<svg width="100%" height="100%" viewBox="0 0 284 284" version="1.1" xmlns="http://www.w3.org/2000/svg" xmlns:xlink="http://www.w3.org/1999/xlink" xml:space="preserve" xmlns:serif="http://www.serif.com/" style="fill-rule:evenodd;clip-rule:evenodd;stroke-linejoin:round;stroke-miterlimit:2;">
    <path d="M141.732,283.464C63.236,283.464 0,219.957 0,141.732C0,63.234 63.51,-0 141.732,-0C219.868,-0 283.465,63.508 283.465,141.732C283.465,220.231 219.595,283.464 141.732,283.464ZM141.732,274.124C214.464,274.124 274.124,215.057 274.124,141.732C274.124,68.664 214.718,9.341 141.732,9.341C68.665,9.341 9.341,68.408 9.341,141.732C9.341,214.801 68.409,274.124 141.732,274.124ZM141.732,263.94C74.415,263.94 19.525,209.286 19.525,141.732C19.525,74.414 74.18,19.525 141.732,19.525C209.052,19.525 263.939,74.179 263.939,141.732C263.939,209.05 209.288,263.94 141.732,263.94ZM110.035,222.821L173.43,222.821L173.43,212.638L110.035,212.638L110.035,222.821ZM192.524,164.392C213.713,164.392 230.715,146.975 230.715,126.202C230.715,105.049 213.618,88.139 192.524,88.139C171.691,88.139 154.463,105.241 154.463,126.202C154.463,147.323 171.628,164.392 192.524,164.392ZM176.426,103.495C176.21,104.573 176.103,105.692 176.103,106.852C176.103,115.848 183.529,123.274 192.524,123.274C201.52,123.274 209.073,115.848 209.073,106.852C209.073,105.666 208.96,104.522 208.732,103.421C215.884,108.473 220.532,116.633 220.532,126.202C220.532,141.424 208.167,154.208 192.524,154.208C177.305,154.208 164.646,141.842 164.646,126.202C164.646,116.824 169.394,108.556 176.426,103.495ZM90.94,164.392C112.093,164.392 129.003,147.291 129.003,126.202C129.003,105.081 112.093,88.139 90.94,88.139C69.882,88.139 52.75,104.921 52.75,126.202C52.75,147.069 70.042,164.392 90.94,164.392ZM74.876,103.32C74.638,104.452 74.518,105.629 74.518,106.852C74.518,115.848 81.944,123.274 90.94,123.274C99.936,123.274 107.489,115.848 107.489,106.852C107.489,105.705 107.383,104.597 107.17,103.529C114.217,108.589 118.819,116.841 118.819,126.202C118.819,141.655 106.628,154.208 90.94,154.208C75.694,154.208 62.934,141.539 62.934,126.202C62.934,116.579 67.631,108.375 74.876,103.32Z" style="fill:rgb(128,128,128);"/>
</svg>
