<?xml version="1.0" encoding="UTF-8" standalone="no"?>
<!DOCTYPE svg PUBLIC "-//W3C//DTD SVG 1.1//EN" "http://www.w3.org/Graphics/SVG/1.1/DTD/svg11.dtd">
<svg width="100%" height="100%" viewBox="0 0 284 284" version="1.1" xmlns="http://www.w3.org/2000/svg" xmlns:xlink="http://www.w3.org/1999/xlink" xml:space="preserve" xmlns:serif="http://www.serif.com/" style="fill-rule:evenodd;clip-rule:evenodd;stroke-linejoin:round;stroke-miterlimit:2;">
    <g transform="matrix(0.24,0,0,0.24,0,0)">
        <g transform="matrix(0.757978,0,0,0.757978,-196.906,102.719)">
            <g transform="matrix(1534.25,0,0,1534.25,65,1168)">
                <path d="M0.635,0.166C0.564,0.166 0.499,0.153 0.437,0.127C0.376,0.101 0.322,0.064 0.275,0.018C0.229,-0.029 0.192,-0.083 0.166,-0.144C0.14,-0.206 0.127,-0.271 0.127,-0.342C0.127,-0.412 0.14,-0.478 0.166,-0.539C0.192,-0.601 0.229,-0.655 0.275,-0.701C0.322,-0.748 0.376,-0.784 0.437,-0.81C0.499,-0.837 0.564,-0.85 0.635,-0.85C0.705,-0.85 0.77,-0.837 0.832,-0.81C0.893,-0.784 0.947,-0.748 0.994,-0.701C1.04,-0.655 1.077,-0.601 1.103,-0.539C1.129,-0.478 1.143,-0.412 1.143,-0.342C1.143,-0.271 1.129,-0.206 1.103,-0.144C1.077,-0.083 1.04,-0.029 0.994,0.018C0.947,0.064 0.893,0.101 0.832,0.127C0.77,0.153 0.705,0.166 0.635,0.166ZM0.419,-0.08L0.409,-0.117L0.894,-0.241L0.904,-0.203L0.419,-0.08ZM0.463,-0.342C0.446,-0.342 0.432,-0.349 0.42,-0.363C0.408,-0.378 0.402,-0.395 0.402,-0.415C0.402,-0.435 0.408,-0.452 0.42,-0.467C0.432,-0.481 0.446,-0.488 0.463,-0.488C0.479,-0.488 0.494,-0.481 0.506,-0.467C0.518,-0.452 0.524,-0.435 0.524,-0.415C0.524,-0.395 0.518,-0.378 0.506,-0.364C0.494,-0.349 0.48,-0.342 0.463,-0.342ZM0.635,0.127C0.7,0.127 0.76,0.115 0.817,0.091C0.874,0.066 0.923,0.033 0.966,-0.01C1.009,-0.053 1.043,-0.103 1.067,-0.16C1.091,-0.216 1.104,-0.277 1.104,-0.342C1.104,-0.407 1.091,-0.467 1.067,-0.524C1.043,-0.581 1.009,-0.63 0.966,-0.673C0.923,-0.716 0.874,-0.75 0.817,-0.774C0.76,-0.798 0.7,-0.811 0.635,-0.811C0.57,-0.811 0.509,-0.798 0.453,-0.774C0.396,-0.75 0.346,-0.716 0.303,-0.673C0.26,-0.63 0.227,-0.581 0.202,-0.524C0.178,-0.467 0.166,-0.407 0.166,-0.342C0.166,-0.277 0.178,-0.216 0.202,-0.16C0.227,-0.103 0.26,-0.053 0.303,-0.01C0.346,0.033 0.396,0.066 0.453,0.091C0.509,0.115 0.57,0.127 0.635,0.127ZM0.807,-0.342C0.79,-0.342 0.775,-0.349 0.763,-0.363C0.752,-0.378 0.746,-0.395 0.746,-0.415C0.746,-0.435 0.752,-0.452 0.763,-0.467C0.775,-0.481 0.79,-0.488 0.807,-0.488C0.823,-0.488 0.838,-0.481 0.85,-0.467C0.862,-0.452 0.868,-0.435 0.868,-0.415C0.868,-0.395 0.862,-0.378 0.85,-0.364C0.838,-0.349 0.824,-0.342 0.807,-0.342Z" style="fill:rgb(128,128,128);fill-rule:nonzero;"/>
            </g>
        </g>
    </g>
</svg>
