<?xml version="1.0" encoding="UTF-8" standalone="no"?>
<!DOCTYPE svg PUBLIC "-//W3C//DTD SVG 1.1//EN" "http://www.w3.org/Graphics/SVG/1.1/DTD/svg11.dtd">
<svg width="100%" height="100%" viewBox="0 0 284 284" version="1.1" xmlns="http://www.w3.org/2000/svg" xmlns:xlink="http://www.w3.org/1999/xlink" xml:space="preserve" xmlns:serif="http://www.serif.com/" style="fill-rule:evenodd;clip-rule:evenodd;stroke-linejoin:round;stroke-miterlimit:2;">
    <path d="M141.797,283.879C61.657,283.879 -0.406,220.924 -0.406,141.676C-0.406,62.664 62.786,-0.527 141.797,-0.527C220.177,-0.527 284,63.686 284,141.676C284,222.141 219.476,283.879 141.797,283.879ZM141.797,274.51C214.358,274.51 274.631,216.839 274.631,141.676C274.631,68.824 215.013,8.842 141.797,8.842C67.991,8.842 8.963,67.87 8.963,141.676C8.963,215.703 66.937,274.51 141.797,274.51ZM141.797,264.312C74.059,264.312 19.161,209.391 19.161,141.676C19.161,73.927 73.811,19.04 141.797,19.04C209.546,19.04 264.433,73.69 264.433,141.676C264.433,208.803 209.244,264.312 141.797,264.312ZM96.822,141.676C105.712,141.676 112.772,133.047 112.772,122.587C112.772,112.128 105.189,103.499 96.822,103.499C87.931,103.499 80.871,112.128 80.871,122.587C80.871,133.047 87.931,141.676 96.822,141.676ZM186.773,141.676C195.663,141.676 202.723,133.047 202.723,122.587C202.723,112.128 195.14,103.499 186.773,103.499C177.882,103.499 170.822,112.128 170.822,122.587C170.822,133.047 177.882,141.676 186.773,141.676ZM85.317,210.185L212.136,178.022L209.522,168.086L82.702,200.51L85.317,210.185Z" style="fill:rgb(128,128,128);"/>
</svg>
