<?xml version="1.0" encoding="UTF-8" standalone="no"?>
<!DOCTYPE svg PUBLIC "-//W3C//DTD SVG 1.1//EN" "http://www.w3.org/Graphics/SVG/1.1/DTD/svg11.dtd">
<svg width="100%" height="100%" viewBox="0 0 284 284" version="1.1" xmlns="http://www.w3.org/2000/svg" xmlns:xlink="http://www.w3.org/1999/xlink" xml:space="preserve" xmlns:serif="http://www.serif.com/" style="fill-rule:evenodd;clip-rule:evenodd;stroke-linejoin:round;stroke-miterlimit:2;">
    <path d="M142,284C63.566,284 -0,220.407 -0,142C-0,63.554 63.279,-0 142,-0C220.446,-0 284,63.279 284,142C284,219.726 220.097,284 142,284ZM89.924,142C100.217,142 108.392,132.008 108.392,119.897C108.392,107.786 99.612,97.795 89.924,97.795C79.629,97.795 71.454,107.786 71.454,119.897C71.454,132.008 79.629,142 89.924,142ZM194.078,142C204.371,142 212.546,132.008 212.546,119.897C212.546,107.786 203.766,97.795 194.078,97.795C183.783,97.795 175.608,107.786 175.608,119.897C175.608,132.008 183.783,142 194.078,142ZM76.602,221.326L223.445,184.085L220.419,172.58L73.574,210.124L76.602,221.326Z" style="fill:rgb(128,128,128);"/>
</svg>
