<?xml version="1.0" encoding="UTF-8" standalone="no"?>
<!DOCTYPE svg PUBLIC "-//W3C//DTD SVG 1.1//EN" "http://www.w3.org/Graphics/SVG/1.1/DTD/svg11.dtd">
<svg width="100%" height="100%" viewBox="0 0 284 284" version="1.1" xmlns="http://www.w3.org/2000/svg" xmlns:xlink="http://www.w3.org/1999/xlink" xml:space="preserve" xmlns:serif="http://www.serif.com/" style="fill-rule:evenodd;clip-rule:evenodd;stroke-linejoin:round;stroke-miterlimit:2;">
    <path d="M141.797,283.46C61.893,283.46 0.013,220.691 0.013,141.676C0.013,62.897 63.019,-0.108 141.797,-0.108C219.946,-0.108 283.581,63.916 283.581,141.676C283.581,221.904 219.247,283.46 141.797,283.46ZM81.511,214.801L78.72,204.474L214.085,169.865L216.876,180.471L81.511,214.801ZM93.792,141.676C84.302,141.676 76.766,132.465 76.766,121.301C76.766,110.137 84.302,100.927 93.792,100.927C102.723,100.927 110.817,110.137 110.817,121.301C110.817,132.465 103.281,141.676 93.792,141.676ZM141.797,272.575C213.788,272.575 272.696,213.326 272.696,141.676C272.696,69.109 214.111,10.777 141.797,10.777C69.231,10.777 10.898,69.362 10.898,141.676C10.898,213.953 69.495,272.575 141.797,272.575ZM189.803,141.676C180.313,141.676 172.778,132.465 172.778,121.301C172.778,110.137 180.313,100.927 189.803,100.927C198.734,100.927 206.828,110.137 206.828,121.301C206.828,132.465 199.292,141.676 189.803,141.676Z" style="fill:rgb(128,128,128);fill-rule:nonzero;"/>
</svg>
