<?xml version="1.0" encoding="UTF-8" standalone="no"?>
<!DOCTYPE svg PUBLIC "-//W3C//DTD SVG 1.1//EN" "http://www.w3.org/Graphics/SVG/1.1/DTD/svg11.dtd">
<svg width="100%" height="100%" viewBox="0 0 284 284" version="1.1" xmlns="http://www.w3.org/2000/svg" xmlns:xlink="http://www.w3.org/1999/xlink" xml:space="preserve" xmlns:serif="http://www.serif.com/" style="fill-rule:evenodd;clip-rule:evenodd;stroke-linejoin:round;stroke-miterlimit:2;">
    <path d="M141.732,281.073C60.724,281.073 1.065,221.327 1.065,141.732C1.065,61.756 61.329,2.392 141.732,2.392C222.74,2.392 282.4,62.141 282.4,141.732C282.4,221.712 222.135,281.073 141.732,281.073ZM141.732,212.464C120.676,212.464 100.196,205.829 80.29,192.558L88.518,180.482C122.844,203.662 160.621,203.662 194.947,180.482L203.175,192.558C183.269,205.829 162.788,212.464 141.732,212.464ZM93.693,133.106C83.607,133.106 75.38,124.48 75.38,111.21C75.38,97.94 83.607,89.314 93.693,89.314C103.779,89.314 112.006,97.94 112.006,111.21C112.006,124.48 103.779,133.106 93.693,133.106ZM141.865,266.475C213.636,266.475 266.475,212.983 266.475,141.6C266.475,69.829 212.899,16.989 141.865,16.989C70.029,16.989 16.989,70.472 16.989,141.6C16.989,213.724 70.482,266.475 141.865,266.475ZM189.772,133.106C179.686,133.106 171.458,124.48 171.458,111.21C171.458,97.94 179.686,89.314 189.772,89.314C199.856,89.314 208.085,97.94 208.085,111.21C208.085,124.48 199.856,133.106 189.772,133.106Z" style="fill:rgb(128,128,128);fill-rule:nonzero;"/>
</svg>
