<?xml version="1.0" encoding="UTF-8" standalone="no"?>
<!DOCTYPE svg PUBLIC "-//W3C//DTD SVG 1.1//EN" "http://www.w3.org/Graphics/SVG/1.1/DTD/svg11.dtd">
<svg width="100%" height="100%" viewBox="0 0 284 284" version="1.1" xmlns="http://www.w3.org/2000/svg" xmlns:xlink="http://www.w3.org/1999/xlink" xml:space="preserve" xmlns:serif="http://www.serif.com/" style="fill-rule:evenodd;clip-rule:evenodd;stroke-linejoin:round;stroke-miterlimit:2;">
    <path d="M142.152,284C60.893,284 0,223.952 0,141.849C0,60.882 60.378,0 142.152,0C223.012,0 284,60.15 284,141.849C284,223.109 223.851,284 142.152,284ZM196.686,132.181C208.166,132.181 217.533,122.361 217.533,107.256C217.533,92.15 208.166,82.33 196.686,82.33C185.205,82.33 175.839,92.15 175.839,107.256C175.839,122.361 185.205,132.181 196.686,132.181ZM142,222.518C165.969,222.518 189.283,214.964 211.943,199.857L202.577,186.111C163.502,212.497 120.499,212.497 81.424,186.111L72.058,199.857C94.718,214.964 118.031,222.518 142,222.518ZM87.315,132.181C98.796,132.181 108.161,122.361 108.161,107.256C108.161,92.15 98.796,82.33 87.315,82.33C75.834,82.33 66.468,92.15 66.468,107.256C66.468,122.361 75.834,132.181 87.315,132.181Z" style="fill:rgb(128,128,128);"/>
</svg>
