<?xml version="1.0" encoding="UTF-8" standalone="no"?>
<!DOCTYPE svg PUBLIC "-//W3C//DTD SVG 1.1//EN" "http://www.w3.org/Graphics/SVG/1.1/DTD/svg11.dtd">
<svg width="100%" height="100%" viewBox="0 0 284 284" version="1.1" xmlns="http://www.w3.org/2000/svg" xmlns:xlink="http://www.w3.org/1999/xlink" xml:space="preserve" xmlns:serif="http://www.serif.com/" style="fill-rule:evenodd;clip-rule:evenodd;stroke-linejoin:round;stroke-miterlimit:2;">
    <path d="M141.732,281.073C121.561,281.073 102.916,277.6 85.797,270.655C68.678,263.71 53.793,253.957 41.142,241.394C28.491,228.831 18.648,214.079 11.615,197.137C4.582,180.195 1.065,161.727 1.065,141.732C1.065,121.738 4.582,103.27 11.615,86.328C18.648,69.386 28.491,54.634 41.142,42.071C53.793,29.508 68.678,19.754 85.797,12.809C102.916,5.864 121.561,2.392 141.732,2.392C161.903,2.392 180.549,5.864 197.667,12.809C214.786,19.754 229.672,29.508 242.323,42.071C254.974,54.634 264.816,69.386 271.85,86.328C278.883,103.27 282.4,121.738 282.4,141.732C282.4,161.727 278.883,180.195 271.85,197.137C264.816,214.079 254.974,228.831 242.323,241.394C229.672,253.957 214.786,263.71 197.667,270.655C180.549,277.6 161.903,281.073 141.732,281.073ZM141.732,212.464C120.676,212.464 100.196,205.829 80.29,192.558L88.518,180.482C105.681,192.072 123.419,197.867 141.732,197.867C160.046,197.867 177.784,192.072 194.947,180.482L203.175,192.558C183.269,205.829 162.788,212.464 141.732,212.464ZM93.693,133.106C88.65,133.106 84.337,131.116 80.754,127.135C77.171,123.154 75.38,117.845 75.38,111.21C75.38,104.575 77.171,99.267 80.754,95.285C84.337,91.304 88.65,89.314 93.693,89.314C98.736,89.314 103.049,91.304 106.632,95.285C110.215,99.267 112.006,104.575 112.006,111.21C112.006,117.845 110.215,123.154 106.632,127.135C103.049,131.116 98.736,133.106 93.693,133.106ZM141.865,266.475C159.736,266.475 176.258,263.357 191.43,257.119C206.603,250.882 219.785,242.168 230.976,230.976C242.168,219.785 250.882,206.581 257.119,191.364C263.357,176.147 266.475,159.559 266.475,141.6C266.475,123.729 263.357,107.207 257.119,92.034C250.882,76.862 242.168,63.68 230.976,52.488C219.785,41.297 206.603,32.582 191.43,26.345C176.258,20.108 159.736,16.989 141.865,16.989C123.906,16.989 107.34,20.108 92.167,26.345C76.994,32.582 63.79,41.297 52.554,52.488C41.319,63.68 32.582,76.862 26.345,92.034C20.108,107.207 16.989,123.729 16.989,141.6C16.989,159.559 20.108,176.147 26.345,191.364C32.582,206.581 41.297,219.785 52.488,230.976C63.68,242.168 76.884,250.882 92.101,257.119C107.317,263.357 123.906,266.475 141.865,266.475ZM189.772,133.106C184.729,133.106 180.416,131.116 176.833,127.135C173.25,123.154 171.458,117.845 171.458,111.21C171.458,104.575 173.25,99.267 176.833,95.285C180.416,91.304 184.729,89.314 189.772,89.314C194.814,89.314 199.127,91.304 202.71,95.285C206.293,99.267 208.085,104.575 208.085,111.21C208.085,117.845 206.293,123.154 202.71,127.135C199.127,131.116 194.814,133.106 189.772,133.106Z" style="fill-rule:nonzero;"/>
</svg>
