<?xml version="1.0" encoding="UTF-8" standalone="no"?>
<!DOCTYPE svg PUBLIC "-//W3C//DTD SVG 1.1//EN" "http://www.w3.org/Graphics/SVG/1.1/DTD/svg11.dtd">
<svg width="100%" height="100%" viewBox="0 0 284 284" version="1.1" xmlns="http://www.w3.org/2000/svg" xmlns:xlink="http://www.w3.org/1999/xlink" xml:space="preserve" xmlns:serif="http://www.serif.com/" style="fill-rule:evenodd;clip-rule:evenodd;stroke-linejoin:round;stroke-miterlimit:2;">
    <path d="M141.732,282.747C59.777,282.747 -0.535,222.257 -0.535,141.732C-0.535,60.821 60.389,0.718 141.732,0.718C223.687,0.718 284,61.211 284,141.732C284,222.647 223.075,282.747 141.732,282.747ZM141.732,273.305C217.652,273.305 274.558,217.253 274.558,141.732C274.558,66.578 218.224,10.16 141.732,10.16C65.812,10.16 8.907,66.215 8.907,141.732C8.907,216.889 65.24,273.305 141.732,273.305ZM141.858,259.52C74.454,259.52 23.944,209.711 23.944,141.607C23.944,74.445 74.027,23.944 141.858,23.944C208.931,23.944 259.52,73.838 259.52,141.607C259.52,209.011 209.627,259.52 141.858,259.52ZM187.094,133.587C196.616,133.587 204.386,125.442 204.386,112.912C204.386,100.382 196.616,92.236 187.094,92.236C177.57,92.236 169.801,100.382 169.801,112.912C169.801,125.442 177.57,133.587 187.094,133.587ZM141.732,208.521C161.614,208.521 180.953,202.255 199.749,189.724L191.98,178.322C159.568,200.209 123.897,200.209 91.485,178.322L83.716,189.724C102.512,202.255 121.85,208.521 141.732,208.521ZM96.371,133.587C105.895,133.587 113.663,125.442 113.663,112.912C113.663,100.382 105.895,92.236 96.371,92.236C86.848,92.236 79.079,100.382 79.079,112.912C79.079,125.442 86.848,133.587 96.371,133.587Z" style="fill:rgb(128,128,128);"/>
</svg>
