<?xml version="1.0" encoding="UTF-8" standalone="no"?>
<!DOCTYPE svg PUBLIC "-//W3C//DTD SVG 1.1//EN" "http://www.w3.org/Graphics/SVG/1.1/DTD/svg11.dtd">
<svg width="100%" height="100%" viewBox="0 0 284 284" version="1.1" xmlns="http://www.w3.org/2000/svg" xmlns:xlink="http://www.w3.org/1999/xlink" xml:space="preserve" xmlns:serif="http://www.serif.com/" style="fill-rule:evenodd;clip-rule:evenodd;stroke-linejoin:round;stroke-miterlimit:2;">
    <path d="M141.732,283.464C63.236,283.464 0,219.957 0,141.732C0,63.234 63.51,0 141.732,0C219.868,0 283.465,63.508 283.465,141.732C283.465,220.231 219.595,283.464 141.732,283.464ZM99.076,233.449L99.076,222.547L147.73,222.547C174.256,222.547 184.662,214.824 190.658,190.112L201.287,192.565C194.382,221.821 179.528,233.449 147.73,233.449L99.076,233.449ZM94.579,156.314C85.494,156.314 78.225,149.091 78.225,139.824C78.225,137.462 78.816,135.418 79.997,133.692C74.364,134.418 67.005,136.644 60.645,139.552L57.374,130.557C67.187,125.288 78.316,122.517 88.31,122.517C101.575,122.517 111.205,128.513 111.205,139.961C111.205,149.046 103.483,156.314 94.579,156.314ZM43.065,110.66L35.842,104.391C46.381,92.035 61.327,85.039 84.767,81.769L86.13,91.308C64.688,94.216 52.15,99.939 43.065,110.66ZM141.732,272.562C214.054,272.562 272.561,213.8 272.561,141.732C272.561,69.412 213.802,10.902 141.732,10.902C69.414,10.902 10.903,69.665 10.903,141.732C10.903,214.052 69.666,272.562 141.732,272.562ZM211.1,156.314C202.197,156.314 194.746,149.091 194.746,139.824C194.746,137.462 195.382,135.418 196.654,133.692C191.022,134.418 183.661,136.644 177.302,139.552L174.031,130.557C183.843,125.288 195.018,122.517 204.831,122.517C218.096,122.517 227.727,128.513 227.727,139.961C227.727,149.046 220.184,156.314 211.1,156.314ZM240.537,110.66C231.449,99.939 218.958,94.216 197.336,91.308L198.699,81.769C222.136,85.039 237.219,92.035 247.759,104.391L240.537,110.66Z" style="fill:rgb(128,128,128);fill-rule:nonzero;"/>
</svg>
