<?xml version="1.0" encoding="UTF-8" standalone="no"?>
<!DOCTYPE svg PUBLIC "-//W3C//DTD SVG 1.1//EN" "http://www.w3.org/Graphics/SVG/1.1/DTD/svg11.dtd">
<svg width="100%" height="100%" viewBox="0 0 284 284" version="1.1" xmlns="http://www.w3.org/2000/svg" xmlns:xlink="http://www.w3.org/1999/xlink" xml:space="preserve" xmlns:serif="http://www.serif.com/" style="fill-rule:evenodd;clip-rule:evenodd;stroke-linejoin:round;stroke-miterlimit:2;">
    <path d="M142,284C63.78,284 0.001,220.495 0.001,141.999C0.001,63.779 63.507,-0 142,-0C220.223,-0 283.999,63.505 283.999,141.999C283.999,220.22 220.496,284 142,284ZM249.242,108.275L257.08,101.471C245.639,88.059 229.27,80.466 203.83,76.916L202.351,87.271C225.82,90.426 239.377,96.638 249.242,108.275ZM217.29,157.827C227.151,157.827 235.337,149.938 235.337,140.077C235.337,127.651 224.884,121.143 210.487,121.143C199.836,121.143 187.706,124.152 177.056,129.87L180.607,139.633C187.51,136.478 195.498,134.062 201.611,133.272C200.23,135.146 199.539,137.364 199.539,139.928C199.539,149.987 207.627,157.827 217.29,157.827ZM90.822,157.827C100.485,157.827 108.867,149.938 108.867,140.077C108.867,127.651 98.414,121.143 84.017,121.143C73.17,121.143 61.09,124.152 50.44,129.87L53.989,139.633C60.892,136.478 68.881,134.062 74.994,133.272C73.713,135.146 73.071,137.364 73.071,139.928C73.071,149.987 80.96,157.827 90.822,157.827ZM95.702,241.546L148.51,241.546C183.024,241.546 199.144,228.926 206.64,197.173L195.103,194.51C188.595,221.333 177.302,229.714 148.51,229.714L95.702,229.714L95.702,241.546ZM34.909,108.275C44.77,96.638 58.378,90.426 81.65,87.271L80.171,76.916C54.73,80.466 38.508,88.059 27.07,101.471L34.909,108.275Z" style="fill:rgb(128,128,128);"/>
</svg>
