<?xml version="1.0" encoding="UTF-8" standalone="no"?>
<!DOCTYPE svg PUBLIC "-//W3C//DTD SVG 1.1//EN" "http://www.w3.org/Graphics/SVG/1.1/DTD/svg11.dtd">
<svg width="100%" height="100%" viewBox="0 0 284 284" version="1.1" xmlns="http://www.w3.org/2000/svg" xmlns:xlink="http://www.w3.org/1999/xlink" xml:space="preserve" xmlns:serif="http://www.serif.com/" style="fill-rule:evenodd;clip-rule:evenodd;stroke-linejoin:round;stroke-miterlimit:2;">
    <path d="M141.732,283.999C62.94,283.999 -0.535,220.252 -0.535,141.732C-0.535,62.938 63.214,-0.535 141.732,-0.535C220.163,-0.535 284,63.213 284,141.732C284,220.527 219.889,283.999 141.732,283.999ZM141.732,274.623C214.738,274.623 274.624,215.334 274.624,141.732C274.624,68.388 214.994,8.842 141.732,8.842C68.389,8.842 8.842,68.131 8.842,141.732C8.842,215.077 68.133,274.623 141.732,274.623ZM141.732,264.401C74.161,264.401 19.064,209.541 19.064,141.732C19.064,74.16 73.925,19.064 141.732,19.064C209.306,19.064 264.4,73.924 264.4,141.732C264.4,209.304 209.542,264.401 141.732,264.401ZM234.374,112.599L241.145,106.721C231.262,95.135 217.121,88.576 195.145,85.509L193.867,94.454C214.141,97.18 225.852,102.546 234.374,112.599ZM206.772,155.405C215.291,155.405 222.362,148.59 222.362,140.071C222.362,129.337 213.332,123.715 200.895,123.715C191.694,123.715 181.216,126.314 172.016,131.254L175.083,139.688C181.046,136.962 187.947,134.875 193.228,134.193C192.035,135.812 191.438,137.728 191.438,139.943C191.438,148.632 198.425,155.405 206.772,155.405ZM97.521,155.405C105.869,155.405 113.11,148.59 113.11,140.071C113.11,129.337 104.08,123.715 91.643,123.715C82.272,123.715 71.837,126.314 62.637,131.254L65.703,139.688C71.666,136.962 78.567,134.875 83.848,134.193C82.741,135.812 82.187,137.728 82.187,139.943C82.187,148.632 89.002,155.405 97.521,155.405ZM101.737,227.727L147.356,227.727C177.171,227.727 191.097,216.825 197.572,189.394L187.606,187.094C181.984,210.265 172.228,217.505 147.356,217.505L101.737,217.505L101.737,227.727ZM49.22,112.599C57.739,102.546 69.494,97.18 89.598,94.454L88.32,85.509C66.343,88.576 52.329,95.135 42.448,106.721L49.22,112.599Z" style="fill:rgb(128,128,128);"/>
</svg>
