<?xml version="1.0" encoding="UTF-8" standalone="no"?>
<!DOCTYPE svg PUBLIC "-//W3C//DTD SVG 1.1//EN" "http://www.w3.org/Graphics/SVG/1.1/DTD/svg11.dtd">
<svg width="100%" height="100%" viewBox="0 0 284 284" version="1.1" xmlns="http://www.w3.org/2000/svg" xmlns:xlink="http://www.w3.org/1999/xlink" xml:space="preserve" xmlns:serif="http://www.serif.com/" style="fill-rule:evenodd;clip-rule:evenodd;stroke-linejoin:round;stroke-miterlimit:2;">
    <g transform="matrix(0.24,0,0,0.24,0,0)">
        <g transform="matrix(0.757978,0,0,0.757978,-196.906,102.719)">
            <path d="M1038.89,1422.71C931.015,1422.71 830.005,1402.61 735.862,1362.4C641.719,1322.2 558.938,1266.39 487.519,1194.97C416.101,1123.55 360.289,1040.77 320.085,946.627C279.881,852.484 259.778,751.474 259.778,643.596C259.778,535.719 279.881,434.709 320.085,340.566C360.289,246.423 416.101,163.642 487.519,92.224C558.938,20.805 641.719,-35.007 735.862,-75.211C830.005,-115.415 931.015,-135.517 1038.89,-135.517C1146.27,-135.517 1247.03,-115.415 1341.17,-75.211C1435.32,-35.007 1518.1,20.805 1589.52,92.224C1660.93,163.642 1716.87,246.423 1757.33,340.566C1797.78,434.709 1818.01,535.719 1818.01,643.596C1818.01,751.474 1797.78,852.484 1757.33,946.627C1716.87,1040.77 1660.93,1123.55 1589.52,1194.97C1518.1,1266.39 1435.32,1322.2 1341.17,1362.4C1247.03,1402.61 1146.27,1422.71 1038.89,1422.71ZM804.409,1147.77L804.409,1087.84L1071.86,1087.84C1144.77,1087.84 1198.21,1075.11 1232.17,1049.63C1266.13,1024.16 1291.36,977.467 1307.84,909.544L1366.27,923.029C1347.29,1003.44 1315.33,1061 1270.38,1095.71C1225.43,1130.42 1159.26,1147.77 1071.86,1147.77L804.409,1147.77ZM779.687,723.755C754.716,723.755 733.49,715.015 716.01,697.535C698.529,680.055 689.789,658.579 689.789,633.108C689.789,620.123 693.036,608.886 699.528,599.397C684.046,601.394 666.815,605.265 647.837,611.009C628.859,616.752 610.629,623.619 593.149,631.61L575.17,582.166C602.139,567.683 630.357,556.695 659.823,549.204C689.29,541.712 717.758,537.967 745.226,537.967C781.685,537.967 811.776,546.082 835.499,562.314C859.222,578.545 871.083,602.393 871.083,633.858C871.083,658.829 861.969,680.055 843.739,697.535C825.51,715.015 804.159,723.755 779.687,723.755ZM496.509,472.791L456.804,438.33C485.771,404.369 521.731,377.399 564.682,357.422C607.633,337.445 661.322,322.961 725.748,313.971L733.24,366.412C674.307,374.403 626.362,386.764 589.404,403.495C552.446,420.226 521.481,443.324 496.509,472.791ZM1038.89,1362.78C1138.28,1362.78 1231.42,1344.17 1318.32,1306.97C1405.23,1269.76 1481.64,1218.19 1547.56,1152.27C1613.49,1086.34 1665.06,1009.93 1702.26,923.029C1739.47,836.127 1758.07,742.983 1758.07,643.596C1758.07,544.209 1739.47,451.065 1702.26,364.164C1665.06,277.263 1613.49,200.85 1547.56,134.925C1481.64,69 1405.23,17.434 1318.32,-19.774C1231.42,-56.982 1138.28,-75.586 1038.89,-75.586C939.505,-75.586 846.361,-56.982 759.46,-19.774C672.559,17.434 596.146,69 530.221,134.925C464.296,200.85 412.729,277.263 375.522,364.164C338.314,451.065 319.71,544.209 319.71,643.596C319.71,742.983 338.314,836.127 375.522,923.029C412.729,1009.93 464.296,1086.34 530.221,1152.27C596.146,1218.19 672.559,1269.76 759.46,1306.97C846.361,1344.17 939.505,1362.78 1038.89,1362.78ZM1420.21,723.755C1395.74,723.755 1374.63,715.015 1356.91,697.535C1339.18,680.055 1330.31,658.579 1330.31,633.108C1330.31,620.123 1333.81,608.886 1340.8,599.397C1325.32,601.394 1308.09,605.265 1289.11,611.009C1270.13,616.752 1251.9,623.619 1234.42,631.61L1216.44,582.166C1243.41,567.683 1271.63,556.695 1301.09,549.204C1330.56,541.712 1358.78,537.967 1385.75,537.967C1422.21,537.967 1452.3,546.082 1476.02,562.314C1499.74,578.545 1511.61,602.393 1511.61,633.858C1511.61,658.829 1502.62,680.055 1484.63,697.535C1466.66,715.015 1445.18,723.755 1420.21,723.755ZM1582.03,472.791C1557.05,443.324 1526.09,420.226 1489.13,403.495C1452.17,386.764 1403.98,374.403 1344.55,366.412L1352.04,313.971C1416.46,322.961 1470.28,337.445 1513.48,357.422C1556.68,377.399 1592.76,404.369 1621.73,438.33L1582.03,472.791Z" style="fill:rgb(128,128,128);fill-rule:nonzero;"/>
        </g>
    </g>
</svg>
