<?xml version="1.0" encoding="UTF-8" standalone="no"?>
<!DOCTYPE svg PUBLIC "-//W3C//DTD SVG 1.1//EN" "http://www.w3.org/Graphics/SVG/1.1/DTD/svg11.dtd">
<svg width="100%" height="100%" viewBox="0 0 284 284" version="1.1" xmlns="http://www.w3.org/2000/svg" xmlns:xlink="http://www.w3.org/1999/xlink" xml:space="preserve" xmlns:serif="http://www.serif.com/" style="fill-rule:evenodd;clip-rule:evenodd;stroke-linejoin:round;stroke-miterlimit:2;">
    <path d="M105.421,271.277C96.194,278.64 78.51,283.465 61.085,283.465C27.193,283.465 9.449,264.212 9.449,233.16C9.449,228.991 9.848,225.02 10.647,221.249C11.445,217.478 11.844,214.084 11.844,211.068C11.844,207.165 11.223,203.593 9.981,200.355C8.739,197.117 7.408,194.034 5.989,191.106C4.569,188.178 3.349,185.295 2.329,182.456C1.309,179.617 0.799,176.733 0.799,173.805C0.799,169.014 2.307,165.11 5.323,162.094C6.023,161.395 6.784,160.777 7.607,160.239C7.235,157.879 6.917,155.503 6.654,153.111C6.122,148.276 5.856,143.374 5.856,138.405C5.856,82.371 38.625,34.814 85.971,12.705L85.971,2.928C93.295,2.928 100.082,3.652 106.333,5.101C118.395,1.7 131.037,0 144.262,0C220.557,0 282.667,62.018 282.667,138.405C282.667,215.061 220.291,276.811 144.262,276.811C130.853,276.811 117.907,274.967 105.421,271.277ZM17.902,157.569C28.871,157.596 38.426,164.511 43.385,175.136L44.449,177.399C47.998,185.028 49.507,187.513 53.233,187.513C56.249,187.513 60.153,185.96 66.009,182.589C69.824,180.459 74.615,178.175 80.382,175.735C91.915,170.855 107.264,167.018 125.363,167.018C140.091,167.018 148.786,171.898 148.786,181.657C148.786,190.294 143.934,194.903 119.774,202.152C119.774,202.152 110.021,204.956 102.533,208.453C103.619,209.197 104.642,210.07 105.601,211.068C110.664,216.346 111.452,223.961 108.85,229.408C112.289,234.34 113.71,243.396 109.697,249.251C112.052,253.01 112.902,258.171 111.957,262.104C122.395,264.811 133.163,266.165 144.262,266.165C214.879,266.165 272.02,208.781 272.02,138.405C272.02,67.783 214.633,10.646 144.262,10.646C137.456,10.646 130.817,11.137 124.342,12.119C130.448,15.639 136.378,20.339 142.132,26.217L134.679,33.67C125.463,24.453 116.565,18.93 106.638,16.152C52.989,32.666 16.502,81.282 16.502,138.405C16.502,144.84 16.969,151.228 17.902,157.569ZM93.299,213.607C89.863,215.877 86.178,218.668 82.245,221.981L76.788,215.459C91.339,202.328 103.316,197.006 114.318,194.167L116.846,193.502C133.171,189.243 139.471,186.67 139.471,182.589C139.471,178.33 134.768,176.334 125.363,176.334C113.83,176.334 103.427,177.864 94.156,180.925C84.884,183.986 76.966,187.247 70.4,190.707C61.883,195.143 56.782,196.962 52.168,196.962C45.603,196.962 41.743,193.502 36.065,181.258L35.001,178.996C31.629,171.543 25.463,166.752 18.898,166.752C13.929,166.752 10.114,169.635 10.114,175.136C10.114,181.225 15.191,188.992 18.964,198.825C20.428,202.641 21.16,206.721 21.16,211.068C21.16,215.15 20.761,218.876 19.962,222.247C19.164,225.619 18.765,229.344 18.765,233.426C18.765,258.091 33.758,274.15 61.085,274.15C79.679,274.15 103.006,266.998 103.006,258.977C103.006,257.533 102.934,256.474 102.462,255.312C99.278,256.943 95.334,258.165 90.629,258.977L89.431,250.994C98.924,249.13 103.671,245.581 103.671,240.346C103.671,238.793 103.402,237.409 102.864,236.196C99.086,238.834 94.032,240.618 87.701,241.545L86.37,233.56C96.662,231.961 101.675,227.614 101.675,222.647C101.675,218.151 98.696,214.999 93.299,213.607ZM214.794,57.492C197.99,47.832 178.445,45.853 162.76,49.64L160.363,39.259C180.264,34.837 201.302,37.333 220.118,48.309L214.794,57.492ZM101.941,82.511C92.714,82.511 85.172,73.55 85.172,62.549C85.172,51.547 92.714,42.453 101.941,42.453C111.168,42.453 118.709,51.547 118.709,62.549C118.709,73.372 111.345,82.511 101.941,82.511ZM176.733,156.638C152.75,133.096 124.141,129.288 91.96,144.261L87.435,134.679C124.007,117.748 156.854,122.317 184.186,148.919L176.733,156.638ZM185.783,105.135C176.556,105.135 169.015,96.174 169.015,85.172C169.015,74.171 176.556,65.077 185.783,65.077C195.01,65.077 202.551,74.171 202.551,85.172C202.551,95.997 195.187,105.135 185.783,105.135Z" style="fill:rgb(128,128,128);"/>
</svg>
