<?xml version="1.0" encoding="UTF-8" standalone="no"?>
<!DOCTYPE svg PUBLIC "-//W3C//DTD SVG 1.1//EN" "http://www.w3.org/Graphics/SVG/1.1/DTD/svg11.dtd">
<svg width="100%" height="100%" viewBox="0 0 284 284" version="1.1" xmlns="http://www.w3.org/2000/svg" xmlns:xlink="http://www.w3.org/1999/xlink" xml:space="preserve" xmlns:serif="http://www.serif.com/" style="fill-rule:evenodd;clip-rule:evenodd;stroke-linejoin:round;stroke-miterlimit:2;">
    <path d="M6.511,155.431C6.427,154.75 6.347,154.067 6.272,153.383C5.737,148.53 5.47,143.611 5.47,138.625C5.47,84.663 35.813,38.55 80.305,15.403L80.305,2.735L89.646,2.735C96.332,2.735 102.585,3.329 108.408,4.495C119.793,1.504 131.688,-0 144.095,-0C220.511,-0 282.719,62.116 282.719,138.625C282.719,215.402 220.244,277.249 144.095,277.249C132.202,277.249 120.672,275.797 109.503,272.9C99.051,279.219 82.663,283.465 66.4,283.465C47.603,283.465 33.418,277.748 23.798,268.103C14.114,258.394 8.826,244.472 8.826,227.134C8.826,222.562 9.272,218.209 10.147,214.074C10.742,211.267 11.064,208.744 11.064,206.499C11.064,204.074 10.715,201.849 9.943,199.837C8.881,197.068 7.744,194.431 6.53,191.927C5.054,188.883 3.787,185.883 2.726,182.931C1.4,179.243 0.746,175.495 0.746,171.692C0.746,165.151 2.747,159.762 6.511,155.431ZM107.814,262.74C119.477,266.186 131.57,267.908 144.095,267.908C215.113,267.908 273.378,210.228 273.378,138.625C273.378,67.271 215.362,9.341 144.095,9.341C131.742,9.341 119.933,10.929 108.666,14.106C102.827,12.752 96.487,12.076 89.646,12.076L89.646,21.209C45.42,41.861 14.811,86.283 14.811,138.625C14.811,143.266 15.059,147.844 15.556,152.361C15.803,154.596 16.099,156.815 16.447,159.02C15.678,159.521 14.967,160.099 14.313,160.752C11.496,163.57 10.087,167.216 10.087,171.692C10.087,174.426 10.563,177.12 11.516,179.772C12.469,182.424 13.609,185.117 14.935,187.852C16.261,190.587 17.504,193.467 18.664,196.492C19.824,199.516 20.405,202.853 20.405,206.499C20.405,209.316 20.032,212.486 19.286,216.008C18.54,219.531 18.167,223.24 18.167,227.134C18.167,256.14 34.742,274.124 66.4,274.124C82.676,274.124 99.196,269.617 107.814,262.74ZM96.491,208.87C101.533,210.17 104.315,213.114 104.315,217.314C104.315,221.954 99.632,226.014 90.019,227.508L91.262,234.967C97.176,234.1 101.897,232.434 105.426,229.97C105.928,231.104 106.179,232.396 106.179,233.847C106.179,238.737 101.746,242.052 92.878,243.793L93.997,251.25C98.392,250.492 102.076,249.35 105.05,247.827C105.491,248.912 105.558,249.901 105.558,251.25C105.558,258.742 83.769,265.423 66.4,265.423C40.874,265.423 26.869,250.422 26.869,227.383C26.869,223.57 27.242,220.09 27.988,216.941C28.733,213.791 29.106,210.312 29.106,206.499C29.106,202.438 28.423,198.626 27.055,195.062C23.531,185.877 18.789,178.622 18.789,172.935C18.789,167.797 22.352,165.103 26.993,165.103C33.126,165.103 38.885,169.578 42.035,176.54L43.029,178.653C48.333,190.09 51.938,193.322 58.071,193.322C62.38,193.322 67.146,191.623 75.102,187.479C81.234,184.247 88.631,181.201 97.291,178.342C105.952,175.483 115.669,174.054 126.442,174.054C135.227,174.054 139.62,175.918 139.62,179.896C139.62,183.708 133.735,186.111 118.486,190.09L116.124,190.711C105.848,193.363 94.66,198.334 81.069,210.6L86.165,216.692C89.84,213.597 93.282,210.99 96.491,208.87ZM26.063,156.526C25.191,150.602 24.755,144.635 24.755,138.625C24.755,85.266 58.838,39.854 108.951,24.429C118.224,27.023 126.535,32.183 135.144,40.792L142.105,33.83C136.731,28.339 131.192,23.95 125.489,20.661C131.537,19.744 137.738,19.286 144.095,19.286C209.828,19.286 263.434,72.657 263.434,138.625C263.434,204.362 210.058,257.964 144.095,257.964C133.728,257.964 123.669,256.699 113.919,254.171C114.802,250.497 114.008,245.676 111.809,242.165C115.557,236.696 114.229,228.237 111.017,223.63C113.447,218.542 112.712,211.429 107.982,206.499C107.086,205.566 106.131,204.751 105.116,204.056C112.111,200.789 121.221,198.17 121.221,198.17C143.789,191.399 148.321,187.093 148.321,179.026C148.321,169.91 140.199,165.352 126.442,165.352C109.536,165.352 95.199,168.936 84.425,173.494C79.038,175.773 74.563,177.907 70.999,179.896C65.53,183.045 61.883,184.496 59.065,184.496C55.585,184.496 54.176,182.175 50.861,175.048L49.866,172.935C45.235,163.01 36.309,156.551 26.063,156.526ZM209.979,63.043L214.952,54.466C197.376,44.213 177.725,41.882 159.136,46.013L161.374,55.709C176.025,52.172 194.283,54.02 209.979,63.043ZM174.427,155.655L181.388,148.445C155.858,123.597 125.175,119.328 91.013,135.144L95.24,144.094C125.3,130.108 152.024,133.666 174.427,155.655ZM104.563,86.414C113.348,86.414 120.227,77.878 120.227,67.767C120.227,57.491 113.182,48.996 104.563,48.996C95.945,48.996 88.9,57.491 88.9,67.767C88.9,78.044 95.945,86.414 104.563,86.414ZM182.88,107.547C191.664,107.547 198.542,99.011 198.542,88.9C198.542,78.624 191.498,70.129 182.88,70.129C174.261,70.129 167.217,78.624 167.217,88.9C167.217,99.177 174.261,107.547 182.88,107.547Z" style="fill:rgb(128,128,128);"/>
</svg>
