<?xml version="1.0" encoding="UTF-8" standalone="no"?>
<!DOCTYPE svg PUBLIC "-//W3C//DTD SVG 1.1//EN" "http://www.w3.org/Graphics/SVG/1.1/DTD/svg11.dtd">
<svg width="100%" height="100%" viewBox="0 0 284 284" version="1.1" xmlns="http://www.w3.org/2000/svg" xmlns:xlink="http://www.w3.org/1999/xlink" xml:space="preserve" xmlns:serif="http://www.serif.com/" style="fill-rule:evenodd;clip-rule:evenodd;stroke-linejoin:round;stroke-miterlimit:2;">
    <path d="M90.516,218.748C96.333,220.247 99.543,223.644 99.543,228.49C99.543,233.844 94.14,238.529 83.048,240.253L84.482,248.859C91.306,247.859 96.753,245.936 100.825,243.093C101.404,244.402 101.694,245.892 101.694,247.567C101.694,253.209 96.579,257.034 86.347,259.043L87.638,267.647C92.709,266.772 96.96,265.455 100.391,263.697C100.9,264.949 100.977,266.09 100.977,267.647C100.977,276.291 75.837,284 55.796,284C26.343,284 10.184,266.691 10.184,240.108C10.184,235.709 10.614,231.693 11.475,228.06C12.334,224.426 12.765,220.411 12.765,216.012C12.765,211.326 11.977,206.928 10.398,202.815C6.332,192.218 0.861,183.846 0.861,177.285C0.861,171.356 4.972,168.248 10.327,168.248C17.403,168.248 24.048,173.411 27.683,181.444L28.83,183.882C34.949,197.079 39.109,200.808 46.185,200.808C51.157,200.808 56.656,198.847 65.836,194.066C72.912,190.337 81.446,186.822 91.439,183.523C101.432,180.225 112.644,178.576 125.074,178.576C135.21,178.576 140.279,180.727 140.279,185.316C140.279,189.715 133.489,192.488 115.894,197.079L113.169,197.795C101.312,200.855 88.403,206.591 72.721,220.744L78.601,227.773C82.841,224.202 86.813,221.194 90.516,218.748ZM9.254,158.351C8.248,151.516 7.745,144.631 7.745,137.697C7.745,76.13 47.07,23.732 104.892,5.934C115.592,8.927 125.181,14.881 135.115,24.814L143.146,16.781C136.946,10.446 130.555,5.381 123.974,1.587C130.953,0.528 138.108,-0 145.442,-0C221.287,-0 283.139,61.581 283.139,137.697C283.139,213.546 221.552,275.394 145.442,275.394C133.481,275.394 121.874,273.934 110.625,271.017C111.643,266.778 110.727,261.215 108.19,257.164C112.514,250.854 110.982,241.094 107.276,235.778C110.08,229.907 109.232,221.7 103.774,216.012C102.74,214.935 101.638,213.995 100.467,213.193C108.538,209.423 119.05,206.402 119.05,206.402C145.089,198.589 150.319,193.621 150.319,184.313C150.319,173.794 140.947,168.535 125.074,168.535C105.567,168.535 89.025,172.671 76.593,177.93C70.378,180.559 65.214,183.022 61.102,185.316C54.792,188.95 50.584,190.624 47.332,190.624C43.317,190.624 41.691,187.946 37.866,179.723L36.718,177.285C31.375,165.833 21.076,158.38 9.254,158.351ZM221.461,50.488L227.199,40.592C206.92,28.761 184.246,26.072 162.797,30.838L165.379,42.026C182.284,37.945 203.351,40.077 221.461,50.488ZM180.44,157.347L188.472,149.027C159.015,120.357 123.612,115.431 84.195,133.68L89.072,144.007C123.756,127.87 154.591,131.975 180.44,157.347ZM99.829,77.454C109.966,77.454 117.903,67.605 117.903,55.939C117.903,44.082 109.774,34.28 99.829,34.28C89.886,34.28 81.757,44.082 81.757,55.939C81.757,67.797 89.886,77.454 99.829,77.454ZM190.194,101.838C200.329,101.838 208.265,91.989 208.265,80.323C208.265,68.466 200.137,58.664 190.194,58.664C180.249,58.664 172.121,68.466 172.121,80.323C172.121,92.181 180.249,101.838 190.194,101.838Z" style="fill:rgb(128,128,128);"/>
</svg>
