<?xml version="1.0" encoding="UTF-8" standalone="no"?>
<!DOCTYPE svg PUBLIC "-//W3C//DTD SVG 1.1//EN" "http://www.w3.org/Graphics/SVG/1.1/DTD/svg11.dtd">
<svg width="100%" height="100%" viewBox="0 0 284 284" version="1.1" xmlns="http://www.w3.org/2000/svg" xmlns:xlink="http://www.w3.org/1999/xlink" xml:space="preserve" xmlns:serif="http://www.serif.com/" style="fill-rule:evenodd;clip-rule:evenodd;stroke-linejoin:round;stroke-miterlimit:2;">
    <g transform="matrix(0.24,0,0,0.24,0,0)">
        <g transform="matrix(0.733386,0,0,0.733386,-171.357,104.812)">
            <path d="M834.487,1391.56C820.1,1403.04 802.583,1413.3 781.935,1422.34C753.966,1434.57 723.002,1443.94 689.04,1450.43C655.079,1456.92 620.368,1460.17 584.909,1460.17C489.517,1460.17 417.224,1434.82 368.03,1384.13C318.836,1333.44 294.239,1264.39 294.239,1176.99C294.239,1153.52 296.487,1131.17 300.982,1109.94C305.476,1088.71 307.724,1069.61 307.724,1052.63C307.724,1030.66 304.228,1010.55 297.236,992.325C290.244,974.096 282.752,956.74 274.761,940.259C266.771,923.778 259.903,907.546 254.16,891.564C248.416,875.583 245.545,859.351 245.545,842.87C245.545,815.9 254.035,793.925 271.016,776.945C274.952,773.008 279.238,769.528 283.872,766.504C281.778,753.22 279.99,739.845 278.507,726.377C275.511,699.158 274.012,671.565 274.012,643.596C274.012,535.719 294.114,434.709 334.319,340.566C374.523,246.423 430.334,163.642 501.753,92.224C566.756,27.221 641.172,-24.853 724.999,-63.998L724.999,-119.036C766.226,-119.036 804.433,-114.958 839.619,-106.803C907.518,-125.946 978.687,-135.517 1053.13,-135.517C1160.5,-135.517 1261.26,-115.415 1355.41,-75.211C1449.55,-35.007 1532.33,20.805 1603.75,92.224C1675.17,163.642 1731.11,246.423 1771.56,340.566C1812.01,434.709 1832.24,535.719 1832.24,643.596C1832.24,751.474 1812.01,852.484 1771.56,946.627C1731.11,1040.77 1675.17,1123.55 1603.75,1194.97C1532.33,1266.39 1449.55,1322.2 1355.41,1362.4C1261.26,1402.61 1160.5,1422.71 1053.13,1422.71C977.651,1422.71 904.771,1412.33 834.487,1391.56ZM341.825,751.474C372.637,751.549 400.725,760.539 426.089,778.443C451.56,796.423 471.288,820.395 485.272,850.361L491.265,863.097C501.254,884.572 509.37,899.43 515.612,907.671C521.855,915.912 530.221,920.032 540.709,920.032C549.199,920.032 559.188,917.785 570.675,913.29C582.162,908.795 596.146,901.803 612.627,892.314C634.103,880.327 661.072,867.467 693.535,853.732C725.998,839.998 763.58,828.386 806.282,818.897C848.983,809.408 895.805,804.663 946.747,804.663C988.2,804.663 1020.54,811.53 1043.76,825.265C1066.99,838.999 1078.6,859.601 1078.6,887.07C1078.6,903.551 1074.35,918.034 1065.86,930.52C1057.37,943.006 1041.39,954.743 1017.92,965.73C994.443,976.718 960.232,988.954 915.283,1002.44L897.303,1007.68C870.301,1015.83 843.943,1025.9 818.229,1037.91C824.344,1042.1 830.101,1047.01 835.499,1052.63C853.228,1071.11 862.093,1092.84 862.093,1117.81C862.093,1131.6 859.325,1144.28 853.789,1155.87C857.108,1160.63 860.126,1165.92 862.843,1171.75C869.835,1186.73 873.331,1201.96 873.331,1217.44C873.331,1236.49 868.407,1253.2 858.559,1267.57C868.407,1283.29 873.331,1301.54 873.331,1322.32C873.331,1328.37 872.647,1334.23 871.28,1339.92C930.037,1355.16 990.652,1362.78 1053.13,1362.78C1152.51,1362.78 1245.66,1344.17 1332.56,1306.97C1419.46,1269.76 1495.87,1218.19 1561.8,1152.27C1627.72,1086.34 1679.29,1009.93 1716.5,923.029C1753.7,836.127 1772.31,742.983 1772.31,643.596C1772.31,544.209 1753.7,451.065 1716.5,364.164C1679.29,277.263 1627.72,200.85 1561.8,134.925C1495.87,69 1419.46,17.434 1332.56,-19.774C1245.66,-56.982 1152.51,-75.586 1053.13,-75.586C1014.82,-75.586 977.448,-72.822 941,-67.296C975.372,-47.48 1008.75,-21.027 1041.14,12.065L999.187,54.017C957.735,12.564 915.907,-16.653 873.705,-33.633C863.358,-37.796 852.569,-41.449 841.336,-44.592C818.384,-37.527 795.836,-29.254 773.694,-19.774C686.793,17.434 610.38,69 544.455,134.925C478.53,200.85 426.963,277.263 389.756,364.164C352.548,451.065 333.944,544.209 333.944,643.596C333.944,679.818 336.571,715.778 341.825,751.474ZM766.248,1066.92C746.909,1079.7 726.167,1095.41 704.023,1114.06L673.308,1077.35C714.262,1040.39 751.969,1013.18 786.429,995.696C820.89,978.216 853.603,965.48 884.568,957.489L898.802,953.744C944.749,941.757 977.462,931.394 996.94,922.654C1016.42,913.914 1026.16,903.8 1026.16,892.314C1026.16,880.327 1019.54,871.462 1006.3,865.719C993.069,859.975 973.217,857.104 946.747,857.104C881.821,857.104 823.263,865.719 771.072,882.949C718.881,900.18 674.307,918.534 637.349,938.012C613.376,950.497 593.524,959.487 577.792,964.981C562.06,970.475 547.701,973.222 534.716,973.222C516.237,973.222 500.505,967.103 487.519,954.867C474.534,942.631 460.051,919.283 444.069,884.822L438.076,872.087C428.586,851.11 415.726,834.379 399.495,821.894C383.263,809.408 365.908,803.165 347.429,803.165C333.445,803.165 321.708,807.16 312.219,815.151C302.73,823.142 297.985,834.879 297.985,850.361C297.985,860.849 300.357,872.461 305.102,885.197C309.847,897.932 315.465,910.793 321.958,923.778C330.948,942.257 339.563,962.234 347.803,983.71C356.044,1005.19 360.164,1028.16 360.164,1052.63C360.164,1075.61 357.917,1096.58 353.422,1115.56C348.927,1134.54 346.68,1155.51 346.68,1178.49C346.68,1247.91 367.156,1303.47 408.11,1345.17C449.063,1386.88 507.996,1407.73 584.909,1407.73C619.869,1407.73 655.578,1403.73 692.037,1395.74C728.495,1387.75 759.086,1377.26 783.807,1364.28C808.529,1351.29 820.89,1337.31 820.89,1322.32C820.89,1316.33 820.391,1311.09 819.392,1306.59C819.048,1305.05 818.528,1303.41 817.829,1301.69C799.907,1310.87 777.704,1317.75 751.219,1322.32L744.477,1277.38C797.916,1266.89 824.636,1246.91 824.636,1217.44C824.636,1208.7 823.122,1200.91 820.094,1194.08C798.828,1208.93 770.376,1218.97 734.738,1224.19L727.247,1179.24C756.214,1174.74 777.814,1166.88 792.048,1155.64C806.282,1144.4 813.399,1131.79 813.399,1117.81C813.399,1104.32 808.779,1093.09 799.54,1084.1C791.535,1076.31 780.438,1070.58 766.248,1066.92ZM1450.17,188.115C1386.75,151.656 1320.82,133.427 1252.4,133.427C1234.92,133.427 1218.31,134.301 1202.58,136.049C1186.85,137.797 1171.74,140.419 1157.26,143.915L1143.77,85.481C1161.75,81.486 1179.73,78.489 1197.71,76.491C1215.69,74.494 1233.92,73.495 1252.4,73.495C1332.31,73.495 1408.22,94.471 1480.14,136.423L1450.17,188.115ZM814.897,328.954C788.927,328.954 766.702,317.967 748.223,295.992C729.744,274.017 720.504,247.547 720.504,216.582C720.504,185.617 729.744,159.023 748.223,136.798C766.702,114.573 788.927,103.461 814.897,103.461C840.868,103.461 863.092,114.573 881.571,136.798C900.05,159.023 909.29,185.617 909.29,216.582C909.29,247.047 900.175,273.393 881.946,295.617C863.717,317.842 841.367,328.954 814.897,328.954ZM1235.92,746.23C1154.51,666.321 1064.11,626.366 964.727,626.366C899.301,626.366 830.629,643.097 758.711,676.559L733.24,622.62C814.148,585.163 891.56,566.434 965.476,566.434C1080.35,566.434 1184.48,611.883 1277.87,702.779L1235.92,746.23ZM1286.86,456.309C1260.89,456.309 1238.66,445.322 1220.19,423.347C1201.71,401.372 1192.47,374.902 1192.47,343.937C1192.47,312.973 1201.71,286.378 1220.19,264.153C1238.66,241.928 1260.89,230.816 1286.86,230.816C1312.83,230.816 1335.06,241.928 1353.53,264.153C1372.01,286.378 1381.25,312.973 1381.25,343.937C1381.25,374.403 1372.14,400.748 1353.91,422.972C1335.68,445.197 1313.33,456.309 1286.86,456.309Z" style="fill:rgb(128,128,128);"/>
        </g>
    </g>
</svg>
