<?xml version="1.0" encoding="UTF-8" standalone="no"?>
<!DOCTYPE svg PUBLIC "-//W3C//DTD SVG 1.1//EN" "http://www.w3.org/Graphics/SVG/1.1/DTD/svg11.dtd">
<svg width="100%" height="100%" viewBox="0 0 284 284" version="1.1" xmlns="http://www.w3.org/2000/svg" xmlns:xlink="http://www.w3.org/1999/xlink" xml:space="preserve" xmlns:serif="http://www.serif.com/" style="fill-rule:evenodd;clip-rule:evenodd;stroke-linejoin:round;stroke-miterlimit:2;">
    <path d="M142,284C61.474,284 0,224.361 0,142C0,60.632 60.626,0 142,0C223.371,0 284,60.226 284,142C284,222.74 224.107,284 142,284ZM54.988,89.581C62.642,75.885 73.972,67.526 95.926,59.67L90.789,45.471C65.611,54.535 51.16,65.41 41.694,82.33L54.988,89.581ZM88.825,148.798C100.105,148.798 109.672,137.367 109.672,123.873C109.672,110.177 100.105,98.947 88.825,98.947C77.547,98.947 67.979,110.177 67.979,123.873C67.979,137.367 77.547,148.798 88.825,148.798ZM225.991,151.819L233.242,136.864C220.151,131.025 204.894,126.592 196.836,126.592L194.721,126.592C209.023,116.522 219.849,110.781 229.316,106.953L223.274,91.394C204.943,99.048 186.162,110.881 167.833,127.196L175.234,143.36C179.666,142.755 182.788,142.453 185.809,142.453C199.706,142.453 213.101,145.977 225.991,151.819ZM142,224.028C166.372,224.028 189.383,214.965 211.943,199.857L202.577,186.111C182.436,199.607 163.35,207.411 142,207.411C120.65,207.411 101.566,199.607 81.424,186.111L72.058,199.857C94.864,214.996 117.677,224.028 142,224.028Z" style="fill:rgb(128,128,128);"/>
</svg>
