<?xml version="1.0" encoding="UTF-8" standalone="no"?>
<!DOCTYPE svg PUBLIC "-//W3C//DTD SVG 1.1//EN" "http://www.w3.org/Graphics/SVG/1.1/DTD/svg11.dtd">
<svg width="100%" height="100%" viewBox="0 0 284 284" version="1.1" xmlns="http://www.w3.org/2000/svg" xmlns:xlink="http://www.w3.org/1999/xlink" xml:space="preserve" xmlns:serif="http://www.serif.com/" fill="#808080" style="fill-rule:evenodd;clip-rule:evenodd;stroke-linejoin:round;stroke-miterlimit:2;">
    <path d="M141.732,281.073C121.561,281.073 102.916,277.6 85.797,270.655C68.678,263.71 53.793,253.957 41.142,241.394C28.491,228.831 18.648,214.079 11.615,197.137C4.582,180.195 1.065,161.727 1.065,141.732C1.065,121.738 4.582,103.27 11.615,86.328C18.648,69.386 28.491,54.634 41.142,42.071C53.793,29.508 68.678,19.754 85.797,12.809C102.916,5.864 121.561,2.392 141.732,2.392C161.903,2.392 180.549,5.864 197.667,12.809C214.786,19.754 229.672,29.508 242.323,42.071C254.974,54.634 264.816,69.386 271.85,86.328C278.883,103.27 282.4,121.738 282.4,141.732C282.4,161.727 278.883,180.195 271.85,197.137C264.816,214.079 254.974,228.831 242.323,241.394C229.672,253.957 214.786,263.71 197.667,270.655C180.549,277.6 161.903,281.073 141.732,281.073ZM141.732,213.791C131.027,213.791 120.61,211.911 110.48,208.151C100.35,204.391 90.287,199.194 80.29,192.558L88.518,180.482C97.365,186.41 106.101,191.01 114.727,194.284C123.353,197.557 132.354,199.194 141.732,199.194C151.11,199.194 160.112,197.557 168.738,194.284C177.364,191.01 186.1,186.41 194.947,180.482L203.175,192.558C193.266,199.194 183.225,204.391 173.051,208.151C162.877,211.911 152.437,213.791 141.732,213.791ZM95.02,147.704C90.066,147.704 85.775,145.536 82.148,141.201C78.52,136.866 76.707,131.735 76.707,125.808C76.707,119.792 78.52,114.638 82.148,110.348C85.775,106.057 90.066,103.911 95.02,103.911C99.974,103.911 104.265,106.057 107.892,110.348C111.52,114.638 113.333,119.792 113.333,125.808C113.333,131.735 111.52,136.866 107.892,141.201C104.265,145.536 99.974,147.704 95.02,147.704ZM141.732,266.475C159.692,266.475 176.258,263.357 191.43,257.119C206.603,250.882 219.785,242.168 230.976,230.976C242.168,219.785 250.882,206.581 257.119,191.364C263.357,176.147 266.475,159.603 266.475,141.732C266.475,123.773 263.357,107.207 257.119,92.034C250.882,76.862 242.168,63.68 230.976,52.488C219.785,41.297 206.603,32.582 191.43,26.345C176.258,20.108 159.692,16.989 141.732,16.989C123.861,16.989 107.34,20.108 92.167,26.345C76.994,32.582 63.79,41.297 52.554,52.488C41.319,63.68 32.582,76.862 26.345,92.034C20.108,107.207 16.989,123.773 16.989,141.732C16.989,159.603 20.108,176.147 26.345,191.364C32.582,206.581 41.297,219.785 52.488,230.976C63.68,242.168 76.884,250.882 92.101,257.119C107.317,263.357 123.861,266.475 141.732,266.475ZM65.294,95.684L53.616,89.314C57.774,81.882 63.237,75.623 70.005,70.536C76.773,65.449 85.686,60.915 96.745,56.934L101.257,69.408C91.614,72.858 84.05,76.596 78.565,80.622C73.08,84.647 68.656,89.668 65.294,95.684ZM215.516,150.358C209.854,147.792 204.082,145.78 198.198,144.32C192.315,142.86 186.321,142.13 180.217,142.13C178.89,142.13 177.496,142.197 176.037,142.329C174.577,142.462 172.874,142.661 170.927,142.927L164.425,128.727C172.476,121.561 180.593,115.368 188.776,110.148C196.96,104.929 205.077,100.638 213.128,97.276L218.436,110.945C214.278,112.626 209.744,114.815 204.834,117.514C199.923,120.212 194.328,123.773 188.046,128.196L189.904,128.196C193.443,128.196 198.22,129.059 204.236,130.784C210.252,132.509 216.136,134.655 221.886,137.22L215.516,150.358Z" style="fill-rule:nonzero;"/>
</svg>
