<?xml version="1.0" encoding="UTF-8" standalone="no"?>
<!DOCTYPE svg PUBLIC "-//W3C//DTD SVG 1.1//EN" "http://www.w3.org/Graphics/SVG/1.1/DTD/svg11.dtd">
<svg width="100%" height="100%" viewBox="0 0 284 284" version="1.1" xmlns="http://www.w3.org/2000/svg" xmlns:xlink="http://www.w3.org/1999/xlink" xml:space="preserve" xmlns:serif="http://www.serif.com/" style="fill-rule:evenodd;clip-rule:evenodd;stroke-linejoin:round;stroke-miterlimit:2;">
    <path d="M141.732,282.747C59.777,282.747 -0.535,222.257 -0.535,141.732C-0.535,60.821 60.389,0.718 141.732,0.718C223.687,0.718 284,61.211 284,141.732C284,222.647 223.075,282.747 141.732,282.747ZM141.732,273.305C217.652,273.305 274.558,217.253 274.558,141.732C274.558,66.578 218.224,10.16 141.732,10.16C65.812,10.16 8.907,66.215 8.907,141.732C8.907,216.889 65.24,273.305 141.732,273.305ZM141.732,259.52C74.936,259.52 23.944,210.05 23.944,141.732C23.944,74.238 74.233,23.944 141.732,23.944C209.229,23.944 259.52,73.901 259.52,141.732C259.52,208.705 209.839,259.52 141.732,259.52ZM69.556,98.251C75.905,86.89 85.303,79.956 103.514,73.44L99.253,61.662C78.368,69.18 66.381,78.201 58.529,92.236L69.556,98.251ZM97.624,147.371C106.98,147.371 114.916,137.889 114.916,126.696C114.916,115.335 106.98,106.02 97.624,106.02C88.269,106.02 80.332,115.335 80.332,126.696C80.332,137.889 88.269,147.371 97.624,147.371ZM211.402,149.877L217.417,137.472C206.558,132.628 193.902,128.951 187.218,128.951L185.464,128.951C197.327,120.598 206.307,115.836 214.16,112.661L209.148,99.755C193.943,106.104 178.364,115.919 163.16,129.452L169.299,142.86C172.976,142.358 175.565,142.108 178.071,142.108C189.599,142.108 200.71,145.031 211.402,149.877ZM141.732,209.774C161.948,209.774 181.036,202.256 199.749,189.724L191.98,178.322C175.273,189.517 159.442,195.99 141.732,195.99C124.022,195.99 108.192,189.517 91.485,178.322L83.716,189.724C102.633,202.282 121.556,209.774 141.732,209.774Z" style="fill:rgb(128,128,128);"/>
</svg>
