<?xml version="1.0" encoding="UTF-8" standalone="no"?>
<!DOCTYPE svg PUBLIC "-//W3C//DTD SVG 1.1//EN" "http://www.w3.org/Graphics/SVG/1.1/DTD/svg11.dtd">
<svg width="100%" height="100%" viewBox="0 0 284 284" version="1.1" xmlns="http://www.w3.org/2000/svg" xmlns:xlink="http://www.w3.org/1999/xlink" xml:space="preserve" xmlns:serif="http://www.serif.com/" style="fill-rule:evenodd;clip-rule:evenodd;stroke-linejoin:round;stroke-miterlimit:2;">
    <path d="M141.732,281.073C60.724,281.073 1.065,221.327 1.065,141.732C1.065,61.756 61.329,2.392 141.732,2.392C222.74,2.392 282.4,62.141 282.4,141.732C282.4,221.712 222.135,281.073 141.732,281.073ZM141.732,213.791C120.365,213.791 100.324,205.857 80.29,192.558L88.518,180.482C106.212,192.338 122.976,199.194 141.732,199.194C160.488,199.194 177.253,192.338 194.947,180.482L203.175,192.558C183.357,205.83 163.142,213.791 141.732,213.791ZM95.02,147.704C85.112,147.704 76.707,137.662 76.707,125.808C76.707,113.776 85.112,103.911 95.02,103.911C104.928,103.911 113.333,113.776 113.333,125.808C113.333,137.662 104.928,147.704 95.02,147.704ZM141.732,266.475C213.861,266.475 266.475,212.66 266.475,141.732C266.475,69.896 213.215,16.989 141.732,16.989C70.248,16.989 16.989,70.253 16.989,141.732C16.989,214.084 70.993,266.475 141.732,266.475ZM65.294,95.684L53.616,89.314C61.932,74.45 74.627,64.896 96.745,56.934L101.257,69.408C81.971,76.308 72.018,83.652 65.294,95.684ZM215.516,150.358C204.192,145.226 192.425,142.13 180.217,142.13C177.563,142.13 174.821,142.395 170.927,142.927L164.425,128.727C180.527,114.395 197.026,104 213.128,97.276L218.436,110.945C210.12,114.307 200.61,119.35 188.046,128.196L189.904,128.196C196.982,128.196 210.386,132.09 221.886,137.22L215.516,150.358Z" style="fill:rgb(128,128,128);fill-rule:nonzero;"/>
</svg>
